<svg width="132" height="128" viewBox="0 0 132 128" fill="none" xmlns="http://www.w3.org/2000/svg">
<rect y="13.0039" width="95" height="94" rx="18" fill="#B0DAE2"/>
<path fill-rule="evenodd" clip-rule="evenodd" d="M49.2041 32.043C48.5677 32.043 47.9574 32.2901 47.5074 32.7299C47.0574 33.1697 46.8046 33.7662 46.8046 34.3882V37.9061C46.8046 38.5281 47.0574 39.1246 47.5074 39.5645C47.9574 40.0043 48.5677 40.2514 49.2041 40.2514C49.8405 40.2514 50.4509 40.0043 50.9009 39.5645C51.3509 39.1246 51.6037 38.5281 51.6037 37.9061V34.3882C51.6037 33.7662 51.3509 33.1697 50.9009 32.7299C50.4509 32.2901 49.8405 32.043 49.2041 32.043ZM28.8078 56.6682C28.1714 56.6682 27.5611 56.4211 27.1111 55.9813C26.6611 55.5415 26.4083 54.9449 26.4083 54.3229C26.4083 53.7009 26.6611 53.1044 27.1111 52.6646C27.5611 52.2248 28.1714 51.9777 28.8078 51.9777H32.4072C33.0436 51.9777 33.6539 52.2248 34.1039 52.6646C34.5539 53.1044 34.8067 53.7009 34.8067 54.3229C34.8067 54.9449 34.5539 55.5415 34.1039 55.9813C33.6539 56.4211 33.0436 56.6682 32.4072 56.6682H28.8078ZM69.6004 56.6682C70.2368 56.6682 70.8472 56.4211 71.2972 55.9813C71.7472 55.5415 72 54.9449 72 54.3229C72 53.7009 71.7472 53.1044 71.2972 52.6646C70.8472 52.2248 70.2368 51.9777 69.6004 51.9777H66.0011C65.3647 51.9777 64.7543 52.2248 64.3043 52.6646C63.8543 53.1044 63.6015 53.7009 63.6015 54.3229C63.6015 54.9449 63.8543 55.5415 64.3043 55.9813C64.7543 56.4211 65.3647 56.6682 66.0011 56.6682H69.6004ZM33.0839 41.8872C32.6339 41.4473 32.3812 40.8507 32.3813 40.2287C32.3814 39.6067 32.6344 39.0102 33.0845 38.5704C33.5346 38.1307 34.145 37.8837 34.7814 37.8838C35.4178 37.8839 36.0281 38.1311 36.478 38.571L39.0228 41.057C39.2457 41.2747 39.4226 41.5332 39.5433 41.8178C39.664 42.1024 39.7262 42.4074 39.7263 42.7154C39.7265 43.0235 39.6645 43.3285 39.544 43.6132C39.4235 43.8978 39.2468 44.1564 39.024 44.3743C38.8012 44.5922 38.5367 44.7651 38.2455 44.8831C37.9544 45.0011 37.6423 45.0619 37.3271 45.062C37.012 45.0621 36.6998 45.0015 36.4086 44.8837C36.1174 44.766 35.8527 44.5933 35.6298 44.3755L33.0839 41.8872ZM65.322 38.571C65.7719 39.0108 66.0246 39.6072 66.0246 40.2291C66.0246 40.851 65.7719 41.4474 65.322 41.8872L62.7761 44.3743C62.5547 44.5983 62.2899 44.777 61.9972 44.8999C61.7044 45.0228 61.3896 45.0875 61.0709 45.0902C60.7523 45.0929 60.4364 45.0336 60.1415 44.9157C59.8466 44.7978 59.5786 44.6236 59.3533 44.4034C59.128 44.1832 58.9499 43.9214 58.8292 43.6331C58.7086 43.3449 58.6479 43.0361 58.6506 42.7247C58.6534 42.4133 58.7196 42.1055 58.8453 41.8194C58.9711 41.5333 59.1539 41.2745 59.3831 41.0581L61.9278 38.571C62.1507 38.3531 62.4152 38.1803 62.7064 38.0624C62.9976 37.9444 63.3097 37.8838 63.6249 37.8838C63.9401 37.8838 64.2522 37.9444 64.5434 38.0624C64.8346 38.1803 65.0992 38.3531 65.322 38.571ZM48.663 43.2299C49.0153 42.9152 49.481 42.7501 49.9578 42.771C50.4346 42.7919 50.8833 42.997 51.2054 43.3413L51.209 43.3448L51.2126 43.3495L51.2246 43.3612L51.2606 43.4011L51.3805 43.5383C51.4845 43.6555 51.6317 43.8302 51.8221 44.0624C52.2048 44.5315 52.7639 45.2444 53.4994 46.2599C54.9691 48.2886 57.1491 51.5262 60.0334 56.4102C62.9188 61.293 64.6969 64.7558 65.7599 67.0166C66.1539 67.8454 66.5236 68.6849 66.8685 69.5343C66.9757 69.8008 67.0773 70.0694 67.1733 70.3399L67.1901 70.3903L67.1961 70.4067L67.1985 70.4149V70.4173C67.3368 70.8577 67.2929 71.3335 67.0761 71.7426C66.8593 72.1517 66.487 72.4613 66.0391 72.6049C65.5912 72.7485 65.1036 72.7146 64.681 72.5106C64.2584 72.3065 63.9345 71.9486 63.7791 71.5137C62.2854 72.0038 60.7676 72.487 59.2415 72.9595C58.764 71.8228 58.2612 70.6964 57.7334 69.5812C56.2553 66.4673 54.6351 63.4197 52.8779 60.4476C51.1237 57.4743 49.2342 54.5793 47.2149 51.7713C46.4911 50.7682 45.7451 49.7806 44.9773 48.8092C46.1591 47.7539 47.3457 46.7102 48.5275 45.6912C48.2155 45.3454 48.055 44.8938 48.0803 44.4334C48.1057 43.9731 48.3149 43.5409 48.663 43.2299ZM55.6338 73.6361C55.6882 73.7604 55.7414 73.8847 55.7933 74.009C53.3458 74.7419 50.9102 75.4443 48.5563 76.1034L48.8886 77.3135C49.4314 79.2935 49.1473 81.4032 48.0987 83.1784C47.0501 84.9536 45.3228 86.249 43.297 86.7796C41.2712 87.3101 39.1127 87.0324 37.2963 86.0075C35.48 84.9826 34.1546 83.2945 33.6118 81.3145L33.2926 80.1513C32.1168 80.4444 31.109 80.6942 30.3052 80.89C28.3267 81.3731 26.1719 80.7212 24.9025 79.0349C24.4466 78.4275 23.9367 77.7099 23.5264 77.0133C23.1183 76.3084 22.7498 75.5822 22.4226 74.8381C21.5635 72.9208 22.0627 70.7702 23.4808 69.3373C26.6122 66.1712 34.1493 58.6476 42.3222 51.2037L42.5705 51.5203C42.9725 52.0386 43.5568 52.8079 44.273 53.7999C46.2298 56.5211 48.0609 59.3264 49.7608 62.2077C51.4637 65.0871 53.0338 68.0396 54.4664 71.0564C54.9883 72.1586 55.3782 73.0381 55.635 73.6361H55.6338ZM37.937 78.9669L38.2477 80.0997C38.3533 80.485 38.5355 80.8463 38.7839 81.1629C39.0323 81.4794 39.3421 81.745 39.6955 81.9446C40.049 82.1441 40.4392 82.2736 40.8439 82.3258C41.2485 82.378 41.6597 82.3517 42.054 82.2485C42.4483 82.1453 42.818 81.9673 43.1418 81.7245C43.4657 81.4817 43.7375 81.1789 43.9416 80.8335C44.1458 80.488 44.2783 80.1067 44.3317 79.7111C44.3851 79.3156 44.3582 78.9137 44.2526 78.5283L43.9371 77.3768C41.7931 77.9573 39.7714 78.4908 37.937 78.9669Z" fill="#003D49"/>
</svg>
