<svg width="300" height="210" viewBox="0 0 300 210" fill="none" xmlns="http://www.w3.org/2000/svg">
<path d="M227.053 141.297H139.949V93.8022H227.053V141.297ZM140.481 140.796H226.521V94.303H140.481V140.796Z" fill="#CCCCCC"/>
<path d="M209.082 119.127H151.613V120.714H209.082V119.127Z" fill="#F5F7F9"/>
<path d="M213.041 125.046H151.613V126.779H213.041V125.046Z" fill="#F5F7F9"/>
<path d="M213.041 131.036H151.613V132.769H213.041V131.036Z" fill="#F5F7F9"/>
<path d="M171.698 110.529H151.613V114.65H171.698V110.529Z" fill="#F5F7F9"/>
<path d="M226.787 94.0532H140.23V101.615H226.787V94.0532Z" fill="#CCCCCC"/>
<path d="M220.127 100.483C220.015 100.383 221.131 99.1157 222.614 97.6534C224.097 96.1911 225.399 95.0844 225.505 95.1795C225.612 95.2747 224.501 96.5467 223.018 98.014C221.535 99.4813 220.233 100.583 220.127 100.483Z" fill="white"/>
<path d="M225.515 100.483C225.409 100.583 224.112 99.4814 222.624 98.0141C221.136 96.5468 220.025 95.2798 220.137 95.1797C220.248 95.0795 221.54 96.1812 223.028 97.6536C224.516 99.1259 225.616 100.383 225.515 100.483Z" fill="white"/>
<path d="M119.869 0H33.3125V46.9989H119.869V0Z" fill="#CCCCCC"/>
<path d="M102.172 25.0791H44.7031V26.6666H102.172V25.0791Z" fill="#F5F7F9"/>
<path d="M106.131 30.9985H44.7031V32.7313H106.131V30.9985Z" fill="#F5F7F9"/>
<path d="M106.131 36.9878H44.7031V38.7205H106.131V36.9878Z" fill="#F5F7F9"/>
<path d="M64.7876 16.4814H44.7031V20.6029H64.7876V16.4814Z" fill="#F5F7F9"/>
<path d="M119.869 0H33.3125V7.5619H119.869V0Z" fill="#CCCCCC"/>
<path d="M112.918 6.39545C112.806 6.3003 113.922 5.0283 115.405 3.566C116.888 2.1037 118.19 0.996959 118.296 1.09712C118.403 1.19727 117.292 2.46427 115.809 3.92657C114.326 5.38887 113.024 6.48559 112.918 6.39545Z" fill="white"/>
<path d="M118.296 6.39548C118.19 6.49563 116.893 5.3939 115.405 3.92659C113.917 2.45928 112.806 1.1973 112.918 1.09714C113.029 0.996984 114.321 2.09872 115.809 3.56602C117.297 5.03333 118.408 6.30033 118.296 6.39548Z" fill="white"/>
<path d="M87.0875 87.3073H0V39.8076H87.0875V87.3073ZM0.531475 86.8066H86.556V40.3084H0.531475V86.8066Z" fill="#CCCCCC"/>
<path d="M69.1227 65.1377H11.6543V66.7252H69.1227V65.1377Z" fill="#F5F7F9"/>
<path d="M73.0822 71.0566H11.6543V72.7894H73.0822V71.0566Z" fill="#F5F7F9"/>
<path d="M73.0822 77.0459H11.6543V78.7786H73.0822V77.0459Z" fill="#F5F7F9"/>
<path d="M31.7387 56.5391H11.6543V60.6605H31.7387V56.5391Z" fill="#F5F7F9"/>
<path d="M86.8217 40.0581H0.265625V47.62H86.8217V40.0581Z" fill="#CCCCCC"/>
<path d="M187.595 98.1899H85.3926V184.406H187.595V98.1899Z" fill="#CCCCCC"/>
<path d="M90.5321 71.0322H10.4707V149.411H90.5321V71.0322Z" fill="#F5F7F9"/>
<path d="M90.5321 71.0322H10.4707V79.5707H90.5321V71.0322Z" fill="#CCCCCC"/>
<path d="M17.0819 75.2136C17.0673 75.5233 16.9566 75.822 16.7634 76.0729C16.5702 76.3238 16.3031 76.5156 15.9952 76.6247C15.6874 76.7338 15.3523 76.7553 15.0315 76.6866C14.7108 76.6178 14.4186 76.4619 14.1911 76.238C13.9636 76.0142 13.8108 75.7323 13.7518 75.4274C13.6928 75.1225 13.7302 74.8079 13.8592 74.5228C13.9882 74.2377 14.2032 73.9946 14.4776 73.8236C14.7519 73.6526 15.0735 73.5613 15.4024 73.561C15.8573 73.5715 16.2892 73.7513 16.6039 74.0609C16.9186 74.3706 17.0904 74.785 17.0819 75.2136Z" fill="white"/>
<path d="M23.8994 75.2136C23.8858 75.5247 23.7755 75.8252 23.5821 76.0777C23.3887 76.3301 23.1208 76.5234 22.8117 76.6335C22.5026 76.7436 22.1659 76.7656 21.8437 76.6968C21.5214 76.628 21.2277 76.4714 20.9992 76.2465C20.7706 76.0216 20.6173 75.7384 20.5583 75.432C20.4993 75.1256 20.5372 74.8097 20.6673 74.5235C20.7974 74.2373 21.014 73.9934 21.2901 73.8223C21.5661 73.6512 21.8895 73.5603 22.2199 73.561C22.6748 73.5715 23.1067 73.7513 23.4214 74.0609C23.7361 74.3706 23.9079 74.785 23.8994 75.2136Z" fill="white"/>
<path d="M30.7197 75.2136C30.7061 75.5247 30.5958 75.8252 30.4024 76.0777C30.209 76.3301 29.9411 76.5234 29.632 76.6335C29.3229 76.7436 28.9862 76.7656 28.664 76.6968C28.3417 76.628 28.048 76.4714 27.8195 76.2465C27.591 76.0216 27.4376 75.7384 27.3786 75.432C27.3196 75.1256 27.3575 74.8097 27.4877 74.5235C27.6178 74.2373 27.8343 73.9934 28.1104 73.8223C28.3864 73.6512 28.7098 73.5603 29.0402 73.561C29.4951 73.5715 29.9271 73.7513 30.2417 74.0609C30.5564 74.3706 30.7283 74.785 30.7197 75.2136Z" fill="white"/>
<path d="M215.619 17.1421H113.416V113.123H215.619V17.1421Z" fill="#F5F7F9"/>
<path d="M215.619 17.1421H113.416V28.3848H215.619V17.1421Z" fill="#CCCCCC"/>
<path d="M122.122 22.6506C122.103 23.0593 121.957 23.4538 121.703 23.7852C121.448 24.1166 121.096 24.3701 120.69 24.5145C120.283 24.6588 119.841 24.6875 119.418 24.597C118.994 24.5066 118.608 24.3009 118.308 24.0056C118.007 23.7102 117.806 23.3383 117.728 22.9358C117.649 22.5334 117.699 22.1182 117.869 21.7419C118.039 21.3655 118.323 21.0445 118.685 20.8188C119.047 20.5931 119.471 20.4725 119.906 20.4722C120.506 20.4853 121.076 20.7219 121.491 21.1302C121.906 21.5384 122.133 22.0851 122.122 22.6506Z" fill="white"/>
<path d="M130.45 21.1791C130.745 21.4806 130.939 21.8571 131.008 22.2618C131.077 22.6664 131.018 23.0813 130.839 23.4547C130.66 23.8281 130.368 24.1435 129.999 24.3616C129.631 24.5798 129.203 24.691 128.768 24.6814C128.333 24.6719 127.911 24.5419 127.554 24.3079C127.197 24.0738 126.921 23.7459 126.76 23.365C126.6 22.9841 126.561 22.5671 126.651 22.166C126.74 21.7648 126.952 21.3972 127.261 21.109C127.694 20.7206 128.273 20.5099 128.871 20.523C129.469 20.5362 130.037 20.7721 130.45 21.1791Z" fill="white"/>
<path d="M140.075 22.6506C140.056 23.0593 139.91 23.4538 139.656 23.7852C139.401 24.1166 139.049 24.3701 138.643 24.5145C138.236 24.6588 137.794 24.6875 137.371 24.597C136.947 24.5066 136.561 24.3009 136.261 24.0056C135.96 23.7102 135.759 23.3383 135.681 22.9358C135.603 22.5334 135.652 22.1182 135.822 21.7419C135.992 21.3655 136.276 21.0445 136.638 20.8188C137 20.5931 137.425 20.4725 137.859 20.4722C138.459 20.4853 139.029 20.7219 139.444 21.1302C139.86 21.5384 140.086 22.0851 140.075 22.6506Z" fill="white"/>
<path d="M193.543 209.87C193.543 209.94 156.637 210 111.127 210C65.6169 210 28.6953 209.94 28.6953 209.87C28.6953 209.8 65.5956 209.74 111.127 209.74C156.659 209.74 193.543 209.805 193.543 209.87Z" fill="#002F39"/>
<path d="M157.583 148.563C149.371 143.16 147.511 133.129 147.835 124.11C147.888 122.608 147.713 121.015 148.473 119.698C149.233 118.381 151.008 117.475 152.438 118.106C153.623 118.631 154.139 119.933 154.803 121.01C155.689 122.444 156.988 123.613 158.55 124.38C159.565 124.881 160.825 125.182 161.829 124.661C163.211 123.945 163.37 122.157 163.36 120.655C163.36 117.86 163.342 115.069 163.307 112.281C163.211 110.784 163.373 109.283 163.785 107.834C164.279 106.412 165.379 105.095 166.883 104.694C168.387 104.294 170.264 105.12 170.604 106.582C170.662 107.202 170.678 107.824 170.652 108.445C170.694 109.071 171.002 109.757 171.624 109.948C172.246 110.138 172.894 109.702 173.373 109.262C175.01 107.759 176.126 105.801 177.162 103.868C178.198 101.935 179.214 99.947 180.702 98.2994C182.19 96.6518 184.247 95.3447 186.548 95.2195C188.849 95.0944 191.246 96.4264 191.82 98.5298C192.394 100.633 191.092 102.781 189.694 104.489C187.585 107.024 185.099 109.259 182.312 111.125C181.768 111.404 181.334 111.842 181.074 112.372C180.728 113.373 181.733 114.375 182.78 114.69C183.965 115.061 185.251 114.946 186.5 115.086C187.749 115.226 189.078 115.737 189.551 116.839C190.199 118.371 188.839 119.973 187.505 121.025C184.826 123.128 181.784 124.783 178.512 125.918C177.343 126.318 176.115 126.674 175.169 127.445C174.223 128.216 173.66 129.564 174.228 130.62C174.797 131.677 176.259 132.012 177.486 131.797C178.714 131.582 179.804 130.961 180.973 130.545C183.157 129.769 185.974 129.909 187.35 131.687C187.777 132.299 188.047 132.997 188.139 133.724C188.231 134.451 188.143 135.189 187.882 135.879C187.35 137.251 186.531 138.51 185.474 139.579C181.993 143.498 177.471 146.476 172.368 148.208C167.303 149.861 162.61 150.311 157.577 148.573" fill="#0087A2"/>
<path d="M189.483 96.457C189.483 96.457 189.435 96.5071 189.329 96.5973L188.856 96.9929C188.442 97.3434 187.83 97.8542 187.06 98.5303C184.875 100.442 182.846 102.506 180.99 104.705C179.805 106.092 178.577 107.665 177.27 109.372C175.962 111.08 174.613 112.923 173.273 114.881C171.845 116.946 170.538 119.082 169.356 121.281C168.74 122.428 168.198 123.625 167.64 124.847L165.992 128.578C163.82 133.277 161.929 138.087 160.326 142.985C159.036 146.993 158.146 151.106 157.669 155.27C157.36 158.08 157.31 160.91 157.52 163.728C157.605 164.729 157.685 165.496 157.759 166.016C157.791 166.267 157.813 166.467 157.834 166.612V166.818C157.811 166.753 157.795 166.686 157.786 166.617C157.759 166.472 157.728 166.277 157.685 166.026C157.589 165.526 157.488 164.734 157.393 163.733C157.136 160.909 157.154 158.07 157.446 155.25C157.893 151.068 158.764 146.936 160.045 142.91C161.634 137.998 163.52 133.176 165.694 128.467L167.384 124.752C167.943 123.535 168.49 122.328 169.112 121.176C170.301 118.971 171.62 116.829 173.061 114.761C174.421 112.758 175.792 110.945 177.084 109.252C178.375 107.559 179.624 105.977 180.804 104.595C182.679 102.402 184.735 100.352 186.953 98.4652C187.74 97.7991 188.367 97.2984 188.792 96.9628L189.287 96.5872C189.347 96.5375 189.413 96.4939 189.483 96.457Z" fill="#002F39"/>
<path d="M169.181 121.166C169.106 120.959 169.054 120.746 169.026 120.53C168.941 120.114 168.846 119.528 168.734 118.767C168.506 117.265 168.272 115.206 168.022 112.928C167.772 110.649 167.49 108.586 167.257 107.099C167.134 106.357 167.028 105.762 166.954 105.346C166.896 105.133 166.865 104.914 166.863 104.695C166.955 104.895 167.021 105.106 167.06 105.321C167.177 105.731 167.31 106.322 167.459 107.069C167.761 108.571 168.059 110.614 168.309 112.898C168.559 115.181 168.771 117.184 168.936 118.742C169.016 119.443 169.085 120.039 169.138 120.515C169.179 120.729 169.194 120.948 169.181 121.166Z" fill="#002F39"/>
<path d="M189.631 117.57C189.372 117.623 189.109 117.653 188.844 117.66C188.313 117.705 187.558 117.765 186.623 117.865C184.752 118.055 182.179 118.406 179.357 118.907C176.535 119.407 174 119.973 172.177 120.409C171.268 120.629 170.535 120.83 170.051 120.965C169.793 121.051 169.526 121.112 169.254 121.145C169.5 121.029 169.756 120.933 170.019 120.86C170.519 120.694 171.242 120.464 172.145 120.219C173.957 119.718 176.493 119.122 179.325 118.611C181.725 118.179 184.146 117.861 186.58 117.66C187.521 117.585 188.281 117.555 188.812 117.545C189.085 117.527 189.359 117.535 189.631 117.57Z" fill="#002F39"/>
<path d="M160.304 142.559C160.247 142.487 160.2 142.408 160.165 142.324L159.815 141.628C159.512 141.022 159.102 140.126 158.613 139.029C157.625 136.825 156.365 133.741 155.026 130.315C153.687 126.89 152.454 123.805 151.518 121.576C151.061 120.495 150.684 119.608 150.402 118.947L150.105 118.231C150.063 118.149 150.035 118.061 150.02 117.971C150.076 118.043 150.123 118.122 150.158 118.206L150.508 118.902C150.806 119.508 151.221 120.405 151.71 121.501C152.698 123.705 153.958 126.79 155.297 130.215C156.636 133.64 157.869 136.725 158.805 138.954C159.262 140.035 159.639 140.922 159.916 141.583C160.038 141.868 160.139 142.084 160.219 142.299C160.26 142.382 160.288 142.469 160.304 142.559Z" fill="#002F39"/>
<path d="M187.452 134.311C187.367 134.357 187.276 134.392 187.181 134.416L186.394 134.667L183.487 135.553C181.032 136.304 177.641 137.376 173.921 138.558C170.2 139.74 166.793 140.791 164.322 141.492C163.089 141.848 162.085 142.118 161.388 142.299L160.586 142.494C160.492 142.522 160.396 142.54 160.299 142.549C160.384 142.503 160.475 142.468 160.57 142.444L161.356 142.193L164.264 141.307C166.719 140.556 170.11 139.484 173.83 138.302C177.551 137.12 180.952 136.069 183.423 135.368C184.662 135.012 185.661 134.742 186.362 134.561L187.165 134.366C187.258 134.338 187.354 134.32 187.452 134.311Z" fill="#002F39"/>
<path d="M176.376 12.8347L173.639 13.7561L172.465 10.3858C170.307 4.17104 163.43 0.870846 157.11 2.96915C150.791 5.06745 147.427 11.8832 149.585 18.0979L150.759 21.4682L148.012 22.3947C146.964 22.7776 146.113 23.5263 145.636 24.4851C145.159 25.4438 145.092 26.539 145.45 27.5428L153.066 49.4723C153.224 49.9692 153.486 50.4312 153.838 50.8306C154.189 51.2301 154.622 51.559 155.111 51.7977C155.6 52.0364 156.134 52.1801 156.683 52.2202C157.232 52.2604 157.784 52.1961 158.306 52.0313L186.671 42.4713C187.733 42.089 188.596 41.3337 189.078 40.3643C189.561 39.3948 189.626 38.2867 189.259 37.2731L181.638 15.3436C181.476 14.8481 181.209 14.3884 180.854 13.992C180.5 13.5956 180.064 13.2706 179.573 13.0365C179.081 12.8023 178.545 12.6638 177.996 12.6291C177.447 12.5944 176.896 12.6643 176.376 12.8347ZM154.756 16.3402C154.174 14.7242 154.279 12.9589 155.047 11.4139C155.816 9.86887 157.19 8.66416 158.88 8.05214C159.715 7.78304 160.599 7.67512 161.479 7.73484C162.359 7.79456 163.217 8.02068 164.002 8.39973C164.787 8.77877 165.483 9.30296 166.049 9.94103C166.614 10.5791 167.038 11.318 167.293 12.1135L168.463 15.4838L155.925 19.7105L154.756 16.3402ZM170.7 35.8008L172.645 41.3996C172.681 41.5119 172.67 41.6328 172.613 41.7372C172.557 41.8417 172.46 41.9216 172.342 41.9605L169.616 42.8769C169.508 42.9053 169.392 42.893 169.292 42.8425C169.193 42.7921 169.119 42.7075 169.085 42.6065L167.123 37.0327C166.042 36.9772 165.004 36.6117 164.15 35.9853C163.295 35.3588 162.663 34.5011 162.34 33.5272C161.878 32.2397 161.962 30.8335 162.575 29.6032C163.189 28.3729 164.283 27.4139 165.63 26.9268C166.295 26.7128 166.999 26.627 167.7 26.6747C168.401 26.7224 169.084 26.9026 169.709 27.2045C170.335 27.5064 170.889 27.9238 171.34 28.4319C171.79 28.94 172.128 29.5284 172.332 30.1619C172.674 31.1513 172.702 32.2131 172.413 33.2173C172.124 34.2216 171.531 35.1246 170.706 35.8158L170.7 35.8008Z" fill="#13AE94"/>
<path d="M173.517 13.6966C173.517 13.7667 168.441 15.5645 162.127 17.7029C155.813 19.8413 150.663 21.559 150.637 21.5089C150.61 21.4588 155.712 19.646 162.032 17.5026C168.351 15.3592 173.49 13.6315 173.517 13.6966Z" fill="#002F39"/>
<path d="M179.543 14.6182C179.567 14.6616 179.586 14.7069 179.602 14.7534C179.644 14.8535 179.692 14.9837 179.756 15.144C179.894 15.5096 180.086 16.0154 180.325 16.6464L182.366 22.2452C183.216 24.6189 184.231 27.4333 185.358 30.5582C185.889 32.1257 186.516 33.7583 187.101 35.476C187.414 36.3611 187.549 37.2935 187.5 38.2253C187.455 38.7099 187.308 39.1813 187.069 39.6125C186.814 40.0422 186.473 40.4214 186.065 40.7292C185.243 41.294 184.332 41.7318 183.365 42.0263L180.628 42.9527L175.446 44.7005L166.671 47.6451L160.745 49.6082L159.151 50.109L158.726 50.2392C158.68 50.2582 158.632 50.2701 158.582 50.2743C158.582 50.2743 158.625 50.2743 158.715 50.2142L159.129 50.0589L160.724 49.493L166.618 47.4498L175.377 44.4451L180.548 42.6823L183.285 41.7508C184.225 41.4684 185.11 41.0439 185.905 40.4939C186.285 40.2082 186.602 39.8562 186.841 39.4572C187.066 39.0585 187.201 38.6204 187.239 38.1702C187.288 37.2724 187.158 36.3739 186.857 35.521C186.283 33.8184 185.677 32.1708 185.129 30.6033C184.024 27.4734 183.003 24.6489 182.195 22.2752C181.388 19.9015 180.707 17.9935 180.24 16.6514C180.016 15.9953 179.846 15.4845 179.708 15.1139L179.581 14.7133C179.565 14.683 179.552 14.6511 179.543 14.6182Z" fill="#002F39"/>
<path d="M164.577 7.71199C164.577 7.71199 164.295 7.58179 163.774 7.38147C163.032 7.11268 162.246 6.9637 161.452 6.94078C160.273 6.9027 159.101 7.11137 158.018 7.55174C156.702 8.10009 155.576 8.98703 154.771 10.1108C153.96 11.2313 153.525 12.5555 153.522 13.9117C153.533 15.0234 153.712 16.1278 154.053 17.1919C154.33 18.1033 154.617 18.8295 154.808 19.3353C154.921 19.5922 155.013 19.8567 155.084 20.1265C154.933 19.8863 154.807 19.6331 154.707 19.3703C154.489 18.8695 154.176 18.1584 153.867 17.242C153.489 16.1667 153.283 15.0443 153.256 13.9117C153.242 12.5042 153.687 11.1266 154.532 9.96554C155.365 8.80076 156.537 7.88639 157.907 7.33139C159.023 6.88861 160.232 6.69329 161.441 6.76049C162.253 6.79949 163.051 6.97768 163.795 7.28632C163.994 7.37283 164.186 7.47327 164.369 7.58679C164.445 7.61809 164.515 7.66033 164.577 7.71199Z" fill="#002F39"/>
<path d="M164.822 27.308C164.907 27.2595 164.995 27.2177 165.087 27.1828C165.353 27.0697 165.629 26.9775 165.911 26.9073C166.359 26.7828 166.821 26.7088 167.288 26.687C167.922 26.6549 168.557 26.7452 169.153 26.9524C170.514 27.4031 171.763 28.7102 172.379 30.4579C172.675 31.3959 172.675 32.3945 172.379 33.3325C172.051 34.3504 171.464 35.2772 170.668 36.0317L170.7 35.8965C171.407 37.7244 172.177 39.7075 172.975 41.7757L173.022 41.9009L172.889 41.946L171.672 42.3266L169.015 43.1629L168.882 43.203L168.84 43.0778C168.112 41.0045 167.314 39.0715 166.714 37.1735L166.831 37.2586C165.792 37.1773 164.801 36.8098 163.982 36.202C163.241 35.6642 162.633 34.9806 162.202 34.1988C161.812 33.5055 161.618 32.7295 161.638 31.9453C161.663 31.1437 161.875 30.3572 162.26 29.6421C162.645 28.927 163.193 28.3009 163.865 27.8088C164.142 27.5972 164.452 27.4282 164.784 27.308C164.484 27.4758 164.193 27.658 163.913 27.8538C163.175 28.4422 162.609 29.1992 162.271 30.0523C161.98 30.6956 161.844 31.3916 161.872 32.0904C161.901 32.7891 162.093 33.4732 162.435 34.0937C162.86 34.8457 163.453 35.5019 164.173 36.0167C164.955 36.5945 165.899 36.9428 166.889 37.0183H166.979L167.006 37.0934C167.591 38.9563 168.393 40.9044 169.132 42.9876L168.957 42.9075L171.614 42.0712L172.826 41.6856L172.741 41.8559C171.949 39.7876 171.183 37.7995 170.482 35.9716V35.8965L170.546 35.8364C171.318 35.1132 171.894 34.2251 172.225 33.2473C172.507 32.3501 172.507 31.3952 172.225 30.498C171.646 28.8153 170.45 27.5383 169.153 27.0876C168.579 26.8791 167.966 26.782 167.352 26.8022C166.892 26.8121 166.436 26.8709 165.991 26.9775C165.199 27.1627 164.827 27.333 164.822 27.308Z" fill="#002F39"/>
<path d="M148.392 171.905L95.3034 171.675C92.2376 171.659 89.3037 170.497 87.1463 168.444C84.9889 166.392 83.7843 163.616 83.797 160.728L84.3603 35.3252C84.3666 33.894 84.6722 32.478 85.2595 31.1581C85.8469 29.8382 86.7046 28.6403 87.7836 27.6329C88.8626 26.6256 90.1417 25.8284 91.5478 25.2871C92.9539 24.7458 94.4595 24.4709 95.9784 24.4782L149.062 24.7085C152.128 24.7231 155.062 25.8837 157.221 27.9353C159.379 29.9869 160.585 32.7619 160.574 35.6507L160.011 161.048C160.004 162.48 159.699 163.896 159.111 165.217C158.524 166.537 157.667 167.736 156.588 168.744C155.509 169.752 154.23 170.55 152.824 171.092C151.418 171.635 149.912 171.911 148.392 171.905Z" fill="#005161"/>
<path d="M148.981 29.02H138.692C138.356 29.0259 138.025 29.094 137.717 29.2205C137.409 29.347 137.131 29.5294 136.898 29.7573C136.665 29.9852 136.482 30.254 136.36 30.5486C136.237 30.8431 136.177 31.1575 136.183 31.4739V33.2316C136.19 33.5477 136.13 33.8619 136.007 34.1562C135.884 34.4504 135.701 34.719 135.468 34.9464C135.235 35.1739 134.957 35.3558 134.649 35.4818C134.341 35.6078 134.01 35.6753 133.675 35.6805L113.617 35.5954C112.938 35.5783 112.295 35.3082 111.827 34.8444C111.36 34.3805 111.107 33.7609 111.124 33.1215V31.3637C111.141 30.7252 110.889 30.1062 110.423 29.6425C109.957 29.1788 109.315 28.9082 108.637 28.8898H105.018L96.0092 28.8497C93.8665 28.8377 91.806 29.6262 90.279 31.0426C88.7519 32.4589 87.8827 34.3877 87.8616 36.4066L87.3302 158.809C87.3253 159.811 87.5298 160.803 87.932 161.731C88.3343 162.658 88.9264 163.501 89.6746 164.213C90.4228 164.924 91.3124 165.49 92.2926 165.877C93.2728 166.265 94.3244 166.467 95.3873 166.471L148.365 166.702C149.428 166.706 150.483 166.513 151.467 166.134C152.452 165.755 153.347 165.197 154.103 164.491C154.859 163.786 155.459 162.947 155.871 162.023C156.282 161.098 156.497 160.107 156.502 159.105L157.033 36.7021C157.046 34.6775 156.205 32.731 154.695 31.2904C153.185 29.8499 151.13 29.0333 148.981 29.02Z" fill="white"/>
<path d="M141.855 150.371L102.462 150.211C102.053 150.211 101.723 149.79 101.729 149.279L101.771 139.569C101.771 139.068 102.106 138.638 102.515 138.638L141.908 138.808C142.135 138.845 142.338 138.963 142.474 139.137C142.611 139.312 142.671 139.529 142.642 139.744L142.604 149.445C142.604 149.961 142.264 150.376 141.855 150.371Z" fill="#13AE94"/>
<path d="M109.069 147.663C108.646 147.663 108.239 147.595 107.849 147.459C107.464 147.318 107.166 147.139 106.954 146.923L107.19 146.459C107.391 146.654 107.659 146.82 107.995 146.955C108.337 147.085 108.695 147.15 109.069 147.15C109.426 147.15 109.716 147.107 109.939 147.02C110.166 146.928 110.332 146.806 110.435 146.654C110.543 146.502 110.597 146.334 110.597 146.15C110.597 145.928 110.532 145.749 110.402 145.613C110.277 145.478 110.112 145.372 109.906 145.296C109.7 145.215 109.472 145.145 109.223 145.085C108.974 145.025 108.724 144.963 108.475 144.898C108.226 144.827 107.995 144.735 107.784 144.621C107.578 144.508 107.41 144.359 107.28 144.174C107.155 143.985 107.093 143.738 107.093 143.434C107.093 143.152 107.166 142.895 107.312 142.662C107.464 142.423 107.694 142.234 108.003 142.093C108.312 141.946 108.708 141.873 109.191 141.873C109.51 141.873 109.827 141.919 110.142 142.011C110.456 142.098 110.727 142.22 110.955 142.377L110.752 142.857C110.508 142.694 110.248 142.575 109.971 142.499C109.7 142.423 109.437 142.385 109.182 142.385C108.841 142.385 108.559 142.431 108.337 142.524C108.114 142.616 107.949 142.74 107.841 142.898C107.738 143.049 107.686 143.223 107.686 143.418C107.686 143.64 107.749 143.819 107.873 143.955C108.003 144.09 108.171 144.196 108.377 144.272C108.589 144.348 108.819 144.415 109.069 144.475C109.318 144.535 109.565 144.6 109.809 144.67C110.058 144.741 110.286 144.833 110.492 144.947C110.703 145.055 110.871 145.201 110.996 145.386C111.126 145.57 111.191 145.811 111.191 146.109C111.191 146.386 111.115 146.643 110.963 146.882C110.811 147.115 110.578 147.305 110.264 147.451C109.955 147.592 109.556 147.663 109.069 147.663ZM112.38 147.614V143.345H112.957V147.614H112.38ZM112.673 142.402C112.553 142.402 112.453 142.361 112.372 142.28C112.29 142.198 112.25 142.101 112.25 141.987C112.25 141.873 112.29 141.778 112.372 141.702C112.453 141.621 112.553 141.58 112.673 141.58C112.792 141.58 112.892 141.618 112.973 141.694C113.055 141.77 113.095 141.865 113.095 141.979C113.095 142.098 113.055 142.198 112.973 142.28C112.898 142.361 112.797 142.402 112.673 142.402ZM116.385 149.232C115.995 149.232 115.621 149.175 115.263 149.061C114.905 148.947 114.615 148.785 114.393 148.573L114.686 148.134C114.886 148.313 115.133 148.454 115.426 148.557C115.724 148.665 116.038 148.72 116.369 148.72C116.911 148.72 117.309 148.592 117.564 148.337C117.819 148.088 117.946 147.698 117.946 147.167V146.101L118.028 145.37L117.971 144.638V143.345H118.524V147.093C118.524 147.831 118.342 148.37 117.979 148.711C117.621 149.058 117.09 149.232 116.385 149.232ZM116.279 147.451C115.873 147.451 115.507 147.364 115.182 147.191C114.856 147.012 114.599 146.765 114.409 146.451C114.225 146.137 114.133 145.776 114.133 145.37C114.133 144.963 114.225 144.605 114.409 144.296C114.599 143.982 114.856 143.738 115.182 143.564C115.507 143.391 115.873 143.304 116.279 143.304C116.659 143.304 117 143.383 117.304 143.54C117.607 143.697 117.849 143.93 118.028 144.239C118.206 144.548 118.296 144.925 118.296 145.37C118.296 145.814 118.206 146.191 118.028 146.5C117.849 146.809 117.607 147.045 117.304 147.207C117 147.37 116.659 147.451 116.279 147.451ZM116.336 146.939C116.651 146.939 116.93 146.874 117.174 146.744C117.418 146.608 117.61 146.424 117.751 146.191C117.892 145.952 117.962 145.679 117.962 145.37C117.962 145.061 117.892 144.79 117.751 144.556C117.61 144.323 117.418 144.142 117.174 144.012C116.93 143.876 116.651 143.808 116.336 143.808C116.027 143.808 115.748 143.876 115.499 144.012C115.255 144.142 115.062 144.323 114.921 144.556C114.786 144.79 114.718 145.061 114.718 145.37C114.718 145.679 114.786 145.952 114.921 146.191C115.062 146.424 115.255 146.608 115.499 146.744C115.748 146.874 116.027 146.939 116.336 146.939ZM122.309 143.304C122.656 143.304 122.96 143.372 123.22 143.507C123.486 143.638 123.692 143.838 123.838 144.109C123.99 144.38 124.066 144.722 124.066 145.134V147.614H123.488V145.191C123.488 144.741 123.374 144.402 123.147 144.174C122.924 143.941 122.61 143.825 122.204 143.825C121.9 143.825 121.634 143.887 121.407 144.012C121.184 144.131 121.011 144.307 120.886 144.54C120.767 144.768 120.707 145.044 120.707 145.37V147.614H120.13V143.345H120.683V144.516L120.594 144.296C120.729 143.987 120.946 143.746 121.244 143.573C121.542 143.394 121.897 143.304 122.309 143.304ZM130.168 147.663C129.442 147.663 128.87 147.454 128.452 147.036C128.035 146.619 127.826 146.001 127.826 145.183V141.922H128.428V145.158C128.428 145.83 128.58 146.326 128.883 146.646C129.187 146.966 129.615 147.126 130.168 147.126C130.726 147.126 131.157 146.966 131.461 146.646C131.765 146.326 131.916 145.83 131.916 145.158V141.922H132.502V145.183C132.502 146.001 132.293 146.619 131.876 147.036C131.464 147.454 130.895 147.663 130.168 147.663ZM134.315 147.614V141.922H136.445C136.928 141.922 137.343 142 137.689 142.158C138.036 142.309 138.302 142.532 138.486 142.824C138.676 143.112 138.771 143.461 138.771 143.873C138.771 144.275 138.676 144.621 138.486 144.914C138.302 145.201 138.036 145.424 137.689 145.581C137.343 145.738 136.928 145.817 136.445 145.817H134.648L134.917 145.532V147.614H134.315ZM134.917 145.581L134.648 145.288H136.429C136.998 145.288 137.429 145.166 137.722 144.922C138.02 144.673 138.169 144.323 138.169 143.873C138.169 143.418 138.02 143.066 137.722 142.816C137.429 142.567 136.998 142.442 136.429 142.442H134.648L134.917 142.158V145.581Z" fill="#BFBFBF"/>
<path d="M110.32 65.0023L96.6504 64.9438L96.639 67.3075L110.308 67.366L110.32 65.0023Z" fill="#0087A2"/>
<path d="M150.391 79.5144C150.498 79.5042 150.603 79.4806 150.704 79.4443C150.851 79.3901 150.979 79.2979 151.073 79.1783C151.167 79.0587 151.223 78.9166 151.236 78.7682C151.236 77.972 151.236 76.8101 151.236 75.3178C151.236 74.5716 151.236 73.7353 151.236 72.8138C151.236 72.5885 151.236 72.3531 151.236 72.1177C151.27 71.8894 151.218 71.6568 151.087 71.4617C151.014 71.3682 150.918 71.2919 150.809 71.2389C150.699 71.1859 150.578 71.1576 150.454 71.1562H149.625H141.945L97.4929 71.001C97.3791 70.9992 97.2665 71.0233 97.1648 71.0712C97.063 71.1192 96.975 71.1896 96.9083 71.2764C96.7799 71.4723 96.7308 71.7052 96.7701 71.9325C96.7701 72.4332 96.7701 72.934 96.7701 73.4348C96.7701 74.4364 96.7701 75.438 96.7701 76.4395C96.7701 76.9403 96.7701 77.4411 96.7701 77.9419C96.748 78.1751 96.748 78.4098 96.7701 78.643C96.798 78.743 96.8499 78.8356 96.9218 78.9138C96.9936 78.9919 97.0835 79.0535 97.1846 79.0937C97.2893 79.133 97.4015 79.1517 97.5141 79.1488H100.219L112.023 79.2089L132.007 79.3241L145.48 79.4242L149.142 79.4643H150.093C150.311 79.4643 150.417 79.4643 150.417 79.4643H150.093H149.142H145.48H132.007L112.023 79.4042L100.219 79.3591H97.5141C97.3653 79.3648 97.2168 79.3409 97.0783 79.289C96.9384 79.2328 96.8139 79.1471 96.7145 79.0386C96.615 78.9301 96.5431 78.8017 96.5043 78.663C96.4736 78.5316 96.4628 78.3967 96.4724 78.2624V77.8918C96.4724 77.391 96.4724 76.8903 96.4724 76.3895C96.4724 75.3879 96.4724 74.3863 96.4724 73.3847C96.4724 72.8839 96.4724 72.3832 96.4724 71.8824C96.4623 71.749 96.4623 71.6151 96.4724 71.4817C96.4924 71.3344 96.5528 71.1946 96.6478 71.0761C96.7395 70.9552 96.8609 70.857 97.0015 70.7899C97.1422 70.7227 97.298 70.6886 97.4557 70.6905L141.908 70.9209L149.588 70.9709H150.417C150.563 70.971 150.707 71.0043 150.837 71.068C150.966 71.1316 151.078 71.2237 151.161 71.3365C151.311 71.5542 151.372 71.816 151.331 72.0727C151.331 72.308 151.331 72.5434 151.331 72.7688C151.331 73.6802 151.331 74.5165 151.331 75.2727C151.331 76.7751 151.294 77.9269 151.283 78.7281C151.27 78.8822 151.211 79.0296 151.112 79.1529C151.013 79.2762 150.879 79.3703 150.725 79.4242C150.625 79.483 150.509 79.5142 150.391 79.5144Z" fill="#CCCCCC"/>
<path d="M125.756 73.5151H100.756V75.7236H125.756V73.5151Z" fill="#0087A2"/>
<path opacity="0.2" d="M261.606 63.4487H236.605V65.6572H261.606V63.4487Z" fill="white"/>
<path d="M110.226 86.5658L96.5566 86.5073L96.5453 88.871L110.215 88.9295L110.226 86.5658Z" fill="#0087A2"/>
<path opacity="0.1" d="M268.201 56.5218L254.531 56.4634L254.52 58.8271L268.189 58.8855L268.201 56.5218Z" fill="black"/>
<path d="M150.045 101.078C150.152 101.066 150.259 101.048 150.364 101.023C150.512 100.979 150.649 100.905 150.765 100.806C150.88 100.708 150.972 100.587 151.034 100.452C151.117 100.25 151.15 100.032 151.129 99.8164C151.129 99.576 151.129 99.3156 151.129 99.0251C151.129 98.4442 151.129 97.7832 151.129 97.022V93.842C151.155 93.6118 151.101 93.3799 150.975 93.1809C150.844 92.9768 150.638 92.8253 150.396 92.7553C150.131 92.7108 149.862 92.6973 149.593 92.7152H141.945L97.647 92.56C97.4087 92.5605 97.1787 92.6425 96.9998 92.7908C96.821 92.9391 96.7053 93.1436 96.6744 93.3662C96.6744 93.842 96.6744 94.3678 96.6744 94.8686C96.6744 95.8702 96.6744 96.8717 96.6744 97.8733C96.6744 98.3741 96.6744 98.8749 96.6744 99.3757C96.6546 99.6097 96.6653 99.8452 96.7063 100.077C96.7726 100.28 96.9092 100.456 97.0942 100.578C97.2906 100.695 97.5212 100.751 97.7533 100.738H98.492H100.028L111.79 100.793L131.704 100.908L145.129 101.008L148.78 101.048H145.129H131.704L111.779 101.028L100.017 100.988H97.7054C97.418 101.004 97.1327 100.932 96.8923 100.783C96.6505 100.625 96.474 100.393 96.3927 100.127C96.3451 99.8724 96.3308 99.6134 96.3502 99.3557C96.3502 98.8549 96.3502 98.3541 96.3502 97.8533C96.3502 96.8517 96.3502 95.8501 96.3502 94.8486C96.3502 94.3478 96.3502 93.847 96.3502 93.3462C96.389 93.0598 96.5372 92.7966 96.7671 92.6058C96.997 92.415 97.2928 92.3097 97.5992 92.3096L141.898 92.5399L149.546 92.595C149.83 92.5786 150.116 92.5971 150.396 92.6501C150.672 92.7351 150.905 92.9135 151.05 93.1509C151.187 93.3715 151.247 93.6275 151.22 93.882C151.22 94.1174 151.22 94.3478 151.22 94.5781C151.22 95.4846 151.22 96.3159 151.22 97.0821C151.22 97.8483 151.22 98.4943 151.22 99.0852C151.22 99.3707 151.22 99.6361 151.22 99.8815C151.239 100.105 151.201 100.33 151.108 100.538C151.039 100.676 150.939 100.798 150.815 100.897C150.692 100.995 150.547 101.067 150.391 101.108C150.274 101.117 150.158 101.107 150.045 101.078Z" fill="#CCCCCC"/>
<path d="M110.124 109.066L96.4551 109.007L96.4437 111.371L110.113 111.429L110.124 109.066Z" fill="#0087A2"/>
<path opacity="0.1" d="M283.646 87.3729L269.977 87.3145L269.965 89.6782L283.635 89.7366L283.646 87.3729Z" fill="black"/>
<path opacity="0.1" d="M281.79 75.1493L268.121 75.0908L268.11 77.4545L281.779 77.513L281.79 75.1493Z" fill="black"/>
<path d="M149.939 123.569C150.046 123.557 150.153 123.539 150.258 123.514C150.405 123.47 150.541 123.397 150.657 123.299C150.772 123.201 150.865 123.082 150.927 122.948C151.011 122.746 151.043 122.528 151.023 122.312C151.023 122.067 151.023 121.811 151.023 121.516C151.023 120.94 151.023 120.274 151.023 119.513V116.333C151.048 116.103 150.994 115.871 150.869 115.672C150.735 115.471 150.529 115.322 150.289 115.251C150.025 115.205 149.755 115.19 149.487 115.206H141.839L97.5406 115.051C97.3023 115.051 97.0723 115.133 96.8934 115.282C96.7145 115.43 96.5989 115.634 96.568 115.857C96.568 116.358 96.568 116.859 96.568 117.359C96.568 118.361 96.568 119.363 96.568 120.364C96.568 120.865 96.568 121.366 96.568 121.867C96.5482 122.099 96.5589 122.333 96.5998 122.563C96.6635 122.767 96.8007 122.944 96.9878 123.063C97.1829 123.183 97.4145 123.24 97.6469 123.224H99.9588L111.72 123.284L131.635 123.399L145.06 123.499L148.711 123.539H145.06H131.635L111.72 123.484L99.9588 123.439H97.6469C97.3592 123.457 97.0731 123.385 96.8337 123.234C96.5919 123.076 96.4154 122.844 96.3341 122.578C96.2865 122.323 96.2722 122.064 96.2916 121.806C96.2916 121.306 96.2916 120.805 96.2916 120.304C96.2916 119.303 96.2916 118.301 96.2916 117.299C96.2916 116.799 96.2916 116.298 96.2916 115.772C96.3292 115.486 96.4763 115.223 96.7053 115.032C96.9343 114.841 97.2295 114.736 97.5352 114.735L141.834 114.966L149.482 115.021C149.766 115.004 150.052 115.023 150.332 115.076C150.608 115.161 150.841 115.339 150.986 115.577C151.123 115.797 151.183 116.053 151.156 116.308C151.156 116.543 151.156 116.779 151.156 117.004C151.156 117.91 151.156 118.742 151.156 119.508C151.156 120.274 151.156 120.92 151.156 121.511C151.156 121.796 151.156 122.062 151.156 122.307C151.176 122.531 151.138 122.757 151.044 122.963C150.975 123.101 150.875 123.224 150.752 123.323C150.628 123.421 150.483 123.493 150.327 123.534C150.202 123.574 150.069 123.586 149.939 123.569Z" fill="#CCCCCC"/>
<path d="M125.223 95.7036L100.223 95.5967L100.212 97.8051L125.212 97.912L125.223 95.7036Z" fill="#0087A2"/>
<path d="M102.484 119.483C102.468 119.685 102.39 119.877 102.259 120.037C102.128 120.197 101.95 120.317 101.748 120.383C101.545 120.449 101.326 120.457 101.119 120.407C100.911 120.356 100.724 120.25 100.58 120.1C100.436 119.95 100.342 119.764 100.31 119.564C100.277 119.365 100.307 119.16 100.397 118.977C100.486 118.793 100.631 118.639 100.813 118.532C100.995 118.425 101.206 118.371 101.421 118.376C101.717 118.392 101.994 118.517 102.193 118.724C102.392 118.931 102.497 119.204 102.484 119.483Z" fill="#0087A2"/>
<path d="M105.869 119.498C105.879 119.639 105.859 119.78 105.808 119.914C105.758 120.047 105.68 120.169 105.577 120.273C105.475 120.376 105.351 120.459 105.213 120.515C105.075 120.572 104.927 120.601 104.776 120.601C104.626 120.601 104.478 120.572 104.34 120.515C104.202 120.459 104.078 120.376 103.976 120.273C103.873 120.169 103.795 120.047 103.744 119.914C103.694 119.78 103.674 119.639 103.684 119.498C103.674 119.356 103.694 119.215 103.744 119.081C103.795 118.948 103.873 118.826 103.976 118.722C104.078 118.619 104.202 118.536 104.34 118.48C104.478 118.423 104.626 118.394 104.776 118.394C104.927 118.394 105.075 118.423 105.213 118.48C105.351 118.536 105.475 118.619 105.577 118.722C105.68 118.826 105.758 118.948 105.808 119.081C105.859 119.215 105.879 119.356 105.869 119.498Z" fill="#0087A2"/>
<path d="M109.259 119.512C109.243 119.714 109.165 119.906 109.034 120.066C108.904 120.227 108.726 120.347 108.523 120.412C108.32 120.478 108.102 120.486 107.894 120.436C107.686 120.386 107.499 120.279 107.355 120.129C107.211 119.979 107.117 119.793 107.085 119.593C107.052 119.394 107.083 119.19 107.172 119.006C107.262 118.823 107.407 118.668 107.589 118.561C107.771 118.454 107.982 118.4 108.196 118.406C108.492 118.422 108.768 118.548 108.967 118.755C109.166 118.962 109.271 119.234 109.259 119.512Z" fill="#0087A2"/>
<path d="M112.646 119.528C112.63 119.729 112.552 119.922 112.421 120.082C112.29 120.242 112.113 120.362 111.91 120.428C111.707 120.493 111.488 120.501 111.281 120.451C111.073 120.401 110.886 120.294 110.742 120.144C110.598 119.995 110.504 119.808 110.472 119.609C110.439 119.409 110.47 119.205 110.559 119.021C110.649 118.838 110.793 118.683 110.975 118.576C111.157 118.469 111.368 118.415 111.583 118.421C111.878 118.438 112.155 118.563 112.354 118.77C112.553 118.977 112.657 119.249 112.646 119.528Z" fill="#0087A2"/>
<path d="M116.031 119.537C116.016 119.739 115.939 119.932 115.809 120.093C115.678 120.254 115.501 120.375 115.298 120.441C115.096 120.507 114.877 120.516 114.669 120.466C114.461 120.417 114.273 120.31 114.128 120.161C113.984 120.011 113.89 119.825 113.857 119.625C113.824 119.425 113.854 119.221 113.943 119.037C114.033 118.853 114.178 118.698 114.36 118.591C114.542 118.484 114.753 118.43 114.968 118.435C115.263 118.452 115.539 118.577 115.737 118.783C115.936 118.988 116.041 119.259 116.031 119.537Z" fill="#0087A2"/>
<path d="M119.422 119.553C119.407 119.754 119.331 119.946 119.202 120.106C119.073 120.266 118.897 120.388 118.695 120.455C118.494 120.522 118.277 120.533 118.069 120.485C117.862 120.437 117.674 120.333 117.528 120.186C117.383 120.039 117.286 119.855 117.25 119.657C117.214 119.458 117.24 119.254 117.326 119.07C117.411 118.886 117.552 118.729 117.731 118.619C117.91 118.509 118.119 118.451 118.332 118.451C118.631 118.462 118.914 118.583 119.118 118.79C119.323 118.996 119.432 119.271 119.422 119.553Z" fill="#0087A2"/>
<path d="M122.808 119.567C122.819 119.709 122.798 119.85 122.748 119.984C122.698 120.117 122.619 120.239 122.517 120.343C122.414 120.446 122.29 120.529 122.152 120.585C122.015 120.642 121.866 120.671 121.716 120.671C121.566 120.671 121.417 120.642 121.279 120.585C121.142 120.529 121.018 120.446 120.915 120.343C120.813 120.239 120.734 120.117 120.684 119.984C120.634 119.85 120.613 119.709 120.624 119.567C120.613 119.426 120.634 119.284 120.684 119.151C120.734 119.018 120.813 118.895 120.915 118.792C121.018 118.688 121.142 118.606 121.279 118.549C121.417 118.493 121.566 118.464 121.716 118.464C121.866 118.464 122.015 118.493 122.152 118.549C122.29 118.606 122.414 118.688 122.517 118.792C122.619 118.895 122.698 119.018 122.748 119.151C122.798 119.284 122.819 119.426 122.808 119.567Z" fill="#0087A2"/>
<path d="M126.193 119.583C126.178 119.783 126.102 119.976 125.973 120.136C125.844 120.296 125.668 120.418 125.467 120.485C125.266 120.552 125.048 120.562 124.841 120.515C124.633 120.467 124.445 120.363 124.3 120.216C124.154 120.069 124.057 119.885 124.022 119.686C123.986 119.488 124.012 119.284 124.097 119.1C124.183 118.915 124.323 118.759 124.502 118.649C124.681 118.539 124.89 118.48 125.103 118.481C125.403 118.491 125.686 118.613 125.89 118.82C126.094 119.026 126.203 119.301 126.193 119.583Z" fill="#0087A2"/>
<path d="M129.576 119.598C129.561 119.799 129.484 119.993 129.354 120.153C129.223 120.314 129.046 120.435 128.843 120.502C128.64 120.568 128.422 120.577 128.214 120.527C128.006 120.477 127.818 120.371 127.673 120.221C127.529 120.072 127.435 119.885 127.402 119.685C127.369 119.486 127.399 119.281 127.488 119.097C127.578 118.913 127.723 118.758 127.905 118.652C128.087 118.545 128.298 118.491 128.513 118.496C128.807 118.513 129.084 118.637 129.282 118.843C129.481 119.049 129.586 119.32 129.576 119.598Z" fill="#0087A2"/>
<g opacity="0.2">
<path d="M260.413 147.796C260.398 147.997 260.32 148.19 260.189 148.35C260.058 148.51 259.88 148.63 259.677 148.696C259.475 148.761 259.256 148.77 259.048 148.719C258.841 148.669 258.653 148.562 258.51 148.412C258.366 148.263 258.272 148.076 258.239 147.877C258.207 147.677 258.237 147.473 258.327 147.289C258.416 147.106 258.561 146.951 258.743 146.844C258.925 146.738 259.136 146.683 259.35 146.689C259.646 146.704 259.924 146.829 260.123 147.036C260.322 147.244 260.426 147.516 260.413 147.796Z" fill="white"/>
<path d="M263.8 147.811C263.811 147.953 263.79 148.094 263.74 148.228C263.69 148.361 263.611 148.483 263.509 148.587C263.406 148.69 263.282 148.773 263.145 148.829C263.007 148.886 262.858 148.915 262.708 148.915C262.558 148.915 262.409 148.886 262.272 148.829C262.134 148.773 262.01 148.69 261.907 148.587C261.805 148.483 261.726 148.361 261.676 148.228C261.626 148.094 261.605 147.953 261.616 147.811C261.605 147.67 261.626 147.529 261.676 147.395C261.726 147.262 261.805 147.14 261.907 147.036C262.01 146.933 262.134 146.85 262.272 146.794C262.409 146.737 262.558 146.708 262.708 146.708C262.858 146.708 263.007 146.737 263.145 146.794C263.282 146.85 263.406 146.933 263.509 147.036C263.611 147.14 263.69 147.262 263.74 147.395C263.79 147.529 263.811 147.67 263.8 147.811Z" fill="white"/>
<path d="M267.189 147.826C267.173 148.027 267.095 148.22 266.964 148.38C266.833 148.54 266.655 148.66 266.453 148.726C266.25 148.792 266.031 148.8 265.824 148.749C265.616 148.699 265.429 148.592 265.285 148.443C265.141 148.293 265.047 148.107 265.015 147.907C264.982 147.707 265.012 147.503 265.102 147.32C265.192 147.136 265.336 146.981 265.518 146.875C265.7 146.768 265.911 146.714 266.126 146.719C266.421 146.736 266.698 146.861 266.897 147.068C267.096 147.275 267.2 147.547 267.189 147.826Z" fill="white"/>
<path d="M270.573 147.841C270.558 148.042 270.48 148.235 270.349 148.395C270.218 148.555 270.04 148.675 269.838 148.741C269.635 148.806 269.416 148.814 269.209 148.764C269.001 148.714 268.814 148.607 268.67 148.457C268.526 148.307 268.432 148.121 268.399 147.922C268.367 147.722 268.397 147.518 268.487 147.334C268.576 147.151 268.721 146.996 268.903 146.889C269.085 146.782 269.296 146.728 269.511 146.734C269.806 146.751 270.083 146.876 270.282 147.083C270.48 147.29 270.585 147.562 270.573 147.841Z" fill="white"/>
<path d="M273.961 147.85C273.946 148.052 273.869 148.245 273.738 148.406C273.608 148.567 273.431 148.688 273.228 148.754C273.025 148.82 272.806 148.829 272.598 148.779C272.39 148.73 272.203 148.623 272.058 148.474C271.914 148.324 271.819 148.138 271.786 147.938C271.753 147.738 271.784 147.534 271.873 147.35C271.962 147.166 272.107 147.011 272.289 146.904C272.472 146.797 272.683 146.743 272.898 146.748C273.192 146.765 273.468 146.89 273.667 147.096C273.865 147.301 273.971 147.572 273.961 147.85Z" fill="white"/>
<path d="M277.351 147.866C277.337 148.067 277.26 148.259 277.131 148.419C277.002 148.579 276.826 148.701 276.625 148.768C276.424 148.835 276.206 148.846 275.999 148.798C275.791 148.75 275.603 148.646 275.458 148.499C275.312 148.352 275.216 148.168 275.18 147.97C275.144 147.771 275.17 147.567 275.256 147.383C275.341 147.199 275.482 147.042 275.66 146.932C275.839 146.822 276.048 146.764 276.262 146.764C276.561 146.775 276.844 146.896 277.048 147.103C277.252 147.309 277.361 147.584 277.351 147.866Z" fill="white"/>
<path d="M280.736 147.881C280.746 148.022 280.726 148.164 280.676 148.297C280.626 148.43 280.547 148.553 280.444 148.656C280.342 148.76 280.218 148.842 280.08 148.899C279.942 148.955 279.794 148.984 279.644 148.984C279.493 148.984 279.345 148.955 279.207 148.899C279.069 148.842 278.945 148.76 278.843 148.656C278.741 148.553 278.662 148.43 278.612 148.297C278.562 148.164 278.541 148.022 278.551 147.881C278.541 147.74 278.562 147.598 278.612 147.465C278.662 147.331 278.741 147.209 278.843 147.105C278.945 147.002 279.069 146.919 279.207 146.863C279.345 146.806 279.493 146.777 279.644 146.777C279.794 146.777 279.942 146.806 280.08 146.863C280.218 146.919 280.342 147.002 280.444 147.105C280.547 147.209 280.626 147.331 280.676 147.465C280.726 147.598 280.746 147.74 280.736 147.881Z" fill="white"/>
<path d="M284.123 147.896C284.108 148.097 284.032 148.289 283.903 148.449C283.774 148.61 283.598 148.731 283.397 148.798C283.195 148.866 282.978 148.876 282.77 148.828C282.563 148.78 282.375 148.676 282.229 148.529C282.084 148.382 281.987 148.198 281.951 148C281.915 147.802 281.942 147.598 282.027 147.413C282.112 147.229 282.253 147.072 282.432 146.962C282.611 146.852 282.82 146.794 283.033 146.794C283.333 146.805 283.615 146.927 283.819 147.133C284.024 147.34 284.133 147.614 284.123 147.896Z" fill="white"/>
<path d="M287.507 147.911C287.493 148.112 287.416 148.306 287.285 148.466C287.155 148.627 286.978 148.748 286.775 148.815C286.572 148.881 286.353 148.89 286.145 148.84C285.937 148.79 285.749 148.684 285.605 148.534C285.461 148.385 285.366 148.198 285.333 147.998C285.3 147.799 285.33 147.594 285.42 147.41C285.509 147.226 285.654 147.071 285.836 146.965C286.018 146.858 286.23 146.804 286.444 146.809C286.739 146.826 287.015 146.95 287.214 147.156C287.412 147.362 287.518 147.633 287.507 147.911Z" fill="white"/>
</g>
<path d="M124.769 47.3041C125.138 47.1509 125.451 46.8988 125.67 46.5791C125.888 46.2595 126.002 45.8864 125.997 45.5063C126.01 45.2592 125.971 45.012 125.88 44.7799C125.789 44.5478 125.649 44.3355 125.468 44.156C125.287 43.9765 125.07 43.8336 124.828 43.7359C124.587 43.6383 124.327 43.5879 124.065 43.5879C123.802 43.5879 123.542 43.6383 123.301 43.7359C123.06 43.8336 122.842 43.9765 122.661 44.156C122.481 44.3355 122.34 44.5478 122.25 44.7799C122.159 45.012 122.119 45.2592 122.133 45.5063C122.125 45.8902 122.237 46.2677 122.457 46.5913C122.676 46.9148 122.993 47.1698 123.366 47.3241C120.389 47.7448 120.522 50.7896 120.522 50.7896L127.559 50.8196C127.559 50.8196 127.724 47.7197 124.769 47.3041Z" fill="#0087A2"/>
<path d="M136.203 52.783L111.123 52.6758L111.109 55.5002L136.189 55.6074L136.203 52.783Z" fill="#0087A2"/>
<path opacity="0.2" d="M300 60.6453L274.92 60.5381L274.906 63.3625L299.986 63.4697L300 60.6453Z" fill="white"/>
<path d="M44.0004 67.4214H43.7506L43.0278 67.4715C42.6366 67.4936 42.2476 67.5422 41.8639 67.6167C41.6153 67.6496 41.3687 67.6948 41.1251 67.7519L40.3013 67.9673C38.8992 68.3726 37.5763 68.9899 36.3843 69.7952C34.8095 70.8722 33.4945 72.2513 32.5258 73.8415C31.9565 74.7582 31.5034 75.7348 31.1759 76.7511C30.8318 77.8557 30.6336 78.9961 30.586 80.1464C30.5543 80.7507 30.5649 81.3563 30.6178 81.9593C30.6178 82.2648 30.7082 82.5703 30.7507 82.8807C30.7865 83.1937 30.8487 83.5035 30.9367 83.8072C31.4146 85.8167 32.3843 87.6932 33.7685 89.287C35.1526 90.8807 36.9129 92.1476 38.9088 92.9866C40.3535 93.574 41.9018 93.9018 43.4742 93.9532C45.0983 94.0373 46.7239 93.8178 48.2575 93.3071L48.7252 93.1419H48.789L48.8421 93.1719L55.544 96.377L55.3474 96.5372C54.6299 94.4439 53.939 92.4157 53.2693 90.4677V90.3926L53.3278 90.3375C54.9536 88.7945 56.1605 86.9049 56.8461 84.8288C57.4672 82.9308 57.6484 80.9293 57.3776 78.9596C57.1367 77.2091 56.5394 75.5189 55.6184 73.9817C54.8246 72.6613 53.8004 71.4763 52.589 70.4762C51.5896 69.6847 50.4834 69.0212 49.2992 68.5031C48.4032 68.139 47.47 67.8621 46.5143 67.6768L45.4513 67.5116L44.6807 67.4565L44.213 67.4264H44.0535C44.1065 67.4209 44.16 67.4209 44.213 67.4264H44.686L45.4566 67.4565L46.5196 67.6017C47.4872 67.7734 48.4331 68.0403 49.3417 68.398C50.5462 68.9099 51.6724 69.5718 52.69 70.3661C53.9237 71.3617 54.9695 72.5469 55.7832 73.8716C56.7303 75.4252 57.346 77.1383 57.5955 78.9145C57.8888 80.9146 57.7202 82.9508 57.1012 84.8839C56.4111 87.0031 55.1855 88.933 53.5297 90.5077L53.5616 90.3775C54.2313 92.3256 54.9275 94.3538 55.6503 96.4421L55.7513 96.7476L55.4484 96.6023L48.7465 93.4023H48.8634L48.3851 93.5676C46.8219 94.0858 45.1662 94.3104 43.5114 94.2286C41.9051 94.171 40.3244 93.8313 38.8504 93.227C36.0387 92.0924 33.6994 90.1204 32.191 87.6132C31.4969 86.4553 30.9899 85.2062 30.6869 83.9074C30.604 83.5958 30.5418 83.2797 30.5009 82.9609C30.4584 82.6454 30.3893 82.3349 30.3734 82.0244C30.2295 80.2425 30.4294 78.4508 30.9633 76.7361C31.299 75.7058 31.7647 74.7171 32.3504 73.7914C33.3422 72.1867 34.6846 70.7989 36.2887 69.72C37.5002 68.9128 38.8454 68.3002 40.2694 67.9072L41.1038 67.7069C41.3494 67.6532 41.5978 67.6114 41.8479 67.5817C42.2357 67.514 42.6283 67.4738 43.0225 67.4615L43.7506 67.4365C43.8334 67.4259 43.9168 67.4209 44.0004 67.4214Z" fill="#13AE94"/>
<path d="M47.0289 79.0998H46.0457L43.9198 76.2854V74.4374C43.9198 74.4374 42.3998 74.3473 42.5805 76.7661C42.7612 79.1849 42.5805 78.5689 42.5805 78.5689C42.5805 78.5689 39.3544 78.5689 39.0887 78.8444C38.8229 79.1198 38.807 82.0544 38.7698 83.692C38.7494 84.0868 38.8696 84.4766 39.1113 84.7996C39.353 85.1226 39.7024 85.3603 40.1038 85.4748C40.2163 85.5042 40.3325 85.5193 40.4493 85.5199C41.2571 85.5199 45.3654 84.9039 45.3654 84.9039H47.0608L47.0289 79.0998Z" fill="#13AE94"/>
<path d="M49.84 78.6035L49.2342 84.9335H47.5547V78.7337L49.84 78.6035Z" fill="#13AE94"/>
<path d="M69.8748 207.471V203.189L61.7273 203.134L61.6582 209.609L62.1631 209.645C64.4112 209.78 73.6004 209.98 75.1098 209.539C76.7893 209.049 69.8748 207.471 69.8748 207.471Z" fill="#0087A2"/>
<path d="M75.3 209.138C75.3 209.209 72.2493 209.269 68.4918 209.269C64.7343 209.269 61.6836 209.209 61.6836 209.138C61.6836 209.068 64.7343 209.008 68.4918 209.008C72.2493 209.008 75.3 209.068 75.3 209.138Z" fill="#002F39"/>
<path d="M70.0168 208.348C69.9478 208.313 70.0168 208.087 70.1816 207.847C70.3464 207.607 70.5696 207.506 70.6227 207.557C70.6759 207.607 70.5643 207.797 70.4048 208.002C70.2454 208.208 70.0859 208.383 70.0168 208.348Z" fill="#002F39"/>
<path d="M70.5388 208.628C70.4644 208.628 70.5016 208.348 70.661 208.082C70.8205 207.817 71.033 207.656 71.0915 207.697C71.15 207.737 71.0543 207.962 70.9055 208.197C70.7567 208.433 70.6079 208.653 70.5388 208.628Z" fill="#002F39"/>
<path d="M64.1393 209.118C64.1074 209.118 63.9852 209.028 63.8098 208.838C63.5957 208.593 63.3572 208.369 63.0976 208.167C62.8423 207.975 62.5382 207.849 62.2154 207.801C61.9656 207.771 61.8061 207.801 61.7902 207.771C61.7742 207.741 61.9284 207.636 62.2207 207.616C62.6065 207.608 62.9828 207.729 63.2836 207.957C63.5655 208.173 63.8032 208.436 63.9852 208.733C64.1074 208.953 64.1712 209.098 64.1393 209.118Z" fill="#002F39"/>
<path d="M70.0429 207.541C70.0801 207.601 69.9419 207.751 69.7081 207.831C69.4742 207.911 69.267 207.881 69.2563 207.831C69.2457 207.781 69.4105 207.676 69.6124 207.606C69.8144 207.536 70.0004 207.481 70.0429 207.541Z" fill="#002F39"/>
<path d="M69.9175 207.125C69.9175 207.201 69.7049 207.261 69.4285 207.266C69.1521 207.271 68.9342 207.211 68.9395 207.14C68.9449 207.07 69.1628 207.005 69.4285 207C69.6942 206.995 69.9068 207.055 69.9175 207.125Z" fill="#002F39"/>
<path d="M89.9373 207.471V203.189L81.7898 203.134L81.7207 209.544L82.2256 209.579C84.4737 209.715 93.6683 209.98 95.1723 209.539C96.8518 209.049 89.9373 207.471 89.9373 207.471Z" fill="#0087A2"/>
<path d="M95.363 209.149C95.363 209.219 92.3177 209.279 88.5548 209.279C84.792 209.279 81.752 209.219 81.752 209.149C81.752 209.079 84.7973 209.019 88.5548 209.019C92.3124 209.019 95.363 209.079 95.363 209.149Z" fill="#002F39"/>
<path d="M90.081 208.348C90.0172 208.313 90.081 208.087 90.2457 207.847C90.4105 207.607 90.6337 207.506 90.6869 207.557C90.74 207.607 90.6284 207.797 90.469 208.002C90.3095 208.208 90.1501 208.383 90.081 208.348Z" fill="#002F39"/>
<path d="M90.6007 208.628C90.5316 208.628 90.5635 208.348 90.7282 208.082C90.893 207.817 91.1003 207.656 91.1587 207.697C91.2172 207.737 91.1162 207.962 90.9674 208.197C90.8186 208.433 90.6751 208.653 90.6007 208.628Z" fill="#002F39"/>
<path d="M84.2018 209.118C84.1699 209.118 84.053 209.028 83.8723 208.838C83.6582 208.593 83.4197 208.369 83.1601 208.167C82.9048 207.975 82.6007 207.849 82.2779 207.801C82.0334 207.771 81.8686 207.801 81.8527 207.771C81.8367 207.741 81.9909 207.636 82.2832 207.616C82.669 207.608 83.0453 207.729 83.3461 207.957C83.6295 208.172 83.8674 208.435 84.0477 208.733C84.1699 208.953 84.2337 209.098 84.2018 209.118Z" fill="#002F39"/>
<path d="M90.1074 207.541C90.1446 207.601 90.0064 207.751 89.7725 207.831C89.5387 207.911 89.3314 207.881 89.3208 207.831C89.3102 207.781 89.4749 207.676 89.6769 207.606C89.8788 207.536 90.0649 207.481 90.1074 207.541Z" fill="#002F39"/>
<path d="M89.9903 207.125C89.9903 207.201 89.7777 207.261 89.5013 207.266C89.225 207.271 89.0124 207.211 89.0177 207.14C89.023 207.07 89.2356 207.005 89.5013 207C89.7671 206.995 89.9903 207.055 89.9903 207.125Z" fill="#002F39"/>
<path d="M119.955 80.3204C119.742 80.1151 119.216 80.2153 119.216 80.2153C119.269 79.9269 119.269 79.6322 119.216 79.3439C119.12 79.0635 118.45 79.1185 118.45 79.1185C118.42 78.8824 118.42 78.6436 118.45 78.4074C118.456 78.3551 118.444 78.3025 118.416 78.2568C118.389 78.211 118.347 78.1745 118.296 78.152C117.979 78.0303 117.639 77.9723 117.297 77.9818C116.888 77.7063 118.546 75.5179 119.163 74.8168C119.779 74.1157 119.668 73.5698 119.12 73.5698C118.743 73.5698 116.808 75.6731 116.213 76.3792C115.618 77.0854 114.039 79.0484 113.986 77.481C113.933 75.9135 113.263 74.7317 112.843 74.5313C112.424 74.331 111.977 74.8018 112.206 75.2374C112.406 75.7324 112.532 76.2517 112.578 76.7799C112.635 77.2006 112.616 77.6275 112.519 78.0419C112.343 78.8128 112.103 79.5697 111.802 80.3054H111.759C111.759 80.3054 100.162 90.7869 99.3226 91.5331C98.5733 92.2041 83.5006 90.7368 80.4765 90.4364C79.4489 90.2947 78.4112 90.2277 77.3727 90.236C76.06 90.2911 75.8261 90.4664 74.5187 90.4814C71.2169 90.516 67.9227 90.7889 64.6652 91.2977C63.1901 91.534 61.8123 92.1475 60.682 93.0712C59.5517 93.995 58.7124 95.1935 58.2556 96.536C55.2102 105.5 48.3117 126.718 47.0946 138.637C46.1749 140.209 45.3446 141.825 44.6073 143.48C43.7516 145.673 43.9589 145.748 44.2459 145.798C45.0218 145.934 45.9041 141.997 46.2336 142.949C46.5631 143.9 44.5595 147.641 45.3726 147.752C46.4356 147.892 47.2806 143.745 47.3816 143.415C47.4826 143.084 48.0087 143.189 47.9131 143.5C47.7589 143.941 46.2655 148.613 47.3072 148.763C47.8812 148.843 47.9449 147.857 47.9449 147.857C47.9449 147.857 49.0079 143.385 49.4915 143.475C49.9752 143.565 49.4597 146.204 49.2152 147.085C48.9707 147.967 49.3108 148.413 49.8104 148.197C50.1506 148.047 50.9637 145.368 51.187 144.496C51.4102 143.625 51.9682 141.211 52.7176 142.608C53.467 144.006 54.6043 144.817 55.072 144.837C55.1774 144.825 55.2768 144.785 55.3573 144.719C55.4378 144.654 55.4958 144.568 55.5238 144.472C55.5518 144.375 55.5485 144.273 55.5144 144.178C55.4803 144.084 55.417 144.001 55.3325 143.941C54.9302 143.57 54.5849 143.149 54.3067 142.689C54.0588 142.33 53.8789 141.933 53.7752 141.517C53.5611 140.686 53.4364 139.837 53.4032 138.983L53.3182 138.482C54.5087 132.928 57.9367 116.628 62.8847 106.216L64.915 110.152L65.7972 113.067L60.3868 125.652L83.4634 125.366L80.0195 112.877L84.2022 99.8562C88.725 99.9513 100.338 100.112 102.272 99.2853C104.706 98.2837 117.297 83.3001 117.297 83.3001C118.118 82.6992 118.904 82.0573 119.652 81.3771C119.652 81.3771 120.417 80.7711 119.955 80.3204Z" fill="#FFBE9D"/>
<path d="M59.373 116.352C60.0427 114.199 63.4813 103.552 63.4813 103.552C63.4813 103.552 65.1714 112.231 64.725 113.277C64.3143 114.173 63.8292 115.038 63.2741 115.862C59.373 121.455 59.8833 124.255 59.8833 124.255L83.4542 123.579C83.5073 120.474 81.5568 113.252 81.1529 112.101C80.749 110.949 82.0936 107.178 82.0936 107.178C82.0936 107.178 84.751 104.629 84.6553 103.317C84.6048 102.138 84.4502 100.966 84.1929 99.8113L98.5428 100.312L98.091 91.1476L77.4804 89.2046C76.7629 91.1126 70.2736 90.1761 70.2736 90.1761C63.2688 90.3965 62.8329 91.6084 59.9205 93.7417C57.008 95.8751 52.1875 114.184 52.1875 114.184L59.373 116.352Z" fill="#13AE94"/>
<path d="M73.3069 114.184C72.8984 114.253 72.4824 114.273 72.0686 114.245C71.2979 114.245 70.2403 114.194 69.0764 114.084C67.9124 113.974 66.8601 113.819 66.1107 113.679C65.6975 113.628 65.2924 113.531 64.9043 113.388C65.3198 113.388 65.7344 113.425 66.1426 113.498C66.8973 113.588 67.9443 113.714 69.1029 113.824C70.2616 113.934 71.3139 114.009 72.0739 114.059C72.4882 114.064 72.901 114.106 73.3069 114.184Z" fill="#002F39"/>
<path d="M74.9232 112.296C74.5145 112.485 74.0825 112.625 73.637 112.712C71.5166 113.237 69.329 113.481 67.1371 113.438C66.6835 113.452 66.2299 113.412 65.7871 113.318C66.2348 113.265 66.686 113.243 67.1371 113.253C67.9715 113.228 69.1195 113.173 70.3844 113.033C71.6493 112.892 72.776 112.692 73.5732 112.532C74.016 112.42 74.4674 112.342 74.9232 112.296Z" fill="#002F39"/>
<path d="M82.8512 103.873C82.8405 104.254 82.7852 104.634 82.6865 105.004C82.5483 105.7 82.3357 106.652 82.0646 107.694C81.7936 108.735 81.5332 109.697 81.2993 110.348C81.2053 110.72 81.0662 111.082 80.8848 111.424C80.9144 111.044 80.9893 110.668 81.108 110.303C81.3099 109.521 81.5385 108.62 81.7936 107.633C82.0487 106.647 82.2932 105.746 82.4951 104.964C82.5671 104.588 82.6866 104.222 82.8512 103.873Z" fill="#002F39"/>
<path d="M59.6205 115.075C58.391 114.897 57.1776 114.63 55.9906 114.279C54.7777 114.012 53.5875 113.66 52.4297 113.228C53.6586 113.409 54.8718 113.675 56.0597 114.024C57.2728 114.29 58.4631 114.642 59.6205 115.075Z" fill="#002F39"/>
<path d="M84.4473 99.7018C84.2468 99.7343 84.0419 99.7343 83.8414 99.7018C83.2863 99.6481 82.7412 99.5252 82.2204 99.3362C81.351 99.0283 80.5595 98.5525 79.8969 97.9393C79.2342 97.3261 78.715 96.5891 78.3726 95.7756C77.9941 94.8807 77.8325 93.9174 77.8995 92.9561C77.9232 92.1633 78.1749 91.3913 78.6277 90.7226C78.9461 90.2722 79.4218 89.9409 79.9723 89.7862C80.1194 89.7479 80.2715 89.7294 80.4241 89.7311C80.5304 89.7311 80.5835 89.7311 80.5835 89.7311C80.5835 89.7311 80.3603 89.7311 80.0042 89.8663C79.4992 90.0421 79.0709 90.3716 78.7871 90.8027C78.0643 91.8744 77.8623 93.8325 78.633 95.6604C78.9917 96.5223 79.5532 97.2962 80.2752 97.924C80.8669 98.4376 81.5484 98.851 82.2895 99.1459C82.9851 99.4049 83.7087 99.5913 84.4473 99.7018Z" fill="#002F39"/>
<path d="M96.8364 100.133C96.7032 98.5971 96.6605 97.0557 96.7086 95.5156C96.6668 93.9767 96.7166 92.4369 96.8577 90.9033C96.9911 92.4373 97.0338 93.9771 96.9856 95.5156C97.0304 97.0561 96.9806 98.5977 96.8364 100.133Z" fill="#002F39"/>
<path d="M77.3403 89.7657C77.3988 88.649 77.521 87.387 77.521 87.387C77.521 87.387 80.4548 87.0815 80.6301 84.227C80.8055 81.3725 80.6301 74.7872 80.6301 74.7872L75.3154 72.2231L69.416 76.595L70.3248 90.8675L75.7353 91.193C76.1488 91.2038 76.55 91.0596 76.8509 90.792C77.1518 90.5245 77.3278 90.1554 77.3403 89.7657Z" fill="#FFBE9D"/>
<path d="M82.4532 73.2451C82.0439 71.933 80.5611 71.282 79.2112 70.9214C77.1543 70.3706 74.9328 70.1302 72.9238 70.8263C70.9148 71.5224 68.5019 72.7443 68.5019 74.8326C67.3167 74.7424 66.6364 75.719 66.1688 76.9309C65.8697 77.6692 65.6906 78.4458 65.6373 79.2345C65.4885 81.9688 64.6753 85.7447 62.7939 87.7479C61.7309 88.8646 60.2588 89.6359 59.6529 91.0281C59.1214 92.235 59.3978 93.6672 58.9035 94.8891C58.4624 95.9658 57.4898 96.732 56.7776 97.6685C56.052 98.7309 55.625 99.9496 55.5367 101.21C55.4484 102.471 55.7016 103.732 56.2727 104.875C56.8478 105.989 57.6576 106.98 58.6526 107.79C59.6477 108.599 60.8072 109.209 62.0605 109.582C64.543 110.294 67.1903 110.318 69.6871 109.652C71.561 109.23 73.309 108.413 74.7999 107.264C76.3254 106.09 77.3732 104.455 77.7655 102.636C78.1429 100.593 77.537 98.5148 77.0853 96.4816C75.6715 90.0565 76.0754 89.721 77.8612 83.7566C77.9037 83.6514 77.925 83.5413 77.9569 83.4361C77.9888 83.3309 78.0047 83.2809 78.026 83.2007C78.0767 82.965 78.1034 82.7252 78.1057 82.4846C77.8449 82.576 77.5618 82.5953 77.2897 82.5403C77.0176 82.4853 76.7678 82.3583 76.5697 82.1741C76.3712 81.9778 76.2327 81.7344 76.1691 81.4699C76.1055 81.2054 76.119 80.9296 76.2083 80.6718C76.3337 80.3898 76.5206 80.1357 76.7568 79.9261C76.993 79.7165 77.2733 79.5559 77.5795 79.4548C78.1695 79.2245 78.8019 79.1043 79.3812 78.8489C80.6089 78.298 81.4593 77.1562 82.0386 75.9593C82.5149 75.1298 82.6619 74.1675 82.4532 73.2451Z" fill="#002F39"/>
<path d="M59.8818 124.256L83.4527 123.58L93.7102 161.309L91.8234 204.587H79.3603L80.8857 162.23L71.7709 135.964L73.174 206.265L60.578 206.44L59.2546 140.361C59.1962 138.523 58.5584 134.382 58.7976 132.559L59.8818 124.256Z" fill="#002F39"/>
<path d="M74.9078 136.499C74.522 136.522 74.1346 136.5 73.7545 136.434C73.0423 136.354 72.0697 136.214 71.0014 136.014C69.9332 135.813 68.9765 135.583 68.2856 135.398C67.9163 135.321 67.559 135.2 67.2227 135.037C67.2227 134.962 68.9553 135.353 71.0812 135.758C73.2071 136.164 74.9184 136.424 74.9078 136.499Z" fill="#005161"/>
<path d="M91.6978 202.212C91.6978 202.282 88.8757 202.342 85.3946 202.342C81.9134 202.342 79.0859 202.282 79.0859 202.212C79.0859 202.142 81.9081 202.082 85.3946 202.082C88.881 202.082 91.6978 202.137 91.6978 202.212Z" fill="#005161"/>
<path d="M73.0621 204.437C73.0621 204.512 70.3197 204.567 66.9396 204.567C63.5594 204.567 60.8223 204.512 60.8223 204.437C60.8223 204.362 63.5647 204.307 66.9396 204.307C70.3144 204.307 73.0621 204.367 73.0621 204.437Z" fill="#005161"/>
<path d="M71.4356 204.256C71.3612 204.256 71.0317 188.897 70.6969 169.952C70.362 151.007 70.1654 135.638 70.2345 135.638C70.3036 135.638 70.6437 150.992 70.9732 169.947C71.3027 188.902 71.5153 204.256 71.4356 204.256Z" fill="#005161"/>
<path d="M90.0217 202.213C90.0159 202.144 90.0159 202.076 90.0217 202.007V201.406C90.0217 200.865 90.0642 200.089 90.0961 199.103C90.1705 197.099 90.2768 194.19 90.4097 190.624C90.6967 183.453 91.1006 173.567 91.5417 162.655C91.5417 162.55 91.5417 162.45 91.5417 162.36V162.395C88.7515 151.878 86.227 142.333 84.3934 135.427L82.2675 127.26C82.023 126.303 81.837 125.557 81.7041 125.036C81.6404 124.791 81.5978 124.6 81.5606 124.455C81.5399 124.39 81.5274 124.323 81.5234 124.255C81.551 124.318 81.5724 124.383 81.5872 124.45C81.6297 124.59 81.6829 124.781 81.7573 125.021C81.9008 125.522 82.1081 126.283 82.3738 127.235C82.9053 129.168 83.6546 131.952 84.59 135.382C86.4396 142.283 88.9907 151.803 91.8181 162.335V162.37C91.8181 162.46 91.8181 162.565 91.8181 162.665C91.3451 173.577 90.9146 183.458 90.601 190.629C90.4363 194.2 90.2981 197.089 90.2024 199.103C90.1493 200.104 90.1068 200.865 90.0802 201.406C90.0802 201.662 90.0483 201.862 90.043 202.007C90.0438 202.076 90.0366 202.145 90.0217 202.213Z" fill="#005161"/>
<path d="M85.9571 161.479C85.0619 161.756 84.1397 161.949 83.204 162.054C82.0561 162.24 81.0781 162.37 80.637 162.39V162.29C80.7805 162.33 80.8549 162.355 80.8549 162.375C80.8549 162.395 80.7646 162.375 80.6158 162.375H80.2969L80.6158 162.285C81.0303 162.17 82.0082 161.979 83.1562 161.784C84.0769 161.596 85.0151 161.493 85.9571 161.479Z" fill="#005161"/>
<path d="M85.7385 162.917C84.9095 162.953 84.0788 162.918 83.2565 162.812C82.4263 162.796 81.5993 162.71 80.7852 162.556C82.4461 162.428 84.1181 162.55 85.7385 162.917Z" fill="#005161"/>
<path opacity="0.2" d="M59.7812 125.052C60.0604 125.39 60.412 125.668 60.8131 125.869C61.2142 126.07 61.6558 126.189 62.1091 126.219C63.0584 126.325 64.0187 126.308 64.9631 126.169C71.0485 125.533 77.4953 124.947 83.4531 123.58C75.7414 123.985 67.5939 123.85 59.8822 124.256L59.8025 124.877" fill="black"/>
<g opacity="0.2">
<path d="M67.7266 135.293L72.074 151.188L71.7711 135.964L67.7266 135.293Z" fill="black"/>
</g>
</svg>
