<svg width="145" height="85" viewBox="0 0 145 85" fill="none" xmlns="http://www.w3.org/2000/svg">
<g clip-path="url(#clip0_4025_6064)">
<path d="M17.3784 61.0996H0V84.9972H17.3784V61.0996Z" fill="#0087A2"/>
<path opacity="0.1" d="M17.3781 61.0996H12.6992V84.9972H17.3781V61.0996Z" fill="#0087A2"/>
<path d="M38.6479 56.49H21.2695V84.9966H38.6479V56.49Z" fill="#0087A2"/>
<path opacity="0.1" d="M38.6475 56.49H33.9688V84.9966H38.6475V56.49Z" fill="#0087A2"/>
<path d="M59.9194 52.345H42.541V84.9997H59.9194V52.345Z" fill="#0087A2"/>
<path opacity="0.1" d="M59.9172 52.345H55.2383V84.9997H59.9172V52.345Z" fill="#0087A2"/>
<path d="M81.1889 47.7793H63.8105V84.9969H81.1889V47.7793Z" fill="#0087A2"/>
<path opacity="0.1" d="M81.1867 47.7793H76.5078V84.9969H81.1867V47.7793Z" fill="#0087A2"/>
<path d="M102.458 42.4355H85.0801V84.9996H102.458V42.4355Z" fill="#0087A2"/>
<path opacity="0.1" d="M102.458 42.4355H97.7793V84.9996H102.458V42.4355Z" fill="#0087A2"/>
<path d="M123.73 35.5205H106.352V84.998H123.73V35.5205Z" fill="#0087A2"/>
<path opacity="0.1" d="M123.728 35.5205H119.049V84.998H123.728V35.5205Z" fill="#0087A2"/>
<path d="M144.997 24H127.619V85H144.997V24Z" fill="#0087A2"/>
<path opacity="0.1" d="M144.999 24H140.32V85H144.999V24Z" fill="#0087A2"/>
<path d="M115.15 8.95103C115.259 11.2642 115.805 14.0208 114.766 16.2105C113.949 17.9248 112.234 19.0791 110.458 19.822C106.554 21.4494 101.086 21.6505 98.3495 18.0094C97.2578 16.5488 97.071 13.5111 98.8832 12.3979C99.8148 11.8288 100.921 11.6985 101.972 11.4288C102.627 11.2844 103.24 11.0027 103.765 10.6047C104.29 10.2066 104.712 9.70234 105.002 9.12932C106.256 6.75902 106.004 5.01501 106.244 2.45728C106.249 2.20194 106.311 1.95043 106.425 1.71895C106.54 1.48746 106.704 1.28114 106.908 1.11327C107.354 0.697663 107.912 0.405148 108.522 0.267553C109.042 0.0543103 109.611 -0.0336631 110.176 0.0115508C111.389 0.128123 112.537 1.17727 113.471 1.84013C114.405 2.50299 114.849 3.191 114.926 4.30643C115.021 5.85158 115.072 7.39902 115.15 8.95103Z" fill="#002F39"/>
<path d="M115.454 10.0398C115.211 7.9278 114.915 5.82264 114.641 3.71292C114.641 3.70149 114.617 3.70149 114.619 3.71292C114.792 5.45464 114.94 7.19637 115.139 8.9358C115.333 10.641 115.655 12.3827 115.689 14.097C115.767 17.9461 111.565 19.5142 108.091 19.3267C107.931 19.3267 107.936 19.5553 108.091 19.5553C111.148 19.6307 114.794 18.641 115.716 15.5164C116.225 13.809 115.655 11.7678 115.454 10.0398Z" fill="#002F39"/>
<path d="M106.439 2.25559C106.439 2.21445 106.376 2.21673 106.374 2.25559C106.269 4.37218 106.374 6.84991 105.083 8.69449C104.452 9.60136 103.545 10.3073 102.48 10.7196C101.636 11.0442 100.741 11.0716 99.8574 11.2362C96.4076 11.8739 96.3761 16.2648 98.887 17.9745C98.9404 18.0111 99.0083 17.9265 98.9549 17.89C97.1912 16.5642 96.609 14.1551 98.0476 12.3882C99.2024 10.9688 101.42 11.4191 102.994 10.6534C106.255 9.06935 106.51 5.3299 106.439 2.25559Z" fill="#002F39"/>
<path d="M134.905 37.1518C134.738 36.6786 125.83 25.586 125.221 25.3734C125.15 25.3437 121.167 28.0157 121.167 28.0157C121.004 28.2214 113.433 26.7151 113.433 26.7151L113.357 35.3186L127.149 35.042C127.149 35.042 129.01 36.0752 130.716 36.9141C131.44 37.2985 132.188 37.6405 132.957 37.9381C133.651 38.1072 135.075 37.6226 134.905 37.1518Z" fill="#FFBE9D"/>
<path d="M132.961 37.9409C132.192 37.6433 131.444 37.3014 130.719 36.9169C129.021 36.0757 127.153 35.0426 127.153 35.0426L124.084 35.1043L119.273 27.7945C120.329 27.9705 121.115 28.0757 121.168 28.0094C121.168 28.0094 125.149 25.3397 125.22 25.3694C125.829 25.582 134.737 36.6723 134.904 37.1477C135.072 37.6232 133.652 38.1077 132.961 37.9409Z" fill="white"/>
<path d="M134.985 37.1656C134.81 36.6788 125.86 25.593 125.234 25.3736C124.992 25.289 123.051 26.4227 121.166 28.0136L126.947 35.1542C126.947 35.1542 132.284 37.8148 132.99 37.9862C133.696 38.1576 135.162 37.6525 134.985 37.1656Z" fill="#999999"/>
<path d="M134.386 37.346C132.839 35.5174 126.776 28.0294 125.391 26.1162C125.391 26.1002 125.391 26.0911 125.403 26.1162C126.98 27.8922 132.979 35.4305 134.42 37.33C134.449 37.362 134.42 37.394 134.386 37.346Z" fill="#002F39"/>
<path d="M131.99 37.5789C131.818 37.376 131.692 37.1417 131.621 36.8907C131.549 36.6397 131.534 36.3775 131.575 36.1206C131.65 35.657 131.91 35.2381 132.303 34.9503C132.315 34.9503 132.332 34.964 132.32 34.9732C131.981 35.3164 131.768 35.7542 131.715 36.2208C131.662 36.6874 131.772 37.1575 132.027 37.5606C132.029 37.5652 132.03 37.5705 132.028 37.5754C132.027 37.5803 132.023 37.5845 132.018 37.5869C132.013 37.5893 132.008 37.5898 132.003 37.5883C131.997 37.5868 131.993 37.5835 131.99 37.5789Z" fill="#002F39"/>
<path d="M127.615 35.5971C127.004 34.8611 126.586 33.7983 126.858 32.8726C126.858 32.8383 126.924 32.852 126.928 32.884C127.092 33.7934 127.358 34.6838 127.722 35.54C127.726 35.5528 127.725 35.5666 127.72 35.579C127.714 35.5914 127.705 35.6017 127.692 35.6084C127.68 35.615 127.666 35.6175 127.652 35.6154C127.638 35.6134 127.625 35.6069 127.615 35.5971Z" fill="#002F39"/>
<path d="M128.316 35.999C127.705 35.263 127.288 34.2024 127.559 33.2767C127.559 33.2401 127.625 33.2561 127.63 33.2767C127.793 34.1862 128.059 35.0766 128.423 35.9327C128.432 35.9461 128.436 35.9623 128.432 35.978C128.429 35.9936 128.419 36.0074 128.405 36.0162C128.391 36.025 128.373 36.0281 128.357 36.0249C128.34 36.0217 128.325 36.0124 128.316 35.999Z" fill="#002F39"/>
<path d="M129.017 36.4041C128.406 35.6681 127.989 34.6052 128.26 33.6818C128.273 33.6452 128.326 33.6589 128.331 33.6818C128.494 34.5912 128.76 35.4815 129.124 36.3378C129.129 36.3444 129.132 36.3518 129.133 36.3595C129.135 36.3673 129.135 36.3753 129.133 36.383C129.132 36.3908 129.128 36.3981 129.124 36.4047C129.119 36.4112 129.113 36.4168 129.106 36.4212C129.099 36.4256 129.091 36.4286 129.083 36.4301C129.075 36.4315 129.066 36.4315 129.058 36.4299C129.05 36.4283 129.042 36.4252 129.035 36.4208C129.028 36.4163 129.022 36.4107 129.017 36.4041Z" fill="#002F39"/>
<path d="M129.719 36.8089C129.107 36.0729 128.69 35.0101 128.962 34.0844C128.974 34.0501 129.027 34.0638 129.032 34.0844C129.195 34.9938 129.461 35.8841 129.825 36.7404C129.835 36.7537 129.839 36.7701 129.835 36.786C129.832 36.8018 129.822 36.8159 129.808 36.8249C129.794 36.834 129.777 36.8375 129.76 36.8345C129.743 36.8315 129.728 36.8223 129.719 36.8089Z" fill="#002F39"/>
<path d="M123.898 27.9312C123.228 27.0946 124.606 26.1026 125.278 26.9483C125.95 27.7941 124.572 28.7701 123.898 27.9312Z" fill="#002F39"/>
<path d="M127.268 37.0239C127.494 36.2285 127.346 35.369 127.307 34.5599C127.304 34.5422 127.297 34.5253 127.286 34.5106C127.275 34.4959 127.261 34.4839 127.244 34.4754C127.227 34.467 127.209 34.4624 127.19 34.4619C127.171 34.4615 127.152 34.4653 127.135 34.473C127.132 34.4697 127.129 34.467 127.126 34.4651C127.122 34.4632 127.118 34.4622 127.114 34.4622C127.11 34.4622 127.106 34.4632 127.102 34.4651C127.099 34.467 127.096 34.4697 127.093 34.473C126.413 35.0454 125.905 35.7772 125.621 36.5942C125.463 37.0742 125.521 37.7805 126.157 37.9199C126.793 38.0593 127.135 37.4879 127.268 37.0239ZM126.64 37.5268C125.723 38.0685 125.793 36.8662 125.912 36.5165C126.002 36.2922 126.107 36.0738 126.227 35.8628C126.481 35.4307 126.758 35.0111 127.057 34.6056C127.057 35.0033 127.081 35.3988 127.089 35.7965C127.11 36.2719 127.147 37.2273 126.64 37.5268Z" fill="#002F39"/>
<path d="M124.456 32.1835C123.988 32.611 124.325 33.2464 124.721 33.5801C125.412 34.1428 126.249 34.5236 127.147 34.6841C127.151 34.6849 127.155 34.6847 127.159 34.6836C127.163 34.6825 127.167 34.6806 127.17 34.6779C127.173 34.6752 127.175 34.6719 127.177 34.6682C127.178 34.6646 127.179 34.6606 127.178 34.6567C127.197 34.6549 127.215 34.6489 127.231 34.6393C127.247 34.6297 127.26 34.6167 127.27 34.6014C127.28 34.5861 127.285 34.5688 127.287 34.551C127.288 34.5333 127.285 34.5154 127.278 34.499C126.868 33.7858 126.523 32.979 125.895 32.4075C125.526 32.0738 124.9 31.779 124.456 32.1835ZM126.421 33.539C126.63 33.8841 126.822 34.2361 127.045 34.5744C126.566 34.3729 126.099 34.1486 125.645 33.9024C125.427 33.7789 125.218 33.6423 125.019 33.4933C124.716 33.2647 123.998 32.2613 125.082 32.2795C125.679 32.2887 126.169 33.1275 126.421 33.539Z" fill="#002F39"/>
<path d="M113.015 24.0763H106.824C106.824 24.0763 100.351 21.1437 95.1352 22.3254C89.1672 23.6809 88.3909 30.7666 92.8596 33.2581C98.522 36.4284 123.719 35.8135 123.719 35.8135L118.279 27.1095C118.279 27.1095 109.9 25.4477 102.302 25.6877L113.022 27.0592L113.015 24.0763Z" fill="#002F39"/>
<path d="M118.636 27.6745C118.63 27.6606 118.626 27.646 118.624 27.631C118.624 27.6173 118.624 27.6059 118.624 27.5945C118.624 27.583 118.61 27.5373 118.6 27.5099C118.578 27.4505 118.552 27.3925 118.522 27.3362C118.498 27.2813 118.474 27.2265 118.447 27.1716C118.417 27.1186 118.383 27.0675 118.345 27.0185C118.345 27.0185 118.345 27.0185 118.331 27.007H118.316H118.302C117.38 26.8448 111.121 26.0013 110.189 25.9008C109.257 25.8002 108.309 25.7179 107.368 25.6448C105.489 25.4905 103.603 25.4265 101.717 25.4527L101.186 25.4665C101.15 25.4665 101.108 25.4505 101.072 25.4413L100.8 25.3819C100.63 25.3522 100.458 25.3293 100.286 25.3042C99.9293 25.2516 99.5727 25.2173 99.2185 25.1533C99.1967 25.1533 99.187 25.1807 99.2185 25.1853C99.5751 25.2607 99.9269 25.3568 100.284 25.4299C100.385 25.4528 100.49 25.4733 100.592 25.4916C99.9002 25.5259 99.2112 25.5762 98.5222 25.6356C98.5004 25.6356 98.5004 25.6699 98.5222 25.6676C99.4611 25.615 100.405 25.6105 101.346 25.6242C102.287 25.6379 103.212 25.6585 104.143 25.7088C106.028 25.8116 107.913 25.9693 109.791 26.1659C110.844 26.271 117.229 27.1488 118.282 27.1899C118.282 27.2128 118.299 27.2356 118.311 27.2585C118.323 27.2813 118.37 27.3659 118.401 27.4185C118.433 27.471 118.462 27.5213 118.496 27.5693L118.549 27.6425L118.573 27.6768C118.585 27.6886 118.594 27.7016 118.602 27.7156C118.612 27.7111 118.649 27.695 118.636 27.6745Z" fill="#002F39"/>
<path d="M121.756 35.2835C121.416 34.7738 121.13 34.2321 120.821 33.7086L119.89 32.1315C119.271 31.0846 117.047 27.56 116.826 27.3132C116.826 27.2972 116.785 27.3132 116.792 27.3337C116.896 27.6057 118.284 29.9395 118.604 30.4606C119.242 31.5006 119.914 32.5178 120.576 33.5463C120.766 33.8412 120.962 34.1315 121.154 34.4218C121.346 34.7121 121.549 35.0001 121.724 35.2995C121.726 35.3034 121.73 35.3064 121.735 35.3077C121.739 35.3089 121.744 35.3085 121.748 35.3063C121.752 35.3042 121.756 35.3006 121.757 35.2963C121.758 35.2921 121.758 35.2874 121.756 35.2835Z" fill="#002F39"/>
<path d="M116.762 28.1904C116.207 28.0647 115.637 27.9824 115.064 27.8819L113.366 27.5824C112.234 27.3859 111.102 27.1977 109.969 27.0179C107.716 26.6613 105.452 26.3641 103.177 26.1584C101.891 26.0419 100.603 25.9641 99.3168 25.875C99.311 25.875 99.3054 25.8772 99.3013 25.881C99.2972 25.8849 99.2949 25.8901 99.2949 25.8956C99.2949 25.901 99.2972 25.9063 99.3013 25.9101C99.3054 25.914 99.311 25.9161 99.3168 25.9161C101.609 26.0144 103.9 26.307 106.168 26.6133C108.436 26.9196 110.661 27.2533 112.9 27.6076L114.795 27.9139C115.438 28.019 116.078 28.1424 116.736 28.2247C116.777 28.227 116.789 28.195 116.762 28.1904Z" fill="#002F39"/>
<path d="M123.41 64.9986C122.866 64.9483 109.368 59.2317 108.999 58.7083C108.858 58.5094 109.627 56.6077 110.627 54.3357C110.843 53.8465 111.068 53.3414 111.301 52.8294C112.803 49.5014 114.239 46.4636 114.239 46.4636L123.524 49.8054L120.093 56.5231L119.341 57.9974C119.341 57.9974 123.465 62.3654 123.808 62.9803C124.15 63.5952 123.953 65.0512 123.41 64.9986Z" fill="#FFBE9D"/>
<path d="M123.409 64.9975C122.866 64.9472 109.368 59.2306 108.999 58.7071C108.829 58.4648 110.001 55.7083 111.301 52.8282L120.093 56.522L119.341 57.9963C119.341 57.9963 123.465 62.3643 123.807 62.9792C124.149 63.594 123.953 65.05 123.409 64.9975Z" fill="white"/>
<path d="M123.41 64.9989C122.866 64.9486 109.368 59.232 108.999 58.7085C108.858 58.5097 109.627 56.608 110.627 54.3359L119.341 57.9931C119.341 57.9931 123.465 62.3611 123.808 62.976C124.15 63.5909 123.953 65.0514 123.41 64.9989Z" fill="#999999"/>
<path d="M123.459 64.4101C121.222 63.3998 112.096 59.5232 109.801 58.6843C109.784 58.6843 109.776 58.6843 109.801 58.6958C111.984 59.7449 121.155 63.5506 123.447 64.4444C123.491 64.4626 123.508 64.4306 123.459 64.4101Z" fill="#002F39"/>
<path d="M123.157 62.1548C122.908 62.0424 122.638 61.9798 122.362 61.9707C122.087 61.9617 121.812 62.0065 121.556 62.1022C121.096 62.2704 120.721 62.5973 120.508 63.0165C120.508 63.0302 120.527 63.0416 120.534 63.0279C120.813 62.6385 121.218 62.3446 121.688 62.1904C122.159 62.0363 122.67 62.0302 123.145 62.1731C123.146 62.1762 123.147 62.1792 123.15 62.1815C123.152 62.1837 123.155 62.1853 123.158 62.1859C123.162 62.1865 123.165 62.1861 123.168 62.1849C123.172 62.1836 123.174 62.1814 123.176 62.1787C123.178 62.1759 123.179 62.1727 123.179 62.1695C123.178 62.1663 123.177 62.1632 123.175 62.1606C123.173 62.158 123.17 62.1561 123.167 62.155C123.164 62.154 123.16 62.1539 123.157 62.1548Z" fill="#002F39"/>
<path d="M120.118 58.5849C119.217 58.1894 118.024 58.0454 117.129 58.5049C117.092 58.5231 117.129 58.5688 117.153 58.5666C118.132 58.5116 119.114 58.5553 120.084 58.6969C120.098 58.6979 120.113 58.6942 120.124 58.6864C120.136 58.6786 120.145 58.6671 120.149 58.6539C120.153 58.6408 120.152 58.6267 120.146 58.6141C120.141 58.6015 120.13 58.5912 120.118 58.5849Z" fill="#002F39"/>
<path d="M120.705 59.1345C119.805 58.7391 118.611 58.5951 117.713 59.0545C117.68 59.0728 117.713 59.1185 117.74 59.1163C118.718 59.0605 119.7 59.1034 120.668 59.2443C120.684 59.2488 120.701 59.2474 120.715 59.2403C120.729 59.2332 120.74 59.2211 120.745 59.2065C120.75 59.192 120.748 59.1762 120.741 59.1627C120.733 59.1492 120.72 59.1391 120.705 59.1345Z" fill="#002F39"/>
<path d="M121.271 59.6859C120.371 59.2905 119.177 59.1488 118.282 59.6082C118.248 59.6265 118.282 59.6722 118.309 59.6699C119.287 59.6143 120.268 59.6572 121.237 59.7979C121.251 59.799 121.266 59.7953 121.278 59.7875C121.29 59.7796 121.298 59.7682 121.302 59.755C121.306 59.7418 121.305 59.7277 121.3 59.7151C121.294 59.7025 121.284 59.6922 121.271 59.6859Z" fill="#002F39"/>
<path d="M121.848 60.2504C120.948 59.8549 119.754 59.7132 118.859 60.1727C118.823 60.1887 118.859 60.2366 118.883 60.2344C119.862 60.1787 120.845 60.2216 121.814 60.3624C121.829 60.3634 121.843 60.3597 121.855 60.3519C121.867 60.3441 121.876 60.3326 121.88 60.3194C121.884 60.3063 121.883 60.2922 121.877 60.2796C121.871 60.267 121.861 60.2567 121.848 60.2504Z" fill="#002F39"/>
<path d="M111.343 56.9024C110.326 56.475 109.618 57.9653 110.637 58.3927C111.656 58.8201 112.362 57.3321 111.343 56.9024Z" fill="#002F39"/>
<path d="M122.183 56.7188C121.897 56.1657 121.152 56.2617 120.691 56.5246C119.91 56.9687 119.267 57.5996 118.828 58.3531C118.828 58.3714 118.828 58.3828 118.845 58.3897C118.841 58.4072 118.841 58.4253 118.845 58.4427C118.85 58.4601 118.859 58.4762 118.872 58.4897C118.884 58.5031 118.9 58.5135 118.918 58.52C118.936 58.5264 118.955 58.5288 118.974 58.5269C119.82 58.3806 120.742 58.3211 121.514 57.9348C121.965 57.7131 122.455 57.24 122.183 56.7188ZM120.206 58.0606C119.794 58.1429 119.376 58.2069 118.966 58.3029C119.333 57.9463 119.677 57.576 120.08 57.2537C120.271 57.0955 120.474 56.9503 120.686 56.8194C121.016 56.6206 122.246 56.2823 121.899 57.2491C121.698 57.7817 120.706 57.9646 120.206 58.0606Z" fill="#002F39"/>
<path d="M116.426 57.7217C117.154 58.1788 118.073 58.3046 118.903 58.5194C118.922 58.5224 118.941 58.5211 118.959 58.5158C118.978 58.5106 118.994 58.5014 119.008 58.489C119.022 58.4766 119.033 58.4613 119.039 58.4444C119.046 58.4274 119.048 58.4093 119.046 58.3914C119.05 58.3907 119.053 58.3892 119.057 58.3869C119.06 58.3847 119.062 58.3819 119.064 58.3786C119.066 58.3753 119.067 58.3717 119.067 58.368C119.068 58.3643 119.067 58.3606 119.065 58.3571C118.694 57.5685 118.108 56.8863 117.367 56.38C116.933 56.092 116.2 55.9228 115.863 56.4531C115.526 56.9834 115.996 57.4611 116.426 57.7217ZM116.11 57.0063C115.846 56.0143 117.042 56.4485 117.353 56.6725C117.552 56.8217 117.741 56.9828 117.918 57.1548C118.289 57.5091 118.6 57.9046 118.932 58.2977C118.532 58.1674 118.122 58.0691 117.719 57.9571C117.234 57.8131 116.256 57.5525 116.11 57.0063Z" fill="#002F39"/>
<path d="M111.51 52.0466L121.677 56.378C121.677 56.378 133.538 34.9494 133.853 28.2499C134.123 22.547 129.911 20.3458 116.291 24.035L112.953 24.0739V26.243C114.409 26.4259 118.327 27.0042 118.327 27.0042C121.168 28.0145 122.085 28.4327 122.039 28.5196C114.95 42.0054 111.51 52.0466 111.51 52.0466Z" fill="#002F39"/>
<path d="M123.705 26.1145C123.292 26.6288 122.914 27.1659 122.55 27.7145C120.34 26.8217 118.002 26.2417 115.611 25.9934C114.942 25.9156 114.27 25.8608 113.595 25.8242C113.569 25.8242 113.571 25.8631 113.595 25.8654C115.99 26.0225 118.357 26.4468 120.645 27.1294C121.278 27.3122 121.9 27.5248 122.523 27.7351C122.086 28.3934 121.676 29.0677 121.281 29.7465C120.543 31.0152 119.879 32.3207 119.292 33.6574C118.964 34.398 118.646 35.1408 118.367 35.8974C118.367 35.9203 118.396 35.934 118.406 35.9134C119.648 33.3031 121.004 30.7492 122.475 28.2517C122.889 27.5454 123.321 26.8505 123.726 26.1396C123.751 26.1191 123.719 26.0939 123.705 26.1145Z" fill="#002F39"/>
<path d="M121.896 54.0634C121.304 53.8462 120.729 53.5742 120.149 53.3274L118.403 52.5891C117.241 52.0977 113.221 50.5319 112.888 50.4542C112.866 50.4542 112.854 50.4816 112.871 50.4908C113.128 50.6508 115.724 51.7388 116.309 51.9742C117.483 52.4474 118.669 52.8885 119.851 53.3457C120.188 53.4737 120.53 53.5948 120.87 53.7205C121.21 53.8462 121.552 53.9628 121.884 54.1022C121.903 54.1022 121.918 54.0794 121.896 54.0634Z" fill="#002F39"/>
<path d="M123.653 27.108C122.85 28.5435 122.168 30.0475 121.47 31.5309C120.771 33.0144 120.101 34.5024 119.446 35.9881C118.141 38.9641 116.928 41.9721 115.807 45.0121C115.169 46.731 114.813 48.0065 114.23 49.7436C114.23 49.7687 114.264 49.7779 114.272 49.7436C115.351 46.6739 116.273 44.0864 117.493 41.0578C118.714 38.0292 120 35.0509 121.375 32.0909C121.76 31.262 122.15 30.4338 122.544 29.6063C122.942 28.7789 123.355 27.9583 123.723 27.1218C123.725 27.113 123.724 27.1038 123.718 27.0963C123.713 27.0888 123.705 27.0836 123.696 27.0818C123.686 27.0799 123.677 27.0817 123.669 27.0866C123.661 27.0915 123.655 27.0993 123.653 27.108Z" fill="#002F39"/>
<path d="M111.939 10.8382C111.323 12.5616 106.182 21.7137 102.5 22.0382C99.0791 22.3354 95.0761 15.0256 94.3216 12.557C94.113 11.8713 100.207 10.5364 100.751 11.693C101.588 13.4782 102.369 15.6816 102.74 15.5605C103.502 15.3113 107.461 11.3433 110.297 9.40958C111.947 8.28271 112.412 9.50786 111.939 10.8382Z" fill="#FFBE9D"/>
<path d="M93.9217 8.33095C93.6354 9.61325 94.1424 12.4453 94.5452 13.0944C94.9479 13.7436 100.101 13.0944 100.508 12.4224C100.916 11.7504 101.518 7.36866 100.875 6.17551C100.232 4.98236 94.2152 6.9938 93.9217 8.33095Z" fill="#FFBE9D"/>
<path d="M100.895 8.05951C100.23 8.36123 98.9859 8.80923 98.9544 8.74523C98.9544 8.81608 99.1048 10.0481 98.3309 10.3132C97.557 10.5784 97.3314 9.48352 97.3193 9.41266C97.3071 9.48123 97.113 10.3978 96.475 10.4732C95.3809 10.6012 95.8103 8.24922 95.262 7.58408C95.262 7.58408 93.9592 8.32465 93.918 8.34065C93.918 8.34065 94.277 6.09378 95.2693 5.4515C95.4127 5.35365 95.5876 5.30545 95.7644 5.31502C95.9412 5.3246 96.1091 5.39137 96.2397 5.50407C96.2397 5.50407 96.2712 4.76806 96.8729 4.54178C97.1834 4.4252 97.654 4.78863 97.654 4.78863C97.654 4.78863 98.0325 0.841185 99.1655 1.13147C100.298 1.42176 99.5512 5.6115 99.5512 5.6115C99.5512 5.6115 100.565 1.53147 101.691 1.83319C102.88 2.14176 101.23 7.90637 100.895 8.05951Z" fill="#FFBE9D"/>
<path d="M97.6582 4.75821C97.6582 4.75821 97.6728 4.73535 97.6825 4.75821C98.6205 5.90278 99.0937 7.32541 99.0168 8.76966C99.0168 8.81994 98.9537 8.86109 98.9537 8.80394C98.9513 7.80965 98.2744 5.80964 97.6582 4.75821Z" fill="#002F39"/>
<path d="M97.2749 9.51093C97.338 8.09835 96.9134 6.8092 96.2754 5.54519C96.2754 5.52919 96.2924 5.52004 96.3045 5.53147C96.7897 6.0709 97.1124 6.91662 97.2992 7.58863C97.487 8.21443 97.4971 8.87575 97.3283 9.50635C97.321 9.5315 97.2749 9.53607 97.2749 9.51093Z" fill="#002F39"/>
<path d="M95.2656 7.5752C95.363 7.74966 95.4216 7.94098 95.4379 8.13748C95.4694 8.32949 95.4888 8.52605 95.5082 8.72262C95.5384 9.12181 95.6083 9.51746 95.7169 9.90435C95.77 10.1153 95.8892 10.3064 96.0589 10.4529C96.1597 10.5245 96.2806 10.5666 96.4066 10.5739C96.5325 10.5813 96.658 10.5535 96.7673 10.4941C96.966 10.3786 97.1245 10.211 97.2234 10.0118C97.2525 9.95464 97.2792 9.89978 97.3059 9.84264C97.3531 9.97638 97.4228 10.1022 97.5121 10.2152C97.6133 10.3441 97.7593 10.4355 97.9245 10.4735C98.0868 10.5066 98.2558 10.493 98.4097 10.4346C98.5549 10.3747 98.6841 10.2852 98.7882 10.1725C98.8922 10.0599 98.9684 9.92693 99.0114 9.78321C99.2249 9.15006 99.0114 8.24948 99.0114 8.24948L98.9119 8.4369C98.9528 8.86333 98.9108 9.29322 98.7882 9.70549C98.7511 9.81893 98.6886 9.92353 98.6049 10.0123C98.5212 10.101 98.4182 10.1717 98.303 10.2198C98.1976 10.2648 98.079 10.2741 97.9672 10.2462C97.8553 10.2183 97.7571 10.1549 97.6892 10.0666C97.5379 9.86374 97.4443 9.62763 97.4175 9.38092L97.318 8.71348L97.1822 9.37178C97.1453 9.5556 97.0825 9.73395 96.9954 9.90207C96.9199 10.0644 96.796 10.2026 96.6387 10.2998C96.5661 10.3428 96.482 10.3656 96.3961 10.3656C96.3103 10.3656 96.2262 10.3428 96.1535 10.2998C96.0086 10.1779 95.9041 10.0192 95.8527 9.84264C95.7331 9.46862 95.6439 9.08656 95.5859 8.69977C95.5519 8.50549 95.5155 8.3112 95.4694 8.11691C95.4418 7.92504 95.3724 7.74062 95.2656 7.5752Z" fill="#002F39"/>
<path d="M100.752 11.6889C100.752 11.6889 104.136 7.11748 101.596 6.75633C100.841 6.64433 97.6026 7.03748 97.673 7.65234C97.7652 8.44549 99.1505 8.51863 100.026 8.43634C100.026 8.43634 98.6434 9.83292 99.3906 11.0306C99.5303 11.2486 99.7316 11.4256 99.9719 11.5418C100.212 11.6581 100.482 11.709 100.752 11.6889Z" fill="#FFBE9D"/>
<path d="M101.805 6.80386C101.514 6.72802 101.213 6.69184 100.912 6.69643C100.611 6.69451 100.31 6.71208 100.012 6.749C99.4104 6.81134 98.8161 6.92378 98.2359 7.08501C98.0814 7.12817 97.9343 7.19207 97.7992 7.27472C97.7214 7.32213 97.6559 7.38541 97.6075 7.45986C97.5796 7.50032 97.5599 7.54526 97.5493 7.59244C97.5409 7.63858 97.5409 7.68573 97.5493 7.73187C97.5716 7.9015 97.6577 8.05799 97.7919 8.17301C97.9165 8.27525 98.0583 8.35714 98.2116 8.4153C98.5054 8.51729 98.8155 8.57139 99.1286 8.5753C99.4332 8.58381 99.7381 8.57158 100.041 8.53873L99.9559 8.37187C99.8053 8.53654 99.6713 8.71407 99.5556 8.90216C99.4389 9.08926 99.3422 9.2868 99.2669 9.49188C99.1957 9.69726 99.1564 9.9113 99.1505 10.1273C99.1436 10.3422 99.1807 10.5564 99.2596 10.7582C99.2101 10.5528 99.1978 10.3411 99.2232 10.1319C99.2495 9.92668 99.3058 9.72591 99.3906 9.53531C99.4734 9.34384 99.5766 9.1608 99.6987 8.98902C99.8185 8.81743 99.9549 8.65674 100.106 8.50901L100.296 8.32844L100.021 8.34216C99.729 8.36041 99.4356 8.36041 99.1432 8.34216C98.8571 8.33297 98.5745 8.28049 98.3062 8.18673C98.0636 8.09073 97.821 7.91701 97.7967 7.69987C97.7725 7.48272 98.0539 7.37529 98.3183 7.28843C98.5967 7.1975 98.8801 7.12119 99.1674 7.05986C99.4561 6.99358 99.7473 6.93186 100.038 6.88386C100.619 6.77108 101.215 6.74409 101.805 6.80386Z" fill="#002F39"/>
<path d="M109.372 16.1221L105.51 13.0844C105.51 13.0844 108.326 10.5564 110.158 9.29465C111.99 8.03293 113.115 8.26379 111.871 11.1621C111.145 12.8615 110.31 14.5178 109.372 16.1221Z" fill="#0087A2"/>
<path d="M109.702 14.8801C109.185 14.4641 108.656 14.0595 108.117 13.6709C107.851 13.4766 107.589 13.2824 107.317 13.0926C107.045 12.9029 106.747 12.7246 106.468 12.5304C106.464 12.5284 106.459 12.5279 106.455 12.5287C106.451 12.5295 106.447 12.5317 106.444 12.5349C106.441 12.5381 106.44 12.5421 106.439 12.5463C106.439 12.5504 106.441 12.5545 106.444 12.5578C106.706 12.7544 106.951 12.9669 107.213 13.1658C107.475 13.3646 107.758 13.5658 108.03 13.7624C108.572 14.1555 109.123 14.5365 109.682 14.9052C109.699 14.9121 109.719 14.8915 109.702 14.8801Z" fill="#002F39"/>
<path opacity="0.1" d="M111.871 11.1629C111.145 12.8623 110.31 14.5186 109.372 16.1229L106.021 13.4875L112.019 8.59375C112.521 8.74689 112.569 9.53318 111.871 11.1629Z" fill="black"/>
<path d="M106.906 24.0622L107.787 18.2245C107.787 18.2245 105.972 15.8656 106.775 14.2908C107.181 13.4953 109.973 9.46558 111.438 8.49415C112.814 7.57986 114.774 8.60158 115.499 9.34215C118.292 12.1902 119.738 16.3205 120.642 23.9342L106.906 24.0622Z" fill="#FFBE9D"/>
<path d="M106.785 21.6348L107.787 18.2245C107.787 18.2245 105.972 15.8656 106.775 14.2908C107.181 13.4953 109.973 9.46558 111.438 8.49415C112.814 7.57986 114.774 8.60158 115.499 9.34215C118.292 12.1902 119.878 14.4279 120.781 22.0417L106.785 21.6348Z" fill="#0087A2"/>
<path opacity="0.1" d="M120.757 21.8507L106.844 21.4392L106.873 21.3387L120.745 21.7524C120.749 21.7798 120.754 21.8141 120.757 21.8507ZM120.689 21.3044L107.004 20.8975L106.975 20.9935L120.706 21.3935C120.706 21.3661 120.706 21.3318 120.689 21.2998V21.3044ZM120.628 20.8472L107.135 20.4472L107.106 20.5455L120.643 20.9478L120.628 20.8472ZM120.565 20.3901L107.263 19.9947L107.237 20.0907L120.58 20.4884C120.573 20.4597 120.568 20.4307 120.565 20.4015V20.3901ZM120.495 19.933L107.394 19.5421L107.365 19.6404L120.512 20.0312C120.504 20.0221 120.5 19.9855 120.495 19.9535V19.933ZM120.422 19.4758L107.525 19.0918L107.496 19.1901L120.439 19.5741C120.434 19.5649 120.427 19.5352 120.422 19.5032V19.4758ZM120.344 19.0187L107.654 18.6392L107.627 18.7375L120.361 19.1169C120.356 19.1215 120.349 19.0872 120.344 19.0552V19.0187ZM120.259 18.5615L107.785 18.1912L107.756 18.2872L120.279 18.6621C120.274 18.6712 120.267 18.6369 120.259 18.6049V18.5615ZM120.17 18.1044L107.482 17.7272L107.545 17.8255L120.189 18.2027C120.184 18.2209 120.177 18.1935 120.17 18.1547V18.1044ZM120.073 17.6472L107.215 17.2632C107.234 17.2975 107.251 17.3318 107.27 17.3638L120.094 17.7455L120.073 17.6472ZM119.971 17.1901L106.989 16.8038C107.004 16.8381 107.018 16.8724 107.035 16.9044L119.993 17.2907L119.971 17.1901ZM119.857 16.7329L106.805 16.3444L106.841 16.4449L119.881 16.8335C119.874 16.8701 119.864 16.8358 119.857 16.8038V16.7329ZM119.733 16.2758L106.669 15.8849C106.669 15.9192 106.686 15.9535 106.696 15.9855L119.762 16.3741L119.733 16.2758ZM119.602 15.8186L106.589 15.4301C106.589 15.4644 106.589 15.4964 106.589 15.5306L119.621 15.9169L119.602 15.8186ZM119.456 15.3615L106.574 14.9775C106.574 15.0095 106.574 15.0438 106.574 15.0758L119.493 15.5512C119.478 15.5169 119.469 15.4849 119.456 15.4506V15.3615ZM119.299 14.9044L106.647 14.5272C106.647 14.5592 106.63 14.5912 106.623 14.6255L119.335 15.0049L119.299 14.9044ZM119.124 14.4472L106.836 14.0815C106.814 14.1181 106.797 14.1501 106.783 14.1775L119.156 14.5455C119.151 14.6118 119.139 14.5798 119.124 14.5478V14.4472ZM118.937 13.9901L107.103 13.6381C107.081 13.6701 107.062 13.7021 107.042 13.7341L118.978 14.0906C118.964 14.1638 118.949 14.1295 118.937 14.0952V13.9901ZM118.724 13.5329L107.389 13.1969L107.326 13.2929L118.765 13.7409C118.753 13.7067 118.739 13.6731 118.724 13.6403V13.5329ZM118.481 13.0758L107.678 12.7535L107.61 12.8495L118.527 13.1763C118.522 13.2541 118.522 13.2221 118.493 13.1878L118.481 13.0758ZM118.224 12.6186L107.984 12.3146L107.916 12.4106L118.282 12.7192L118.224 12.6186ZM117.943 12.1615L108.302 11.8735L108.231 11.9718L118.006 12.2621C117.998 12.3443 117.977 12.3101 117.955 12.2781L117.943 12.1615ZM117.63 11.7043L108.639 11.5649L108.566 11.6609L117.712 11.9329C117.69 11.8872 117.666 11.8529 117.642 11.8209L117.63 11.7043ZM117.29 11.2472L108.974 11.1078L108.898 11.2038L117.389 11.4575C117.355 11.4323 117.329 11.3958 117.309 11.3638L117.29 11.2472ZM116.924 10.79L109.306 10.5615L109.231 10.6575L116.994 10.886L116.924 10.79ZM116.526 10.3329L109.665 10.1295L109.582 10.2255L116.618 10.4358L116.526 10.3329ZM116.104 9.87575L110.039 9.69518L109.954 9.79118L116.198 9.97633L116.104 9.87575ZM115.669 9.41861L110.441 9.26318C110.41 9.29289 110.381 9.32489 110.349 9.35689L115.766 9.51918C115.745 9.59689 115.713 9.56261 115.681 9.52832L115.669 9.41861ZM115.184 8.96146L110.893 8.83346C110.857 8.86373 110.823 8.89577 110.791 8.92946L115.313 9.06432C115.272 9.13518 115.23 9.10089 115.184 9.06661V8.96146ZM114.439 8.59346L111.424 8.50432C111.377 8.53395 111.333 8.566 111.29 8.60032L114.633 8.6986C114.57 8.66432 114.507 8.63003 114.439 8.59346ZM112.2 8.17974L113.413 8.21631C113.017 8.11808 112.602 8.10635 112.2 8.18203V8.17974Z" fill="black"/>
<path d="M113.404 18.9327C112.943 18.8058 112.474 18.7035 112 18.6264C111.757 18.5875 111.515 18.5647 111.272 18.5441C111.158 18.5441 111.041 18.5281 110.927 18.5235C110.813 18.5189 110.685 18.5235 110.549 18.5235C110.534 18.5235 110.532 18.5418 110.549 18.5418C110.668 18.5532 110.792 18.5829 110.903 18.6012L111.26 18.6515C111.502 18.6858 111.733 18.7247 111.971 18.7567C112.456 18.8229 112.917 18.8938 113.39 18.9852C113.397 18.9871 113.405 18.986 113.412 18.9824C113.418 18.9787 113.423 18.9728 113.425 18.9658C113.427 18.9588 113.426 18.9514 113.422 18.9452C113.418 18.939 113.412 18.9345 113.404 18.9327Z" fill="#002F39"/>
<path d="M116.205 9.44325C119.844 11.7976 126.805 16.5496 126.278 18.7439C125.752 20.9382 119.243 25.1096 117.117 26.1816C116.421 26.5359 112.023 22.3965 112.644 21.8616C113.709 20.9473 119.1 17.6353 119.155 17.1987C119.192 16.9244 115.443 13.1256 114.187 10.8536C112.472 7.7541 115.14 8.75525 116.205 9.44325Z" fill="#FFBE9D"/>
<path d="M113.893 20.9541C113.893 20.9541 111.025 22.1335 109.482 22.9335C108.621 23.3907 107.216 24.2707 106.743 24.8718C106.035 25.7701 103.684 29.953 104.749 30.5107C105.72 31.0182 107.248 27.1827 107.248 27.1827C107.248 27.1827 105.334 30.9222 106.612 31.3313C107.891 31.7404 109.017 27.1896 109.017 27.1896C109.017 27.1896 107.141 31.0753 108.531 31.3039C109.582 31.473 110.846 27.4044 110.846 27.4044C110.846 27.4044 109.259 30.7553 110.331 30.9747C111.515 31.2033 112.932 27.5301 112.932 27.5301C115.756 27.6536 117.195 26.4924 118.097 25.6467C118.315 25.4387 113.893 20.9541 113.893 20.9541Z" fill="#FFBE9D"/>
<path d="M107.821 25.8488C107.578 26.2808 107.335 26.7174 107.132 27.1676C106.928 27.6179 106.748 28.0819 106.593 28.5391C106.378 29.1443 106.238 29.7709 106.176 30.4065C106.375 29.2865 107.066 27.6636 107.265 27.2065C107.464 26.7494 107.641 26.2922 107.84 25.8488C107.847 25.8442 107.828 25.8396 107.821 25.8488Z" fill="#002F39"/>
<path d="M109.561 26.5C109.279 27.0646 108.976 27.6131 108.719 28.1891C108.462 28.7652 108.275 29.332 108.061 29.9149C108.045 29.9606 108.076 29.9537 108.095 29.9149C108.338 29.3343 108.6 28.8154 108.845 28.2394C109.09 27.6634 109.311 27.076 109.573 26.5091C109.58 26.4954 109.566 26.4909 109.561 26.5Z" fill="#002F39"/>
<path d="M111.161 26.8037C110.705 27.6587 110.343 28.5556 110.081 29.4803C110.067 29.526 110.106 29.5123 110.125 29.4666C110.465 28.5706 110.727 27.8666 111.192 26.8197C111.2 26.8014 111.171 26.7854 111.161 26.8037Z" fill="#002F39"/>
<path d="M107.654 24.065C108.123 23.7244 108.61 23.4113 109.11 23.1118C109.61 22.8124 110.124 22.5381 110.646 22.2753C111.167 22.0124 111.708 21.7907 112.249 21.5667C112.79 21.3427 113.338 21.1392 113.896 20.9541C113.37 21.2078 112.839 21.4478 112.31 21.6901C111.781 21.9324 111.25 22.1724 110.728 22.4261C110.206 22.6798 109.692 22.9473 109.18 23.2215C108.668 23.4958 108.161 23.7815 107.654 24.065Z" fill="#002F39"/>
<path d="M117.286 15.4523L120.464 11.7105C120.464 11.7105 117.295 9.79053 115.257 8.84881C113.22 7.90709 112.157 8.31852 113.918 10.97C114.943 12.5271 116.068 14.024 117.286 15.4523Z" fill="#0087A2"/>
<path d="M119.493 11.6042C119.019 12.0613 118.559 12.5329 118.112 13.019C117.891 13.2476 117.666 13.4922 117.45 13.7345C117.234 13.9767 117.023 14.2487 116.8 14.4979C116.783 14.5162 116.8 14.5413 116.826 14.523C117.052 14.2945 117.292 14.0659 117.52 13.8373C117.748 13.6087 117.976 13.3482 118.204 13.1036C118.652 12.6205 119.089 12.1268 119.514 11.6224C119.524 11.611 119.493 11.5904 119.493 11.6042Z" fill="#002F39"/>
<path d="M117.29 15.451C116.892 14.8933 116.417 14.3881 115.985 13.851C115.553 13.3138 115.121 12.7698 114.713 12.219C114.713 12.2053 114.68 12.219 114.689 12.219C114.878 12.5047 115.06 12.795 115.259 13.0738C115.359 13.2133 115.461 13.3481 115.565 13.483L115.41 13.3504C115.248 13.2202 115.078 13.0982 114.903 12.9847C114.903 12.9847 114.886 12.9847 114.903 13.0007C115.05 13.1454 115.206 13.2827 115.369 13.4121C115.485 13.5059 115.611 13.5927 115.73 13.6819L115.914 13.9104C116.314 14.4634 116.768 14.98 117.271 15.4533C117.274 15.4546 117.277 15.455 117.281 15.4546C117.284 15.4542 117.287 15.453 117.29 15.451Z" fill="#002F39"/>
<path d="M112.923 8.95667C112.923 9.18524 111.628 10.9178 110.582 11.1144C110.242 11.1784 110.376 9.34067 110.376 9.34067L110.31 9.21953L109.41 7.52581L111.29 5.64922L111.567 5.39551C111.567 5.39551 111.78 5.87551 112.04 6.47437L112.079 6.55894L112.122 6.65723C112.161 6.74409 112.203 6.83552 112.241 6.92694C112.28 7.01837 112.3 7.06409 112.326 7.13952C112.353 7.21495 112.384 7.28352 112.414 7.35666C112.621 7.87888 112.791 8.41337 112.923 8.95667Z" fill="#FFBE9D"/>
<path d="M112.04 6.47209C111.98 7.0201 111.794 7.54928 111.496 8.02291C111.197 8.49653 110.792 8.90329 110.31 9.21496L109.41 7.52123L111.29 5.64465L111.567 5.39551C111.567 5.39551 111.78 5.87322 112.04 6.47209Z" fill="#002F39"/>
<path d="M105.962 4.74491C105.872 8.06836 107.975 8.49579 108.735 8.51179C109.426 8.52779 111.779 8.49807 112.233 5.20205C112.687 1.90604 111.073 0.8226 109.496 0.699171C107.92 0.575742 106.052 1.42146 105.962 4.74491Z" fill="#FFBE9D"/>
<path d="M112.164 4.97039C111.324 5.02754 111.249 3.77953 111.249 3.77953C111.249 3.77953 110.293 3.7521 110.128 2.30981C109.961 2.60919 109.722 2.86808 109.431 3.06631C109.139 3.26454 108.804 3.39676 108.449 3.45267C108.178 3.50524 109.051 2.78524 109.051 2.78524C109.051 2.78524 108.013 3.79324 105.955 3.56467C105.81 3.54867 105.984 1.50752 107.537 0.723513C109.09 -0.0604914 110.555 0.250368 111.606 1.14409C111.898 1.26799 112.153 1.45806 112.348 1.69735C112.543 1.93665 112.672 2.21773 112.724 2.51552C112.923 3.53724 112.489 4.94982 112.164 4.97039Z" fill="#002F39"/>
<path d="M106.635 4.158C106.717 4.14351 106.798 4.12443 106.877 4.10085C106.963 4.09283 107.044 4.05735 107.105 4.00028C107.123 3.97975 107.132 3.95439 107.132 3.92828C107.132 3.90217 107.123 3.87682 107.105 3.85628C107.064 3.82141 107.013 3.79771 106.958 3.78765C106.904 3.7776 106.847 3.78157 106.795 3.79914C106.683 3.81894 106.584 3.87771 106.516 3.96371C106.502 3.98316 106.495 4.00574 106.494 4.02896C106.494 4.05218 106.5 4.07512 106.512 4.09525C106.524 4.11537 106.542 4.13189 106.564 4.14296C106.586 4.15404 106.61 4.15924 106.635 4.158Z" fill="#002F39"/>
<path d="M108.917 4.04896C108.836 4.04132 108.755 4.02911 108.675 4.01238C108.586 4.01027 108.501 3.98052 108.432 3.92781C108.415 3.90712 108.406 3.88182 108.406 3.85581C108.406 3.8298 108.415 3.80451 108.432 3.78381C108.471 3.74642 108.519 3.71931 108.572 3.70526C108.625 3.6912 108.682 3.6907 108.735 3.70381C108.848 3.71489 108.953 3.76544 109.029 3.84553C109.045 3.86449 109.054 3.88737 109.057 3.91142C109.059 3.93547 109.054 3.95967 109.043 3.98113C109.031 4.00259 109.013 4.0204 108.991 4.03243C108.968 4.04446 108.943 4.0502 108.917 4.04896Z" fill="#002F39"/>
<path d="M108.449 4.9082C108.449 4.9082 108.468 4.91963 108.468 4.92878C108.468 5.15735 108.502 5.41564 108.711 5.48649V5.50021C108.452 5.46821 108.408 5.12306 108.449 4.9082Z" fill="#002F39"/>
<path d="M108.66 4.66915C109.045 4.63487 109.089 5.35487 108.732 5.39602C108.376 5.43716 108.332 4.70801 108.66 4.66915Z" fill="#002F39"/>
<path d="M108.817 4.70652C108.885 4.74309 108.958 4.81166 109.038 4.81623C109.118 4.8208 109.201 4.73851 109.259 4.66309H109.271C109.271 4.80252 109.235 4.9488 109.077 4.97852C108.919 5.00823 108.82 4.88709 108.774 4.74994C108.764 4.72252 108.786 4.68366 108.817 4.70652Z" fill="#002F39"/>
<path d="M107.143 4.9668C107.143 4.9668 107.126 4.97823 107.126 4.98737C107.148 5.21594 107.126 5.47423 106.922 5.56337C106.922 5.56337 106.922 5.57709 106.922 5.5748C107.189 5.52452 107.203 5.17708 107.143 4.9668Z" fill="#002F39"/>
<path d="M106.913 4.74414C106.525 4.74414 106.544 5.471 106.913 5.47557C107.282 5.48014 107.238 4.74871 106.913 4.74414Z" fill="#002F39"/>
<path d="M106.754 4.79525C106.693 4.83411 106.635 4.90725 106.562 4.91411C106.489 4.92097 106.412 4.84325 106.356 4.76782H106.344C106.344 4.90725 106.397 5.05125 106.54 5.07411C106.683 5.09697 106.763 4.97354 106.783 4.84554C106.8 4.81811 106.778 4.77925 106.754 4.79525Z" fill="#002F39"/>
<path d="M108.551 6.73647C108.498 6.79361 108.45 6.87132 108.365 6.88732C108.275 6.89378 108.185 6.88289 108.1 6.85532C108.139 6.8969 108.189 6.92763 108.245 6.94416C108.301 6.96069 108.361 6.96238 108.418 6.94904C108.466 6.93241 108.507 6.90293 108.537 6.8643C108.566 6.82566 108.583 6.7796 108.585 6.73189C108.585 6.72979 108.584 6.72777 108.583 6.72595C108.582 6.72412 108.581 6.72252 108.579 6.72125C108.577 6.71998 108.575 6.71905 108.573 6.71852C108.571 6.718 108.568 6.71788 108.566 6.71818C108.564 6.71848 108.562 6.71919 108.56 6.72027C108.558 6.72135 108.555 6.72448 108.555 6.72448C108.553 6.72618 108.552 6.72811 108.552 6.73017C108.551 6.73223 108.551 6.73436 108.551 6.73647Z" fill="#002F39"/>
<path d="M107.508 5.95866C107.508 5.95866 107.474 6.29923 107.482 6.45923C107.482 6.47295 107.523 6.4798 107.581 6.4798C107.727 6.49893 107.876 6.4796 108.012 6.42393C108.147 6.36826 108.263 6.27843 108.348 6.16437C108.348 6.14837 108.348 6.13237 108.321 6.1438C108.111 6.29217 107.856 6.37237 107.593 6.37237C107.579 6.32894 107.671 5.7918 107.644 5.7918C107.513 5.80697 107.385 5.84008 107.263 5.89008C107.312 5.17922 107.479 4.48208 107.506 3.7735C107.506 3.76805 107.504 3.76281 107.499 3.75895C107.495 3.7551 107.49 3.75293 107.484 3.75293C107.478 3.75293 107.473 3.7551 107.469 3.75895C107.465 3.76281 107.462 3.76805 107.462 3.7735C107.269 4.51366 107.154 5.27018 107.12 6.0318C107.098 6.12323 107.44 5.99066 107.508 5.95866Z" fill="#002F39"/>
<path d="M107.689 6.39041C107.781 6.50099 107.901 6.58756 108.039 6.64184C108.116 6.67076 108.201 6.67557 108.281 6.65556C108.454 6.61213 108.456 6.46356 108.425 6.33784C108.408 6.27013 108.382 6.2048 108.347 6.14355C108.162 6.29087 107.931 6.37751 107.689 6.39041Z" fill="#002F39"/>
<path d="M109.377 1.33179C109.459 1.64722 110.075 1.77065 110.752 1.60836C111.429 1.44608 111.909 1.06207 111.824 0.748929C111.74 0.435785 111.123 0.312356 110.447 0.472357C109.77 0.632357 109.304 1.01865 109.377 1.33179Z" fill="#0087A2"/>
<path d="M109.626 1.20376C109.692 1.43233 110.16 1.53519 110.674 1.41404C111.189 1.2929 111.553 0.998042 111.487 0.760326C111.421 0.52261 110.956 0.426609 110.441 0.550038C109.927 0.673467 109.563 0.96604 109.626 1.20376Z" fill="#002F39"/>
<path d="M109.567 0.961593L109.74 0.838164C109.405 0.426733 108.827 0.534162 108.57 0.648448L108.663 0.833593C108.687 0.822165 109.254 0.579877 109.567 0.961593Z" fill="#0087A2"/>
<path d="M112.961 5.46029C112.961 5.42829 112.896 4.64428 112.874 4.49342C112.852 4.34257 111.287 1.27055 111.273 1.25684L111.195 1.32769L111.105 1.38484C111.193 1.51741 112.612 4.35628 112.661 4.52542C112.709 4.69457 112.745 5.46943 112.745 5.47629L112.961 5.46029Z" fill="#0087A2"/>
<path d="M106.472 1.05249C106.557 1.36792 107.173 1.49135 107.85 1.32907C108.527 1.16678 109.004 0.782777 108.922 0.469632C108.839 0.156488 108.221 0.0330585 107.544 0.19306C106.867 0.353061 106.392 0.741635 106.472 1.05249Z" fill="#0087A2"/>
<path d="M106.734 0.942432C106.799 1.171 107.267 1.27615 107.782 1.15272C108.296 1.02929 108.66 0.739004 108.594 0.499002C108.529 0.259001 108.063 0.167572 107.549 0.288716C107.035 0.409859 106.671 0.704717 106.734 0.942432Z" fill="#002F39"/>
<path d="M111.658 5.2183C111.658 5.2183 112.359 4.13715 112.871 4.36572C113.383 4.59429 112.908 6.1303 112.335 6.3703C112.264 6.40569 112.186 6.42715 112.106 6.43338C112.025 6.43962 111.945 6.4305 111.868 6.40659C111.792 6.38268 111.722 6.34445 111.661 6.29422C111.601 6.24399 111.552 6.18279 111.518 6.1143L111.658 5.2183Z" fill="#FFBE9D"/>
</g>
<defs>
<clipPath id="clip0_4025_6064">
<rect width="145" height="85" fill="white"/>
</clipPath>
</defs>
</svg>
