<svg width="132" height="128" viewBox="0 0 132 128" fill="none" xmlns="http://www.w3.org/2000/svg">
<rect y="13.0039" width="95" height="94" rx="18" fill="#B0DAE2"/>
<path d="M120.32 84.9273L116.821 80.901L79.9339 59.2893C79.0154 58.6538 77.6399 59.943 77.1045 61.2435C77.0212 61.4376 76.9581 61.6399 76.9163 61.8472C76.8133 62.3874 76.9029 62.8754 77.2994 63.15L114.486 84.9387L119.589 85.96L120.978 86.2392C121.02 86.2486 121.063 86.2443 121.102 86.227C121.141 86.2098 121.173 86.1804 121.194 86.1432C121.216 86.1059 121.225 86.0628 121.22 86.0201C121.215 85.9774 121.197 85.9372 121.169 85.9056L120.32 84.9273Z" fill="#999999"/>
<path d="M58.2403 57.1887L17.4467 84.9125C16.8396 85.3256 16.8418 85.9497 17.4467 86.3083L72.5998 118.537C72.9458 118.712 73.3298 118.794 73.7158 118.776C74.1018 118.759 74.4771 118.642 74.8064 118.438L115.6 90.7137C116.207 90.3006 116.205 89.6742 115.6 89.3156L60.4469 57.0888C60.1008 56.9147 59.7168 56.8326 59.3308 56.85C58.9449 56.8675 58.5696 56.984 58.2403 57.1887Z" fill="#999999"/>
<path d="M81.5527 63.6933L82.0299 63.9702L82.6034 64.3061L115.133 83.3711C114.954 82.9649 115.093 82.1546 115.503 81.3784C115.978 80.4705 116.706 79.7556 117.232 79.7284L84.857 60.7541L83.7571 60.114C84.447 60.5679 82.2472 64.1381 81.5527 63.6933Z" fill="#003D49"/>
<path d="M84.8086 60.7224L83.7423 60.105C83.4398 59.9167 82.8663 60.4682 82.3623 61.1967C81.6903 62.1636 81.1481 63.4437 81.5491 63.6934L82.3354 64.1473L82.6177 64.3039C82.2167 64.0542 82.7588 62.7719 83.4309 61.8073C83.9125 61.1105 84.4658 60.5726 84.775 60.702C84.7879 60.7054 84.7995 60.7124 84.8086 60.7224Z" fill="#999999"/>
<path d="M84.5426 60.5715C83.8392 60.1312 81.6483 63.7195 82.3495 64.1599L83.4136 64.7795C82.7124 64.3392 84.9033 60.7508 85.6067 61.1912L84.5426 60.5715Z" fill="#00657A"/>
<path d="M86.6161 61.7812L85.5654 61.1684C84.8799 60.7304 82.7294 64.1734 83.3118 64.7204C83.3231 64.732 83.3359 64.7419 83.3499 64.7499L84.4117 65.3582C83.724 64.9179 85.9194 61.3341 86.6161 61.7812Z" fill="#999999"/>
<path d="M83.7579 60.1076H83.7422C83.442 59.9124 82.8685 60.4685 82.3645 61.1993C81.6924 62.148 81.1593 63.4031 81.5334 63.6823L77.0956 61.0972C76.7394 60.8498 76.6476 60.4163 76.7506 59.9238C76.997 58.6119 78.5114 56.9483 79.4702 57.611L83.7579 60.1076Z" fill="#EDBFC8"/>
<path d="M120.071 83.5314C119.704 84.0352 119.74 84.2826 119.74 84.2826L115.136 83.3634C114.688 82.6575 114.979 81.5091 115.611 80.692L115.813 80.8078L120.071 83.5314Z" fill="#EDBFC8"/>
<path d="M120.989 84.5331L119.737 84.2857C119.737 84.2857 119.681 84.0383 120.069 83.5345L121.162 84.2335C121.193 84.2695 121.208 84.316 121.206 84.3634C121.203 84.4108 121.183 84.4553 121.148 84.4877C121.128 84.5084 121.103 84.5234 121.075 84.5313C121.047 84.5392 121.018 84.5399 120.989 84.5331Z" fill="#003D49"/>
<path d="M117.235 79.7261L120.394 83.3576C120.269 83.38 120.155 83.4438 120.069 83.5391L115.813 80.8156L115.611 80.6998C116.044 80.1392 116.631 79.7329 117.235 79.7261Z" fill="#EDBFC8"/>
<path d="M120.066 83.5292C120.104 83.4765 120.153 83.4329 120.209 83.4015C120.265 83.3701 120.327 83.3517 120.391 83.3476L121.16 84.2282L120.066 83.5292Z" fill="#003D49"/>
<path opacity="0.2" d="M115.607 80.6952L77.1948 58.8294C76.9825 59.1642 76.8308 59.5347 76.7468 59.9234C76.6527 60.4114 76.7356 60.8471 77.094 61.0968L81.552 63.6933L82.0291 63.9702L82.6026 64.3061L115.132 83.3712C114.57 82.4905 115.177 81.1923 115.607 80.6952Z" fill="black"/>
<path d="M59.2861 58.585L20.6072 82.7159L19.8164 84.1254V85.233C19.8197 85.5081 19.8958 85.7774 20.0369 86.0125C20.178 86.2477 20.3788 86.4401 20.6184 86.5698L71.8624 116.588C72.27 116.813 72.7321 116.917 73.1953 116.888C73.6675 116.872 74.1265 116.727 74.5238 116.468L112.329 90.7618V89.6565L59.2861 58.585Z" fill="#003D49"/>
<path d="M73.1945 115.784C72.7317 115.813 72.2702 115.708 71.8638 115.482L20.6242 85.4638C20.3845 85.3343 20.1836 85.1419 20.0425 84.9067C19.9014 84.6715 19.8253 84.4022 19.8223 84.127C19.8274 83.8438 19.9025 83.5665 20.0406 83.3203C20.1787 83.0741 20.3755 82.8668 20.613 82.7175L57.576 57.5834L112.33 89.6604L74.5229 115.362C74.1257 115.621 73.6667 115.767 73.1945 115.784Z" fill="#00657A"/>
<path d="M57.5663 54.3376L21.0178 79.1857L20.6504 79.7781L20.6683 84.0905C20.6765 84.2093 20.7159 84.3237 20.7825 84.4219C20.8491 84.5201 20.9404 84.5984 21.0469 84.6488L72.2797 114.665C72.5649 114.809 72.8815 114.876 73.1997 114.862C73.5179 114.848 73.8272 114.752 74.0988 114.583L110.649 89.7351L110.629 85.4227L57.5663 54.3376Z" fill="#999999"/>
<path d="M110.628 85.424L110.18 85.7349L104.232 89.7772L103.125 90.533L74.0882 110.279C73.8166 110.447 73.5072 110.543 73.1891 110.558C72.8709 110.572 72.5544 110.504 72.2691 110.361L21.0161 80.3354C20.5166 80.0403 20.5143 79.5229 21.0161 79.1824L21.5023 78.8533L57.5691 54.3411L110.173 85.1561L110.283 85.2242L110.628 85.424Z" fill="white"/>
<path d="M73.1702 110.555L73.1882 114.867C72.877 114.886 72.5667 114.817 72.2921 114.667L21.0391 84.6467C20.9327 84.5965 20.8416 84.5181 20.7754 84.4198C20.7091 84.3216 20.6702 84.2071 20.6627 84.0884L20.6426 79.7761C20.6519 79.8943 20.6915 80.008 20.7575 80.1059C20.8235 80.2038 20.9136 80.2826 21.0189 80.3344L72.263 110.355C72.5409 110.507 72.8553 110.576 73.1702 110.555Z" fill="#999999"/>
<path d="M110.624 84.8491L104.045 89.3203L103.012 90.0216L74.0758 109.695C73.8044 109.864 73.4952 109.96 73.177 109.975C72.8589 109.989 72.5423 109.922 72.2568 109.779L26.369 82.8972C25.9568 82.6702 25.5738 82.4432 25.2153 82.2163C23.347 81.0587 22.2202 79.9988 21.4966 78.8481L21.4093 78.7028C21.3513 78.6142 21.3117 78.5146 21.2928 78.4101C21.2578 78.188 21.3029 77.9606 21.4197 77.7693C21.5365 77.5781 21.7172 77.4357 21.929 77.3683C23.1373 76.924 24.2923 76.3431 25.3721 75.6365L25.417 75.607L57.5568 53.7548L110.624 84.8491Z" fill="white"/>
<path d="M57.5657 54.0249L110.21 84.8604L103.937 89.1296L102.907 89.831L73.9616 109.507C73.6968 109.671 73.3915 109.755 73.0812 109.749C72.8364 109.756 72.594 109.698 72.3778 109.581L26.4698 82.6974C26.0957 82.4886 25.7194 82.2685 25.3251 82.0279C23.5666 80.9362 22.4129 79.8899 21.6803 78.7323L21.64 78.6665L21.5907 78.5871C21.547 78.5183 21.518 78.441 21.5056 78.3601C21.4818 78.1915 21.5184 78.0198 21.6089 77.8761C21.6993 77.7325 21.8375 77.6264 21.9984 77.5771C23.2222 77.1279 24.3916 76.5393 25.4842 75.8227L25.511 75.8068H25.5245L57.559 54.034M57.559 53.7662L25.417 75.6116L25.3721 75.6411C24.2923 76.3476 23.1373 76.9285 21.929 77.3728C21.7172 77.4403 21.5365 77.5826 21.4197 77.7738C21.3029 77.9651 21.2578 78.1925 21.2928 78.4146C21.3117 78.5192 21.3513 78.6188 21.4093 78.7074L21.4966 78.8526C22.2202 80.0034 23.347 81.0633 25.2153 82.2208C25.5738 82.4478 25.9568 82.6747 26.369 82.9017L72.2568 109.779C72.5071 109.915 72.7881 109.983 73.0722 109.976C73.4265 109.982 73.7749 109.884 74.0758 109.695L103.012 90.0216L104.045 89.3203L110.624 84.8491L57.5568 53.7548L57.559 53.7662Z" fill="#999999"/>
<path opacity="0.1" d="M103.798 84.6542C103.332 84.9742 103.334 85.4577 103.798 85.7346C104.064 85.8692 104.36 85.9327 104.658 85.9192C104.955 85.9057 105.245 85.8156 105.498 85.6574C105.966 85.3374 105.966 84.8539 105.498 84.577C105.232 84.4418 104.936 84.3779 104.638 84.3914C104.34 84.4049 104.051 84.4954 103.798 84.6542Z" fill="black"/>
<path d="M109.243 80.9135C108.593 80.5344 107.782 80.6343 106.956 81.1926C105.679 82.0665 104.576 83.9321 104.102 85.8545C104.305 85.9161 104.518 85.9347 104.729 85.909C105.177 84.1954 106.142 82.5522 107.274 81.7782C107.58 81.5538 107.939 81.4166 108.315 81.381C108.53 81.3681 108.743 81.4186 108.929 81.5263C109.478 81.8486 109.796 82.677 109.801 83.7959C109.803 83.9809 109.794 84.1659 109.774 84.3497L110.372 84.7015C110.412 84.3915 110.432 84.0791 110.432 83.7664C110.426 82.3978 109.993 81.3538 109.243 80.9135Z" fill="#003D49"/>
<path d="M110.313 85.0612C110.307 85.1156 110.297 85.1696 110.284 85.2226L110.174 85.1554L110.313 85.0612Z" fill="#003D49"/>
<path opacity="0.1" d="M98.6611 81.6435C98.1952 81.9635 98.1974 82.4469 98.6611 82.7238C98.9276 82.8585 99.2236 82.922 99.5211 82.9085C99.8187 82.895 100.108 82.8049 100.361 82.6467C100.83 82.3266 100.83 81.8432 100.361 81.5663C100.095 81.4315 99.7989 81.3678 99.5014 81.3813C99.2038 81.3948 98.9146 81.485 98.6611 81.6435Z" fill="black"/>
<path d="M104.106 77.9055C103.456 77.5242 102.645 77.624 101.821 78.1824C100.542 79.0562 99.4398 80.9219 98.9648 82.8465C99.1684 82.906 99.3815 82.9245 99.5921 82.901C100.04 81.1851 101.008 79.5419 102.137 78.768C102.443 78.5435 102.803 78.4063 103.179 78.3708C103.393 78.3584 103.606 78.4097 103.792 78.5183C104.341 78.8383 104.659 79.6667 104.664 80.7879C104.666 80.9729 104.657 81.1579 104.637 81.3417L105.235 81.6935C105.277 81.3837 105.297 81.0712 105.296 80.7584C105.289 79.3853 104.857 78.3458 104.106 77.9055Z" fill="#003D49"/>
<path opacity="0.1" d="M93.5236 78.636C93.0599 78.9537 93.0599 79.4372 93.5236 79.7163C93.7904 79.8499 94.0862 79.9129 94.3835 79.8994C94.6808 79.8859 94.9699 79.7964 95.2239 79.6392C95.6943 79.3191 95.6921 78.8357 95.2239 78.5588C94.9574 78.424 94.6614 78.3603 94.3638 78.3738C94.0663 78.3873 93.7771 78.4775 93.5236 78.636Z" fill="black"/>
<path d="M98.9654 74.906C98.318 74.5247 97.5071 74.6268 96.6804 75.1829C95.4013 76.0567 94.3014 77.9224 93.8242 79.847C94.0278 79.9063 94.2409 79.9248 94.4515 79.9015C94.8995 78.1856 95.8673 76.5424 96.9985 75.7685C97.3034 75.5437 97.6625 75.4065 98.038 75.3713C98.253 75.3603 98.4666 75.4115 98.654 75.5188C99.2006 75.8388 99.521 76.6672 99.5255 77.7885C99.5269 77.9742 99.5172 78.1599 99.4963 78.3445L100.097 78.694C100.137 78.3848 100.156 78.0731 100.155 77.7612C100.148 76.3745 99.7226 75.335 98.9654 74.906Z" fill="#003D49"/>
<path opacity="0.1" d="M88.3896 75.6271C87.9237 75.9471 87.9259 76.4306 88.3896 76.7075C88.6561 76.842 88.9519 76.9057 89.2493 76.8926C89.5468 76.8795 89.836 76.79 90.0899 76.6326C90.5581 76.3103 90.5581 75.8268 90.0899 75.5499C89.8233 75.4157 89.5274 75.3524 89.2299 75.3659C88.9325 75.3794 88.6434 75.4693 88.3896 75.6271Z" fill="black"/>
<path d="M93.8365 71.8892C93.1869 71.5079 92.3759 71.61 91.5515 72.1683C90.2724 73.0399 89.1702 74.9056 88.6953 76.8302C88.8989 76.8896 89.112 76.9082 89.3226 76.8847C89.7594 75.1688 90.7361 73.5256 91.8696 72.7517C92.1745 72.5269 92.5336 72.3897 92.9091 72.3545C93.1241 72.3435 93.3377 72.3947 93.5251 72.502C94.0717 72.822 94.3898 73.6504 94.3943 74.7716C94.3965 74.9574 94.3875 75.1431 94.3674 75.3277L94.9678 75.6772C95.0069 75.3679 95.0264 75.0563 95.0261 74.7444C95.0238 73.369 94.587 72.3295 93.8365 71.8892Z" fill="#003D49"/>
<path opacity="0.1" d="M83.2549 72.6185C82.7889 72.9386 82.7912 73.422 83.2549 73.6989C83.521 73.8335 83.8166 73.8971 84.1138 73.8836C84.4109 73.8701 84.6998 73.78 84.9529 73.6217C85.4234 73.3017 85.4211 72.8183 84.9529 72.5414C84.6869 72.4065 84.3912 72.3428 84.094 72.3563C83.7968 72.3698 83.508 72.4601 83.2549 72.6185Z" fill="black"/>
<path d="M88.6998 68.8787C88.0502 68.4974 87.2392 68.5995 86.4148 69.1579C85.1357 70.0317 84.0335 71.8951 83.5586 73.8197C83.7617 73.8815 83.9753 73.9 84.1858 73.8742C84.6227 72.1606 85.5994 70.5174 86.7307 69.7434C87.0368 69.5189 87.3963 69.3811 87.7724 69.344C87.9866 69.3333 88.1995 69.3845 88.3862 69.4915C88.935 69.8138 89.2531 70.6422 89.2576 71.7611C89.2598 71.9461 89.2508 72.1311 89.2307 72.3149L89.8289 72.6645C89.8692 72.3552 89.8886 72.0436 89.8871 71.7316C89.8826 70.3676 89.448 69.319 88.6998 68.8787Z" fill="#003D49"/>
<path opacity="0.1" d="M78.1162 69.6096C77.6502 69.9296 77.6525 70.413 78.1162 70.6899C78.3823 70.8246 78.678 70.8881 78.9751 70.8746C79.2723 70.8611 79.5611 70.771 79.8143 70.6128C80.2847 70.2927 80.2825 69.8093 79.8143 69.5324C79.5481 69.398 79.2525 69.3345 78.9554 69.348C78.6582 69.3615 78.3694 69.4516 78.1162 69.6096Z" fill="black"/>
<path d="M83.5631 65.869C82.9134 65.49 82.1025 65.5921 81.2781 66.1482C79.999 67.022 78.8923 68.8876 78.4219 70.8214C78.6254 70.8809 78.8385 70.8994 79.0491 70.8759C79.486 69.16 80.4627 67.5168 81.594 66.7428C81.8999 66.5184 82.2596 66.3812 82.6356 66.3456C82.85 66.3342 83.063 66.3854 83.2495 66.4932C83.7983 66.8132 84.1164 67.6416 84.1209 68.7628C84.1231 68.9478 84.1141 69.1327 84.094 69.3166L84.6921 69.6684C84.732 69.3591 84.7522 69.0475 84.7526 68.7356C84.7459 67.3511 84.3135 66.3093 83.5631 65.869Z" fill="#003D49"/>
<path opacity="0.1" d="M72.9834 66.6024C72.5174 66.9224 72.5197 67.4058 72.9834 67.6827C73.2495 67.8173 73.5452 67.8809 73.8423 67.8674C74.1395 67.8539 74.4283 67.7638 74.6815 67.6055C75.1519 67.2855 75.1496 66.8021 74.6815 66.5252C74.4154 66.3903 74.1197 66.3266 73.8225 66.3402C73.5253 66.3537 73.2365 66.4439 72.9834 66.6024Z" fill="black"/>
<path d="M78.4297 62.8618C77.78 62.4827 76.9691 62.5826 76.1425 63.1409C74.8611 64.0125 73.7634 65.8804 73.293 67.8028C73.4961 67.8646 73.7097 67.8831 73.9202 67.8573C74.3683 66.1437 75.3338 64.5005 76.4651 63.7242C76.7715 63.5013 77.1311 63.365 77.5067 63.3293C77.7208 63.3172 77.9339 63.3676 78.1205 63.4746C78.6694 63.7969 78.9875 64.6253 78.992 65.7442C78.993 65.9292 78.9841 66.1141 78.9651 66.298L79.5632 66.6476C79.6031 66.3383 79.6233 66.0267 79.6237 65.7147C79.6125 64.3439 79.1802 63.3021 78.4297 62.8618Z" fill="#003D49"/>
<path opacity="0.1" d="M67.8467 63.5923C67.3807 63.9123 67.383 64.3957 67.8467 64.6726C68.1132 64.8072 68.4092 64.8708 68.7067 64.8573C69.0042 64.8438 69.2934 64.7537 69.547 64.5955C70.0152 64.2777 70.0152 63.792 69.547 63.5151C69.2803 63.3809 68.9844 63.3176 68.687 63.3311C68.3896 63.3446 68.1004 63.4344 67.8467 63.5923Z" fill="black"/>
<path d="M73.2916 59.8544C72.6419 59.4731 71.8332 59.5752 71.0066 60.1313C69.7275 61.0051 68.6253 62.8707 68.1504 64.7954C68.354 64.8549 68.5671 64.8734 68.7776 64.8499C69.2257 63.134 70.1912 61.4908 71.3247 60.7168C71.6296 60.4921 71.9887 60.3548 72.3642 60.3196C72.5785 60.3082 72.7915 60.3594 72.978 60.4672C73.5268 60.7872 73.8449 61.6156 73.8494 62.7368C73.8516 62.9218 73.8426 63.1067 73.8225 63.2906L74.4229 63.6424C74.462 63.333 74.4815 63.0215 74.4811 62.7096C74.4744 61.3342 74.0421 60.2947 73.2916 59.8544Z" fill="#003D49"/>
<path opacity="0.1" d="M62.71 60.585C62.244 60.9027 62.2462 61.3862 62.71 61.6654C62.9766 61.7996 63.2725 61.8629 63.5699 61.8494C63.8674 61.8359 64.1565 61.746 64.4102 61.5882C64.8784 61.2682 64.8784 60.7847 64.4102 60.5078C64.1438 60.373 63.8478 60.3093 63.5502 60.3228C63.2527 60.3363 62.9635 60.4266 62.71 60.585Z" fill="black"/>
<path d="M68.1568 56.8447C67.5072 56.4634 66.6962 56.5655 65.8719 57.1239C64.5927 57.9977 63.4905 59.8611 63.0156 61.7857C63.219 61.8463 63.4323 61.8648 63.6429 61.8402C64.0797 60.1243 65.0564 58.4811 66.1877 57.7072C66.4941 57.4836 66.8536 57.3465 67.2294 57.31C67.4437 57.2985 67.6568 57.3498 67.8432 57.4575C68.392 57.7775 68.7102 58.6059 68.7146 59.7271C68.7169 59.9129 68.7079 60.0986 68.6878 60.2832L69.2859 60.6327C69.3268 60.3235 69.3471 60.0119 69.3464 59.6999C69.3396 58.3245 68.9073 57.285 68.1568 56.8447Z" fill="#003D49"/>
<path opacity="0.1" d="M57.5752 57.576C57.1092 57.896 57.1115 58.3794 57.5752 58.6563C57.8417 58.7909 58.1377 58.8545 58.4352 58.841C58.7327 58.8275 59.0219 58.7374 59.2755 58.5792C59.7459 58.2591 59.7437 57.7757 59.2755 57.4988C59.0088 57.3646 58.7129 57.3013 58.4155 57.3148C58.1181 57.3283 57.8289 57.4182 57.5752 57.576Z" fill="black"/>
<path d="M63.0201 53.8378C62.3727 53.4565 61.5618 53.5586 60.7351 54.1147C59.456 54.9885 58.3561 56.8541 57.8789 58.7788C58.0825 58.8382 58.2956 58.8567 58.5062 58.8333C58.9542 57.1174 59.9219 55.4742 61.0532 54.7002C61.3581 54.4755 61.7172 54.3382 62.0927 54.303C62.3078 54.2912 62.5216 54.3424 62.7087 54.4506C63.2553 54.7706 63.5757 55.599 63.5802 56.7202C63.5813 56.9052 63.5724 57.0901 63.5533 57.274L64.1514 57.6258C64.1916 57.3166 64.2111 57.0049 64.2096 56.693C64.2029 55.3176 63.7706 54.2781 63.0201 53.8378Z" fill="#003D49"/>
<path d="M68.021 104.185C67.9186 104.189 67.8172 104.164 67.7285 104.112C67.6397 104.06 67.5672 103.984 67.5192 103.892C67.443 103.746 67.4219 103.577 67.4598 103.416C67.4977 103.255 67.5921 103.114 67.7253 103.019L95.844 83.9012C95.907 83.8569 95.9786 83.8267 96.0541 83.8125C96.1295 83.7983 96.2071 83.8005 96.2816 83.819C96.3562 83.8374 96.426 83.8717 96.4865 83.9195C96.547 83.9674 96.5968 84.0276 96.6325 84.0964C96.7087 84.2426 96.7298 84.4119 96.6919 84.5726C96.654 84.7334 96.5596 84.8747 96.4264 84.9702L68.31 104.094C68.2235 104.15 68.1236 104.182 68.021 104.185Z" fill="#999999"/>
<path d="M64.6005 102.19C64.4981 102.194 64.3967 102.168 64.308 102.117C64.2192 102.065 64.1466 101.989 64.0987 101.897C64.0227 101.751 64.0019 101.581 64.0403 101.42C64.0786 101.259 64.1734 101.118 64.307 101.023L92.4235 81.9036C92.4868 81.8596 92.5586 81.8296 92.6341 81.8156C92.7097 81.8016 92.7873 81.8039 92.8619 81.8223C92.9365 81.8407 93.0064 81.8749 93.0671 81.9225C93.1278 81.9701 93.178 82.0302 93.2142 82.0988C93.2902 82.2452 93.311 82.4146 93.2726 82.5754C93.2343 82.7363 93.1395 82.8774 93.0059 82.9726L64.8894 102.092C64.8038 102.151 64.7038 102.185 64.6005 102.19Z" fill="#999999"/>
<path d="M61.173 100.182C61.0708 100.186 60.9696 100.16 60.8812 100.108C60.7928 100.055 60.7208 99.979 60.6735 99.887C60.5973 99.7409 60.5762 99.5716 60.6141 99.4108C60.652 99.25 60.7464 99.1087 60.8796 99.0132L88.9983 79.9005C89.0616 79.8569 89.1332 79.8272 89.2085 79.8135C89.2837 79.7997 89.3611 79.8021 89.4354 79.8205C89.5097 79.8388 89.5794 79.8729 89.6399 79.9203C89.7005 79.9677 89.7505 80.0274 89.7868 80.0957C89.863 80.2418 89.8841 80.4111 89.8462 80.5719C89.8083 80.7327 89.7139 80.874 89.5807 80.9695L61.462 100.082C61.3765 100.142 61.2766 100.176 61.173 100.182Z" fill="#999999"/>
<path d="M57.7534 98.1787C57.6509 98.1822 57.5494 98.1564 57.4607 98.1042C57.3719 98.052 57.2995 97.9756 57.2516 97.8836C57.1754 97.7374 57.1543 97.5682 57.1922 97.4074C57.2302 97.2466 57.3245 97.1053 57.4577 97.0098L85.5764 77.8925C85.6393 77.8479 85.711 77.8173 85.7865 77.8029C85.862 77.7885 85.9397 77.7907 86.0143 77.8091C86.089 77.8276 86.1589 77.862 86.2193 77.9101C86.2798 77.9581 86.3294 78.0187 86.365 78.0877C86.4411 78.2339 86.4623 78.4032 86.4243 78.5639C86.3864 78.7247 86.2921 78.866 86.1589 78.9615L58.0402 98.0788C57.9555 98.1383 57.8563 98.1729 57.7534 98.1787Z" fill="#999999"/>
<path d="M54.3231 96.169C54.2208 96.1729 54.1194 96.1476 54.0306 96.0958C53.9418 96.044 53.8693 95.9679 53.8213 95.8762C53.7453 95.7297 53.7246 95.5603 53.7629 95.3995C53.8013 95.2387 53.8961 95.0975 54.0297 95.0024L82.1484 75.8851C82.2117 75.8411 82.2835 75.8111 82.359 75.7971C82.4346 75.7831 82.5122 75.7854 82.5868 75.8038C82.6614 75.8222 82.7313 75.8564 82.792 75.904C82.8527 75.9516 82.9029 76.0117 82.9391 76.0803C83.0151 76.2267 83.0359 76.3962 82.9975 76.557C82.9592 76.7178 82.8644 76.8589 82.7308 76.9541L54.6121 96.0714C54.5265 96.1302 54.4265 96.164 54.3231 96.169Z" fill="#999999"/>
<path d="M50.9012 94.1648C50.7986 94.1689 50.6969 94.1433 50.6081 94.091C50.5193 94.0388 50.4469 93.9621 50.3994 93.8698C50.3235 93.7233 50.3027 93.5539 50.3411 93.3931C50.3794 93.2323 50.4742 93.0911 50.6078 92.996L78.7242 73.8787C78.7875 73.8343 78.8593 73.8041 78.9349 73.7899C79.0105 73.7757 79.0882 73.7779 79.1629 73.7963C79.2376 73.8148 79.3076 73.849 79.3683 73.8969C79.429 73.9447 79.479 74.005 79.515 74.0739C79.5912 74.22 79.6123 74.3893 79.5744 74.5501C79.5365 74.7109 79.4421 74.8522 79.3089 74.9477L51.1902 94.065C51.1052 94.1254 51.005 94.16 50.9012 94.1648Z" fill="#999999"/>
<path d="M47.4761 92.1556C47.3735 92.1591 47.2721 92.1333 47.1833 92.0811C47.0946 92.0289 47.0221 91.9525 46.9743 91.8606C46.8981 91.7144 46.877 91.5451 46.9149 91.3843C46.9528 91.2236 47.0472 91.0822 47.1804 90.9868L75.3058 71.8717C75.3688 71.8274 75.4405 71.7972 75.5159 71.783C75.5913 71.7688 75.6689 71.771 75.7434 71.7895C75.818 71.8079 75.8878 71.8422 75.9483 71.89C76.0088 71.9379 76.0585 71.9982 76.0943 72.0669C76.1705 72.2131 76.1916 72.3824 76.1537 72.5432C76.1158 72.7039 76.0214 72.8453 75.8882 72.9407L47.7628 92.058C47.6778 92.1164 47.5786 92.1501 47.4761 92.1556Z" fill="#999999"/>
<path d="M44.0516 90.1513C43.9493 90.1553 43.8479 90.1299 43.7591 90.0781C43.6704 90.0263 43.5978 89.9502 43.5498 89.8585C43.4739 89.7121 43.4531 89.5427 43.4914 89.3818C43.5298 89.221 43.6246 89.0799 43.7582 88.9847L71.8769 69.8674C71.9398 69.8228 72.0114 69.7922 72.0869 69.7778C72.1625 69.7635 72.2401 69.7656 72.3148 69.7841C72.3894 69.8025 72.4593 69.8369 72.5198 69.885C72.5803 69.933 72.6299 69.9936 72.6654 70.0626C72.7416 70.2088 72.7627 70.3781 72.7248 70.5389C72.6869 70.6996 72.5925 70.841 72.4593 70.9364L44.3406 90.0537C44.2548 90.1123 44.1549 90.146 44.0516 90.1513Z" fill="#999999"/>
<path d="M40.6325 88.1464C40.5307 88.1478 40.4306 88.1202 40.3435 88.0669C40.2564 88.0135 40.1858 87.9365 40.1397 87.8445C40.0637 87.6981 40.043 87.5286 40.0813 87.3678C40.1196 87.207 40.2144 87.0658 40.348 86.9707L68.4555 67.8716C68.5186 67.8269 68.5904 67.7963 68.6661 67.7819C68.7418 67.7675 68.8196 67.7696 68.8944 67.7881C68.9693 67.8065 69.0393 67.8409 69.1 67.889C69.1607 67.937 69.2105 67.9976 69.2463 68.0667C69.3223 68.2132 69.343 68.3826 69.3047 68.5434C69.2663 68.7042 69.1715 68.8454 69.038 68.9406L40.9215 88.0488C40.8359 88.1076 40.7359 88.1414 40.6325 88.1464Z" fill="#999999"/>
<path d="M37.2082 86.142C37.1059 86.1456 37.0048 86.1198 36.9164 86.0676C36.828 86.0153 36.7559 85.9389 36.7086 85.8469C36.6324 85.7007 36.6113 85.5315 36.6493 85.3707C36.6872 85.2099 36.7815 85.0686 36.9147 84.9731L65.0334 65.8558C65.0965 65.8115 65.1681 65.7813 65.2435 65.7671C65.319 65.7529 65.3965 65.7551 65.4711 65.7736C65.5456 65.792 65.6154 65.8263 65.6759 65.8741C65.7364 65.9219 65.7862 65.9822 65.822 66.051C65.8982 66.1972 65.9193 66.3664 65.8814 66.5272C65.8434 66.688 65.7491 66.8293 65.6159 66.9248L37.4972 86.0421C37.4117 86.1015 37.3117 86.1361 37.2082 86.142Z" fill="#999999"/>
<path d="M33.7827 84.1377C33.6802 84.1412 33.5787 84.1154 33.49 84.0632C33.4012 84.011 33.3288 83.9346 33.2809 83.8426C33.2047 83.6965 33.1836 83.5272 33.2215 83.3664C33.2595 83.2056 33.3538 83.0643 33.487 82.9688L61.6079 63.8493C61.671 63.805 61.7426 63.7747 61.8181 63.7606C61.8935 63.7464 61.9711 63.7486 62.0456 63.767C62.1201 63.7855 62.1899 63.8198 62.2504 63.8676C62.3109 63.9154 62.3607 63.9757 62.3965 64.0445C62.4727 64.1906 62.4938 64.3599 62.4559 64.5207C62.418 64.6815 62.3236 64.8228 62.1904 64.9183L34.0695 84.0378C33.9847 84.097 33.8855 84.1315 33.7827 84.1377Z" fill="#999999"/>
<path d="M30.3602 82.1295C30.2579 82.1335 30.1565 82.1081 30.0677 82.0563C29.979 82.0045 29.9064 81.9284 29.8584 81.8367C29.7825 81.6903 29.7617 81.5208 29.8 81.36C29.8384 81.1992 29.9332 81.058 30.0668 80.9629L58.1855 61.8456C58.2487 61.8013 58.3205 61.771 58.3961 61.7568C58.4717 61.7426 58.5494 61.7448 58.6241 61.7632C58.6988 61.7817 58.7689 61.8159 58.8295 61.8638C58.8902 61.9116 58.9402 61.9719 58.9763 62.0408C59.0522 62.1872 59.073 62.3567 59.0346 62.5175C58.9963 62.6783 58.9015 62.8194 58.7679 62.9146L30.6492 82.0319C30.5636 82.0907 30.4636 82.1245 30.3602 82.1295Z" fill="#999999"/>
<path d="M26.9305 80.1257C26.8282 80.1294 26.7269 80.1039 26.6382 80.0522C26.5495 80.0004 26.4769 79.9244 26.4287 79.8329C26.3528 79.6865 26.332 79.517 26.3704 79.3562C26.4087 79.1954 26.5035 79.0542 26.6371 78.9591L54.7535 59.8395C54.8169 59.7956 54.8887 59.7656 54.9642 59.7516C55.0397 59.7376 55.1173 59.7399 55.1919 59.7583C55.2665 59.7767 55.3365 59.8108 55.3972 59.8585C55.4579 59.9061 55.508 59.9662 55.5443 60.0347C55.6203 60.1812 55.6411 60.3506 55.6027 60.5114C55.5644 60.6722 55.4696 60.8134 55.336 60.9086L27.2195 80.0258C27.1341 80.0855 27.0341 80.1201 26.9305 80.1257Z" fill="#999999"/>
<path d="M71.5015 106.199C71.3989 106.202 71.2975 106.177 71.2087 106.124C71.12 106.072 71.0475 105.996 70.9997 105.904C70.9235 105.758 70.9024 105.588 70.9403 105.428C70.9782 105.267 71.0726 105.126 71.2058 105.03L100.946 84.7734C101.01 84.7291 101.081 84.6988 101.157 84.6846C101.233 84.6704 101.31 84.6726 101.385 84.691C101.46 84.7095 101.53 84.7437 101.59 84.7916C101.651 84.8394 101.701 84.8997 101.737 84.9686C101.814 85.1152 101.835 85.2852 101.796 85.4465C101.758 85.6079 101.663 85.7494 101.529 85.8447L71.7882 106.099C71.7032 106.158 71.6042 106.192 71.5015 106.199Z" fill="#00657A"/>
<path d="M74.4555 94.0288C74.4129 93.904 74.3502 93.7769 74.2606 93.8019C74.2337 93.8156 74.2113 93.8367 74.1958 93.8628C74.1804 93.8889 74.1725 93.9189 74.1732 93.9494C74.1737 93.9898 74.1813 94.0297 74.1956 94.0674C74.2225 94.1582 74.2785 94.2059 74.3076 94.2944C74.6392 95.4042 73.5527 95.756 72.9792 95.7969C71.3528 95.9195 69.7556 95.1773 68.2614 94.3693C66.1175 93.2118 63.9826 91.9385 61.738 91.1918C59.8517 90.5676 56.9395 89.948 55.8553 92.8373C55.8351 92.8963 55.9023 93.0029 55.9314 92.9371C57.1075 90.2589 59.798 90.8127 61.6528 91.4346C63.9199 92.195 66.0727 93.4887 68.2412 94.6553C69.6906 95.4337 71.2139 96.1124 72.7865 96.0715C73.5056 96.0556 74.955 95.6335 74.507 94.1854C74.4935 94.1537 74.4756 94.0924 74.4555 94.0288Z" fill="#003D49"/>
<path d="M83.3675 59.9635C82.355 58.1115 81.1609 56.0711 79.9042 53.0819C78.6475 50.0928 77.5789 50.0678 74.7518 49.042C72.4063 48.1931 66.0151 45.4672 63.4635 44.3665C60.1794 42.9479 59.2722 42.7777 56.4742 39.5684C53.4298 36.0663 43.2079 24.5706 43.2079 24.5706L30.2148 48.9353C34.5541 51.4637 38.1854 53.5699 40.8266 55.279C43.1339 56.7678 44.5475 58.057 45.8378 62.6576C46.716 65.7806 46.819 67.1356 49.2317 69.9205C51.1023 72.0857 51.6489 72.6985 53.8151 75.1021L62.3099 71.5002C62.0407 71.0646 61.8737 70.5724 61.8215 70.0612C61.7498 68.216 64.3193 68.5042 65.4954 68.6291C68.2486 68.9241 77.0905 72.8869 77.0905 72.8869L82.3146 68.704C83.1614 67.7961 83.9903 66.6908 83.1233 64.1646C83.7058 63.4951 84.3801 61.8178 83.3675 59.9635Z" fill="#EDBFC8"/>
<path d="M76.9088 52.9416C76.6763 52.6484 76.3969 52.3967 76.0822 52.1971C75.9119 52.0791 75.7439 51.9702 75.5737 51.8499C75.378 51.7079 75.1729 51.5798 74.9599 51.4663C74.9195 51.4481 74.9263 51.5162 74.9419 51.5344C75.5132 52.1154 76.2861 52.4423 76.7498 53.139C76.9353 53.4329 77.0964 53.7419 77.2314 54.0628C77.4151 54.4645 77.6033 54.8594 77.8026 55.2544C77.8183 55.2839 77.8385 55.2544 77.834 55.2294C77.6257 54.4373 77.3949 53.6134 76.9088 52.9416Z" fill="#EDBFC8"/>
<path d="M83.1411 64.1818C83.2888 64.0011 83.4144 63.803 83.5152 63.5917C82.9171 62.323 81.4991 60.0579 80.3633 57.2367C81.1496 59.4837 81.8216 60.6049 83.1411 64.1818Z" fill="#EDBFC8"/>
<path d="M78.7981 52.8745C78.7734 52.6958 78.7283 52.5206 78.6637 52.3524C78.5534 52.0465 78.3877 51.764 78.1753 51.5195C77.9214 51.2639 77.6239 51.0571 77.2972 50.9089C76.9506 50.718 76.5808 50.5738 76.1973 50.48C76.1973 50.48 76.1973 50.4936 76.1973 50.4981C76.5199 50.6842 76.8536 50.8522 77.1762 51.0383C77.4844 51.1917 77.7623 51.401 77.9961 51.6557C78.3949 52.1346 78.5427 52.7678 78.8071 53.3216C78.8228 53.3534 78.8564 53.3466 78.8564 53.3216C78.8499 53.1711 78.8304 53.0215 78.7981 52.8745Z" fill="#EDBFC8"/>
<path d="M82.984 67.8855C82.8854 66.5623 82.2044 65.7089 81.4943 64.0634C80.5982 61.998 78.6224 58.0534 77.957 55.7406C78.181 57.8173 79.5498 65.0008 80.5467 70.1302L82.3209 68.7094C82.5677 68.4571 82.7897 68.1812 82.984 67.8855Z" fill="#EDBFC8"/>
<path d="M62.1294 71.2283C62.0289 70.9616 61.906 70.7042 61.762 70.4588C61.6343 70.2092 61.5223 69.9504 61.4126 69.6917C61.2064 69.2091 61.032 68.7133 60.8906 68.2074C60.7487 67.6929 60.6653 67.1636 60.6419 66.6299C60.6315 66.3696 60.6367 66.1089 60.6576 65.8492C60.6688 65.713 60.6867 65.5768 60.7069 65.4406C60.7226 65.3385 60.7517 65.225 60.7584 65.1229C60.7651 65.0208 60.7584 64.9663 60.7719 64.8959C60.7719 64.8505 60.6912 64.7416 60.6576 64.8142C60.5975 64.9315 60.5473 65.0538 60.5075 65.1796C60.4763 65.294 60.4509 65.4099 60.4314 65.5269C60.3926 65.7558 60.3694 65.9871 60.3619 66.2191C60.3499 66.6532 60.3806 67.0873 60.4538 67.5151C60.6024 68.3627 60.8813 69.1814 61.2804 69.9414C61.3946 70.1683 61.5178 70.3749 61.6411 70.5905C61.7638 70.8343 61.9142 71.0628 62.0891 71.2714C62.1227 71.2895 62.1361 71.2487 62.1294 71.2283Z" fill="#EDBFC8"/>
<path d="M78.3215 69.5807L72.9697 59.331C72.9697 59.331 67.5014 60.9198 64.9051 62.3746C62.3087 63.8294 61.0968 68.8658 62.0937 71.2648L62.1989 71.2875C61.9863 70.9135 61.8578 70.4966 61.8226 70.0665C61.7509 68.2212 64.3204 68.5095 65.4965 68.6343C68.2497 68.9294 77.0916 72.8922 77.0916 72.8922L78.3909 71.8504L78.3215 69.5807Z" fill="#EDBFC8"/>
<path d="M43.316 39.3614C46.3126 32.2264 45.5117 25.0498 41.5271 23.332C37.5426 21.6143 31.8833 26.0058 28.8867 33.1409C25.8901 40.276 26.691 47.4526 30.6756 49.1703C34.6601 50.8881 40.3194 46.4965 43.316 39.3614Z" fill="#EDBFC8"/>
<path d="M74.1235 51.1191C77.2261 52.5059 77.5913 54.2331 78.1401 56.4687C78.689 58.7043 80.788 63.466 81.6102 65.6177C82.4323 67.7693 82.6138 68.3208 81.7916 71.2351C80.9695 74.1493 78.6397 79.8597 78.6397 79.8597C78.6397 79.8597 71.6571 57.4628 71.2023 55.1591C70.7475 52.8554 71.0186 50.2907 74.1235 51.1191Z" fill="#EDBFC8"/>
<path d="M81.0941 69.7351C81.0908 69.7409 81.089 69.7476 81.089 69.7544C81.089 69.7611 81.0908 69.7678 81.0941 69.7737C81.1927 69.8054 81.3428 69.7373 81.4414 69.7192C81.5399 69.701 81.6923 69.6692 81.8177 69.6511C81.9432 69.6329 82.0641 69.6216 82.1941 69.6148C82.2098 69.5308 82.2232 69.4491 82.2366 69.3719C81.9196 69.4095 81.6082 69.4857 81.3092 69.5989C81.2246 69.6189 81.149 69.6668 81.0941 69.7351ZM81.0807 68.2144C81.3901 68.0961 81.7106 68.0102 82.0373 67.9579C82.1227 67.9465 82.2087 67.9397 82.2949 67.9375C82.2949 67.8513 82.2747 67.765 82.259 67.681C82.165 67.681 82.0731 67.6947 81.979 67.7083C81.6255 67.7488 81.2839 67.8623 80.9754 68.0419C80.8746 68.0941 80.9866 68.2462 81.0807 68.2144ZM82.1202 68.548C81.9219 68.5567 81.7244 68.578 81.5287 68.6116C81.1256 68.6704 80.7368 68.8043 80.3818 69.0065C80.2966 69.0587 80.4109 69.1745 80.4848 69.1495C80.8186 69.0199 81.1616 68.9159 81.5108 68.8386C81.6788 68.8062 81.8487 68.785 82.0193 68.775C82.1067 68.775 82.203 68.775 82.2971 68.775C82.2971 68.6956 82.3083 68.6207 82.3106 68.548C82.2434 68.548 82.1829 68.548 82.1202 68.548Z" fill="#EDBFC8"/>
<path d="M79.0656 65.1071C77.7983 62.5946 76.6946 60.0009 75.7614 57.3426L72.9701 56.4665L72.0449 58.2686C74.014 65.0299 78.6355 79.8553 78.6355 79.8553C78.6355 79.8553 78.9805 79.0087 79.4532 77.8126C79.4532 77.8126 80.076 72.5742 80.3493 70.2297C80.6226 67.8851 79.9639 66.8161 79.0656 65.1071Z" fill="#EDBFC8"/>
<path d="M69.0057 77.9677C68.8332 77.8496 68.6607 77.7407 68.4905 77.6068C66.1809 75.8864 63.7211 74.1138 62.3076 71.4991L53.7949 75.1034C55.2459 76.721 56.7914 78.249 58.4231 79.679C59.8008 80.9454 63.99 82.684 66.7118 84.0708C69.4336 85.4575 70.5761 86.1452 71.2616 85.7548C72.0636 85.3191 73.047 80.7503 69.0057 77.9677Z" fill="#EDBFC8"/>
<path d="M59.19 80.2535C59.2191 80.1537 59.2483 80.0561 59.2841 79.9585C59.3589 79.7555 59.4449 79.557 59.5417 79.3638C59.6573 79.1795 59.7549 78.9841 59.8329 78.7805C59.8441 78.7306 59.7769 78.6466 59.7277 78.6852C59.5512 78.85 59.4081 79.0482 59.3065 79.2685C59.1861 79.4913 59.0835 79.7236 58.9996 79.963C58.9839 80.0061 58.9727 80.0515 58.957 80.0946L59.19 80.2535Z" fill="#EDBFC8"/>
<path d="M60.0782 80.7094C60.1683 80.3695 60.2898 80.039 60.4411 79.7222C60.5716 79.4543 60.7317 79.2023 60.9182 78.9709C61.0481 78.8063 61.1928 78.6543 61.3506 78.517C61.4805 78.4103 61.6172 78.315 61.7359 78.1969C61.7673 78.1652 61.7224 78.0812 61.6776 78.0925C61.347 78.1978 61.0501 78.3906 60.8174 78.6509C60.5663 78.9043 60.3528 79.1933 60.1834 79.5088C60.0005 79.8525 59.8577 80.2166 59.7578 80.5937L60.0602 80.7707C60.067 80.7594 60.067 80.7344 60.0782 80.7094Z" fill="#EDBFC8"/>
<path d="M61.0123 80.6355C61.1052 80.3749 61.2167 80.1215 61.3461 79.8774C61.4017 79.7726 61.463 79.6711 61.5298 79.5733C61.6085 79.4834 61.6701 79.3795 61.7112 79.2669C61.7112 79.2169 61.653 79.1375 61.6015 79.1647C61.3761 79.3322 61.1934 79.5516 61.0683 79.8048C60.9274 80.0416 60.806 80.2898 60.7054 80.5469C60.6427 80.7104 60.5867 80.876 60.5352 81.044L60.8264 81.2006C60.8846 81.0099 60.9429 80.8216 61.0123 80.6355Z" fill="#EDBFC8"/>
<path d="M65.584 83.5069C65.7047 82.6418 66.118 81.846 66.7534 81.2554C66.7534 81.2554 68.7045 82.0838 69.5379 82.8441C70.3712 83.6045 71.0142 85.2817 70.4944 85.8196C69.3004 85.8242 67.6898 84.6326 65.584 83.5069Z" fill="#EDBFC8"/>
<path opacity="0.3" d="M65.584 83.5069C65.8304 83.6385 66.0679 83.7701 66.3008 83.9018C66.5557 83.0414 66.7062 82.1527 66.7489 81.2554C66.1152 81.8467 65.7035 82.6424 65.584 83.5069Z" fill="white"/>
<path d="M69.1706 64.0946C70.5372 66.3643 72.6384 70.4497 72.6631 70.9762C72.802 73.9563 72.634 77.0702 72.634 80.2931C72.634 83.516 72.6071 85.8697 74.0027 88.01C75.2662 89.9392 77.587 90.4703 77.9163 88.3618C78.203 86.5574 78.3823 82.8851 78.6399 79.8642C78.8975 76.8433 79.5808 72.4674 79.76 70.023C79.9392 67.5785 78.3531 65.1795 77.2846 62.0179C76.3571 59.2693 75.5708 55.7968 74.117 54.3238C72.6631 52.8508 67.1612 50.0909 65.1562 49.0196L69.1706 64.0946Z" fill="#EDBFC8"/>
<path d="M79.6008 70.2114C79.4285 70.2239 79.2556 70.2239 79.0833 70.2114C78.7249 70.1747 78.3698 70.1094 78.0215 70.0162C77.9319 69.998 77.9543 70.1274 78.008 70.1569C78.36 70.32 78.7411 70.4088 79.1281 70.4179C79.3205 70.4327 79.5137 70.4327 79.7061 70.4179H79.724C79.724 70.343 79.7352 70.2727 79.7397 70.2023L79.6008 70.2114Z" fill="#EDBFC8"/>
<path d="M77.5437 68.0207C77.4833 68.0502 77.5594 68.1569 77.6132 68.1433C78.0294 68.0309 78.464 68.0061 78.8901 68.0707C79.0789 68.1046 79.2636 68.1586 79.4412 68.2318L79.6047 68.3112C79.5845 68.2137 79.5621 68.1161 79.5397 68.0185C79.3487 67.9401 79.1496 67.8838 78.9461 67.8505C78.4724 67.7614 77.9832 67.8208 77.5437 68.0207Z" fill="#EDBFC8"/>
<path d="M78.3667 68.8111C78.027 68.7978 77.6869 68.8268 77.3541 68.8974C77.0741 68.9609 76.6642 69.0313 76.4805 69.2787C76.4805 69.2787 76.4805 69.3173 76.4917 69.3173C76.6478 69.3126 76.8025 69.2851 76.9509 69.2356C77.1122 69.1947 77.2735 69.1584 77.437 69.1334C78.0417 69.0352 78.6603 69.0724 79.2493 69.2424C79.4223 69.2937 79.5915 69.3574 79.7556 69.433C79.7556 69.3173 79.7556 69.2061 79.7354 69.0835C79.6122 69.0381 79.4868 68.9973 79.3658 68.9632C79.04 68.8721 78.7046 68.821 78.3667 68.8111Z" fill="#EDBFC8"/>
<path d="M78.4687 81.5829C78.3522 81.5443 78.2312 81.5102 78.1125 81.4762C77.866 81.4104 77.6196 81.3514 77.3687 81.3037C77.3557 81.3004 77.3422 81.2998 77.329 81.3021C77.3158 81.3044 77.3032 81.3094 77.2921 81.3169C77.2809 81.3244 77.2714 81.3341 77.2641 81.3455C77.2569 81.3569 77.2521 81.3697 77.25 81.3831C77.25 81.4467 77.3082 81.4898 77.362 81.4989C77.586 81.5443 77.81 81.5942 78.0453 81.6555L78.3746 81.7531L78.4933 81.7917L78.5067 81.5942L78.4687 81.5829Z" fill="#EDBFC8"/>
<path d="M77.7171 80.7552C77.9705 80.8315 78.2189 80.924 78.4608 81.0321L78.5414 81.0684L78.5616 80.8006L78.5347 80.787C78.2769 80.6823 78.0128 80.5943 77.7439 80.5237C77.4779 80.4537 77.2078 80.4007 76.9352 80.3648C76.6479 80.3085 76.353 80.3031 76.0638 80.3489C76.01 80.3489 76.0347 80.4465 76.0795 80.4556C76.364 80.5123 76.6552 80.5282 76.9397 80.5782C77.2019 80.6224 77.4614 80.6815 77.7171 80.7552Z" fill="#EDBFC8"/>
<path d="M77.299 80.0406C77.6529 80.1207 78.0021 80.2207 78.3451 80.3402C78.428 80.3697 78.5087 80.4037 78.5893 80.4378C78.5893 80.3629 78.6027 80.2902 78.6072 80.2108L78.437 80.145C78.0625 80.0222 77.6779 79.9341 77.2878 79.8817C77.1869 79.8749 77.225 80.0247 77.299 80.0406Z" fill="#EDBFC8"/>
<path d="M78.3241 84.0622C77.0114 82.7798 75.6359 83.236 75.6359 83.236C75.4729 84.3209 75.4121 85.4191 75.4544 86.5157C75.5485 88.0499 76.5477 88.8012 77.3116 88.9328C78.0755 89.0645 78.1763 87.5506 78.3241 84.0622Z" fill="#EDBFC8"/>
<path opacity="0.3" d="M78.2983 84.6268C78.2983 84.4452 78.314 84.2569 78.323 84.0617C77.0102 82.7793 75.6348 83.2355 75.6348 83.2355C75.8969 83.7076 77.3485 84.536 78.2983 84.6268Z" fill="white"/>
<path d="M74.8577 54.73C74.2506 53.8902 73.3411 53.3954 72.445 52.9324C71.9387 52.684 71.4479 52.4043 70.9755 52.0949C70.9486 52.0745 70.9419 52.1335 70.9575 52.1494C71.6677 52.7849 72.5257 53.2274 73.3008 53.7585C74.1507 54.2981 74.809 55.0978 75.1803 56.0418C75.4177 56.5888 75.6149 57.1517 75.8299 57.7077C75.8456 57.7509 75.8792 57.7236 75.8747 57.6873C75.7538 56.6569 75.467 55.5765 74.8577 54.73Z" fill="#EDBFC8"/>
<path d="M59.4915 27.9928C59.5309 28.0536 59.5625 28.1191 59.5856 28.188L59.4647 27.7499C59.4578 27.7238 59.4496 27.698 59.44 27.6727V27.6569C59.4319 27.6302 59.4214 27.6044 59.4087 27.5797L59.3907 27.5434C59.3907 27.5229 59.3706 27.5048 59.3571 27.4844L59.2944 27.3936C59.2698 27.3641 59.2451 27.3346 59.2182 27.3073C59.002 27.1025 58.7361 26.9592 58.4476 26.892C57.2984 26.5856 55.6877 27.0282 54.8499 27.8816C54.7377 27.9918 54.6399 28.1162 54.5587 28.2515C54.5424 28.2744 54.5281 28.2987 54.5161 28.3241C54.5056 28.3367 54.498 28.3514 54.4937 28.3673C54.4776 28.3954 54.4641 28.4251 54.4534 28.4558C54.4092 28.5537 54.3797 28.6577 54.366 28.7644C54.3469 28.8893 54.3538 29.0169 54.3862 29.1389L54.5228 29.6405C54.4999 29.5571 54.4893 29.4707 54.4915 29.3841C54.7121 29.6954 55.0412 29.9104 55.4122 29.9855C56.5614 30.2942 58.1743 29.8516 59.0121 28.9982C59.2933 28.7378 59.4649 28.3778 59.4915 27.9928Z" fill="#00657A"/>
<path d="M75.2525 86.8461L70.1651 88.2533L70.0307 87.7494L54.5062 29.6463C54.4833 29.5628 54.4727 29.4764 54.4749 29.3898C54.5063 29.0002 54.6844 28.6378 54.9722 28.3775C55.81 27.5242 57.4207 27.0838 58.5699 27.3925C58.8584 27.4573 59.1245 27.5992 59.3405 27.8033C59.3968 27.8602 59.4464 27.9234 59.4884 27.9917C59.5278 28.0525 59.5594 28.1181 59.5825 28.1869C59.5825 28.1869 59.5825 28.2119 59.5937 28.2209V28.2346L75.2525 86.8461Z" fill="white"/>
<path d="M74.2255 85.9997C75.3747 86.3061 75.6279 87.2503 74.7878 88.1037C73.9478 88.9571 72.3393 89.3997 71.1901 89.091C70.0409 88.7823 69.79 87.8404 70.6278 86.987C71.4656 86.1336 73.0763 85.6911 74.2255 85.9997Z" fill="#00657A"/>
<path d="M75.1121 90.8515C75.1121 90.8288 75.1121 90.8039 75.1121 90.7812L75.269 87.2019V87.1611C75.2701 87.1392 75.2701 87.1172 75.269 87.0953V87.0589C75.2578 86.5823 74.8948 86.1761 74.2138 85.9945C73.0646 85.6858 71.4539 86.1284 70.6161 86.9818C70.13 87.4766 70.0135 88.0031 70.2218 88.4162L70.2398 88.4412C70.2615 88.4823 70.2862 88.5218 70.3137 88.5592L70.3294 88.5842L72.2425 91.5892C72.3677 91.7635 72.5534 91.8835 72.7622 91.9251C73.1245 92.002 73.4996 91.9911 73.857 91.8933C74.2144 91.7955 74.5439 91.6135 74.8187 91.3622C74.9709 91.2307 75.0744 91.0506 75.1121 90.8515Z" fill="#999999"/>
<path d="M64.1852 52.0022C64.1862 52.0001 64.1867 51.9977 64.1867 51.9954C64.1867 51.993 64.1862 51.9907 64.1852 51.9886L64.1672 51.9182C64.1328 51.8494 64.0832 51.7897 64.0222 51.7436C63.9611 51.6975 63.8904 51.6664 63.8155 51.6527C63.5895 51.6058 63.3558 51.6134 63.1332 51.6749C62.9106 51.7364 62.7054 51.8501 62.5342 52.0067C62.4777 52.0549 62.4328 52.1156 62.4029 52.184C62.373 52.2524 62.3589 52.3269 62.3617 52.4016L62.3863 52.4924L72.2431 89.3652L74.3242 89.9235L64.1852 52.0022Z" fill="#003D49"/>
<path d="M71.4355 86.4008L72.2286 89.3695L74.3097 89.9278L73.2344 85.906C72.6071 85.9407 71.9941 86.1093 71.4355 86.4008Z" fill="#003D49"/>
<path d="M74.9043 92.4138L75.0455 89.1682C75.0488 89.1396 75.0488 89.1106 75.0455 89.082C75.0455 88.737 74.7856 88.4465 74.2973 88.3148C73.849 88.2207 73.3852 88.2349 72.9435 88.3564C72.5017 88.4779 72.0944 88.7031 71.7547 89.0139C71.4119 89.3634 71.3268 89.7311 71.4724 90.0239V90.042L71.5217 90.1192L73.2914 92.8746C73.3624 92.9725 73.4672 93.0397 73.5849 93.0629C73.789 93.1065 74.0004 93.1004 74.2017 93.0452C74.403 92.9899 74.5885 92.8871 74.7431 92.7452C74.7914 92.7045 74.8307 92.654 74.8585 92.5969C74.8863 92.5398 74.9019 92.4774 74.9043 92.4138Z" fill="#00657A"/>
<path opacity="0.1" d="M74.9043 92.4138L75.0455 89.1682C75.0488 89.1396 75.0488 89.1106 75.0455 89.082C75.0455 88.737 74.7856 88.4465 74.2973 88.3148C73.849 88.2207 73.3852 88.2349 72.9435 88.3564C72.5017 88.4779 72.0944 88.7031 71.7547 89.0139C71.4119 89.3634 71.3268 89.7311 71.4724 90.0239V90.042L71.5217 90.1192L73.2914 92.8746C73.3624 92.9725 73.4672 93.0397 73.5849 93.0629C73.789 93.1065 74.0004 93.1004 74.2017 93.0452C74.403 92.9899 74.5885 92.8871 74.7431 92.7452C74.7914 92.7045 74.8307 92.654 74.8585 92.5969C74.8863 92.5398 74.9019 92.4774 74.9043 92.4138Z" fill="black"/>
<path d="M74.7464 92.7471C74.5911 92.8883 74.4051 92.9905 74.2035 93.0453C74.0018 93.1001 73.7903 93.106 73.586 93.0626C73.4689 93.0395 73.3648 92.9721 73.2948 92.8742L72.3987 91.4806C72.2576 91.2536 72.3091 90.9745 72.5757 90.6998C72.8235 90.4738 73.1203 90.3101 73.4422 90.2218C73.764 90.1334 74.1018 90.1231 74.4283 90.1914C74.7778 90.2845 74.966 90.4933 74.9705 90.7407V90.8065L74.901 92.4134C74.8987 92.4767 74.8838 92.5389 74.8572 92.5962C74.8306 92.6535 74.793 92.7048 74.7464 92.7471Z" fill="#00657A"/>
<path opacity="0.1" d="M74.5679 92.0697C74.9375 92.1696 75.0159 92.4714 74.7493 92.7506C74.5948 92.8925 74.4093 92.9953 74.208 93.0506C74.0066 93.1058 73.7952 93.1119 73.5912 93.0683C73.2215 92.9708 73.1431 92.6666 73.4097 92.3874C73.5644 92.2458 73.75 92.1432 73.9512 92.088C74.1525 92.0328 74.3638 92.0265 74.5679 92.0697Z" fill="black"/>
<path d="M59.4151 34.1422C59.3878 34.0632 59.3394 33.9935 59.2754 33.9406C59.2113 33.8877 59.1341 33.8538 59.0522 33.8426C58.8276 33.7948 58.595 33.8016 58.3735 33.8623C58.1519 33.9231 57.9477 34.0361 57.7776 34.1922C57.7121 34.2456 57.6623 34.3161 57.6334 34.3961C57.6046 34.4761 57.5979 34.5625 57.614 34.6461L62.3587 52.4084C62.356 52.3336 62.3701 52.2592 62.4 52.1908C62.4299 52.1223 62.4748 52.0617 62.5312 52.0135C62.7025 51.8568 62.9077 51.7432 63.1303 51.6817C63.3528 51.6202 63.5866 51.6125 63.8126 51.6594C63.8875 51.6732 63.9582 51.7043 64.0192 51.7504C64.0803 51.7964 64.1299 51.8562 64.1643 51.925L59.4151 34.1422Z" fill="#CCCCCC"/>
<path d="M59.255 34.5882C59.0846 34.7438 58.8804 34.8565 58.6589 34.9172C58.4375 34.978 58.205 34.985 57.9804 34.9377C57.8996 34.926 57.8235 34.892 57.7603 34.8396C57.6971 34.7872 57.6493 34.7184 57.6219 34.6404C57.6038 34.5572 57.609 34.4706 57.6371 34.3903C57.6653 34.31 57.7151 34.2394 57.781 34.1865C57.9511 34.0304 58.1554 33.9174 58.3769 33.8566C58.5984 33.7959 58.831 33.7891 59.0557 33.837C59.1375 33.8481 59.2148 33.882 59.2788 33.9349C59.3429 33.9878 59.3912 34.0576 59.4186 34.1365C59.434 34.2198 59.427 34.3057 59.3982 34.3852C59.3694 34.4647 59.3199 34.5348 59.255 34.5882Z" fill="white"/>
<path d="M60.1961 31.5055V31.4828C60.1971 31.4715 60.1971 31.4601 60.1961 31.4488L59.365 28.3462C59.3596 28.3216 59.3529 28.2974 59.3448 28.2736V28.2554C59.2373 27.9376 58.9304 27.6766 58.4487 27.545C57.8781 27.4249 57.2876 27.4429 56.7252 27.5975C56.1627 27.7521 55.6442 28.0389 55.2117 28.4347C54.8309 28.8205 54.7009 29.2268 54.795 29.5695L55.6373 32.713C55.6364 32.7182 55.6364 32.7236 55.6373 32.7289V32.747C55.7381 33.0784 56.0473 33.3485 56.5513 33.4847C57.1219 33.6044 57.7124 33.5862 58.2748 33.4316C58.8371 33.2771 59.3557 32.9904 59.7884 32.595C60.1334 32.2364 60.2678 31.8414 60.1961 31.5055Z" fill="#00657A"/>
<path opacity="0.05" d="M60.1961 31.5055V31.4828C60.1971 31.4715 60.1971 31.4601 60.1961 31.4488L59.365 28.3462C59.3596 28.3216 59.3529 28.2974 59.3448 28.2736V28.2554C59.2373 27.9376 58.9304 27.6766 58.4487 27.545C57.8781 27.4249 57.2876 27.4429 56.7252 27.5975C56.1627 27.7521 55.6442 28.0389 55.2117 28.4347C54.8309 28.8205 54.7009 29.2268 54.795 29.5695L55.6373 32.713C55.6364 32.7182 55.6364 32.7236 55.6373 32.7289V32.747C55.7381 33.0784 56.0473 33.3485 56.5513 33.4847C57.1219 33.6044 57.7124 33.5862 58.2748 33.4316C58.8371 33.2771 59.3557 32.9904 59.7884 32.595C60.1334 32.2364 60.2678 31.8414 60.1961 31.5055Z" fill="black"/>
<path opacity="0.1" d="M59.2631 30.7019C60.2981 30.9787 60.5243 31.8367 59.7694 32.597C59.3367 32.9925 58.8182 33.2791 58.2558 33.4337C57.6934 33.5883 57.103 33.6064 56.5324 33.4867C55.4974 33.2075 55.2711 32.3519 56.0261 31.5916C56.4586 31.1958 56.9771 30.909 57.5396 30.7544C58.102 30.5998 58.6925 30.5818 59.2631 30.7019Z" fill="black"/>
<path d="M74.8236 93.7619L74.4988 92.4591C74.487 92.4208 74.4648 92.3866 74.4347 92.3605C74.4045 92.3344 74.3678 92.3174 74.3286 92.3116C74.2239 92.2901 74.1157 92.2937 74.0126 92.322C73.9096 92.3504 73.8145 92.4028 73.7349 92.475C73.7059 92.5 73.6837 92.5321 73.6704 92.5683C73.6571 92.6044 73.6531 92.6434 73.6588 92.6815L73.9791 93.9843C74 94.0557 74.0386 94.1206 74.0911 94.1727C74.1581 94.2405 74.245 94.2844 74.3387 94.2978C74.4325 94.3112 74.528 94.2934 74.6109 94.2471C74.6938 94.2007 74.7596 94.1283 74.7983 94.0408C74.8371 93.9533 74.8468 93.8554 74.8259 93.7619H74.8236Z" fill="#003D49"/>
<path d="M74.833 93.8456C74.8363 93.82 74.8363 93.794 74.833 93.7684C74.8153 93.7381 74.7913 93.712 74.7627 93.6921C74.7341 93.6721 74.7015 93.6586 74.6673 93.6527C74.5626 93.6301 74.4542 93.6331 74.3509 93.6615C74.2476 93.6899 74.1526 93.7429 74.0736 93.8161C74.0443 93.8398 74.022 93.8711 74.0089 93.9067C73.9959 93.9423 73.9927 93.9808 73.9997 94.0181C73.9984 94.0263 73.9984 94.0348 73.9997 94.043C73.9991 94.0506 73.9991 94.0582 73.9997 94.0657C74.0189 94.1105 74.0472 94.1507 74.0826 94.1838C74.1659 94.2642 74.2766 94.3091 74.3917 94.3091C74.5068 94.3091 74.6175 94.2642 74.7009 94.1838C74.7462 94.1408 74.7817 94.0882 74.8045 94.0298C74.8274 93.9713 74.8371 93.9084 74.833 93.8456Z" fill="#003D49"/>
<path d="M74.1293 51.1203C77.232 52.5071 77.5971 54.2343 78.146 56.4699C78.6948 58.7055 80.7939 63.4673 81.616 65.6189C82.4382 67.7705 82.6196 68.322 81.7975 71.2363C80.9753 74.1505 78.6455 79.861 78.6455 79.861C78.6455 79.861 71.6629 57.464 71.2082 55.1603C70.7534 52.8566 71.0245 50.2919 74.1293 51.1203Z" fill="#EDBFC8"/>
<path d="M81.1039 69.7387C81.1006 69.7445 81.0988 69.7512 81.0988 69.758C81.0988 69.7647 81.1006 69.7714 81.1039 69.7773C81.2025 69.809 81.3526 69.7409 81.4511 69.7228C81.5497 69.7046 81.702 69.6728 81.8275 69.6547C81.9529 69.6365 82.0739 69.6252 82.2038 69.6184C82.2195 69.5344 82.233 69.4527 82.2464 69.3755C81.9294 69.4131 81.618 69.4893 81.319 69.6025C81.2344 69.6225 81.1587 69.6704 81.1039 69.7387ZM81.0905 68.218C81.3999 68.0997 81.7204 68.0138 82.047 67.9615C82.1325 67.9501 82.2185 67.9433 82.3046 67.9411C82.3046 67.8549 82.2845 67.7686 82.2688 67.6846C82.1747 67.6846 82.0829 67.6983 81.9888 67.7119C81.6352 67.7524 81.2937 67.8659 80.9852 68.0455C80.8844 68.0977 80.9964 68.2498 81.0905 68.218ZM82.1299 68.5516C81.9317 68.5603 81.7341 68.5816 81.5385 68.6152C81.1354 68.674 80.7465 68.8079 80.3915 69.0101C80.3064 69.0623 80.4207 69.1781 80.4946 69.1531C80.8284 69.0235 81.1714 68.9195 81.5206 68.8422C81.6886 68.8098 81.8584 68.7886 82.0291 68.7786C82.1165 68.7786 82.2128 68.7786 82.3069 68.7786C82.3069 68.6992 82.3181 68.6243 82.3203 68.5516C82.2531 68.5516 82.1926 68.5516 82.1299 68.5516Z" fill="#EDBFC8"/>
<path d="M79.0734 65.111C77.8062 62.5985 76.7024 60.0048 75.7692 57.3465L72.9779 56.4704L72.0527 58.2725C74.0218 65.0338 78.6433 79.8592 78.6433 79.8592C78.6433 79.8592 78.9883 79.0126 79.461 77.8165C79.461 77.8165 80.0838 72.5781 80.3571 70.2336C80.6304 67.889 79.9718 66.82 79.0734 65.111Z" fill="#EDBFC8"/>
<path d="M69.0116 77.97C68.8391 77.852 68.6666 77.743 68.4963 77.6091C66.1867 75.8887 63.727 74.1161 62.3135 71.5015L53.8008 75.1057C55.2517 76.7234 56.7972 78.2513 58.429 79.6813C59.8067 80.9478 63.9958 82.6863 66.7176 84.0731C69.4395 85.4598 70.5819 86.1475 71.2674 85.7572C72.0694 85.3214 73.0529 80.7526 69.0116 77.97Z" fill="#EDBFC8"/>
<path d="M59.1978 80.2562C59.2269 80.1563 59.2561 80.0587 59.2919 79.9611C59.3667 79.7582 59.4527 79.5596 59.5495 79.3665C59.6651 79.1822 59.7627 78.9868 59.8408 78.7832C59.852 78.7333 59.7847 78.6493 59.7355 78.6879C59.559 78.8527 59.4159 79.0509 59.3143 79.2712C59.1939 79.494 59.0913 79.7263 59.0074 79.9657C58.9917 80.0088 58.9805 80.0542 58.9648 80.0973L59.1978 80.2562Z" fill="#EDBFC8"/>
<path d="M60.086 80.7118C60.1761 80.3719 60.2976 80.0413 60.4489 79.7245C60.5795 79.4566 60.7395 79.2046 60.926 78.9732C61.0559 78.8086 61.2006 78.6566 61.3584 78.5193C61.4883 78.4126 61.625 78.3173 61.7437 78.1993C61.7751 78.1675 61.7303 78.0835 61.6855 78.0949C61.3548 78.2002 61.0579 78.3929 60.8252 78.6532C60.5741 78.9066 60.3606 79.1956 60.1913 79.5111C60.0083 79.8548 59.8655 80.2189 59.7656 80.596L60.0681 80.7731C60.0748 80.7617 60.0748 80.7367 60.086 80.7118Z" fill="#EDBFC8"/>
<path d="M61.0182 80.6371C61.111 80.3765 61.2226 80.1231 61.352 79.879C61.4076 79.7743 61.4689 79.6728 61.5357 79.5749C61.6144 79.4851 61.6759 79.3812 61.7171 79.2685C61.7171 79.2186 61.6589 79.1391 61.6073 79.1664C61.382 79.3338 61.1993 79.5532 61.0742 79.8064C60.9332 80.0432 60.8118 80.2915 60.7113 80.5486C60.6485 80.712 60.5925 80.8777 60.541 81.0456L60.8322 81.2022C60.8905 81.0116 60.9487 80.8232 61.0182 80.6371Z" fill="#EDBFC8"/>
<path d="M65.5801 83.5064C65.7008 82.6414 66.1141 81.8456 66.7495 81.2549C66.7495 81.2549 68.7006 82.0834 69.534 82.8437C70.3673 83.604 71.0103 85.2813 70.4905 85.8192C69.2965 85.8238 67.6858 84.6322 65.5801 83.5064Z" fill="#EDBFC8"/>
<path opacity="0.3" d="M65.5801 83.5064C65.8265 83.6381 66.064 83.7697 66.2969 83.9014C66.5518 83.0409 66.7023 82.1522 66.745 81.2549C66.1113 81.8463 65.6996 82.642 65.5801 83.5064Z" fill="white"/>
<path d="M69.1765 64.0969C70.543 66.3666 72.6443 70.452 72.6689 70.9785C72.8078 73.9586 72.6398 77.0725 72.6398 80.2955C72.6398 83.5184 72.6129 85.872 74.0086 88.0123C75.272 89.9415 77.5929 90.4726 77.9222 88.3641C78.2089 86.5597 78.3881 82.8874 78.6457 79.8665C78.9034 76.8456 79.5866 72.4697 79.7658 70.0253C79.945 67.5809 78.359 65.1818 77.2904 62.0202C76.363 59.2717 75.5767 55.7991 74.1228 54.3261C72.6689 52.8531 67.1671 50.0932 65.1621 49.0219L69.1765 64.0969Z" fill="#EDBFC8"/>
<path d="M79.6047 70.2126C79.4324 70.2251 79.2595 70.2251 79.0872 70.2126C78.7288 70.1759 78.3737 70.1106 78.0254 70.0174C77.9358 69.9993 77.9582 70.1286 78.0119 70.1581C78.3639 70.3213 78.7451 70.4101 79.132 70.4192C79.3244 70.4339 79.5176 70.4339 79.71 70.4192H79.7279C79.7279 70.3443 79.7391 70.2739 79.7436 70.2035L79.6047 70.2126Z" fill="#EDBFC8"/>
<path d="M77.5457 68.0218C77.4852 68.0513 77.5614 68.158 77.6151 68.1444C78.0314 68.032 78.466 68.0072 78.892 68.0718C79.0808 68.1057 79.2655 68.1597 79.4431 68.2329L79.6067 68.3123C79.5865 68.2147 79.5641 68.1172 79.5417 68.0196C79.3506 67.9412 79.1515 67.8849 78.9481 67.8516C78.4744 67.7625 77.9852 67.8219 77.5457 68.0218Z" fill="#EDBFC8"/>
<path d="M78.3706 68.8119C78.0309 68.7986 77.6908 68.8276 77.358 68.8982C77.078 68.9617 76.6681 69.0321 76.4844 69.2795C76.4844 69.2795 76.4844 69.3181 76.4956 69.3181C76.6517 69.3134 76.8064 69.2859 76.9548 69.2364C77.1161 69.1955 77.2774 69.1592 77.4409 69.1342C78.0456 69.036 78.6642 69.0732 79.2532 69.2432C79.4263 69.2944 79.5954 69.3582 79.7595 69.4338C79.7595 69.3181 79.7595 69.2069 79.7394 69.0843C79.6161 69.0389 79.4907 68.9981 79.3697 68.964C79.0439 68.8729 78.7085 68.8218 78.3706 68.8119Z" fill="#EDBFC8"/>
<path d="M78.4687 81.5837C78.3522 81.5451 78.2312 81.5111 78.1125 81.477C77.866 81.4112 77.6196 81.3522 77.3687 81.3045C77.3557 81.3012 77.3422 81.3007 77.329 81.303C77.3158 81.3052 77.3032 81.3103 77.2921 81.3177C77.2809 81.3252 77.2714 81.335 77.2641 81.3464C77.2569 81.3578 77.2521 81.3706 77.25 81.384C77.25 81.4475 77.3082 81.4907 77.362 81.4997C77.586 81.5451 77.81 81.5951 78.0453 81.6563L78.3746 81.7539L78.4933 81.7925L78.5067 81.5951L78.4687 81.5837Z" fill="#EDBFC8"/>
<path d="M77.7249 80.7577C77.9783 80.834 78.2267 80.9265 78.4686 81.0346L78.5493 81.0709L78.5694 80.8031L78.5425 80.7895C78.2847 80.6848 78.0206 80.5968 77.7518 80.5262C77.4857 80.4562 77.2156 80.4032 76.9431 80.3673C76.6557 80.311 76.3608 80.3056 76.0716 80.3514C76.0179 80.3514 76.0425 80.449 76.0873 80.4581C76.3718 80.5148 76.663 80.5307 76.9475 80.5807C77.2097 80.6249 77.4692 80.684 77.7249 80.7577Z" fill="#EDBFC8"/>
<path d="M77.3029 80.0429C77.6568 80.123 78.0061 80.2231 78.349 80.3425C78.4319 80.372 78.5126 80.406 78.5932 80.4401C78.5932 80.3652 78.6066 80.2926 78.6111 80.2131L78.4409 80.1473C78.0664 80.0245 77.6818 79.9364 77.2917 79.884C77.1909 79.8772 77.2289 80.027 77.3029 80.0429Z" fill="#EDBFC8"/>
<path d="M78.3261 84.0628C77.0133 82.7805 75.6379 83.2367 75.6379 83.2367C75.4748 84.3216 75.4141 85.4198 75.4564 86.5163C75.5505 88.0506 76.5496 88.8019 77.3135 88.9335C78.0774 89.0651 78.1782 87.5513 78.3261 84.0628Z" fill="#EDBFC8"/>
<path opacity="0.3" d="M78.3042 84.6293C78.3042 84.4477 78.3199 84.2594 78.3288 84.0642C77.0161 82.7818 75.6406 83.238 75.6406 83.238C75.9027 83.7101 77.3544 84.5385 78.3042 84.6293Z" fill="white"/>
<path d="M74.8557 54.7301C74.2487 53.8904 73.3391 53.3956 72.4431 52.9326C71.9367 52.6842 71.4459 52.4045 70.9735 52.0951C70.9466 52.0746 70.9399 52.1337 70.9556 52.1495C71.6657 52.785 72.5237 53.2276 73.2988 53.7587C74.1488 54.2983 74.8071 55.098 75.1783 56.042C75.4158 56.589 75.6129 57.1519 75.828 57.7079C75.8437 57.751 75.8773 57.7238 75.8728 57.6875C75.7518 56.6571 75.4651 55.5767 74.8557 54.7301Z" fill="#EDBFC8"/>
<path d="M79.334 36.7752C79.334 29.4578 87.5062 23.5272 97.5869 23.5272C107.668 23.5272 115.849 29.4556 115.849 36.7752C115.849 44.0948 107.674 50.0254 97.5937 50.0254C96.9858 50.0254 96.3885 50.0035 95.8015 49.9596C93.8078 53.7567 90.4251 54.4081 87.7817 54.1063C88.7176 53.662 89.4925 52.9318 89.9976 52.0183C90.5027 51.1047 90.7125 50.0538 90.5976 49.0132C83.9801 47.0181 79.334 42.2904 79.334 36.7752Z" fill="white"/>
<path d="M87.7549 54.2965C87.7136 54.2919 87.6749 54.2736 87.6449 54.2445C87.615 54.2153 87.5953 54.1769 87.5891 54.1353C87.5825 54.0934 87.5896 54.0505 87.6095 54.0132C87.6293 53.9759 87.6607 53.9462 87.6989 53.9288C88.5776 53.5101 89.3087 52.829 89.7941 51.977C90.2795 51.1249 90.4958 50.1428 90.414 49.1625C83.568 47.054 79.1504 42.2037 79.1504 36.777C79.1504 29.3666 87.4256 23.3361 97.5938 23.3361C107.762 23.3361 116.039 29.3643 116.039 36.777C116.039 44.1897 107.764 50.2202 97.5938 50.2202C97.0427 50.2202 96.4737 50.1997 95.9069 50.1634C94.0229 53.6451 91.0323 54.3645 88.8862 54.3645C88.5081 54.3634 88.1304 54.3406 87.7549 54.2965ZM95.8195 49.7572C96.4199 49.8003 97.0203 49.823 97.6117 49.823C107.572 49.823 115.674 43.965 115.674 36.7657C115.674 29.5663 107.572 23.7106 97.6117 23.7106C87.6519 23.7106 79.5312 29.5754 79.5312 36.777C79.5312 42.0608 83.8951 46.793 90.6492 48.8311C90.6853 48.8422 90.7173 48.8638 90.7412 48.8933C90.7652 48.9228 90.7799 48.9588 90.7836 48.9968C90.8844 49.9643 90.7183 50.9411 90.3038 51.8186C89.8893 52.6961 89.2427 53.4399 88.4359 53.9674C90.5238 54.065 93.7093 53.5293 95.6291 49.882C95.6454 49.8511 95.6696 49.8253 95.6992 49.8073C95.7288 49.7894 95.7626 49.7798 95.7971 49.7798L95.8195 49.7572Z" fill="#999999"/>
<path d="M101.968 45.6287L102.684 45.7263L102.633 46.1507H100.236L100.29 45.7263L100.989 45.6196L100.603 44.1216H98.549L98.0315 45.6196L98.8201 45.7263L98.7663 46.1507H96.7031L96.7547 45.7263L97.411 45.6196L99.4272 39.9931L100.39 39.8865L101.968 45.6287ZM100.464 43.586L99.7274 40.7036H99.7005L98.7193 43.586H100.464Z" fill="#999999"/>
<path d="M89.3354 40.6347L89.4407 37.5797L89.0195 37.4822L89.0464 37.2552H89.7521L89.826 37.3074L89.77 38.8258L89.649 39.9039H89.6849L89.8529 39.2706C90.0164 38.6465 90.2225 38.3764 90.6302 38.3764C91.0984 38.3764 91.3023 38.7463 91.3023 39.3523C91.3023 40.3079 90.843 40.8299 90.2046 40.8299C89.9041 40.8313 89.6072 40.7646 89.3354 40.6347ZM89.8977 39.9288L89.7476 40.4554C89.8873 40.5241 90.0403 40.5605 90.1956 40.5621C90.6168 40.5621 90.8901 40.0786 90.8901 39.4C90.8901 39.1435 90.8901 38.7191 90.5675 38.7191C90.2135 38.7214 90.1239 39.1526 89.8977 39.9379V39.9288Z" fill="#999999"/>
<path d="M86.2278 33.0745C86.2307 33.1145 86.2252 33.1547 86.2117 33.1924C86.1982 33.2302 86.1771 33.2646 86.1496 33.2935C86.1221 33.3224 86.089 33.3451 86.0523 33.3602C86.0156 33.3752 85.9762 33.3823 85.9366 33.3809C85.8735 33.3803 85.8119 33.3608 85.7597 33.3248C85.7075 33.2889 85.667 33.2381 85.6431 33.1789L85.7372 33.0654C85.9142 32.8634 85.7372 32.7477 85.5132 32.7477C85.0965 32.7477 84.8568 33.1335 84.8568 33.8303C84.8568 34.2661 85.0203 34.6156 85.3877 34.6156C85.5084 34.6027 85.6253 34.565 85.7312 34.5049C85.8371 34.4448 85.9298 34.3636 86.0038 34.2661L86.1696 34.4409C86.073 34.587 85.9441 34.7084 85.7933 34.7954C85.6425 34.8825 85.4737 34.9328 85.3004 34.9424C84.7134 34.9424 84.4043 34.4885 84.4043 33.8462C84.4043 33.0564 84.8299 32.4844 85.5244 32.4844C85.9231 32.4776 86.2278 32.691 86.2278 33.0745Z" fill="#999999"/>
<path d="M100.108 31.0564C100.316 31.5103 99.9846 31.8576 99.6732 32.1072L99.2745 32.4341C99.4268 32.7019 99.7225 32.9606 100.076 32.8017C100.275 32.6893 100.422 32.5028 100.486 32.282L100.697 32.3705C100.662 32.5307 100.592 32.6808 100.492 32.8097C100.392 32.9386 100.264 33.0429 100.119 33.115C99.5881 33.3623 99.1109 33.0718 98.8511 32.4999C98.5263 31.7827 98.6853 31.0813 99.2767 30.8067C99.6822 30.6138 99.9622 30.7364 100.108 31.0564ZM99.3484 31.0564C99.0079 31.2175 98.9407 31.642 99.1602 32.1912L99.5254 31.8893C99.7808 31.6805 99.8704 31.5058 99.7494 31.2357C99.6732 31.0768 99.5366 30.9633 99.3484 31.0518V31.0564Z" fill="#999999"/>
<path d="M98.0498 35.5879L97.781 36.2461L98.751 36.5911L98.5695 37.02L97.6286 36.6864L96.7326 38.9697C96.4033 39.8003 95.8701 40.6174 95.319 40.9624C95.2154 41.0404 95.0951 41.0928 94.9679 41.1153C94.8407 41.1377 94.7101 41.1297 94.5865 41.0918C94.2997 40.9896 94.1653 40.7786 94.228 40.5516C94.2946 40.371 94.4183 40.2178 94.5797 40.1158L94.8419 40.3564C95.0524 40.5516 95.2787 40.5448 95.4489 40.1975C95.5587 39.9706 95.6416 39.7572 95.7581 39.4667L96.9297 36.4367L96.3248 36.2098L96.5108 35.8375L97.0999 35.9828L97.2568 35.6401C97.6264 34.7322 98.35 34.2193 99.2617 34.5461C99.7098 34.705 100.207 35.1181 99.9987 35.7172C99.9825 35.7772 99.9537 35.833 99.9141 35.8805C99.8745 35.9281 99.8252 35.9664 99.7696 35.9927C99.714 36.0191 99.6534 36.0328 99.592 36.0331C99.5306 36.0333 99.4699 36.02 99.4141 35.9941C99.3375 35.9683 99.2678 35.9253 99.21 35.8683C99.1522 35.8113 99.1078 35.7418 99.0803 35.665L99.2214 35.488C99.4454 35.2066 99.4073 35.0023 99.0937 34.8911C98.6188 34.7322 98.2626 35.0704 98.0498 35.5879Z" fill="#999999"/>
<path d="M105.77 36.2489L105.413 36.721C104.856 37.4518 104.446 37.7559 103.845 37.5017C103.196 37.2271 103.173 36.5122 103.476 35.7791C103.946 34.6284 104.82 34.0768 105.684 34.4354C105.95 34.5474 106.193 34.7082 106.401 34.9098L106.697 34.8531L106.854 34.9915L105.669 37.6039C105.234 38.5617 104.497 39.3538 103.294 38.8499C102.868 38.6706 102.432 38.3143 102.622 37.8649C102.639 37.8065 102.668 37.7524 102.707 37.7059C102.745 37.6593 102.793 37.6214 102.847 37.5946C102.901 37.5677 102.96 37.5524 103.02 37.5497C103.08 37.547 103.14 37.557 103.196 37.5789C103.261 37.6062 103.32 37.6475 103.368 37.7C103.417 37.7525 103.453 37.8149 103.476 37.883L103.348 38.0397C103.14 38.2666 103.187 38.4482 103.52 38.5889C104.152 38.8545 104.73 38.3824 105.214 37.4541L105.823 36.2829L105.77 36.2489ZM105.66 35.9084L106.166 35.248C105.996 35.0723 105.795 34.9313 105.572 34.8326C105.003 34.592 104.39 35.0982 104.029 35.9675C103.921 36.2262 103.639 36.9162 104.107 37.1023C104.575 37.2884 104.965 36.8027 105.653 35.9084H105.66Z" fill="#999999"/>
<path d="M85.1168 39.8464C84.9565 39.9248 84.8103 40.0299 84.6844 40.1573L84.3999 39.7783C84.6375 39.4788 84.9457 39.2446 85.296 39.0974C85.7844 38.909 86.1585 39.0974 86.3556 39.7783L87.1554 42.4497C87.2248 42.6767 87.2987 42.806 87.4824 42.7357C87.6459 42.6485 87.7794 42.5132 87.8655 42.3476L88.2038 42.6403C88.0174 43.0206 87.7038 43.3215 87.3189 43.4892C86.732 43.7162 86.4407 43.4461 86.2884 42.9377L85.4573 40.1006C85.3968 39.8827 85.3072 39.7738 85.1168 39.8464ZM84.727 37.0706C84.8427 37.0287 84.968 37.0223 85.0873 37.0521C85.2066 37.0819 85.3145 37.1467 85.3977 37.2384C85.4808 37.33 85.5355 37.4445 85.5548 37.5674C85.574 37.6904 85.5571 37.8163 85.5062 37.9296C85.4552 38.0429 85.3724 38.1384 85.2681 38.2042C85.1638 38.2701 85.0427 38.3033 84.9199 38.2998C84.7971 38.2963 84.678 38.2562 84.5776 38.1845C84.4771 38.1129 84.3997 38.0128 84.3551 37.8968C84.3221 37.8182 84.3056 37.7335 84.3067 37.6481C84.3078 37.5626 84.3264 37.4784 84.3614 37.4007C84.3964 37.3229 84.4469 37.2535 84.5099 37.1966C84.5728 37.1398 84.6468 37.0969 84.727 37.0706Z" fill="#999999"/>
<path d="M97.1376 29.761C96.7904 29.761 96.6896 29.5545 96.7142 29.273L96.8598 27.5935C96.8934 27.1759 96.824 27.0465 96.6358 27.0465C96.4118 27.0465 96.3155 27.2122 96.134 27.7274L95.462 29.6702H94.9848L95.0766 27.219C95.0766 27.0556 95.043 26.992 94.9198 26.992C94.8007 27.0075 94.6849 27.0427 94.5771 27.0964L94.4785 26.8036C94.6861 26.6903 94.9153 26.6237 95.1506 26.6085C95.4821 26.6085 95.5986 26.815 95.556 27.2099L95.4104 28.7828H95.453L95.8764 27.505C96.0847 26.8785 96.3244 26.5971 96.7725 26.5971C97.2899 26.5971 97.4288 26.933 97.3706 27.6162L97.2429 29.1346C97.225 29.3116 97.2429 29.3888 97.3773 29.3888C97.4973 29.3768 97.6107 29.3277 97.7021 29.2481L97.8365 29.4591C97.6419 29.6336 97.3967 29.7395 97.1376 29.761Z" fill="#999999"/>
<path d="M109.202 31.1274C109.993 31.1274 110.447 31.722 110.447 32.6276C110.447 33.5332 110.046 34.3753 109.027 34.3753C108.236 34.3753 107.795 33.7806 107.795 32.8637C107.795 31.9467 108.178 31.1274 109.202 31.1274ZM109.885 32.6208C109.885 31.9581 109.699 31.486 109.155 31.486C108.512 31.486 108.364 32.1669 108.364 32.8954C108.364 33.5763 108.588 34.0303 109.063 34.0303C109.706 34.0166 109.885 33.3539 109.885 32.6208Z" fill="#999999"/>
<path d="M89.6036 27.5757C91.109 27.0242 92.5897 27.6506 93.2707 29.5572C94.0167 31.643 93.2842 33.0524 91.7698 33.8014L91.7945 33.874C92.3002 33.7653 92.8254 33.7958 93.3155 33.9625C94.0884 34.1895 94.3684 34.1895 94.3438 33.8332L94.3169 33.5041C94.8635 33.3021 95.213 33.4837 95.3384 33.8377C95.4975 34.2916 95.2287 34.6684 94.8187 34.8182C94.3707 34.9839 93.8397 34.8908 93.1834 34.6684C92.3231 34.3597 92.0073 34.2394 91.4876 34.4414C91.1112 34.5776 90.8849 34.7955 90.5019 35.1723L90.0919 34.7456C90.3021 34.5171 90.5399 34.3166 90.7998 34.1487L90.7797 34.0942C89.3527 34.2372 88.3155 33.3248 87.8517 32.0265C86.9669 29.5503 88.1183 28.1227 89.6036 27.5757ZM91.436 33.4088C92.4934 33.0206 92.9549 31.82 92.3321 30.0633C91.7653 28.4745 90.7864 27.8072 89.6842 28.2112C88.6739 28.5835 88.069 29.573 88.7769 31.5635C89.3459 33.1455 90.2734 33.8377 91.436 33.4088Z" fill="#999999"/>
<path d="M105.058 42.1236C104.965 42.1358 104.875 42.1634 104.791 42.2053L104.715 41.9783C104.876 41.8918 105.053 41.8407 105.235 41.8285C105.492 41.8285 105.58 41.9874 105.553 42.2961L105.488 42.9474H105.517L105.761 42.3641C105.909 42.0055 106.023 41.824 106.29 41.824C106.333 41.8185 106.378 41.8225 106.42 41.8356C106.461 41.8487 106.5 41.8707 106.533 41.9C106.566 41.9294 106.593 41.9655 106.611 42.006C106.629 42.0465 106.639 42.0904 106.639 42.1349C106.639 42.203 106.618 42.2695 106.581 42.3258C106.543 42.382 106.489 42.4254 106.426 42.4504L106.321 42.3278C106.272 42.2643 106.236 42.2257 106.169 42.2257C106.102 42.2257 106.032 42.3006 105.886 42.6252C105.553 43.3878 105.488 43.533 105.465 43.8371L105.425 44.2139H105.1L105.19 42.3051C105.185 42.178 105.154 42.1236 105.058 42.1236Z" fill="#999999"/>
<path d="M101.594 27.8256C102.093 27.7076 102.322 27.9595 102.38 28.3998L102.711 30.7829C102.79 31.314 102.873 31.4956 103.135 31.4343C103.397 31.3731 103.48 31.0916 103.554 30.3313L103.827 27.4216L104.62 27.2355L105.279 30.7126C105.321 30.9395 105.393 31.0258 105.565 30.9849C105.723 30.9258 105.869 30.8415 106 30.7353L106.242 31.1143C105.984 31.3512 105.678 31.5278 105.346 31.6318C104.862 31.7453 104.616 31.4979 104.539 30.9305L104.235 28.6608H104.168L104.033 30.5946C103.964 31.5024 103.742 31.9995 103.088 32.1538C102.369 32.3218 102.062 31.8792 101.93 30.9668L101.614 28.763C101.587 28.536 101.524 28.4089 101.345 28.4497C101.189 28.5039 101.053 28.6034 100.953 28.7357L100.695 28.4384C100.927 28.1475 101.24 27.934 101.594 27.8256Z" fill="#999999"/>
<path d="M93.4902 43.6585C93.4202 44.0553 93.3229 44.4466 93.199 44.8296C93.0825 45.2155 93.0332 45.4697 93.3648 45.5264C93.927 45.6218 94.4154 44.6572 94.5364 44.0398C94.5879 43.7697 94.5364 43.6948 94.3975 43.6108L94.1981 43.4996C94.2115 43.1751 94.3908 42.9799 94.6708 43.0275C95.0314 43.0888 95.1367 43.3748 95.0695 43.7811C94.9172 44.6889 94.2295 46.1619 93.1788 45.9826C93.0154 45.9627 92.8663 45.8784 92.7636 45.7481C92.6609 45.6177 92.6129 45.4517 92.63 45.2858C92.5194 45.4536 92.3616 45.5838 92.177 45.6595C91.9924 45.7352 91.7896 45.7529 91.595 45.7103C91.2859 45.6581 90.811 45.4697 90.9924 44.6367L91.3284 43.0729C91.3665 42.8891 91.2679 42.846 91.1044 42.8619L90.8983 42.8936L90.8535 42.5691C91.0922 42.4926 91.3442 42.4687 91.5928 42.4987C91.6619 42.5032 91.729 42.5237 91.7889 42.5589C91.8488 42.594 91.8999 42.6428 91.9381 42.7013C91.9763 42.7597 92.0006 42.8264 92.0091 42.896C92.0176 42.9656 92.01 43.0363 91.987 43.1024L91.66 44.605C91.5726 44.9953 91.5704 45.2155 91.8459 45.2631C92.4172 45.3607 92.7061 44.5823 92.8585 43.6608C92.9017 43.4016 92.9301 43.1402 92.9436 42.8777L93.5597 42.9118C93.5603 43.1624 93.537 43.4124 93.4902 43.6585Z" fill="#999999"/>
<path d="M109.663 39.36L111.256 37.5579L110.707 37.3059L110.817 36.995L112.434 37.3604L112.311 37.6963H111.749L109.733 39.8911L109.381 41.2302L109.992 41.4571L109.878 41.7794L108.021 41.3618L108.133 41.0372L108.704 41.0736L109.074 39.7435L108.292 36.8929L107.811 36.6659L107.934 36.3368L109.726 36.7385L109.612 37.0699L109.036 37.0336L109.639 39.3441L109.663 39.36Z" fill="#999999"/>
</svg>
