<svg width="375" height="293" viewBox="0 0 375 293" fill="none" xmlns="http://www.w3.org/2000/svg">
<path d="M470.299 97.8544C444.321 205.213 290.539 260.129 126.817 220.512C-36.9049 180.896 -148.568 61.7487 -122.59 -45.61C-96.6121 -152.969 57.1701 -207.884 220.892 -168.268C384.614 -128.651 496.277 -9.50419 470.299 97.8544Z" fill="#D9EDF1"/>
<path d="M432.461 82.747C410.24 174.579 278.699 221.552 138.656 187.665C-1.38707 153.778 -96.9008 51.8632 -74.6799 -39.9684C-52.4589 -131.8 79.0821 -178.773 219.125 -144.886C359.168 -110.999 454.682 -9.08452 432.461 82.747Z" fill="#B0DAE2"/>
<ellipse cx="208.055" cy="8.03861" rx="240.723" ry="157.851" transform="rotate(13.6027 208.055 8.03861)" fill="#0087A2"/>
<path d="M301.619 280.001H74.5707C73.7011 280.001 72.9961 279.296 72.9961 278.426C72.9961 277.557 73.7011 276.852 74.5707 276.852H301.619C302.488 276.852 303.193 277.557 303.193 278.426C303.193 279.296 302.488 280.001 301.619 280.001Z" fill="#005161"/>
<path d="M75.4187 109.786C75.4302 109.638 75.4379 109.489 75.4379 109.338C75.4379 106.18 72.8774 103.619 69.7189 103.619C66.5604 103.619 64 106.18 64 109.338C64 109.489 64.0076 109.638 64.0191 109.786H75.4187Z" fill="#B0DAE2"/>
<path d="M94.2078 109.786C94.2193 109.638 94.2269 109.489 94.2269 109.338C94.2269 106.18 91.6665 103.619 88.508 103.619C85.3495 103.619 82.7891 106.18 82.7891 109.338C82.7891 109.489 82.7967 109.638 82.8082 109.786H94.2078Z" fill="#B0DAE2"/>
<path d="M99.0723 109.787C99.0885 109.64 99.0976 109.49 99.0976 109.339C99.0976 107.105 97.287 105.295 95.0537 105.295C92.8203 105.295 91.0098 107.105 91.0098 109.339C91.0098 109.49 91.0188 109.64 91.0351 109.787H99.0723Z" fill="#B0DAE2"/>
<path d="M87.6278 109.787C87.6722 109.437 87.695 109.082 87.695 108.721C87.695 104.094 83.9441 100.343 79.3172 100.343C74.6902 100.343 70.9395 104.094 70.9395 108.721C70.9395 109.082 70.9623 109.437 71.0067 109.787H87.6278Z" fill="#B0DAE2"/>
<path d="M216.327 44.4444C216.338 44.2963 216.346 44.1472 216.346 43.9963C216.346 40.8378 213.786 38.2773 210.627 38.2773C207.469 38.2773 204.908 40.8378 204.908 43.9963C204.908 44.1472 204.916 44.2963 204.927 44.4444H216.327Z" fill="#B0DAE2"/>
<path d="M235.114 44.4444C235.126 44.2963 235.133 44.1472 235.133 43.9963C235.133 40.8378 232.573 38.2773 229.414 38.2773C226.256 38.2773 223.695 40.8378 223.695 43.9963C223.695 44.1472 223.703 44.2963 223.714 44.4444H235.114Z" fill="#B0DAE2"/>
<path d="M228.536 44.4438C228.58 44.0947 228.603 43.7388 228.603 43.3778C228.603 38.7508 224.852 35 220.225 35C215.598 35 211.848 38.7509 211.848 43.3778C211.848 43.7388 211.871 44.0947 211.915 44.4438H228.536Z" fill="#B0DAE2"/>
<path d="M278.245 93.8245C279.169 90.1748 279.321 86.4881 278.793 82.9739L279.91 82.8062L282.115 82.4766L282.143 82.4705C281.544 78.448 280.17 74.6132 278.111 71.1753L275.207 72.9051C273.344 69.795 270.888 67.038 267.915 64.8533L269.931 62.1295C266.788 59.7819 263.128 58.0063 259.092 56.9836L258.259 60.272C254.597 59.344 250.923 59.1952 247.408 59.723L246.905 56.374C242.882 56.9719 239.044 58.3591 235.61 60.4051L237.34 63.3092C234.229 65.1723 231.473 67.6288 229.288 70.6014L226.564 68.5856C224.216 71.729 222.441 75.3884 221.418 79.4244L224.707 80.2577C223.779 83.92 223.629 87.594 224.157 91.1082L221.788 91.462L220.821 91.6149L220.809 91.6117C221.407 95.634 222.794 99.472 224.84 102.907L227.744 101.177C229.607 104.287 232.076 107.047 235.048 109.232L233.032 111.956C236.176 114.303 239.823 116.076 243.859 117.099L244.692 113.81C248.354 114.738 252.041 114.89 255.555 114.363L255.942 116.966L256.058 117.711C260.081 117.113 263.906 115.723 267.341 113.677L265.611 110.773C268.722 108.91 271.482 106.441 273.679 103.472L276.402 105.487C278.738 102.341 280.51 98.6937 281.533 94.6578L278.245 93.8245ZM247.792 101.578C239.758 99.542 234.903 91.3917 236.939 83.3574C238.971 75.3355 247.122 70.481 255.156 72.5169C263.178 74.5496 268.033 82.6996 266 90.7215C263.964 98.756 255.814 103.611 247.792 101.578Z" stroke="#E6F3F6" stroke-width="4" stroke-miterlimit="10" stroke-linejoin="round"/>
<path d="M291.164 123.894C289.929 122.343 288.433 121.105 286.791 120.206L287.077 119.685L287.641 118.656L287.648 118.642C285.771 117.611 283.726 116.965 281.629 116.732L281.429 118.501C279.532 118.291 277.593 118.442 275.73 118.992L275.231 117.279C273.245 117.848 271.335 118.816 269.621 120.182L270.733 121.579C269.177 122.819 267.944 124.311 267.046 125.952L265.482 125.096C264.451 126.973 263.809 129.023 263.572 131.115L265.341 131.315C265.13 133.213 265.282 135.151 265.831 137.014L264.119 137.513C264.688 139.499 265.656 141.409 267.022 143.124L268.419 142.011C269.658 143.567 271.151 144.8 272.792 145.698L272.185 146.804L271.941 147.258L271.936 147.262C273.812 148.293 275.863 148.935 277.954 149.172L278.155 147.403C280.052 147.613 281.996 147.458 283.858 146.908L284.358 148.621C286.343 148.052 288.248 147.088 289.963 145.722L288.85 144.325C290.406 143.086 291.645 141.589 292.543 139.948L293.758 140.615L294.107 140.804C295.138 138.927 295.774 136.881 296.012 134.789L294.243 134.589C294.453 132.692 294.298 130.748 293.753 128.881L295.466 128.382C294.891 126.4 293.928 124.495 292.562 122.781L291.164 123.894ZM284.711 139.128C281.297 141.847 276.334 141.285 273.616 137.871C270.901 134.463 271.463 129.5 274.877 126.781C278.285 124.067 283.248 124.629 285.962 128.037C288.681 131.451 288.119 136.414 284.711 139.128Z" stroke="#E6F3F6" stroke-width="4" stroke-miterlimit="10" stroke-linejoin="round"/>
<path d="M165.101 205.306C163.675 203.516 161.948 202.087 160.054 201.051L160.384 200.449L161.035 199.261L161.042 199.245C158.877 198.056 156.517 197.311 154.097 197.042L153.866 199.083C151.676 198.84 149.44 199.015 147.29 199.649L146.714 197.672C144.422 198.329 142.218 199.447 140.239 201.023L141.523 202.635C139.728 204.065 138.305 205.787 137.268 207.681L135.463 206.693C134.273 208.859 133.533 211.225 133.26 213.639L135.3 213.87C135.058 216.059 135.232 218.296 135.867 220.446L133.89 221.022C134.547 223.313 135.664 225.518 137.24 227.496L138.853 226.212C140.283 228.008 142.005 229.431 143.899 230.468L143.199 231.744L142.917 232.268L142.911 232.272C145.077 233.462 147.443 234.203 149.856 234.476L150.088 232.435C152.277 232.678 154.52 232.498 156.669 231.864L157.246 233.841C159.537 233.183 161.735 232.071 163.714 230.495L162.43 228.883C164.225 227.453 165.654 225.726 166.691 223.832L168.093 224.602L168.496 224.82C169.686 222.654 170.42 220.293 170.694 217.879L168.653 217.648C168.895 215.458 168.716 213.216 168.088 211.061L170.064 210.485C169.401 208.198 168.289 206 166.713 204.021L165.101 205.306ZM157.653 222.886C153.714 226.023 147.987 225.375 144.85 221.436C141.717 217.503 142.366 211.776 146.305 208.638C150.238 205.506 155.965 206.154 159.097 210.087C162.235 214.026 161.586 219.753 157.653 222.886Z" stroke="#00657A" stroke-width="4" stroke-miterlimit="10"/>
<path d="M251.348 86.7493C249.75 77.2829 235.172 73.0093 235.458 79.1878L168.63 79.5792C164.001 79.6063 160.248 83.7704 160.244 88.8846L160.105 264.641C160.101 269.94 163.92 274.272 168.637 274.312L236.858 274.897C237.281 275.786 238.074 276.595 239.322 277.271C247.146 277.437 250.898 273.574 252.269 269.206C252.716 268.034 252.958 266.738 252.947 265.372C252.674 263.084 251.842 88.9689 251.348 86.7493Z" fill="#006C82"/>
<path d="M238.594 277.299L160.287 276.794C155.401 276.763 151.448 272.314 151.457 266.862L151.751 86.1124C151.759 80.8555 155.649 76.5854 160.441 76.5699L237.227 76.3204C242.057 76.3047 246.007 80.5687 246.048 85.8495L247.439 267.435C247.482 272.912 243.52 277.331 238.594 277.299Z" fill="white"/>
<path d="M239.674 275.983C239.349 276.027 239.016 276.048 238.684 276.045L160.401 275.453C156.202 275.421 152.77 271.521 152.777 266.762L153.048 86.2108C153.055 81.6216 156.433 77.8763 160.551 77.8585L237.332 77.5245C237.452 77.524 237.573 77.5265 237.693 77.5321C239.625 77.6217 241.431 78.5018 242.78 80.0082C244.16 81.5478 244.927 83.588 244.943 85.7565L246.317 267.526C246.349 271.834 243.504 275.47 239.674 275.983Z" fill="black"/>
<path d="M242.252 86.6709L243.572 267.808L155.383 267.28L155.608 86.6709H242.252Z" fill="white"/>
<path d="M211.569 177.819H187.96C185.963 177.819 184.328 176.184 184.328 174.187C184.328 172.189 185.963 170.555 187.96 170.555H211.569C213.567 170.555 215.201 172.189 215.201 174.187C215.201 176.184 213.567 177.819 211.569 177.819Z" fill="#13AE94"/>
<path d="M229.529 150.856H168.484C166.486 150.856 164.852 149.222 164.852 147.224C164.852 145.226 166.486 143.592 168.484 143.592H229.529C231.527 143.592 233.161 145.226 233.161 147.224C233.161 149.222 231.527 150.856 229.529 150.856Z" fill="#D9EDF1"/>
<path d="M229.529 162.554H168.484C166.486 162.554 164.852 160.92 164.852 158.922C164.852 156.924 166.486 155.29 168.484 155.29H229.529C231.527 155.29 233.161 156.924 233.161 158.922C233.161 160.92 231.527 162.554 229.529 162.554Z" fill="#D9EDF1"/>
<path d="M179.882 159.243C179.882 159.949 179.309 160.521 178.603 160.521C177.897 160.521 177.324 159.949 177.324 159.243C177.324 158.536 177.897 157.964 178.603 157.964C179.309 157.964 179.882 158.536 179.882 159.243Z" fill="#0087A2"/>
<path d="M184.23 159.511C184.377 158.82 183.936 158.141 183.246 157.994C182.555 157.847 181.876 158.288 181.729 158.979C181.582 159.67 182.023 160.349 182.714 160.495C183.404 160.642 184.083 160.201 184.23 159.511Z" fill="#0087A2"/>
<path d="M188.275 160.147C188.774 159.648 188.774 158.838 188.275 158.339C187.776 157.84 186.966 157.84 186.467 158.339C185.967 158.838 185.967 159.648 186.467 160.147C186.966 160.647 187.776 160.647 188.275 160.147Z" fill="#0087A2"/>
<path d="M192.658 160.148C193.157 159.649 193.157 158.839 192.658 158.34C192.158 157.841 191.349 157.841 190.849 158.34C190.35 158.839 190.35 159.649 190.849 160.148C191.349 160.648 192.158 160.648 192.658 160.148Z" fill="#0087A2"/>
<path d="M196.639 160.424C197.291 160.154 197.601 159.406 197.331 158.753C197.06 158.101 196.312 157.791 195.66 158.061C195.007 158.332 194.698 159.08 194.968 159.732C195.238 160.385 195.986 160.694 196.639 160.424Z" fill="#0087A2"/>
<path d="M201.767 159.555C201.929 158.868 201.504 158.179 200.817 158.017C200.129 157.855 199.441 158.28 199.278 158.967C199.116 159.655 199.542 160.343 200.229 160.506C200.916 160.668 201.605 160.242 201.767 159.555Z" fill="#0087A2"/>
<path d="M205.81 160.148C206.31 159.649 206.31 158.839 205.81 158.34C205.311 157.841 204.501 157.841 204.002 158.34C203.502 158.839 203.502 159.649 204.002 160.148C204.501 160.648 205.311 160.648 205.81 160.148Z" fill="#0087A2"/>
<path d="M210.195 160.148C210.694 159.649 210.694 158.839 210.195 158.34C209.696 157.841 208.886 157.841 208.387 158.34C207.887 158.839 207.887 159.649 208.387 160.148C208.886 160.648 209.696 160.648 210.195 160.148Z" fill="#0087A2"/>
<path d="M214.174 160.424C214.826 160.154 215.136 159.406 214.866 158.753C214.596 158.101 213.848 157.791 213.195 158.061C212.543 158.332 212.233 159.08 212.503 159.732C212.773 160.385 213.521 160.694 214.174 160.424Z" fill="#0087A2"/>
<path d="M208.948 129.318C214.428 123.838 214.428 114.953 208.948 109.473C203.467 103.993 194.582 103.993 189.102 109.473C183.622 114.953 183.622 123.838 189.102 129.318C194.582 134.798 203.467 134.798 208.948 129.318Z" fill="#D9EDF1"/>
<path d="M199.046 118.831C200.415 118.831 201.681 118.163 202.489 117.144C203.085 116.407 203.437 115.458 203.437 114.404C203.437 111.98 201.47 109.978 199.046 109.978C196.587 109.978 194.619 111.98 194.619 114.404C194.619 115.458 194.97 116.407 195.568 117.144C196.376 118.163 197.64 118.831 199.046 118.831Z" fill="#0087A2"/>
<path d="M206.826 126.717C206.826 129.511 191.227 129.511 191.227 126.717L191.232 123.462C191.848 119.012 205.558 118.825 206.829 123.462L206.826 126.717Z" fill="#0087A2"/>
<path d="M171.513 158.252V158.057C171.513 157.269 170.872 156.628 170.084 156.628C169.295 156.628 168.654 157.269 168.654 158.057V158.252H168.438V160.827C168.438 161.273 171.739 161.273 171.739 160.827V158.252H171.513ZM169.164 158.057C169.164 157.563 169.469 157.114 170.084 157.114C170.698 157.114 171.013 157.534 171.013 158.057V158.252H169.164V158.057ZM170.327 159.549V160.293C170.327 160.427 170.212 160.522 170.079 160.522C169.945 160.522 169.85 160.427 169.85 160.293V159.549C169.716 159.473 169.621 159.339 169.621 159.167C169.621 158.919 169.831 158.709 170.079 158.709C170.327 158.709 170.536 158.919 170.536 159.167C170.536 159.339 170.441 159.473 170.327 159.549Z" fill="#4D4D4D"/>
<path d="M170.086 146.96C170.375 146.96 170.642 146.819 170.813 146.604C170.939 146.448 171.013 146.248 171.013 146.026C171.013 145.514 170.598 145.092 170.086 145.092C169.567 145.092 169.152 145.514 169.152 146.026C169.152 146.248 169.226 146.449 169.353 146.604C169.523 146.819 169.79 146.96 170.086 146.96Z" fill="#4D4D4D"/>
<path d="M171.728 148.624C171.728 149.213 168.42 149.213 168.42 148.624L168.438 147.937C168.568 146.998 171.461 146.958 171.729 147.937L171.728 148.624Z" fill="#4D4D4D"/>
<path d="M191.469 148.29H178.091C177.505 148.29 177.025 147.81 177.025 147.224C177.025 146.638 177.505 146.158 178.091 146.158H191.469C192.055 146.158 192.535 146.638 192.535 147.224C192.535 147.81 192.055 148.29 191.469 148.29Z" fill="#0087A2"/>
<path d="M209.114 148.29H195.736C195.15 148.29 194.67 147.81 194.67 147.224C194.67 146.638 195.15 146.158 195.736 146.158H209.114C209.7 146.158 210.179 146.638 210.179 147.224C210.179 147.81 209.7 148.29 209.114 148.29Z" fill="#0087A2"/>
<path d="M181.016 215.29V241.753C181.016 244.694 216.998 244.694 216.998 241.753V215.29H181.016Z" fill="#D9EDF1"/>
<path d="M203.328 226.329C203.891 223.941 202.413 221.548 200.025 220.985C197.637 220.421 195.245 221.899 194.681 224.287C194.117 226.675 195.596 229.067 197.983 229.631C200.371 230.195 202.764 228.716 203.328 226.329Z" fill="#0087A2"/>
<path d="M199.006 238.666C198.001 238.666 197.186 237.851 197.186 236.845V226.656H200.827V236.845C200.827 237.851 200.012 238.666 199.006 238.666Z" fill="#0087A2"/>
<path d="M213.845 213.405H210.204V211.623C210.204 205.45 205.181 200.427 199.008 200.427C192.834 200.427 187.812 205.45 187.812 211.623V213.405H184.17V211.623C184.17 203.441 190.826 196.785 199.008 196.785C207.189 196.785 213.845 203.441 213.845 211.623V213.405Z" fill="#D9EDF1"/>
<path d="M229.096 183.377C229.096 183.236 229.097 183.174 229.097 183.16C229.097 183.186 229.096 183.377 229.096 183.377Z" fill="#D9FFFF"/>
<path d="M229.096 183.377C229.096 183.236 229.097 183.174 229.097 183.16C229.097 183.186 229.096 183.377 229.096 183.377Z" fill="#D9FFFF"/>
<path d="M312.9 183.751C312.9 183.751 312.901 183.56 312.901 183.534C312.901 183.548 312.901 183.61 312.9 183.751Z" fill="#D9FFFF"/>
<path d="M312.9 183.751C312.9 183.751 312.901 183.56 312.901 183.534C312.901 183.548 312.901 183.61 312.9 183.751Z" fill="#D9FFFF"/>
<path d="M271.154 163.684C261.877 173.621 247.074 181.765 231.234 185.234C231.23 186.292 231.203 192.154 231.083 219.169C230.921 255.208 265.219 272.819 270.544 275.521C275.703 273.147 310.434 255.563 310.595 219.525C310.716 192.509 310.742 186.648 310.746 185.59C294.938 181.979 280.341 173.703 271.154 163.684Z" fill="white"/>
<path d="M271.069 167.593C261.505 176.366 248.256 183.261 233.687 187.019L233.544 219.164C233.478 233.872 239.321 247.177 250.911 258.713C258.527 266.292 266.534 270.992 270.597 273.106C270.771 273.018 270.963 272.917 271.152 272.819V167.668C271.124 167.643 271.095 167.618 271.069 167.593Z" fill="#D9EDF1"/>
<path d="M271.152 167.667V272.819C275.377 270.621 283.056 266.078 290.411 258.889C302.103 247.458 308.065 234.204 308.131 219.496L308.274 187.351C293.781 183.475 280.63 176.489 271.152 167.667Z" fill="#B0DAE2"/>
<path d="M300.345 199.887C289.253 201.597 274.15 211.713 264.622 223.877C263.285 218.142 257.286 212.906 254.147 211.761L244.637 221.32C250.575 223.996 257.063 231.578 257.924 239.34L267.424 240.812C271.429 232.9 281.774 213.975 302.353 203.799C301.957 202.25 300.504 200.108 300.345 199.887Z" fill="#00657A"/>
<path d="M119.667 142.181L117.995 148.904L117.691 150.154C117.353 151.742 106.863 151.066 107.606 149.208L108.231 147.84L111.458 140.762L119.667 142.181Z" fill="#F7A58E"/>
<path d="M125.801 132.207C125.908 139.497 122.524 145.425 117.228 145.4C111.932 145.374 106.809 140.881 106.623 132.114C106.505 126.529 110.965 122.02 116.261 122.046C121.557 122.072 125.719 126.621 125.801 132.207Z" fill="#F7A58E"/>
<path d="M116.421 120.041C116.421 120.041 126.973 120.562 127.851 128.554C129.022 135.568 123.76 130.411 121.612 135.118C119.151 140.51 121.659 144.456 124.857 145.527C122.014 149.497 105.755 149.354 101.571 142.389C98.705 133.651 102.759 120.526 116.421 120.041Z" fill="#002F39"/>
<path d="M123.82 134.831C123.908 135.913 123.102 136.862 122.02 136.95C120.938 137.038 119.989 136.232 119.901 135.15C119.813 134.067 120.619 133.119 121.701 133.031C122.784 132.943 123.732 133.749 123.82 134.831Z" fill="#F7A58E"/>
<path d="M122.202 270.456C122.696 269.932 125.03 269.924 125.243 270.698C125.456 271.473 125.045 272.026 126.029 273.255C125.463 273.418 123.453 273.434 122.838 273.255C122.222 273.076 121.707 270.98 122.202 270.456Z" fill="white"/>
<path d="M118.348 273.103H124.033C124.565 249.043 124.463 222.851 124.272 203.125C124.203 196.061 124.008 192.488 122.728 188.246C120.14 179.683 107.973 182.319 107.11 190.081C106.75 194.389 106.487 202.793 114.45 231.347C111.001 243.92 117.018 258.994 118.348 273.103Z" fill="#002F39"/>
<path d="M127.22 273.47C126.382 273.425 124.427 272.619 124.058 272.062C123.514 272.67 122.383 272.838 121.017 272.634C119.403 272.393 119.19 271.643 118.033 271.744C117.545 273.1 116.356 276.145 117.503 276.851C117.503 276.851 124.284 276.851 129.458 276.851C130.525 275.876 130.497 273.796 127.22 273.47Z" fill="white"/>
<path d="M93.2562 271.065C93.672 270.624 95.6328 270.617 95.8118 271.268C95.9906 271.919 95.6453 272.385 96.4727 273.417C95.9965 273.554 94.3074 273.567 93.7905 273.417C93.2735 273.267 92.8405 271.505 93.2562 271.065Z" fill="white"/>
<path d="M111.993 189.863C110.83 180.993 95.0493 181.904 94.0002 189.649C93.6212 193.817 92.4637 200.09 95.429 231.045C89.1732 242.859 90.9409 259.809 89.0722 272.287C88.8658 274.186 94.2439 274.642 94.6615 272.95C100.393 249.8 108.401 223.827 111.379 204.567C112.459 197.585 112.568 194.256 111.993 189.863Z" fill="#002F39"/>
<path d="M97.4867 273.103C96.6492 273.058 95.4144 271.969 95.0457 271.412C94.5022 272.02 93.4647 272.838 92.0987 272.634C90.4853 272.393 90.2723 271.644 89.1151 271.744C88.6271 273.1 87.4385 276.145 88.5852 276.851C88.5852 276.851 95.0394 276.851 100.213 276.851C101.281 275.876 100.764 273.429 97.4867 273.103Z" fill="white"/>
<path d="M138.605 142.911L135.662 143.564C135.729 145.113 135.543 147.586 135.662 150.317L140.612 149.665C139.859 146.915 139.132 144.505 138.605 142.911Z" fill="#F7A58E"/>
<path d="M135.662 150.318C135.552 155.73 135.408 158.049 135.363 160.181L120.676 150.762C116.201 149.403 110.982 158.262 116.641 162.259C116.641 162.259 136.2 173.303 140.6 170.121C142.98 168.401 142.363 156.055 140.612 149.666L135.662 150.318Z" fill="white"/>
<path d="M139.934 140.033C138.574 138.438 135.588 138.995 135.361 139.038L135.648 143.449C135.715 145.627 138.417 145.701 139.517 143.823C139.517 143.823 141.112 141.604 139.934 140.033Z" fill="#F7A58E"/>
<path d="M136.81 139.454C135.819 134.649 134.818 135.293 134.818 135.293C134.818 135.293 134.979 136.991 135.426 139.987C135.762 141.685 136.933 140.661 136.81 139.454Z" fill="#F7A58E"/>
<path d="M124.146 163.421C125.144 158.568 125.678 153.776 120.676 150.762C117.71 148.976 108.177 147.7 103.719 149.175C99.2272 151.182 100.199 159.937 99.3572 173.763C96.262 180.662 94.9164 182.929 94 189.649C94 189.649 95.6559 194.713 107.322 194.719C112.619 194.722 120.421 194.251 123.97 191.55C123.616 186.967 121.699 182.552 120.901 176.064C120.901 176.064 124.074 163.978 124.146 163.421Z" fill="white"/>
<path d="M101.323 150.151C95.848 154.331 90.5074 160.904 87.9833 164.395C85.4595 167.886 78.9219 181.916 78.9219 181.916L83.0825 184.983L94.3366 169.649L108.085 158.372C112.856 153.502 106.656 146.079 101.323 150.151Z" fill="white"/>
<path d="M77.1797 185.473L79.8765 179.9C80.511 181.576 83.5984 183.105 84.485 183.073C84.485 183.073 81.5851 187.246 80.8761 187.955C80.1671 188.664 77.2383 187.463 77.1797 185.473Z" fill="#F7A58E"/>
<path d="M81.5575 187.024C81.5467 187.066 81.5588 187.122 81.548 187.164C81.4126 189.191 79.854 190.151 79.4322 190.378C79.3987 190.405 79.3611 190.413 79.3237 190.421C80.7896 190.128 81.2287 192.092 80.4828 192.545C78.3253 194.005 75.2507 191.996 74.9906 190.778C74.7265 189.541 77.1842 185.45 77.1842 185.45C78.4377 184.437 81.6464 184.595 81.5575 187.024Z" fill="#F7A58E"/>
<path d="M81.5481 187.164C81.4616 189.456 79.3961 190.399 79.3585 190.407C78.1502 190.374 77.7196 190.301 76.5664 190.304C77.319 189.936 78.8626 188.96 78.265 187.064C79.447 186.159 81.2251 186.95 81.5481 187.164Z" fill="#E6856A"/>
<path d="M81.5796 186.903C81.8973 188.795 81.7631 191.491 81.3132 192.677C81.3132 192.677 80.1534 192.738 80.262 190.547C80.2902 189.977 80.2081 188.739 79.6441 188.327C77.9078 187.18 77.6285 186.127 78.2654 185.264C79.1141 184.113 81.5128 185.281 81.5796 186.903Z" fill="#F7A58E"/>
<path d="M76.2057 192.074C77.1476 192.727 79.6412 193.993 80.0347 193.681C80.4283 193.368 78.4344 191.246 77.1475 190.965C75.8604 190.684 75.723 191.739 76.2057 192.074Z" fill="#F7A58E"/>
</svg>
