<svg width="300" height="227" viewBox="0 0 300 227" fill="none" xmlns="http://www.w3.org/2000/svg">
<rect width="300" height="225" rx="25" fill="#D9EDF1"/>
<path d="M99.0855 28.9287H35.0234V115.443H99.0855V28.9287Z" fill="#00657A"/>
<path d="M96.9507 28.9287H32.8887V115.443H96.9507V28.9287Z" fill="#CCCCCC"/>
<path d="M94.2229 30.6807H35.6191V113.686H94.2229V30.6807Z" fill="white"/>
<path d="M82.8154 41.4678H46.7773V102.901H82.8154V41.4678Z" fill="#CCCCCC"/>
<path d="M46.7743 81.1501C46.6904 75.4102 53.0155 69.8071 59.9781 69.0041C63.3001 68.6254 66.8289 69.1638 69.9328 68.1235C75.4694 66.271 77.2366 60.2665 82.7955 58.4824L83.0528 102.887H46.7743V81.1501Z" fill="#00657A"/>
<path d="M266.604 25V72.6076H182.795L179.775 25.3331L266.604 25Z" fill="#00657A"/>
<path d="M179.789 25.3336V72.5078H263.598V25.3336L179.789 25.3336Z" fill="white"/>
<path d="M263.984 72.8312H179.381V25.0273H263.984V72.8312ZM180.181 72.1833H263.19V25.6433H180.181V72.1833Z" fill="#00657A"/>
<path d="M254.513 31.1963H188.857V66.6488H254.513V31.1963Z" fill="white"/>
<path d="M254.511 31.1959H254.187H253.253H249.651L236.117 31.237L188.855 31.3145L189.045 31.1594C189.045 41.9913 189.045 53.9731 189.045 66.6073L188.838 66.4385L254.494 66.4704L254.332 66.6073C254.365 55.8164 254.393 46.9875 254.416 40.8096C254.416 37.7343 254.449 35.3343 254.461 33.678C254.461 32.8659 254.461 32.2408 254.461 31.8027C254.461 31.3784 254.461 31.1548 254.461 31.1548C254.461 31.1548 254.461 31.3602 254.461 31.7754C254.461 32.1906 254.461 32.8202 254.461 33.6005C254.461 35.243 254.461 37.6385 254.5 40.7046C254.5 46.8826 254.55 55.7617 254.589 66.5845V66.7168H254.421L188.766 66.7533H188.559V66.5845C188.559 53.9685 188.559 41.9685 188.559 31.1366V30.9814H188.743L236.134 31.059L249.617 31.1001H253.185H254.097C254.238 31.1237 254.376 31.1557 254.511 31.1959Z" fill="#00657A"/>
<path d="M179.777 25.2002C180.296 25.4034 180.781 25.6595 181.22 25.9622C182.076 26.4686 183.245 27.185 184.509 28.0063C185.772 28.8276 186.874 29.6078 187.657 30.1918C188.108 30.4828 188.51 30.8202 188.854 31.1956C188.781 31.2686 186.762 29.9089 184.246 28.2709C181.729 26.6329 179.705 25.2778 179.777 25.2002Z" fill="#00657A"/>
<path d="M263.588 25.3331C263.661 25.4061 261.687 26.7795 259.181 28.3993C256.676 30.0191 254.584 31.2692 254.512 31.1962C254.439 31.1232 256.413 29.7499 258.924 28.1301C261.435 26.5103 263.516 25.2601 263.588 25.3331Z" fill="#00657A"/>
<path d="M263.521 72.5165L254.176 66.334L263.521 72.5165Z" fill="white"/>
<path d="M254.177 66.3336C254.25 66.2652 256.414 67.5883 258.981 69.2948C261.548 71.0013 263.595 72.4431 263.522 72.5161C263.45 72.5891 261.285 71.2614 258.724 69.5549C256.163 67.8484 254.11 66.4066 254.177 66.3336Z" fill="#00657A"/>
<path d="M179.777 72.5077C179.71 72.4347 181.662 71.0796 184.145 69.4781C186.628 67.8765 188.692 66.64 188.764 66.713C188.837 66.786 186.88 68.1412 184.402 69.7427C181.925 71.3442 179.85 72.5807 179.777 72.5077Z" fill="#00657A"/>
<path d="M202.186 42.2381V54.1104H243.497V42.2381H202.186Z" fill="#00657A"/>
<path d="M139.498 183.163C139.498 181.096 141.439 179.599 144.05 179.599C144.679 179.58 145.306 179.674 145.886 179.875C146.465 180.075 146.984 180.376 147.406 180.758L146.394 181.529C146.109 181.269 145.759 181.061 145.367 180.921C144.975 180.781 144.551 180.711 144.123 180.717C143.72 180.703 143.317 180.755 142.939 180.871C142.561 180.987 142.216 181.165 141.924 181.393C141.633 181.621 141.401 181.894 141.242 182.197C141.083 182.5 141.002 182.826 141.002 183.156C141.002 183.485 141.083 183.811 141.242 184.114C141.401 184.417 141.633 184.691 141.924 184.919C142.216 185.147 142.561 185.324 142.939 185.44C143.317 185.556 143.72 185.609 144.123 185.594C144.552 185.6 144.978 185.53 145.37 185.387C145.763 185.244 146.112 185.033 146.394 184.769L147.417 185.563C146.995 185.944 146.476 186.245 145.896 186.445C145.317 186.645 144.691 186.74 144.062 186.721C141.422 186.731 139.498 185.234 139.498 183.163Z" fill="#CCCCCC"/>
<path d="M130.87 188.597H120.334V180.001H130.87V188.597ZM120.893 188.141H130.311V180.457H120.893V188.141Z" fill="#CCCCCC"/>
<path d="M118.323 190.386C118.01 190.194 120.527 187.11 124.402 183.838C128.278 180.567 131.958 178.395 132.232 178.641C132.506 178.887 129.284 181.433 125.476 184.664C121.667 187.894 118.647 190.595 118.323 190.386Z" fill="#00657A"/>
<path d="M132.378 190.199C132.037 190.399 129.162 187.548 125.365 184.24C121.568 180.932 118.279 178.395 118.542 178.13C118.805 177.865 122.563 180.046 126.428 183.427C130.292 186.808 132.697 190.034 132.378 190.199Z" fill="#00657A"/>
<path d="M60.334 155.125L55.1609 154.824L53.9697 156.722L51.9844 156.608L57.3811 148.427L59.2714 148.536L63.1861 157.256L61.1728 157.142L60.334 155.125ZM59.8083 153.856L58.1809 150.047L55.9439 153.628L59.8083 153.856Z" fill="#CCCCCC"/>
<path d="M43.4361 157.069L30.7188 156.334L31.6247 145.94L44.3365 146.68L43.4361 157.069ZM31.3171 155.91L42.916 156.585L43.7381 147.118L32.1392 146.447L31.3171 155.91Z" fill="#CCCCCC"/>
<path d="M28.0171 158.414C27.7263 158.209 31.1657 154.673 36.2269 150.968C41.2881 147.263 45.9523 144.831 46.176 145.087C46.3997 145.342 42.1885 148.18 37.228 151.849C32.2674 155.517 28.3247 158.643 28.0171 158.414Z" fill="#00657A"/>
<path d="M45.1575 159.199C44.7996 159.381 41.6566 155.663 37.3671 151.36C33.0777 147.057 29.2916 143.768 29.5712 143.517C29.8508 143.266 34.1459 146.227 38.5192 150.612C42.8925 154.997 45.4875 159.039 45.1575 159.199Z" fill="#00657A"/>
<path d="M274.884 109.989C275.37 111.385 274.325 112.512 271.741 113.105L266.775 114.251L263.979 106.102L268.659 105.02C271.053 104.468 272.625 105.02 273.072 106.289C273.215 106.652 273.229 107.041 273.112 107.411C272.996 107.781 272.753 108.116 272.412 108.378C272.986 108.381 273.542 108.541 273.991 108.833C274.44 109.125 274.754 109.533 274.884 109.989ZM266.216 106.859L266.998 109.108L269.621 108.502C270.908 108.205 271.506 107.662 271.249 106.918C270.992 106.175 270.13 105.956 268.844 106.252L266.216 106.859ZM272.966 110.267C272.68 109.455 271.797 109.268 270.399 109.592L267.407 110.286L268.218 112.635L271.215 111.942C272.613 111.618 273.245 111.084 272.966 110.267Z" fill="#CCCCCC"/>
<path d="M245.248 120.219L241.775 110.213L254.04 107.38L257.513 117.386L245.248 120.219ZM242.452 110.528L245.617 119.654L256.802 117.067L253.631 107.941L242.452 110.528Z" fill="#CCCCCC"/>
<path d="M243.576 122.93C243.213 122.812 244.974 118.536 248.19 113.645C251.406 108.754 254.784 105.177 255.097 105.359C255.41 105.542 252.636 109.37 249.504 114.206C246.373 119.043 243.957 123.058 243.576 122.93Z" fill="#00657A"/>
<path d="M260.026 118.91C259.764 119.179 255.262 116.556 249.434 113.699C243.607 110.843 238.674 108.794 238.842 108.48C239.01 108.165 244.278 109.762 250.184 112.682C256.089 115.602 260.272 118.668 260.026 118.91Z" fill="#00657A"/>
<path d="M273.544 208.906C273.544 208.97 218.654 209.024 150.968 209.024C83.2821 209.024 28.375 208.947 28.375 208.906C28.375 208.865 83.2542 208.787 150.968 208.787C218.682 208.787 273.544 208.814 273.544 208.906Z" fill="black"/>
<path d="M201.49 47.4902H57.8691V166.359H201.49V47.4902Z" fill="white"/>
<path d="M201.492 166.358C201.492 166.358 201.492 166.303 201.492 166.212C201.492 166.121 201.492 165.975 201.492 165.792C201.492 165.423 201.492 164.88 201.492 164.15C201.492 162.699 201.492 160.559 201.464 157.762C201.464 152.177 201.425 143.992 201.397 133.579C201.369 112.787 201.324 83.0927 201.268 47.4896L201.52 47.6949L57.9158 47.7269L58.2066 47.4896C58.2066 91.0501 58.2066 131.855 58.1675 166.354L57.9158 166.153L161.97 166.253L191.168 166.308L198.875 166.331H200.86H201.363H201.537H200.888H198.931L191.269 166.354L162.132 166.408L57.9158 166.509H57.6641V166.303C57.6641 131.804 57.6641 91.0181 57.625 47.4394V47.2021H57.9326L201.537 47.2341H201.794V47.4394C201.738 83.0972 201.693 112.833 201.665 133.675C201.632 144.069 201.609 152.236 201.598 157.812C201.598 160.586 201.598 162.717 201.565 164.159C201.565 164.871 201.565 165.414 201.565 165.779V166.185C201.549 166.245 201.524 166.303 201.492 166.358Z" fill="#00657A"/>
<path d="M69.1415 66.877V70.0298H68.42V67.3697H67.6035V66.877H69.1415Z" fill="black"/>
<path d="M69.8887 69.6879C69.8887 69.6394 69.9004 69.5913 69.9232 69.5465C69.9459 69.5017 69.9793 69.4609 70.0214 69.4266C70.0634 69.3923 70.1133 69.3651 70.1683 69.3465C70.2233 69.3279 70.2822 69.3184 70.3417 69.3184C70.4012 69.3184 70.4601 69.3279 70.515 69.3465C70.57 69.3651 70.6199 69.3923 70.662 69.4266C70.704 69.4609 70.7374 69.5017 70.7602 69.5465C70.7829 69.5913 70.7947 69.6394 70.7947 69.6879C70.7947 69.7365 70.7829 69.7845 70.7602 69.8294C70.7374 69.8742 70.704 69.915 70.662 69.9493C70.6199 69.9836 70.57 70.0108 70.515 70.0294C70.4601 70.048 70.4012 70.0575 70.3417 70.0575C70.2822 70.0575 70.2233 70.048 70.1683 70.0294C70.1133 70.0108 70.0634 69.9836 70.0214 69.9493C69.9793 69.915 69.9459 69.8742 69.9232 69.8294C69.9004 69.7845 69.8887 69.7365 69.8887 69.6879Z" fill="black"/>
<path d="M117.293 54.1333C117.274 53.7947 117.38 53.4593 117.597 53.1701C117.813 52.881 118.131 52.6514 118.509 52.511C118.887 52.3705 119.308 52.3257 119.718 52.3821C120.128 52.4386 120.507 52.5938 120.808 52.8278C121.108 53.0618 121.316 53.3638 121.404 53.695C121.493 54.0262 121.457 54.3714 121.303 54.6861C121.149 55.0008 120.883 55.2706 120.539 55.4607C120.195 55.6509 119.789 55.7527 119.374 55.7531C119.105 55.7642 118.836 55.7306 118.584 55.6541C118.331 55.5777 118.101 55.4601 117.906 55.3085C117.711 55.1569 117.557 54.9745 117.451 54.7724C117.346 54.5704 117.292 54.3529 117.293 54.1333ZM120.733 54.1333C120.733 53.914 120.653 53.6997 120.504 53.5173C120.354 53.335 120.142 53.1929 119.894 53.109C119.645 53.025 119.372 53.0031 119.108 53.0459C118.845 53.0886 118.603 53.1942 118.413 53.3493C118.223 53.5044 118.093 53.7019 118.041 53.917C117.988 54.1321 118.015 54.355 118.118 54.5576C118.221 54.7602 118.395 54.9334 118.619 55.0552C118.842 55.177 119.105 55.2421 119.374 55.2421C119.553 55.2458 119.732 55.2197 119.898 55.1653C120.065 55.1108 120.216 55.0292 120.343 54.9254C120.47 54.8217 120.569 54.6979 120.635 54.5617C120.701 54.4255 120.732 54.2797 120.727 54.1333H120.733Z" fill="black"/>
<path d="M125.656 52.5596V55.7124H125.069L122.938 53.5771V55.7124H122.223V52.5596H122.815L124.946 54.6858V52.5596H125.656Z" fill="black"/>
<path d="M126.695 52.5596H127.411V55.2151H129.436V55.7124H126.695V52.5596Z" fill="black"/>
<path d="M130 52.5596H130.716V55.7124H130V52.5596Z" fill="black"/>
<path d="M135.196 52.5596V55.7124H134.603L132.478 53.5771V55.7124H131.768V52.5596H132.36L134.486 54.6858V52.5596H135.196Z" fill="black"/>
<path d="M139.133 55.2196V55.7124H136.23V52.5596H139.027V53.0478H136.952V53.8691H138.82V54.3482H136.952V55.2196H139.133Z" fill="black"/>
<path d="M142.234 53.0523H140.953V52.5596H144.219V53.0523H142.938V55.7124H142.217L142.234 53.0523Z" fill="black"/>
<path d="M147.678 55.2196V55.7124H144.781V52.5596H147.577V53.0478H145.475V53.8691H147.337V54.3482H145.475V55.2196H147.678Z" fill="black"/>
<path d="M148.131 55.3784L148.383 54.9222C148.751 55.1458 149.198 55.2673 149.658 55.2689C150.262 55.2689 150.513 55.091 150.513 54.8583C150.513 54.1784 148.215 54.6256 148.215 53.453C148.215 52.9419 148.712 52.513 149.775 52.513C150.227 52.5062 150.673 52.6026 151.061 52.7914L150.832 53.2476C150.511 53.0887 150.145 53.0021 149.769 52.9967C149.171 52.9967 148.931 53.1883 148.931 53.4256C148.931 54.0963 151.218 53.6583 151.218 54.8172C151.218 55.3237 150.715 55.7298 149.658 55.7298C149.116 55.75 148.58 55.6268 148.131 55.3784Z" fill="black"/>
<path d="M152.679 53.0523H151.398V52.5596H154.676V53.0523H153.395V55.7124H152.679V53.0523Z" fill="black"/>
<path d="M87.0379 80.7285H85.1029L84.7226 81.4585H83.9844L85.7236 78.3057H86.4283L88.1732 81.4585H87.4238L87.0379 80.7285ZM86.7974 80.2722L86.0704 78.9034L85.3489 80.2722H86.7974Z" fill="black"/>
<path d="M67.5578 55.7068C68.4257 55.7068 69.1293 55.1328 69.1293 54.4247C69.1293 53.7166 68.4257 53.1426 67.5578 53.1426C66.6899 53.1426 65.9863 53.7166 65.9863 54.4247C65.9863 55.1328 66.6899 55.7068 67.5578 55.7068Z" fill="black"/>
<path d="M72.3176 55.7068C73.1855 55.7068 73.8891 55.1328 73.8891 54.4247C73.8891 53.7166 73.1855 53.1426 72.3176 53.1426C71.4497 53.1426 70.7461 53.7166 70.7461 54.4247C70.7461 55.1328 71.4497 55.7068 72.3176 55.7068Z" fill="black"/>
<path d="M77.0734 55.7068C77.9414 55.7068 78.6449 55.1328 78.6449 54.4247C78.6449 53.7166 77.9414 53.1426 77.0734 53.1426C76.2055 53.1426 75.502 53.7166 75.502 54.4247C75.502 55.1328 76.2055 55.7068 77.0734 55.7068Z" fill="black"/>
<path d="M201.488 60.7671C201.488 60.8309 169.498 60.8857 130.043 60.8857C90.5884 60.8857 58.5938 60.8309 58.5938 60.7671C58.5938 60.7032 90.5772 60.6484 130.043 60.6484C169.51 60.6484 201.488 60.7032 201.488 60.7671Z" fill="black"/>
<path d="M185.783 69.5825C185.783 69.6464 160.88 69.7011 130.166 69.7011C99.4517 69.7011 74.5371 69.6464 74.5371 69.5825C74.5371 69.5186 99.4405 69.4639 130.166 69.4639C160.891 69.4639 185.783 69.5141 185.783 69.5825Z" fill="black"/>
<path d="M117.468 72.6675C117.468 72.7313 107.961 72.7861 96.2167 72.7861C84.4724 72.7861 74.9316 72.7313 74.9316 72.6675C74.9316 72.6036 84.4389 72.5488 96.2167 72.5488C107.994 72.5488 117.468 72.599 117.468 72.6675Z" fill="black"/>
<path d="M81.0205 81.9574H75.9258V77.8008H81.0205V81.9574ZM76.485 81.5012H80.4613V78.2571H76.485V81.5012Z" fill="black"/>
<path d="M87.9377 88.4949C87.9377 89.0333 87.4176 89.3482 86.4221 89.3482H84.5039V86.1953H86.3103C87.2386 86.1953 87.7364 86.5147 87.7364 87.0166C87.7422 87.1588 87.6985 87.2994 87.6104 87.4221C87.5223 87.5448 87.3934 87.6447 87.2386 87.7101C87.4466 87.7574 87.6289 87.8606 87.7558 88.0031C87.8828 88.1456 87.9469 88.319 87.9377 88.4949ZM85.2197 86.6698V87.5368H86.2376C86.7297 87.5368 87.0149 87.3953 87.0149 87.1079C87.0149 86.8204 86.7297 86.6516 86.2376 86.6516L85.2197 86.6698ZM87.2107 88.4493C87.2107 88.1345 86.9199 87.993 86.3774 87.993H85.2197V88.9056H86.3774C86.9199 88.9056 87.2107 88.7504 87.2107 88.4493Z" fill="black"/>
<path d="M81.0205 89.8503H75.9258V85.7119H81.0205V89.8503ZM76.485 89.394H80.4613V86.1682H76.485V89.394Z" fill="black"/>
<path d="M84.2246 95.6629C84.2447 95.3296 84.384 95.0084 84.6255 94.739C84.867 94.4697 85.2 94.264 85.5833 94.1475C85.9666 94.0309 86.3833 94.0086 86.782 94.0834C87.1806 94.1581 87.5437 94.3265 87.8262 94.5678L87.362 94.9237C87.2319 94.8054 87.0722 94.7112 86.8938 94.6475C86.7153 94.5837 86.5222 94.5519 86.3274 94.5541C85.967 94.5541 85.6213 94.671 85.3664 94.8789C85.1116 95.0868 84.9684 95.3688 84.9684 95.6629C84.9684 95.9569 85.1116 96.239 85.3664 96.4469C85.6213 96.6548 85.967 96.7716 86.3274 96.7716C86.5227 96.7739 86.7163 96.7416 86.8949 96.677C87.0735 96.6124 87.2329 96.5171 87.362 96.3975L87.8262 96.7579C87.5437 96.9993 87.1806 97.1677 86.782 97.2424C86.3833 97.3171 85.9666 97.2948 85.5833 97.1783C85.2 97.0618 84.867 96.8561 84.6255 96.5867C84.384 96.3174 84.2447 95.9962 84.2246 95.6629Z" fill="black"/>
<path d="M81.0205 97.7397H75.9258V93.583H81.0205V97.7397ZM76.485 97.2834H80.4613V94.0393H76.485V97.2834Z" fill="black"/>
<path d="M84.5039 101.978H86.1817C87.4344 101.978 88.29 102.607 88.29 103.552C88.29 104.496 87.4344 105.13 86.1817 105.13H84.5039V101.978ZM86.1817 104.633C86.3626 104.643 86.544 104.622 86.7147 104.572C86.8854 104.522 87.0417 104.444 87.174 104.343C87.3063 104.242 87.4117 104.12 87.4838 103.984C87.5559 103.848 87.5931 103.702 87.5931 103.554C87.5931 103.406 87.5559 103.26 87.4838 103.124C87.4117 102.988 87.3063 102.866 87.174 102.765C87.0417 102.664 86.8854 102.586 86.7147 102.536C86.544 102.486 86.3626 102.465 86.1817 102.475H85.2197V104.633H86.1817Z" fill="black"/>
<path d="M81.0205 105.633H75.9258V101.477H81.0205V105.633ZM76.485 105.177H80.4613V101.933H76.485V105.177Z" fill="black"/>
<path d="M130.16 79.8803C130.16 79.9442 121.771 79.999 111.391 79.999C101.012 79.999 92.6172 79.9442 92.6172 79.8803C92.6172 79.8165 101.006 79.7617 111.391 79.7617C121.776 79.7617 130.16 79.8119 130.16 79.8803Z" fill="black"/>
<path d="M181.834 87.77C181.834 87.8384 161.858 87.8886 137.229 87.8886C112.599 87.8886 92.6172 87.8384 92.6172 87.77C92.6172 87.7016 112.588 87.6514 137.229 87.6514C161.869 87.6514 181.834 87.7061 181.834 87.77Z" fill="black"/>
<path d="M104.893 103.552C104.893 103.616 102.147 103.671 98.7416 103.671C95.3358 103.671 92.5898 103.616 92.5898 103.552C92.5898 103.488 95.3358 103.434 98.7416 103.434C102.147 103.434 104.893 103.507 104.893 103.552Z" fill="black"/>
<path d="M137.223 95.6636C137.223 95.7274 127.24 95.7822 114.92 95.7822C102.6 95.7822 92.6172 95.7274 92.6172 95.6636C92.6172 95.5997 102.6 95.5449 114.92 95.5449C127.24 95.5449 137.223 95.5951 137.223 95.6636Z" fill="black"/>
<path d="M69.2808 114.786V115.279H66.4286V114.886L67.9665 113.7C68.3412 113.408 68.4084 113.221 68.4084 113.047C68.4084 112.755 68.1623 112.591 67.6869 112.591C67.5157 112.584 67.3448 112.61 67.1883 112.667C67.0318 112.724 66.8941 112.811 66.7865 112.92L66.2832 112.605C66.4605 112.43 66.6853 112.292 66.9397 112.201C67.1941 112.11 67.471 112.068 67.7484 112.08C68.5873 112.08 69.1298 112.427 69.1298 112.993C69.1238 113.187 69.0632 113.378 68.9526 113.55C68.8421 113.723 68.6846 113.872 68.4922 113.987L67.4576 114.79L69.2808 114.786Z" fill="black"/>
<path d="M69.7012 114.936C69.7012 114.838 69.7489 114.744 69.8339 114.675C69.9188 114.605 70.034 114.566 70.1542 114.566C70.2743 114.566 70.3895 114.605 70.4745 114.675C70.5594 114.744 70.6072 114.838 70.6072 114.936C70.6072 115.034 70.5594 115.128 70.4745 115.197C70.3895 115.267 70.2743 115.306 70.1542 115.306C70.034 115.306 69.9188 115.267 69.8339 115.197C69.7489 115.128 69.7012 115.034 69.7012 114.936Z" fill="black"/>
<path d="M85.6863 125.978H83.7569L83.3766 126.708H82.6328L84.3721 123.555H85.0823L86.8272 126.708H86.061L85.6863 125.978ZM85.4514 125.521L84.7244 124.152L83.9974 125.521H85.4514Z" fill="black"/>
<path d="M184.434 114.832C184.434 114.895 159.531 114.95 128.817 114.95C98.1026 114.95 73.1992 114.914 73.1992 114.832C73.1992 114.749 98.097 114.713 128.822 114.713C159.547 114.713 184.434 114.768 184.434 114.832Z" fill="black"/>
<path d="M116.117 117.916C116.117 117.979 106.61 118.034 94.8319 118.034C83.0541 118.034 73.5469 117.979 73.5469 117.916C73.5469 117.852 83.0541 117.797 94.8319 117.797C106.61 117.797 116.117 117.847 116.117 117.916Z" fill="black"/>
<path d="M79.6495 127.233H74.5547V123.076H79.6495V127.233ZM75.1139 126.777H79.0902V123.532H75.1139V126.777Z" fill="black"/>
<path d="M86.5861 133.744C86.5861 134.282 86.066 134.597 85.0762 134.597H83.1523V131.444H84.9419C85.8703 131.444 86.368 131.764 86.368 132.266C86.3725 132.408 86.3283 132.548 86.2403 132.67C86.1524 132.793 86.0242 132.893 85.8703 132.959C86.0819 133.003 86.2686 133.105 86.399 133.248C86.5293 133.391 86.5954 133.566 86.5861 133.744ZM83.8738 131.919V132.79H84.886C85.3837 132.79 85.6634 132.644 85.6634 132.357C85.6634 132.069 85.3837 131.901 84.886 131.901L83.8738 131.919ZM85.8647 133.698C85.8647 133.384 85.5739 133.242 85.0314 133.242H83.8738V134.155H85.0314C85.5739 134.141 85.8647 133.999 85.8647 133.685V133.698Z" fill="black"/>
<path d="M79.6495 135.099H74.5547V130.942H79.6495V135.099ZM75.1139 134.643H79.0902V131.399H75.1139V134.643Z" fill="black"/>
<path d="M82.8731 140.921C82.8705 140.702 82.9229 140.484 83.027 140.282C83.1312 140.08 83.2849 139.898 83.4787 139.746C83.6726 139.594 83.9024 139.476 84.1541 139.4C84.4058 139.323 84.6741 139.29 84.9424 139.301C85.2285 139.291 85.5137 139.333 85.7776 139.424C86.0415 139.515 86.2776 139.652 86.4691 139.826L86.0105 140.182C85.88 140.064 85.7202 139.97 85.5419 139.906C85.3635 139.842 85.1706 139.81 84.9759 139.812C84.6155 139.812 84.2698 139.929 84.015 140.137C83.7601 140.345 83.6169 140.627 83.6169 140.921C83.6169 141.215 83.7601 141.497 84.015 141.705C84.2698 141.913 84.6155 142.029 84.9759 142.029C85.1712 142.031 85.3647 141.999 85.5432 141.934C85.7218 141.87 85.8812 141.775 86.0105 141.655L86.4691 142.016C86.1874 142.258 85.8246 142.427 85.4261 142.502C85.0275 142.577 84.6108 142.555 84.2275 142.438C83.8443 142.321 83.5116 142.115 83.2708 141.845C83.03 141.576 82.8917 141.254 82.8731 140.921Z" fill="black"/>
<path d="M79.6495 142.988H74.5547V138.831H79.6495V142.988ZM75.1139 142.531H79.0902V139.287H75.1139V142.531Z" fill="black"/>
<path d="M83.1523 147.227H84.8301C86.0828 147.227 86.9385 147.856 86.9385 148.805C86.9385 149.754 86.0828 150.379 84.8301 150.379H83.1523V147.227ZM84.8301 149.887C85.0144 149.9 85.2002 149.883 85.3756 149.835C85.5511 149.787 85.7123 149.709 85.849 149.608C85.9857 149.506 86.095 149.382 86.1697 149.244C86.2444 149.106 86.283 148.956 86.283 148.805C86.283 148.654 86.2444 148.505 86.1697 148.367C86.095 148.229 85.9857 148.105 85.849 148.003C85.7123 147.901 85.5511 147.824 85.3756 147.776C85.2002 147.728 85.0144 147.71 84.8301 147.724H83.8961V149.887H84.8301Z" fill="black"/>
<path d="M79.6495 150.881H74.5547V146.725H79.6495V150.881ZM75.1139 150.425H79.0902V147.181H75.1139V150.425Z" fill="black"/>
<path d="M128.81 125.129C128.81 125.193 120.421 125.248 110.036 125.248C99.6505 125.248 91.2617 125.193 91.2617 125.129C91.2617 125.065 99.6505 125.011 110.036 125.011C120.421 125.011 128.81 125.065 128.81 125.129Z" fill="black"/>
<path d="M180.479 133.018C180.479 133.086 160.508 133.137 135.873 133.137C111.238 133.137 91.2617 133.086 91.2617 133.018C91.2617 132.95 111.233 132.899 135.873 132.899C160.514 132.899 180.479 132.954 180.479 133.018Z" fill="black"/>
<path d="M103.544 148.8C103.544 148.869 100.792 148.919 97.392 148.919C93.9917 148.919 91.2402 148.869 91.2402 148.8C91.2402 148.732 93.9917 148.682 97.392 148.682C100.792 148.682 103.544 148.736 103.544 148.8Z" fill="black"/>
<path d="M135.873 140.921C135.873 140.985 125.885 141.04 113.57 141.04C101.256 141.04 91.2617 140.985 91.2617 140.921C91.2617 140.857 101.25 140.803 113.57 140.803C125.89 140.803 135.873 140.844 135.873 140.921Z" fill="black"/>
<path d="M171.988 159.628H148.964C148.036 159.628 147.117 159.478 146.259 159.189C145.402 158.899 144.623 158.474 143.967 157.938C143.311 157.403 142.791 156.767 142.436 156.067C142.082 155.367 141.9 154.618 141.9 153.86C141.9 152.332 142.645 150.866 143.969 149.786C145.294 148.705 147.09 148.098 148.964 148.098H171.988C173.861 148.098 175.658 148.705 176.983 149.786C178.307 150.866 179.051 152.332 179.051 153.86C179.052 154.618 178.87 155.367 178.515 156.067C178.161 156.767 177.64 157.403 176.985 157.938C176.329 158.474 175.55 158.899 174.692 159.189C173.835 159.478 172.916 159.628 171.988 159.628Z" fill="#0087A2"/>
<path d="M154.718 152.491V155.626H153.985L152.05 153.723V155.626H151.172V152.491H151.904L153.812 154.394V152.491H154.718Z" fill="white"/>
<path d="M158.598 155.066V155.65H155.623V152.516H158.526V153.1H156.523V153.779H158.307V154.341H156.523V155.066H158.598Z" fill="white"/>
<path d="M161.684 155.626L160.756 154.54L159.844 155.626H158.826L160.247 154.033L158.899 152.491H159.906L160.789 153.509L161.656 152.491H162.618L161.276 154.006L162.713 155.626H161.684Z" fill="white"/>
<path d="M163.795 153.084H162.564V152.491H165.92V153.084H164.69V155.626H163.795V153.084Z" fill="white"/>
<path d="M170.779 155.389C170.732 155.389 170.686 155.379 170.645 155.361C170.604 155.342 170.57 155.316 170.544 155.284C170.503 155.234 170.489 155.173 170.504 155.114C170.518 155.055 170.561 155.003 170.622 154.969L172.406 153.998C172.435 153.983 172.458 153.963 172.473 153.939C172.489 153.915 172.497 153.888 172.496 153.861C172.496 153.833 172.487 153.806 172.47 153.782C172.454 153.758 172.43 153.738 172.401 153.724L170.633 152.871C170.571 152.839 170.526 152.789 170.509 152.731C170.491 152.673 170.502 152.611 170.54 152.56C170.577 152.509 170.638 152.471 170.709 152.456C170.78 152.441 170.855 152.449 170.919 152.478L172.686 153.327C172.796 153.381 172.888 153.457 172.953 153.548C173.018 153.639 173.054 153.741 173.057 153.846C173.06 153.951 173.031 154.055 172.972 154.149C172.913 154.242 172.826 154.322 172.719 154.381L170.935 155.348C170.889 155.374 170.835 155.388 170.779 155.389Z" fill="white"/>
<path d="M75.2965 89.7772C75.1287 89.6403 76.2081 88.5316 77.7124 87.2996C79.2168 86.0677 80.5758 85.1917 80.7492 85.3285C80.9225 85.4654 79.8376 86.5787 78.3332 87.8061C76.8288 89.0335 75.4699 89.9187 75.2965 89.7772Z" fill="#0087A2"/>
<path d="M81.6743 90.2113C81.5066 90.3527 80.0581 89.3945 78.4419 88.0759C76.8256 86.7573 75.6456 85.5801 75.8246 85.4387C76.0035 85.2972 77.4464 86.2554 79.057 87.574C80.6677 88.8927 81.8477 90.0744 81.6743 90.2113Z" fill="#0087A2"/>
<path d="M74.0748 127.433C73.9015 127.292 74.9864 126.183 76.4908 124.956C77.9952 123.728 79.3542 122.848 79.5275 122.985C79.7009 123.122 78.6159 124.23 77.106 125.462C75.596 126.694 74.2426 127.57 74.0748 127.433Z" fill="#0087A2"/>
<path d="M80.4654 127.867C80.292 128.004 78.8491 127.05 77.2329 125.731C75.6167 124.413 74.4366 123.231 74.6156 123.094C74.7946 122.957 76.2318 123.911 77.8481 125.229C79.4643 126.548 80.6219 127.725 80.4654 127.867Z" fill="#0087A2"/>
<path d="M182.54 220.103L143.275 209.819C143.17 209.792 143.06 209.782 142.951 209.787L112.751 211.612C107.444 201.118 100.795 188 97.769 182.009C97.2649 181.027 96.4526 180.17 95.414 179.526C94.3753 178.881 93.1469 178.471 91.8522 178.336L59.1473 174.85C58.7584 174.812 58.364 174.857 58.0034 174.982C57.6429 175.107 57.3288 175.307 57.0927 175.562C56.8566 175.817 56.7067 176.118 56.658 176.435C56.6093 176.752 56.6635 177.074 56.8152 177.369L75.2313 212.406C75.4751 212.871 75.8346 213.29 76.2871 213.635C76.7395 213.981 77.2751 214.246 77.8598 214.414L115.268 226.592C116.123 226.87 117.049 226.97 117.964 226.884L120.357 226.669C128.645 225.962 169.571 222.563 182.372 221.468C182.575 221.459 182.768 221.392 182.915 221.277C183.062 221.163 183.154 221.009 183.174 220.844C183.194 220.679 183.142 220.514 183.025 220.378C182.909 220.242 182.737 220.145 182.54 220.103Z" fill="#00657A"/>
<path d="M182.538 220.103C182.669 220.138 182.788 220.197 182.885 220.276C182.982 220.356 183.055 220.453 183.097 220.56C183.148 220.695 183.149 220.839 183.1 220.974C183.052 221.11 182.955 221.23 182.823 221.322C182.647 221.433 182.431 221.494 182.208 221.495L181.47 221.559L172.281 222.353L138.48 225.223L127.295 226.172L121.339 226.674L118.28 226.943C117.221 227.078 116.136 226.975 115.143 226.646L90.122 218.516L83.4389 216.339L80.0331 215.235L78.3162 214.678C78.031 214.578 77.7569 214.496 77.4494 214.391C77.1567 214.285 76.8791 214.154 76.6217 213.998C76.1038 213.686 75.6698 213.29 75.3466 212.835C75.0334 212.379 74.8321 211.9 74.5748 211.43L73.0816 208.596C72.0787 206.698 71.0702 204.78 70.0561 202.843C65.9903 195.086 61.7736 187.092 57.4618 178.888L56.869 177.761C56.6184 177.386 56.4894 176.965 56.4943 176.538C56.5265 176.103 56.7361 175.69 57.0898 175.363C57.4435 175.036 57.9209 174.816 58.4461 174.736C58.5747 174.713 58.7089 174.736 58.8431 174.704L59.229 174.727L59.9672 174.809L61.438 174.964L64.3685 175.274L75.9338 176.511L87.2306 177.716L90.0269 178.012C90.9496 178.126 91.8724 178.176 92.8231 178.354C94.6601 178.74 96.2551 179.671 97.2971 180.964C97.7632 181.608 98.1545 182.287 98.466 182.99C98.809 183.671 99.152 184.35 99.495 185.025L101.525 189.045L105.485 196.874C108.068 201.994 110.557 206.912 112.923 211.594L112.8 211.53L142.227 209.755L143.044 209.705C143.191 209.704 143.337 209.725 143.474 209.769L143.86 209.874L145.337 210.275L148.312 211.055L153.921 212.557L163.82 215.162L177.661 218.812L181.296 219.784C182.119 220.003 182.538 220.122 182.538 220.122C182.538 220.122 182.113 220.021 181.285 219.811L177.639 218.871L163.792 215.249L153.888 212.666L148.239 211.188L145.264 210.412L143.737 210.015C143.497 209.935 143.245 209.881 142.988 209.855L142.171 209.906L112.749 211.731H112.665L112.626 211.662C110.255 206.985 107.766 202.081 105.171 196.952L101.206 189.122C100.535 187.796 99.8566 186.456 99.1706 185.103C98.8295 184.427 98.4827 183.734 98.1416 183.068C97.8347 182.379 97.4509 181.714 96.9951 181.083C95.9964 179.841 94.4675 178.947 92.7057 178.573C91.8333 178.4 90.8937 178.345 89.9765 178.236L87.1803 177.939L75.8779 176.739L64.3126 175.507L61.3765 175.197L59.9057 175.037C59.4348 174.96 58.9531 174.935 58.474 174.964C58.0137 175.035 57.5956 175.23 57.2857 175.516C56.9758 175.803 56.7918 176.166 56.7627 176.547C56.7592 176.939 56.8807 177.324 57.115 177.665L57.7246 178.792L70.3133 202.751C71.3312 204.686 72.3378 206.604 73.3333 208.505C73.8366 209.454 74.3287 210.398 74.8265 211.338C75.0781 211.795 75.2962 212.297 75.5871 212.707C75.8885 213.135 76.2962 213.506 76.7838 213.798C77.0258 213.943 77.2864 214.067 77.5612 214.167C77.8296 214.263 78.1205 214.35 78.4113 214.446L80.1282 215.007L83.5284 216.116L90.2394 218.292L115.249 226.446C116.204 226.765 117.249 226.864 118.269 226.733L121.334 226.464L127.29 225.971L138.475 225.059L172.287 222.262L181.481 221.509L182.219 221.454C182.433 221.454 182.64 221.398 182.812 221.294C182.939 221.208 183.033 221.094 183.081 220.965C183.13 220.836 183.132 220.698 183.086 220.569C183.033 220.408 182.904 220.27 182.728 220.186C182.605 220.126 182.538 220.108 182.538 220.103Z" fill="#00657A"/>
<path d="M132.004 213.762L146.729 218.79L165.078 217.229L149.648 212.032L132.004 213.762Z" fill="#DCF3EF"/>
<path d="M120.901 223.266L149.646 221.149L122.198 212.27L113.373 212.812L118.037 221.993L120.901 223.266Z" fill="#D9EDF1"/>
<path d="M179.691 220.089L179.496 220.117L178.908 220.176L176.671 220.363L168.361 221.025L140.958 223.11L119.415 224.698H119.326L119.292 224.629L114.522 215.134L113.213 212.479C113.068 212.174 112.956 211.942 112.878 211.781C112.837 211.7 112.801 211.618 112.771 211.534C112.771 211.534 112.822 211.612 112.911 211.767L113.28 212.456L114.651 215.089C115.825 217.37 117.503 220.632 119.516 224.556L119.393 224.492L140.93 222.863L168.361 220.847L176.655 220.272L178.892 220.126L179.479 220.094L179.691 220.089Z" fill="black"/>
<path d="M57.7637 176.119H58.0097L58.7368 176.188L61.533 176.484L71.7896 177.625C76.1182 178.118 81.2969 178.711 86.9956 179.4L91.3802 179.952L92.4987 180.107C92.6832 180.13 92.8789 180.166 93.0579 180.203C93.153 180.203 93.2536 180.235 93.3487 180.258C93.8204 180.412 94.2485 180.643 94.607 180.937C94.7523 181.064 94.8679 181.211 94.9482 181.371L95.1663 181.827C96.3351 184.209 97.5431 186.677 98.7846 189.201C103.728 199.307 108.197 208.46 111.44 215.094C113.045 218.402 114.343 221.085 115.249 222.947C115.685 223.859 116.026 224.589 116.267 225.091C116.379 225.328 116.462 225.511 116.524 225.648C116.556 225.71 116.582 225.774 116.602 225.839C116.563 225.78 116.527 225.719 116.496 225.657L116.211 225.105L115.143 222.983C114.22 221.121 112.906 218.452 111.228 215.153L98.5441 189.287C97.3026 186.764 96.0946 184.296 94.9258 181.914L94.7077 181.458C94.6403 181.323 94.5437 181.199 94.4225 181.093C94.1724 180.871 93.8699 180.692 93.5333 180.568C93.4496 180.535 93.3637 180.506 93.276 180.481L93.0076 180.426C92.8286 180.394 92.6496 180.362 92.4483 180.34L91.3298 180.18L86.9453 179.619L71.7561 177.794L61.5106 176.575L58.7144 176.238L57.993 176.142L57.7637 176.119Z" fill="black"/>
<path d="M86.6725 197.094C88.0706 198.622 88.3503 200.379 87.3045 201.018C86.2587 201.657 84.2678 200.94 82.8696 199.412C81.4715 197.883 81.1919 196.131 82.2377 195.488C83.2835 194.844 85.2744 195.57 86.6725 197.094Z" fill="white"/>
<path d="M263.61 171.036C261.737 162.367 249.987 157.142 246.105 154.259L251.938 160.624C254.924 170.669 256.055 181.022 255.294 191.34C255.216 192.467 255.367 193.987 256.351 194.146C256.707 194.17 257.06 194.08 257.335 193.895C260.78 192.093 263.017 187.964 263.515 183.711C264.013 179.459 264.46 175.047 263.61 171.036Z" fill="#0087A2"/>
<path d="M255.006 161.326C254.447 160.455 254.676 157.676 251.65 160.578L251.455 159.492L232.759 147.766L191.089 149.531C187.09 149.737 181.084 155.385 179.585 157.744C178.355 166.518 178.109 174.307 178.109 174.307C178.109 174.307 176.677 184.062 178.109 188.675C179.541 193.288 181.235 194.953 183.45 198.54C185.07 200.99 187.091 203.249 189.456 205.256L191.402 217.576L234.934 220.769L254.86 219.857C254.86 219.857 253.076 195.56 253.076 195.131C253.076 194.931 255.565 190.24 258.238 185.262C262.779 176.744 260.218 169.548 255.006 161.326Z" fill="#003D49"/>
<path d="M145.684 205.517C145.902 205.517 148.077 193.521 149.503 190.797C150.845 188.228 179.585 157.74 179.585 157.74L186.352 175.535L183.45 185.053L167.791 200.425L163.367 211.567L145.684 205.517Z" fill="#003D49"/>
<path d="M260.801 170.442C258.737 159.77 248.548 160.235 248.548 160.235L238.42 174.613V204.343L189.558 207.793L188.652 217.804C188.652 217.804 237.335 226.883 248.582 223.84C256.025 221.828 262.311 216.75 262.999 208.45C263.687 200.15 262.87 181.119 260.801 170.442Z" fill="#003D49"/>
<path d="M167.838 200.406C167.696 199.726 167.509 199.053 167.278 198.389C166.666 196.795 165.559 195.356 164.066 194.213C162.573 193.069 160.744 192.259 158.755 191.86C157.928 191.708 157.092 191.592 156.25 191.513C156.48 191.49 156.713 191.49 156.943 191.513C157.57 191.534 158.194 191.601 158.806 191.714C160.846 192.082 162.727 192.894 164.248 194.064C165.769 195.233 166.874 196.717 167.446 198.357C167.622 198.849 167.742 199.353 167.804 199.863C167.843 200.042 167.854 200.224 167.838 200.406Z" fill="black"/>
<path d="M191.229 207.383C191.298 207.368 191.369 207.357 191.441 207.351L192.062 207.278L194.455 207.018L203.275 206.105L232.356 203.222L238.821 202.592L238.692 202.706C239.067 194.621 239.251 187.494 239.184 182.388C239.184 179.838 239.117 177.789 239.078 176.379C239.078 175.686 239.039 175.143 239.028 174.764V174.344C239.028 174.248 239.028 174.203 239.028 174.198C239.033 174.247 239.033 174.296 239.028 174.344C239.028 174.449 239.028 174.586 239.061 174.759C239.061 175.143 239.117 175.672 239.156 176.379C239.229 177.785 239.307 179.833 239.352 182.388C239.453 187.494 239.318 194.63 238.955 202.711V202.811H238.832L232.367 203.445L203.258 206.261L194.433 207.086L192.028 207.296L191.402 207.347L191.229 207.383Z" fill="black"/>
<path d="M263.661 207.383C263.668 207.443 263.668 207.505 263.661 207.565C263.661 207.693 263.661 207.871 263.627 208.095C263.576 208.775 263.481 209.453 263.342 210.125C263.122 211.191 262.802 212.242 262.385 213.269C261.814 214.624 261.048 215.92 260.104 217.129C258.954 218.6 257.503 219.9 255.814 220.971C253.873 222.2 251.63 223.073 249.238 223.53C247.95 223.783 246.641 223.961 245.323 224.064C243.951 224.165 242.573 224.207 241.195 224.192C238.307 224.144 235.427 223.925 232.577 223.535L216.074 221.322L208.876 220.346L202.607 219.401C198.788 218.817 195.689 218.374 193.542 218.11L191.064 217.813L190.421 217.74C190.347 217.735 190.274 217.723 190.203 217.704H190.421L191.07 217.758C191.629 217.809 192.479 217.886 193.559 218.009C195.712 218.247 198.816 218.666 202.646 219.228L208.904 220.14L216.108 221.094L232.611 223.293C235.45 223.688 238.321 223.912 241.201 223.964C242.599 223.964 243.964 223.932 245.3 223.845C246.604 223.747 247.897 223.573 249.17 223.325C251.532 222.879 253.749 222.023 255.669 220.816C257.342 219.765 258.783 218.488 259.93 217.042C260.876 215.848 261.648 214.568 262.229 213.228C262.656 212.212 262.991 211.172 263.23 210.116C263.414 209.244 263.526 208.56 263.565 208.095L263.633 207.565C263.637 207.504 263.646 207.443 263.661 207.383Z" fill="black"/>
<path d="M189.907 208.117C189.884 208.056 189.869 207.994 189.862 207.93C189.834 207.789 189.795 207.602 189.756 207.374C189.666 206.863 189.538 206.151 189.381 205.247V205.279L185.679 201.935C184.957 201.095 184.305 200.217 183.727 199.307C183.081 198.27 182.509 197.204 182.016 196.113C180.925 193.647 180.174 191.09 179.779 188.488C179.388 185.673 179.308 182.834 179.538 180.006C179.712 177.406 180.042 175.069 180.355 173.117C180.668 171.164 180.964 169.59 181.177 168.499L181.429 167.249C181.457 167.117 181.479 167.012 181.501 166.925C181.506 166.887 181.517 166.85 181.535 166.815C181.54 166.852 181.54 166.889 181.535 166.925C181.535 167.016 181.535 167.121 181.49 167.253C181.44 167.564 181.378 167.983 181.294 168.513C181.115 169.603 180.853 171.182 180.562 173.139C180.271 175.097 180.008 177.424 179.835 180.025C179.621 182.838 179.707 185.66 180.092 188.461C180.482 191.046 181.217 193.589 182.284 196.044C182.767 197.124 183.327 198.18 183.962 199.206C184.528 200.112 185.165 200.987 185.869 201.825L189.521 205.211L189.823 207.342C189.851 207.574 189.873 207.761 189.896 207.903C189.915 207.973 189.919 208.046 189.907 208.117Z" fill="black"/>
<path d="M245.863 209.226C245.495 208.892 245.156 208.537 244.851 208.163C244.242 207.492 243.386 206.58 242.385 205.608C241.384 204.636 240.439 203.783 239.74 203.181C239.338 202.868 238.964 202.533 238.621 202.177C239.076 202.435 239.496 202.731 239.874 203.062C240.835 203.819 241.744 204.619 242.597 205.457C243.456 206.291 244.261 207.16 245.008 208.063C245.34 208.426 245.627 208.816 245.863 209.226Z" fill="black"/>
<path d="M157.645 206.981C157.231 205.033 155.056 203.513 155.056 203.513C155.056 203.513 154.016 201.141 152.461 200.516C150.906 199.891 149.665 201.141 148.311 200.803C146.958 200.466 144.055 200.379 143.121 200.803C142.187 201.228 141.047 203.596 141.047 203.596C140.105 203.627 139.184 203.829 138.351 204.189C137.645 204.486 137.034 204.914 136.567 205.439C136.162 205.31 135.718 205.285 135.294 205.366C134.871 205.448 134.488 205.632 134.196 205.895C133.628 206.436 133.204 207.067 132.949 207.748L132.21 209.363C132.068 209.609 132.003 209.88 132.02 210.152C132.077 210.376 132.226 210.577 132.441 210.723C132.656 210.869 132.926 210.951 133.206 210.955C133.49 210.956 133.772 210.909 134.032 210.815C134.292 210.721 134.525 210.584 134.716 210.412C135.096 210.106 135.432 209.764 135.717 209.395L135.902 210.453C135.902 210.453 136.209 212.128 137.87 212.228C139.017 212.301 140.258 211.215 140.258 211.215L143.161 210.96L143.574 213.328C143.766 213.784 144.131 214.179 144.617 214.453C145.104 214.727 145.685 214.867 146.276 214.852C147.316 214.852 148.658 213.415 148.658 213.415L151.359 214.259C151.359 214.259 154.469 216.038 155.923 215.445C156.329 215.277 156.654 215.001 156.843 214.663C157.032 214.325 157.074 213.944 156.963 213.583C157.584 213.009 158.074 212.35 158.411 211.635C158.803 210.622 158.081 208.929 157.645 206.981Z" fill="#FFBE9D"/>
<path d="M135.83 210.047C135.712 209.21 135.747 208.362 135.936 207.533C136.033 206.695 136.286 205.873 136.686 205.097C136.764 205.097 136.456 206.205 136.221 207.57C135.986 208.934 135.936 210.047 135.83 210.047Z" fill="#FFBE9D"/>
<path d="M140.361 207.82C140.538 208.396 140.62 208.988 140.607 209.582C140.667 210.01 140.613 210.444 140.451 210.855C140.289 211.174 140.059 211.311 140.042 211.274C140.026 211.238 140.16 211.096 140.255 210.818C140.351 210.42 140.372 210.012 140.316 209.609C140.231 209.014 140.246 208.412 140.361 207.82Z" fill="#FFBE9D"/>
<path d="M142.3 206.813C142.356 206.858 141.975 207.269 141.444 207.689C140.913 208.109 140.443 208.446 140.381 208.401C140.32 208.355 140.706 207.944 141.237 207.525C141.768 207.105 142.244 206.767 142.3 206.813Z" fill="#FFBE9D"/>
<path d="M142.689 202.259C142.752 202.686 142.774 203.116 142.756 203.545C142.756 204.344 142.795 205.439 142.874 206.648C142.952 207.857 143.069 208.952 143.153 209.746C143.233 210.172 143.266 210.602 143.254 211.033C143.099 210.62 142.998 210.195 142.952 209.765C142.812 208.975 142.667 207.88 142.583 206.662C142.499 205.444 142.51 204.344 142.549 203.545C142.541 203.114 142.588 202.683 142.689 202.259Z" fill="#FFBE9D"/>
<path d="M153.574 203.167C153.574 203.167 153.451 203.395 153.255 203.806C152.983 204.387 152.766 204.985 152.607 205.594C152.506 205.987 152.4 206.411 152.282 206.863C152.171 207.357 152.006 207.843 151.79 208.314C151.549 208.846 151.142 209.317 150.61 209.682C150.32 209.888 149.974 210.034 149.6 210.11C149.227 210.185 148.837 210.187 148.463 210.116C148.073 210.044 147.721 209.875 147.456 209.632C147.211 209.391 147.054 209.099 147.003 208.788C146.924 208.234 146.91 207.675 146.964 207.118C147.027 206.185 147.203 205.258 147.489 204.353C147.682 203.743 147.928 203.145 148.228 202.565C148.334 202.359 148.418 202.204 148.485 202.108C148.513 202.053 148.551 202 148.597 201.953C148.527 202.175 148.439 202.393 148.334 202.606C148.077 203.193 147.862 203.791 147.691 204.399C147.436 205.298 147.283 206.214 147.232 207.136C147.188 207.675 147.205 208.216 147.283 208.752C147.328 209.02 147.464 209.272 147.674 209.482C147.902 209.686 148.2 209.829 148.53 209.892C148.862 209.955 149.207 209.952 149.537 209.885C149.868 209.817 150.174 209.687 150.431 209.504C150.93 209.162 151.315 208.723 151.55 208.227C151.901 207.348 152.19 206.454 152.416 205.549C152.592 204.936 152.839 204.339 153.155 203.765C153.242 203.608 153.341 203.455 153.451 203.308C153.518 203.212 153.563 203.162 153.574 203.167Z" fill="#FFBE9D"/>
<path d="M154.667 204.192C154.589 204.698 154.315 205.171 153.886 205.542C153.457 205.912 152.894 206.162 152.279 206.255C152.769 205.991 153.235 205.698 153.672 205.379C154.039 205.004 154.372 204.607 154.667 204.192Z" fill="#FFBE9D"/>
<path d="M148.663 210.093C148.847 210.726 148.894 211.381 148.803 212.027C148.774 212.603 148.674 213.174 148.507 213.734V213.766C148.486 213.775 148.463 213.779 148.439 213.78C148.416 213.781 148.392 213.777 148.371 213.769C148.349 213.761 148.33 213.749 148.315 213.734C148.3 213.72 148.289 213.702 148.283 213.684C148.283 213.638 148.283 213.62 148.283 213.62C148.283 213.62 148.283 213.643 148.322 213.661C148.362 213.679 148.401 213.697 148.417 213.661L148.384 213.697C148.384 213.387 148.468 212.739 148.518 211.991C148.512 211.356 148.56 210.722 148.663 210.093Z" fill="#FFBE9D"/>
<path d="M155.245 208.204C155.03 208.494 154.775 208.764 154.485 209.007C153.844 209.615 153.282 210.276 152.807 210.978C152.335 211.68 152.067 212.46 152.024 213.26C152.024 213.876 152.153 214.25 152.102 214.259C151.906 213.951 151.808 213.607 151.817 213.26C151.8 212.423 152.053 211.597 152.55 210.864C153.043 210.144 153.652 209.481 154.362 208.893C154.619 208.634 154.916 208.402 155.245 208.204Z" fill="#FFBE9D"/>
<path d="M154.095 212.411C153.92 211.898 153.949 211.353 154.179 210.854C154.408 210.356 154.825 209.93 155.37 209.637C157.322 208.505 163.166 205.53 163.289 205.53C163.412 205.53 170.151 203.705 172.987 203.468C175.822 203.231 188.232 208.259 188.232 208.259C188.232 208.259 191.112 211.645 190.648 214.893C190.183 218.142 187.589 218.329 187.589 218.329L183.987 217.613L180.274 217.033C180.274 217.033 172.058 218.899 170.766 218.557C169.474 218.215 169.027 217.07 170.425 216.449C171.823 215.829 175.844 214.857 175.844 214.857L178.937 213.789L168.87 214.962C168.87 214.962 160.359 216.33 159.363 216.139C158.368 215.947 158.217 215.34 158.133 214.77C158.133 214.77 154.705 216.139 153.687 215.391C152.669 214.642 152.222 213.013 154.095 212.411Z" fill="#FFBE9D"/>
<path d="M175.822 210.412C175.573 210.445 175.32 210.456 175.067 210.444C174.586 210.444 173.887 210.444 173.026 210.49C172.022 210.527 171.024 210.642 170.045 210.832C169.469 210.952 168.907 211.115 168.368 211.32C167.808 211.53 167.249 211.776 166.69 212.05C166.119 212.316 165.525 212.547 164.911 212.739C164.338 212.912 163.737 213.018 163.127 213.054C162.123 213.054 161.121 213.146 160.141 213.328C159.501 213.494 158.937 213.812 158.519 214.24C158.378 214.407 158.253 214.582 158.145 214.765C158.145 214.765 158.145 214.706 158.178 214.605C158.236 214.458 158.319 214.319 158.424 214.19C158.827 213.716 159.405 213.36 160.074 213.173C161.064 212.961 162.082 212.85 163.105 212.84C164.323 212.723 165.492 212.385 166.528 211.849C167.087 211.589 167.646 211.325 168.239 211.11C168.791 210.905 169.366 210.743 169.956 210.627C170.952 210.437 171.97 210.337 172.993 210.33C173.865 210.33 174.564 210.33 175.051 210.357C175.309 210.356 175.568 210.374 175.822 210.412Z" fill="#FFBE9D"/>
<path d="M172.781 206.949C172.723 206.98 172.662 207.006 172.597 207.027C172.479 207.072 172.295 207.132 172.038 207.2C171.351 207.373 170.65 207.504 169.94 207.593C169.051 207.72 167.977 207.816 166.837 208.049C165.607 208.352 164.426 208.773 163.319 209.304C161.255 210.24 159.1 211.037 156.876 211.685C156.026 211.932 155.327 212.114 154.841 212.233C154.594 212.306 154.339 212.359 154.08 212.393C154.312 212.291 154.555 212.209 154.807 212.146L156.804 211.526C158.995 210.836 161.126 210.024 163.179 209.094C164.307 208.554 165.513 208.131 166.769 207.834C167.806 207.643 168.856 207.5 169.912 207.405C170.616 207.333 171.315 207.228 172.004 207.091C172.26 207.032 172.519 206.985 172.781 206.949Z" fill="#FFBE9D"/>
<path d="M180.952 208.906C180.878 208.728 180.824 208.545 180.79 208.359C180.657 207.932 180.399 207.538 180.038 207.21C179.678 206.882 179.226 206.629 178.721 206.474C178.499 206.425 178.282 206.361 178.072 206.283C178.072 206.255 178.352 206.228 178.788 206.315C179.355 206.439 179.865 206.694 180.259 207.049C180.65 207.406 180.904 207.849 180.992 208.322C181.05 208.516 181.037 208.719 180.952 208.906Z" fill="#FFBE9D"/>
<path d="M185.603 214.03C185.593 213.774 185.565 213.518 185.52 213.264C185.329 212.67 184.9 212.147 184.3 211.776C183.684 211.411 183.003 211.123 182.282 210.923C181.967 210.855 181.666 210.752 181.387 210.617C181.713 210.621 182.037 210.67 182.343 210.763C183.115 210.925 183.842 211.205 184.485 211.589C185.137 211.991 185.579 212.579 185.721 213.236C185.802 213.504 185.76 213.786 185.603 214.03Z" fill="#FFBE9D"/>
<path d="M158.167 214.76C158.024 214.864 157.859 214.944 157.68 214.998C157.213 215.177 156.731 215.33 156.237 215.454C155.897 215.551 155.55 215.629 155.197 215.687C154.771 215.732 154.339 215.696 153.933 215.582C153.704 215.513 153.495 215.407 153.32 215.268C153.144 215.13 153.007 214.963 152.915 214.779C152.684 214.404 152.591 213.982 152.647 213.565C152.705 213.25 152.904 212.964 153.206 212.762C153.463 212.577 153.751 212.424 154.062 212.306L153.989 212.443C153.761 211.877 153.813 211.261 154.134 210.727C154.401 210.326 154.76 209.971 155.191 209.682C155.468 209.494 155.764 209.324 156.075 209.176C156.182 209.113 156.301 209.065 156.427 209.034C156.455 209.066 155.974 209.294 155.309 209.787C154.916 210.08 154.59 210.427 154.347 210.814C154.071 211.306 154.039 211.867 154.257 212.379L154.291 212.465L154.185 212.511C153.659 212.735 153.027 213.063 152.966 213.601C152.919 213.973 153 214.347 153.2 214.683C153.275 214.841 153.389 214.984 153.535 215.103C153.681 215.223 153.857 215.316 154.05 215.376C154.408 215.483 154.79 215.524 155.169 215.495C155.512 215.445 155.852 215.379 156.187 215.299C156.808 215.157 157.305 215.016 157.641 214.916C157.809 214.849 157.985 214.797 158.167 214.76Z" fill="#FFBE9D"/>
<path d="M201.495 122.462C200.281 112.579 197.714 102.741 198.245 92.8037L188.285 97.8775C188.783 101.811 184.449 104.858 181.938 108.235C180.435 110.298 179.554 112.622 179.366 115.016C179.178 117.411 179.69 119.808 180.858 122.01C181.753 123.652 183.023 125.204 183.353 126.983C183.912 129.985 181.636 133.038 182.475 135.999C183.436 139.408 188.548 141.278 192.67 140.32C196.791 139.362 199.744 136.214 200.958 132.878C202.171 129.543 201.92 125.943 201.495 122.462Z" fill="black"/>
<path d="M188.823 96.207C189.374 93.7956 190.701 91.547 192.668 89.6918C194.635 87.8366 197.171 86.4415 200.017 85.6494C202.862 84.8572 205.914 84.6966 208.861 85.184C211.808 85.6714 214.543 86.7892 216.785 88.423C218.603 89.7507 220.09 91.407 222.193 92.4153C224.57 93.5515 224.878 93.1682 227.495 93.8572C230.112 94.5462 235.241 100.122 235.324 102.367L237.36 112.131C237.427 114.435 233.904 115.918 231.175 115.325C228.446 114.732 226.522 112.765 224.956 110.84C223.39 108.914 221.902 106.829 219.492 105.62C215.493 103.617 210.36 104.639 205.83 105.62C201.3 106.601 196.037 107.445 192.268 105.164C189.047 103.179 188.085 99.4374 188.823 96.207Z" fill="black"/>
<path d="M187.381 110.351C187.381 103.927 192.017 95.8192 199.88 96.1112L224.655 99.9439C225.808 99.9855 226.9 100.379 227.714 101.047C228.528 101.714 229.005 102.607 229.05 103.548L229.984 151.685H230.152C230.152 151.685 221.545 169.343 205.103 166.031C201.843 165.374 204.253 158.753 203.392 155.851L203.23 155.879C203.196 155.527 203.168 155.203 203.135 154.87C202.653 152.699 202.453 150.492 202.536 148.286C202.195 144.412 202.078 142.811 202.078 142.861C202.078 142.911 191.955 141.994 189.092 131.431C187.671 126.202 187.353 117.492 187.381 110.351Z" fill="#FFBE9D"/>
<path d="M191.756 118.756C191.778 119.112 191.969 119.448 192.29 119.691C192.611 119.934 193.035 120.065 193.473 120.056C193.687 120.06 193.901 120.028 194.1 119.963C194.299 119.899 194.481 119.802 194.634 119.679C194.786 119.556 194.907 119.409 194.989 119.248C195.071 119.086 195.113 118.912 195.111 118.737C195.09 118.381 194.898 118.045 194.577 117.802C194.256 117.559 193.832 117.428 193.394 117.437C193.18 117.433 192.967 117.465 192.767 117.529C192.568 117.594 192.387 117.691 192.234 117.814C192.081 117.937 191.96 118.083 191.878 118.245C191.796 118.407 191.754 118.581 191.756 118.756Z" fill="#00657A"/>
<path d="M190.027 114.763C190.246 114.932 191.459 114.102 193.265 114.02C195.072 113.937 196.448 114.604 196.621 114.416C196.716 114.33 196.476 114.02 195.877 113.705C195.063 113.3 194.115 113.112 193.165 113.166C192.235 113.22 191.351 113.513 190.637 114.001C190.078 114.357 189.916 114.69 190.027 114.763Z" fill="#00657A"/>
<path d="M208.029 118.012C208.051 118.368 208.243 118.704 208.564 118.947C208.884 119.19 209.309 119.321 209.746 119.312C209.961 119.316 210.174 119.284 210.373 119.22C210.573 119.155 210.754 119.058 210.907 118.935C211.06 118.812 211.181 118.666 211.263 118.504C211.345 118.342 211.386 118.169 211.385 117.994C211.363 117.635 211.169 117.297 210.845 117.054C210.52 116.81 210.092 116.681 209.651 116.693C209.438 116.691 209.227 116.724 209.029 116.79C208.832 116.855 208.652 116.952 208.501 117.075C208.35 117.198 208.231 117.344 208.15 117.505C208.069 117.666 208.028 117.838 208.029 118.012Z" fill="#00657A"/>
<path d="M207.789 114.171C208.007 114.335 209.221 113.509 211.027 113.422C212.833 113.336 214.209 114.011 214.382 113.819C214.472 113.732 214.243 113.422 213.639 113.107C212.824 112.705 211.877 112.517 210.926 112.569C209.989 112.615 209.092 112.901 208.365 113.386C207.845 113.76 207.677 114.093 207.789 114.171Z" fill="#00657A"/>
<path d="M202.036 125.409C202.036 125.322 200.917 125.222 199.072 125.121C198.608 125.121 198.166 125.048 198.071 124.797C198.003 124.41 198.081 124.016 198.294 123.666C198.663 122.753 199.044 121.763 199.446 120.741C201.04 116.571 202.159 113.153 201.952 113.103C201.745 113.053 200.274 116.388 198.697 120.554L197.606 123.502C197.348 123.968 197.303 124.493 197.478 124.984C197.554 125.115 197.665 125.229 197.804 125.318C197.943 125.408 198.105 125.47 198.278 125.5C198.537 125.544 198.802 125.561 199.066 125.55C200.9 125.541 202.036 125.491 202.036 125.409Z" fill="#00657A"/>
<path d="M202.078 142.888C208.239 142.66 214.201 141.043 219.303 138.216C219.303 138.216 215.433 145.858 202.279 145.516L202.078 142.888Z" fill="#FFBE9D"/>
<path d="M203.06 128.917C203.376 128.547 203.804 128.25 204.301 128.053C204.798 127.855 205.349 127.765 205.901 127.79C206.301 127.798 206.695 127.873 207.058 128.009C207.422 128.146 207.747 128.342 208.015 128.584C208.274 128.817 208.44 129.11 208.489 129.423C208.538 129.735 208.468 130.053 208.289 130.332C208.019 130.61 207.654 130.817 207.239 130.925C206.825 131.033 206.38 131.038 205.962 130.939C205.091 130.735 204.279 130.39 203.574 129.926C203.357 129.819 203.167 129.68 203.015 129.515C202.943 129.437 202.901 129.344 202.894 129.246C202.887 129.149 202.915 129.052 202.976 128.967" fill="#FFBE9D"/>
<path d="M207.413 126.166C207.117 126.166 207.229 127.763 205.64 128.976C204.052 130.19 201.949 130.122 201.949 130.345C201.949 130.446 202.436 130.633 203.319 130.61C204.468 130.567 205.561 130.196 206.406 129.56C207.217 128.95 207.705 128.105 207.765 127.206C207.805 126.535 207.553 126.147 207.413 126.166Z" fill="#00657A"/>
<path d="M206.917 108.591C207.124 108.983 208.914 108.705 211.044 108.81C213.175 108.915 214.926 109.298 215.177 108.924C215.289 108.746 214.965 108.385 214.249 108.011C213.292 107.581 212.228 107.335 211.137 107.29C210.045 107.246 208.956 107.405 207.952 107.756C207.197 108.071 206.856 108.404 206.917 108.591Z" fill="#00657A"/>
<path d="M190.377 110.47C190.718 110.79 191.937 110.384 193.431 110.292C194.924 110.201 196.227 110.384 196.473 110.019C196.59 109.841 196.367 109.517 195.785 109.229C195.015 108.884 194.136 108.735 193.262 108.8C192.387 108.865 191.556 109.142 190.875 109.594C190.371 109.964 190.226 110.315 190.377 110.47Z" fill="#00657A"/>
<path d="M200.102 93.3641L201.12 92.1504C208.725 92.4719 216.241 93.6354 223.462 95.6089C226.348 96.3983 229.278 97.3702 231.347 99.1907C234.199 101.691 234.898 105.305 235.458 108.69C237.594 121.571 239.563 134.853 235.514 147.428C234.194 145.913 231.789 145.325 229.53 145.083C227.27 144.841 224.916 144.85 222.819 144.106C221.68 143.681 220.662 143.066 219.832 142.3C219.002 141.535 218.377 140.636 217.998 139.662C217.251 137.696 217.376 135.579 218.35 133.68C219.407 131.568 221.415 129.478 220.716 127.293C219.983 124.979 216.589 123.807 215.638 121.548C213.999 117.642 220.559 113.728 218.876 109.836C218.25 108.398 216.605 107.413 214.883 106.82C213.16 106.226 211.304 105.939 209.564 105.387C206.673 104.409 204.216 102.734 202.525 100.585C200.833 98.4359 199.988 95.9163 200.102 93.3641Z" fill="black"/>
<path d="M238.789 99.7297C230.657 90.4308 225.149 89.3038 217.498 88.957L228.124 108.394C229.718 111.524 231.91 115.321 232.251 118.692C232.654 122.694 230.954 126.043 228.678 129.597C225.949 133.868 222.951 137.938 218.259 140.858C213.567 143.778 203.12 147.451 197.695 145.558L205.262 149.012L223.337 149.067L244.393 149.135C244.393 149.135 246.853 147.374 249.018 142.829C254.448 131.445 247.86 110.101 238.789 99.7297Z" fill="#0087A2"/>
<path d="M253.79 160.295C253.79 160.295 249.26 152.712 243.348 148.542C237.437 144.371 233.808 144.413 225.374 144.997C216.941 145.581 205.141 146.667 202.344 146.087L202.081 142.893C200.695 142.779 195.007 140.521 193.9 139.156C191.786 140.922 190.863 142.806 191.344 144.809L189.963 145.234C187.925 145.842 186.233 147.041 185.21 148.602C184.186 150.163 183.903 151.977 184.415 153.698C184.94 155.34 186.21 156.349 188.76 156.709C198.883 158.137 225.945 152.169 234.093 152.146C242.241 152.124 253.79 160.295 253.79 160.295Z" fill="#0087A2"/>
<path d="M187.842 156.622C188.079 156.616 188.317 156.627 188.552 156.654C189.011 156.69 189.671 156.75 190.56 156.8C193.027 156.957 195.503 156.99 197.975 156.9C201.638 156.747 205.278 156.344 208.858 155.696C210.883 155.335 212.991 154.897 215.156 154.386L221.833 152.703C226.413 151.567 231.005 150.791 235.205 151.128C238.905 151.405 242.486 152.339 245.696 153.866C247.851 154.896 249.8 156.191 251.473 157.703C251.928 158.112 252.354 158.542 252.748 158.99C252.895 159.134 253.027 159.286 253.145 159.446C252.969 159.319 252.811 159.175 252.676 159.017C252.39 158.721 251.937 158.306 251.339 157.786C247.071 154.139 241.322 151.884 235.165 151.443C231.049 151.133 226.531 151.9 221.967 153.031C219.68 153.592 217.46 154.19 215.284 154.706C213.109 155.221 210.989 155.65 208.948 156.001C205.342 156.64 201.674 157.019 197.987 157.133C195.502 157.201 193.015 157.126 190.543 156.909C189.671 156.836 188.994 156.754 188.541 156.695C188.306 156.687 188.072 156.663 187.842 156.622Z" fill="#00657A"/>
<path d="M254.269 157.804C244.057 146.972 224.478 142.834 209.099 148.254L192.881 151.06C188.602 151.662 181.74 152.799 181.416 156.034C181.12 159.46 182.034 162.883 184.05 165.898C187.819 171.255 185.772 178.432 189.542 183.789C191.32 186.321 193.138 188.89 195.733 190.902C198.328 192.914 201.851 194.324 205.408 194.009C209.367 193.663 212.611 191.304 215.127 188.785C220.547 183.36 223.93 176.771 229.002 171.132C234.075 165.492 240.059 161.34 250.718 160.806C252.653 160.706 258.173 162.809 258.173 162.809C258.329 162.17 254.756 158.31 254.269 157.804Z" fill="#0087A2"/>
<g opacity="0.3">
<path d="M232.444 151.361C225.392 151.361 218.463 154.126 211.629 155.358C184.136 160.295 184.136 151.836 184.136 151.836C183.275 155.81 187.85 157.635 192.665 158.548C201.859 160.282 211.679 161.212 218.312 159.483C223.658 158.114 229.24 157.097 234.637 155.833C240.033 154.569 247.807 155.053 251.895 158.183C248.238 153.278 239.496 151.348 232.444 151.361Z" fill="black"/>
</g>
<g opacity="0.3">
<path d="M196.713 150.754C197.041 151.342 197.521 151.865 198.119 152.288C198.717 152.71 199.42 153.023 200.18 153.205C201.703 153.563 203.297 153.674 204.872 153.533C210.621 153.214 216.146 151.649 221.588 150.097C217.237 149.974 213.026 151.211 208.759 151.923C204.492 152.634 199.682 152.68 196.215 150.554" fill="black"/>
</g>
<path d="M255.655 161.276C255.655 161.276 255.604 161.244 255.526 161.176L255.185 160.856C254.888 160.569 254.435 160.167 253.837 159.656C252.152 158.211 250.116 157.069 247.859 156.303C246.283 155.818 244.629 155.526 242.948 155.436C241.022 155.308 239.084 155.359 237.171 155.586C233.111 156.043 228.822 157.206 224.27 158.265C219.717 159.323 215.372 160.427 211.239 160.605C207.595 160.734 203.946 160.521 200.362 159.971C197.308 159.515 194.875 158.986 193.192 158.643L191.257 158.242L190.759 158.132L190.586 158.087C190.645 158.08 190.706 158.08 190.765 158.087L191.274 158.173L193.22 158.534C194.898 158.849 197.347 159.346 200.401 159.784C203.97 160.31 207.6 160.506 211.222 160.368C215.31 160.181 219.661 159.127 224.191 158.018C228.721 156.91 233.039 155.792 237.132 155.349C239.066 155.127 241.025 155.084 242.971 155.221C245.058 155.319 247.1 155.754 248.979 156.502C250.857 157.249 252.535 158.293 253.915 159.574C254.508 160.099 254.95 160.51 255.23 160.806L255.548 161.139L255.655 161.276Z" fill="black"/>
<path d="M245.387 150.117C245.344 150.094 245.305 150.068 245.269 150.039L244.945 149.797C244.671 149.578 244.24 149.273 243.681 148.885C242.07 147.823 240.304 146.928 238.424 146.22C235.633 145.177 232.666 144.482 229.621 144.158C225.89 143.78 222.115 143.787 218.386 144.18C214.654 144.583 210.95 145.147 207.291 145.869C205.674 146.179 204.009 146.286 202.352 146.188C200.896 146.099 199.497 145.686 198.309 144.993C197.356 144.402 196.541 143.675 195.904 142.848C195.424 142.231 195.007 141.582 194.657 140.909C194.372 140.357 194.182 139.914 194.059 139.613L193.93 139.271C193.912 139.233 193.9 139.193 193.896 139.152C193.896 139.152 193.924 139.189 193.958 139.262C193.992 139.335 194.053 139.463 194.115 139.599C194.254 139.892 194.461 140.325 194.763 140.873C195.128 141.533 195.557 142.169 196.044 142.775C196.681 143.58 197.49 144.284 198.432 144.856C199.597 145.52 200.962 145.913 202.38 145.992C204.01 146.078 205.646 145.964 207.235 145.654C210.899 144.917 214.61 144.347 218.352 143.948C222.106 143.553 225.907 143.553 229.66 143.948C232.727 144.287 235.712 145.006 238.513 146.079C240.4 146.8 242.161 147.72 243.754 148.816C244.185 149.115 244.598 149.432 244.99 149.765L245.292 150.021C245.359 150.085 245.392 150.112 245.387 150.117Z" fill="black"/>
<path d="M242.091 149.892H241.951L241.538 149.838L239.944 149.623C237.99 149.378 236.023 149.215 234.049 149.135C231.12 149.017 228.183 149.094 225.269 149.363C221.704 149.754 218.17 150.319 214.688 151.056C210.975 151.786 207.362 152.425 204.012 152.384C202.431 152.392 200.854 152.239 199.32 151.927C197.982 151.619 196.744 151.072 195.696 150.326C194.192 149.254 192.971 147.944 192.105 146.475C191.776 145.943 191.516 145.385 191.328 144.81C191.355 144.842 191.375 144.877 191.39 144.915L191.541 145.234C191.68 145.517 191.893 145.923 192.206 146.429C193.1 147.867 194.331 149.147 195.83 150.198C196.862 150.916 198.074 151.441 199.381 151.736C200.897 152.037 202.452 152.182 204.012 152.169C207.323 152.169 210.907 151.562 214.638 150.828C218.133 150.085 221.682 149.521 225.263 149.14C228.192 148.882 231.142 148.823 234.083 148.962C236.063 149.056 238.035 149.243 239.988 149.523C240.682 149.628 241.213 149.715 241.577 149.783L241.985 149.861C242.052 149.874 242.091 149.888 242.091 149.892Z" fill="black"/>
<path d="M242.605 129.415C242.555 129.674 242.484 129.93 242.392 130.182C242.305 130.481 242.196 130.777 242.068 131.067C241.922 131.409 241.782 131.801 241.559 132.217C241.335 132.632 241.117 133.097 240.821 133.585C240.524 134.074 240.194 134.562 239.831 135.087C238.198 137.329 236.073 139.307 233.562 140.922C232.974 141.287 232.443 141.639 231.884 141.922C231.325 142.204 230.821 142.474 230.335 142.697C229.848 142.921 229.401 143.103 229.009 143.263C228.674 143.406 228.329 143.533 227.975 143.642C227.683 143.751 227.382 143.843 227.074 143.915C227.347 143.778 227.633 143.659 227.93 143.56C228.209 143.455 228.551 143.322 228.937 143.144C229.322 142.966 229.77 142.798 230.234 142.551C230.698 142.305 231.224 142.068 231.75 141.757C232.275 141.447 232.829 141.114 233.427 140.753C235.891 139.132 237.991 137.174 239.635 134.968C239.998 134.452 240.356 133.969 240.636 133.494C240.916 133.02 241.195 132.582 241.402 132.162C241.609 131.742 241.788 131.368 241.961 131.035C242.135 130.702 242.235 130.405 242.325 130.168C242.392 129.911 242.485 129.659 242.605 129.415Z" fill="black"/>
<path d="M241.758 156.613C241.606 156.613 241.455 156.602 241.305 156.581L240.746 156.522C240.534 156.499 240.282 156.522 240.008 156.49C238.426 156.459 236.851 156.658 235.355 157.078C234.324 157.367 233.32 157.718 232.352 158.128C231.243 158.604 230.166 159.128 229.125 159.697C226.921 160.897 224.617 162.367 222.145 163.85L209.529 171.492L205.676 173.774L204.619 174.367C204.501 174.444 204.373 174.512 204.238 174.567C204.345 174.482 204.459 174.403 204.579 174.33L205.603 173.682L209.4 171.332L221.983 163.658C224.455 162.18 226.759 160.71 228.991 159.515C230.042 158.946 231.131 158.424 232.251 157.95C233.236 157.545 234.257 157.2 235.305 156.919C236.825 156.508 238.425 156.332 240.025 156.399C240.304 156.399 240.556 156.421 240.768 156.449L241.328 156.531C241.474 156.548 241.618 156.575 241.758 156.613Z" fill="black"/>
<path d="M259.801 170.602C259.693 170.395 259.61 170.18 259.555 169.959C259.421 169.544 259.231 168.937 258.962 168.198C258.661 167.331 258.277 166.484 257.816 165.665C257.255 164.669 256.489 163.758 255.551 162.973C254.618 162.186 253.45 161.609 252.162 161.299C251.102 161.067 250 160.989 248.907 161.066C247.895 161.159 246.891 161.299 245.898 161.486C245.959 161.453 246.025 161.429 246.094 161.413C246.228 161.372 246.424 161.317 246.653 161.258C247.383 161.081 248.133 160.962 248.89 160.902C250.013 160.795 251.151 160.858 252.246 161.089C253.585 161.398 254.8 161.99 255.769 162.805C256.732 163.609 257.512 164.547 258.073 165.574C258.532 166.407 258.906 167.269 259.192 168.152C259.432 168.9 259.594 169.521 259.695 169.941C259.754 170.158 259.789 170.38 259.801 170.602Z" fill="black"/>
<path d="M249.881 85.4434C260.877 85.0266 269.377 77.416 268.866 68.4447C268.356 59.4733 259.027 52.5385 248.031 52.9553C237.035 53.3721 228.535 60.9827 229.046 69.954C229.557 78.9254 238.885 85.8602 249.881 85.4434Z" fill="white"/>
<path d="M237.872 87.9934C238.056 87.9511 238.242 87.916 238.431 87.8884C238.969 87.834 239.515 87.9186 239.991 88.1303C240.319 88.2694 240.605 88.4657 240.83 88.7052C241.079 88.9835 241.225 89.3146 241.25 89.6588C241.302 90.0546 241.205 90.454 240.97 90.8032C240.736 91.1525 240.376 91.4348 239.94 91.6122C239.503 91.7897 239.01 91.8537 238.527 91.7957C238.045 91.7376 237.595 91.5604 237.24 91.2877C236.919 91.0644 236.683 90.7718 236.557 90.4436C236.454 90.1469 236.433 89.8352 236.496 89.531C236.578 89.0932 236.824 88.6869 237.201 88.3675C237.469 88.144 237.665 88.0664 237.654 88.0527C237.604 88.0651 237.557 88.0835 237.514 88.1075C237.457 88.1312 237.403 88.1587 237.352 88.1896C237.281 88.232 237.214 88.2777 237.15 88.3265C236.805 88.5955 236.555 88.935 236.425 89.3097C236.295 89.6844 236.291 90.0807 236.412 90.4573C236.536 90.8121 236.785 91.1294 237.128 91.3698C237.502 91.6407 237.961 91.8209 238.453 91.89C238.984 91.9812 239.536 91.9237 240.021 91.7266C240.507 91.5294 240.896 91.2044 241.126 90.804C241.354 90.4408 241.455 90.0336 241.417 89.6268C241.387 89.2581 241.226 88.9045 240.953 88.6094C240.715 88.3552 240.406 88.1505 240.053 88.0116C239.55 87.7999 238.977 87.7278 238.42 87.8063C238.334 87.8166 238.25 87.8334 238.168 87.8565C238.104 87.8697 238.043 87.8881 237.983 87.9113C237.916 87.9614 237.866 87.9934 237.872 87.9934Z" fill="#00657A"/>
<path d="M232.361 78.4522L232.198 78.2195L231.706 77.5534C231.6 77.4028 231.477 77.2385 231.343 77.0606C231.209 76.8826 231.108 76.6636 230.974 76.4355C230.839 76.2073 230.7 75.9792 230.549 75.7055C230.466 75.5733 230.397 75.436 230.342 75.2948C230.28 75.1488 230.213 75.0028 230.146 74.8385C229.469 73.3585 229.071 71.8031 228.966 70.2256C228.811 68.1363 229.149 66.0422 229.961 64.0568L230.314 63.2264C230.454 62.948 230.616 62.6788 230.767 62.4005C230.839 62.2636 230.918 62.1267 230.996 61.9853C231.067 61.8426 231.153 61.7052 231.253 61.5746L231.813 60.7579C231.908 60.621 232.003 60.4841 232.103 60.3473L232.45 59.9549L233.149 59.161C233.39 58.9009 233.675 58.6591 233.943 58.4035L234.352 58.0248C234.419 57.9655 234.486 57.8971 234.558 57.8378L234.788 57.6644C235.388 57.1726 236.029 56.7152 236.706 56.2956C237.053 56.0902 237.388 55.8393 237.757 55.6613L238.876 55.1001C239.066 55.0089 239.251 54.9039 239.435 54.8218L240.045 54.5845C240.453 54.4294 240.856 54.256 241.275 54.1282C242.138 53.8483 243.021 53.6136 243.92 53.4256L244.603 53.2841L244.949 53.2157L245.302 53.1746L246.717 53.0013C247.197 52.9602 247.678 52.9511 248.165 52.9282C248.405 52.9282 248.652 52.8963 248.898 52.9282L249.63 52.9556C250.622 52.9852 251.61 53.0691 252.589 53.2066L254.059 53.494L254.429 53.567C254.552 53.5944 254.669 53.6309 254.792 53.6629L255.514 53.8682L256.241 54.0689L256.945 54.3244L257.65 54.5891L258.002 54.7168C258.12 54.767 258.226 54.8218 258.343 54.8765L259.697 55.5108L260.983 56.259C264.435 58.3694 266.948 61.3412 268.141 64.7229C268.276 65.1381 268.404 65.5579 268.533 65.9686L268.768 67.2324L268.824 67.5473V67.8621L268.863 68.4918L268.902 69.1214L268.868 69.7465L268.835 70.3716V70.6819L268.785 70.9876C268.712 71.3982 268.645 71.8043 268.578 72.2104C268.379 73.0057 268.116 73.7892 267.789 74.5556L267.554 75.1214C267.476 75.313 267.358 75.4864 267.263 75.6689C267.056 76.0294 266.877 76.3944 266.654 76.7412C266.43 77.088 266.178 77.421 265.944 77.7587L265.765 78.0096C265.697 78.0918 265.625 78.1693 265.558 78.2469L265.149 78.7032C264.61 79.3178 264.021 79.9031 263.388 80.4553C263.069 80.7245 262.728 80.9663 262.403 81.2218L261.906 81.5959C261.744 81.7191 261.553 81.8241 261.38 81.9336L260.329 82.5906C259.971 82.7959 259.585 82.9693 259.21 83.1564C258.493 83.521 257.746 83.8443 256.973 84.1237L256.694 84.2332L256.403 84.3245L255.843 84.4933C255.452 84.6028 255.077 84.7351 254.691 84.8264L253.528 85.0682L252.969 85.1868L252.41 85.2598L251.291 85.4013C251.106 85.4277 250.919 85.443 250.732 85.4469H250.173C249.804 85.4469 249.434 85.488 249.054 85.4925L247.975 85.456C245.412 85.3532 242.898 84.8481 240.57 83.9686C240.313 83.8727 240.056 83.7861 239.81 83.6902L239.116 83.3617L238.445 83.0515C238.333 82.9967 238.222 82.9511 238.121 82.8963L237.824 82.7229L236.706 82.0659C236.354 81.8469 236.052 81.6096 235.744 81.3997L235.308 81.0895C235.168 80.9946 235.035 80.8925 234.911 80.7838L234.156 80.2362C233.949 80.0537 233.748 79.8895 233.597 79.7298L233.166 79.2735L232.607 78.6575C232.478 78.5207 232.405 78.4522 232.405 78.4522L232.595 78.6667C232.724 78.8127 232.914 79.018 233.155 79.2918L233.574 79.748C233.742 79.9123 233.943 80.0766 234.133 80.2591L234.805 80.8568C234.927 80.9681 235.06 81.0718 235.202 81.167L235.638 81.4819C235.94 81.6918 236.242 81.9381 236.594 82.1526L237.713 82.8188L238.009 82.9921C238.115 83.0515 238.227 83.0971 238.333 83.1518L239.004 83.4667L239.704 83.7997L240.464 84.0826C242.802 84.9754 245.33 85.4899 247.908 85.5975L248.993 85.6385C249.356 85.6385 249.731 85.6112 250.111 85.5975L250.67 85.5701C250.858 85.5695 251.045 85.5557 251.23 85.529L252.376 85.3876L252.935 85.3146L253.495 85.1959L254.669 84.9541C255.055 84.8629 255.435 84.7351 255.827 84.6256L256.414 84.4522C256.509 84.4203 256.61 84.3975 256.705 84.361L256.99 84.2515C257.775 83.9702 258.535 83.6455 259.266 83.2796C259.635 83.0925 260.021 82.9191 260.385 82.7138L261.447 82.0522C261.626 81.9381 261.811 81.8378 262.006 81.7146L262.504 81.3359C262.829 81.0804 263.181 80.834 263.5 80.5648C264.138 80.0081 264.733 79.4183 265.278 78.799C265.412 78.6393 265.552 78.4842 265.692 78.3427C265.759 78.2651 265.832 78.1876 265.899 78.1054L266.078 77.8499L266.799 76.8279C267.023 76.4765 267.207 76.107 267.414 75.7465C267.509 75.5594 267.632 75.3815 267.711 75.1944L267.946 74.6195C268.277 73.8476 268.542 73.0579 268.74 72.256C268.812 71.8499 268.885 71.4347 268.952 71.0241L269.008 70.7138V70.399L269.042 69.7739L269.075 69.1397L269.036 68.5054L268.991 67.8712V67.5473L268.93 67.2324L268.695 65.9594C268.566 65.5397 268.438 65.1199 268.304 64.7001C267.123 61.2786 264.601 58.267 261.123 56.1267L259.825 55.3693L258.455 54.7305C258.343 54.6758 258.231 54.621 258.114 54.5708L257.756 54.4385L257.046 54.1739L256.336 53.9184L255.603 53.713L254.87 53.5077L254.507 53.4073L254.132 53.3389C253.64 53.2385 253.142 53.1427 252.65 53.0514C251.663 52.9102 250.665 52.8248 249.664 52.7959L248.926 52.7686C248.68 52.7686 248.433 52.7686 248.187 52.7686C247.695 52.7959 247.209 52.8005 246.728 52.8416L245.296 53.0195L244.944 53.0651C244.826 53.0651 244.709 53.1108 244.597 53.1336L243.904 53.2796C242.998 53.4664 242.108 53.7027 241.241 53.9868C240.816 54.1328 240.408 54.3108 239.994 54.4659L239.385 54.7077C239.183 54.7898 238.999 54.8948 238.826 54.9906L237.707 55.5564C237.338 55.7571 236.997 55.9898 236.65 56.1997C235.968 56.6194 235.321 57.0768 234.715 57.5686L234.486 57.7465C234.413 57.8058 234.346 57.8743 234.279 57.9381C234.212 58.002 234.005 58.1937 233.865 58.3168C233.597 58.5769 233.306 58.8187 233.071 59.0788L232.366 59.8819L232.019 60.2788C231.919 60.4157 231.824 60.5571 231.729 60.694L231.169 61.5153C231.072 61.6481 230.988 61.7869 230.918 61.9305L230.683 62.3503C230.532 62.6286 230.37 62.9024 230.235 63.1807C230.101 63.4591 230.001 63.7419 229.883 64.0203C229.072 66.0182 228.741 68.1253 228.91 70.2256C229.022 71.8109 229.431 73.3728 230.124 74.8568L230.325 75.3131C230.38 75.4542 230.449 75.5916 230.532 75.7237L230.968 76.4537C231.108 76.6773 231.22 76.8872 231.348 77.0743L231.717 77.5625L232.226 78.2241C232.293 78.3746 232.361 78.4522 232.361 78.4522Z" fill="#00657A"/>
<path d="M238.889 69.6097L241.842 67.2005L247.535 71.3298L258.708 62.5557L261.449 64.9648L247.115 75.9747L238.889 69.6097Z" fill="#0087A2"/>
</svg>
