<svg width="124" height="128" viewBox="0 0 124 128" fill="none" xmlns="http://www.w3.org/2000/svg">
<rect x="12.5957" y="5.24219" width="92.6124" height="95.7469" rx="14.5306" fill="#BED7E6"/>
<path d="M16.7132 44.9907C16.3732 43.9436 16.9182 42.8096 17.9304 42.458L59.6059 27.9782C60.6181 27.6266 61.7142 28.1903 62.0542 29.2374L80.3151 85.4832C80.6551 86.5303 80.1101 87.6642 79.0979 88.0159L37.4224 102.496C36.4102 102.847 35.3141 102.284 34.9741 101.236L16.7132 44.9907Z" fill="black"/>
<path d="M11.93 42.517C11.59 41.4699 12.135 40.336 13.1472 39.9843L54.8227 25.5046C55.8349 25.1529 56.931 25.7167 57.2709 26.7638L75.5319 83.0096C75.8719 84.0567 75.3269 85.1906 74.3147 85.5423L32.6392 100.022C31.627 100.374 30.5309 99.8099 30.1909 98.7629L11.93 42.517Z" fill="white"/>
<path fill-rule="evenodd" clip-rule="evenodd" d="M12.5326 38.0878L54.2081 23.6081C56.2325 22.9047 58.4248 24.0322 59.1047 26.1264L77.3656 82.3722C78.0455 84.4664 76.9556 86.7343 74.9313 87.4376L33.2558 101.917C31.2314 102.621 29.0391 101.493 28.3592 99.399L10.0983 43.1532C9.41836 41.059 10.5083 38.7912 12.5326 38.0878ZM13.1482 39.9837C12.136 40.3354 11.591 41.4693 11.931 42.5164L30.1919 98.7623C30.5319 99.8093 31.628 100.373 32.6402 100.021L74.3157 85.5417C75.3279 85.19 75.8729 84.0561 75.5329 83.009L57.2719 26.7632C56.932 25.7161 55.8359 25.1523 54.8237 25.504L13.1482 39.9837Z" fill="black"/>
<path fill-rule="evenodd" clip-rule="evenodd" d="M24.4099 50.6848C24.24 50.1612 24.5124 49.5943 25.0185 49.4184L49.8427 40.7935C50.3488 40.6177 50.8969 40.8996 51.0668 41.4231C51.2368 41.9466 50.9643 42.5136 50.4582 42.6894L25.6341 51.3144C25.128 51.4902 24.5799 51.2083 24.4099 50.6848Z" fill="black"/>
<path fill-rule="evenodd" clip-rule="evenodd" d="M26.3894 56.7824C26.2194 56.2589 26.4919 55.6919 26.998 55.5161L51.8222 46.8912C52.3283 46.7153 52.8763 46.9972 53.0463 47.5208C53.2163 48.0443 52.9438 48.6113 52.4377 48.7871L27.6135 57.412C27.1074 57.5878 26.5594 57.306 26.3894 56.7824Z" fill="black"/>
<path fill-rule="evenodd" clip-rule="evenodd" d="M28.3695 62.8802C28.1996 62.3567 28.472 61.7897 28.9781 61.6139L53.8023 52.989C54.3084 52.8131 54.8565 53.095 55.0265 53.6185C55.1964 54.1421 54.9239 54.709 54.4179 54.8849L29.5937 63.5098C29.0876 63.6856 28.5395 63.4038 28.3695 62.8802Z" fill="black"/>
<path fill-rule="evenodd" clip-rule="evenodd" d="M30.349 68.9777C30.179 68.4542 30.4515 67.8872 30.9576 67.7114L55.7818 59.0865C56.2879 58.9107 56.8359 59.1925 57.0059 59.7161C57.1759 60.2396 56.9034 60.8066 56.3973 60.9824L31.5732 69.6073C31.0671 69.7832 30.519 69.5013 30.349 68.9777Z" fill="black"/>
<path fill-rule="evenodd" clip-rule="evenodd" d="M32.3285 75.0752C32.1585 74.5516 32.431 73.9846 32.9371 73.8088L57.7612 65.1839C58.2673 65.0081 58.8154 65.2899 58.9854 65.8135C59.1554 66.337 58.8829 66.904 58.3768 67.0798L33.5526 75.7047C33.0465 75.8806 32.4985 75.5987 32.3285 75.0752Z" fill="black"/>
<path fill-rule="evenodd" clip-rule="evenodd" d="M46.1626 77.0457C46.3329 77.5691 46.0608 78.1363 45.5548 78.3125L35.5327 81.8022C35.0267 81.9783 34.4784 81.6968 34.3081 81.1734C34.1378 80.65 34.4099 80.0828 34.9159 79.9066L44.9381 76.417C45.4441 76.2408 45.9923 76.5223 46.1626 77.0457Z" fill="black"/>
<path d="M65.7699 29.2106C66.0513 28.145 67.1143 27.5172 68.1443 27.8082L110.554 39.79C111.584 40.081 112.191 41.1807 111.91 42.2463L96.7993 99.4835C96.518 100.549 95.4549 101.177 94.4249 100.886L52.0149 88.904C50.9848 88.613 50.3779 87.5133 50.6592 86.4478L65.7699 29.2106Z" fill="white"/>
<path fill-rule="evenodd" clip-rule="evenodd" d="M68.6539 25.879L111.064 37.8609C113.124 38.4429 114.338 40.6423 113.775 42.7734L98.6645 100.011C98.1019 102.142 95.9758 103.397 93.9158 102.815L51.5057 90.8336C49.4457 90.2516 48.2317 88.0522 48.7944 85.9211L63.9051 28.6839C64.4677 26.5528 66.5938 25.297 68.6539 25.879ZM68.1445 27.8084C67.1145 27.5174 66.0515 28.1452 65.7702 29.2108L50.6594 86.448C50.3781 87.5135 50.985 88.6132 52.0151 88.9042L94.4251 100.886C95.4551 101.177 96.5182 100.549 96.7995 99.4837L111.91 42.2465C112.192 41.1809 111.585 40.0812 110.555 39.7902L68.1445 27.8084Z" fill="black"/>
<path fill-rule="evenodd" clip-rule="evenodd" d="M86.4573 79.1382C86.8307 79.2475 87.1047 79.5773 87.1531 79.9756L88.347 89.7968C88.4136 90.3447 88.0382 90.8448 87.5085 90.9137C86.9788 90.9826 86.4954 90.5943 86.4288 90.0463L85.5195 82.5659L80.9084 88.5042C80.574 88.9348 79.9656 89.0035 79.5494 88.6576C79.1331 88.3118 79.0668 87.6823 79.4011 87.2517L85.4404 79.4741C85.6834 79.1611 86.0839 79.0288 86.4573 79.1382Z" fill="black"/>
<path fill-rule="evenodd" clip-rule="evenodd" d="M81.9133 84.4061C82.0539 83.8733 82.5855 83.5594 83.1005 83.7049L87.1344 84.8445C87.6494 84.99 87.9528 85.5399 87.8122 86.0727C87.6715 86.6054 87.14 86.9194 86.625 86.7739L82.5911 85.6342C82.0761 85.4887 81.7726 84.9389 81.9133 84.4061Z" fill="black"/>
<path fill-rule="evenodd" clip-rule="evenodd" d="M92.2548 84.5125C92.7698 84.658 93.0733 85.2078 92.9326 85.7406L92.1728 88.6185C92.0322 89.1513 91.5007 89.4652 90.9857 89.3197C90.4706 89.1742 90.1672 88.6244 90.3078 88.0916L91.0676 85.2137C91.2082 84.6809 91.7398 84.367 92.2548 84.5125Z" fill="black"/>
<path fill-rule="evenodd" clip-rule="evenodd" d="M93.9426 87.5731C93.8019 88.1058 93.2704 88.4198 92.7554 88.2743L89.9734 87.4883C89.4584 87.3428 89.1549 86.793 89.2956 86.2602C89.4362 85.7274 89.9678 85.4135 90.4828 85.559L93.2648 86.3449C93.7798 86.4904 94.0832 87.0403 93.9426 87.5731Z" fill="black"/>
<path d="M93.9434 61.0536C94.7861 60.5559 95.0792 59.4457 94.598 58.5739C94.1169 57.7021 93.0437 57.3989 92.201 57.8967L81.8729 63.9969C80.9457 64.5446 79.7648 64.211 79.2354 63.2518L75.9297 57.2624C75.4485 56.3906 74.3753 56.0874 73.5326 56.5852C72.6899 57.0829 72.3968 58.1931 72.878 59.0649L77.1411 66.7889C77.1418 66.7901 77.1414 66.7916 77.1402 66.7923C77.1391 66.793 77.1387 66.7945 77.1393 66.7957L78.8793 69.9483C78.88 69.9495 78.8815 69.9499 78.8826 69.9493L78.8827 69.9492C78.8838 69.9486 78.8852 69.949 78.8859 69.9501C78.8865 69.9513 78.8879 69.9517 78.8891 69.951L81.9367 68.151C81.9378 68.1503 81.9382 68.1488 81.9376 68.1476C81.9369 68.1465 81.9373 68.145 81.9384 68.1443L93.9434 61.0536Z" fill="white"/>
<path fill-rule="evenodd" clip-rule="evenodd" d="M80.9144 62.2605L91.2425 56.1602C93.0124 55.1148 95.2665 55.7516 96.2771 57.5826C97.2876 59.4136 96.672 61.7454 94.9021 62.7908L83.011 69.8142C82.9736 69.8401 82.935 69.8647 82.8954 69.8881L79.8477 71.6882C79.3871 71.9603 78.8639 72.0151 78.389 71.884C77.904 71.752 77.4687 71.4263 77.2005 70.9403L75.4605 67.7877C75.4376 67.7462 75.4163 67.7043 75.3965 67.6619L71.1991 60.0569C70.1885 58.2259 70.8041 55.8941 72.5741 54.8487C74.344 53.8033 76.5981 54.4401 77.6087 56.2711L80.9144 62.2605ZM94.5981 58.5743C95.0793 59.446 94.7862 60.5562 93.9435 61.054L81.9385 68.1447C81.9374 68.1453 81.937 68.1468 81.9376 68.148C81.9379 68.1484 81.938 68.1489 81.9379 68.1493C81.9379 68.1501 81.9375 68.1509 81.9368 68.1513L78.8891 69.9514C78.888 69.952 78.8866 69.9516 78.8859 69.9505C78.8853 69.9493 78.8839 69.9489 78.8827 69.9496L78.8827 69.9496C78.8815 69.9503 78.8801 69.9499 78.8794 69.9487L77.1394 66.7961C77.1387 66.7949 77.1391 66.7933 77.1403 66.7927C77.1414 66.792 77.1418 66.7905 77.1412 66.7893L72.8781 59.0652C72.3969 58.1935 72.69 57.0833 73.5327 56.5855C74.3754 56.0878 75.4486 56.391 75.9297 57.2627L79.2355 63.2521C79.7649 64.2113 80.9458 64.545 81.873 63.9973L92.2011 57.897C93.0438 57.3993 94.117 57.7025 94.5981 58.5743Z" fill="black"/>
</svg>
