<svg width="683" height="565" viewBox="0 0 683 565" fill="none" xmlns="http://www.w3.org/2000/svg">
<g clip-path="url(#clip0_4030_4154)">
<path d="M196.527 10.9844H19.4102V252.877H196.527V10.9844Z" fill="#00657A"/>
<path d="M190.629 10.9844H13.5117V252.877H190.629V10.9844Z" fill="#CCCCCC"/>
<path d="M183.085 15.8828H21.0586V247.965H183.085V15.8828Z" fill="white"/>
<path d="M151.543 46.042H51.9062V217.807H151.543V46.042Z" fill="#CCCCCC"/>
<path d="M51.9007 156.993C51.6688 140.944 69.1563 125.278 88.4064 123.033C97.5909 121.974 107.347 123.479 115.929 120.571C131.236 115.391 136.122 98.6024 151.491 93.6143L152.203 217.769H51.9007V156.993Z" fill="#00657A"/>
<path d="M626.425 0V133.788H425.705L418.473 0.936027L626.425 0Z" fill="#00657A"/>
<path d="M419.66 0.930664V132.829H651.373V0.930664H419.66Z" fill="white"/>
<path d="M652.44 133.736H418.531V0.0771484H652.44V133.736ZM420.742 131.925H650.244V1.7994H420.742V131.925Z" fill="#00657A"/>
<path d="M626.258 17.3252H444.734V116.45H626.258V17.3252Z" fill="white"/>
<path d="M626.253 17.3242H625.356H622.774H612.817L575.399 17.439L444.73 17.6559L445.255 17.2221C445.255 47.5082 445.255 81.0091 445.255 116.334L444.683 115.862L626.207 115.952L625.758 116.334C625.851 86.1631 625.928 61.4775 625.99 44.204C625.99 35.6055 626.083 28.8952 626.114 24.2642C626.114 21.9934 626.114 20.2456 626.114 19.0209C626.114 17.8345 626.114 17.2094 626.114 17.2094C626.114 17.2094 626.114 17.7835 626.114 18.9444C626.114 20.1053 626.114 21.8658 626.114 24.0474C626.114 28.64 626.114 35.3376 626.222 43.9106C626.222 61.1841 626.361 86.01 626.47 116.271V116.64H626.006L444.482 116.743H443.91V116.271C443.91 80.9963 443.91 47.4444 443.91 17.1584V16.7246H444.42L575.445 16.9415L612.724 17.0563H622.589H625.109C625.498 17.1224 625.88 17.2119 626.253 17.3242Z" fill="#00657A"/>
<path d="M419.646 0.561523C421.079 1.12974 422.42 1.84561 423.635 2.69201C426.001 4.10808 429.232 6.11099 432.727 8.40732C436.221 10.7036 439.267 12.8852 441.432 14.5181C442.677 15.3316 443.79 16.275 444.741 17.3247C444.54 17.5289 438.958 13.7271 432 9.14725C425.042 4.56735 419.445 0.778399 419.646 0.561523Z" fill="#00657A"/>
<path d="M651.354 0.931355C651.555 1.13547 646.097 4.97545 639.17 9.50432C632.243 14.0332 626.46 17.5287 626.259 17.3246C626.058 17.1205 631.516 13.2805 638.459 8.75163C645.401 4.22276 651.153 0.727236 651.354 0.931355Z" fill="#00657A"/>
<path d="M625.333 115.571C625.534 115.379 631.517 119.079 638.614 123.85C645.711 128.621 651.37 132.653 651.169 132.857C650.968 133.061 644.985 129.349 637.903 124.577C630.822 119.806 625.147 115.775 625.333 115.571Z" fill="#00657A"/>
<path d="M419.645 132.831C419.46 132.626 424.856 128.838 431.721 124.36C438.586 119.882 444.292 116.425 444.493 116.629C444.694 116.833 439.282 120.622 432.432 125.1C425.583 129.577 419.846 133.035 419.645 132.831Z" fill="#00657A"/>
<path d="M481.586 48.1973V81.392H595.803V48.1973H481.586Z" fill="#00657A"/>
<path d="M308.27 442.222C308.27 436.443 313.635 432.258 320.856 432.258C322.595 432.206 324.327 432.469 325.93 433.029C327.533 433.589 328.967 434.432 330.133 435.499L327.334 437.655C326.547 436.927 325.578 436.347 324.495 435.955C323.412 435.564 322.239 435.369 321.057 435.384C319.941 435.344 318.828 435.491 317.783 435.816C316.738 436.141 315.784 436.636 314.978 437.274C314.171 437.911 313.53 438.676 313.091 439.523C312.653 440.37 312.427 441.282 312.427 442.203C312.427 443.124 312.653 444.036 313.091 444.883C313.53 445.73 314.171 446.495 314.978 447.132C315.784 447.769 316.738 448.265 317.783 448.59C318.828 448.915 319.941 449.062 321.057 449.022C322.244 449.038 323.421 448.84 324.506 448.441C325.59 448.042 326.556 447.452 327.334 446.713L330.164 448.932C328.997 449.998 327.562 450.84 325.96 451.4C324.357 451.959 322.626 452.223 320.887 452.173C313.588 452.198 308.27 448.014 308.27 442.222Z" fill="#CCCCCC"/>
<path d="M284.404 457.416H255.273V433.381H284.404V457.416ZM256.82 456.14H282.858V434.657H256.82V456.14Z" fill="#CCCCCC"/>
<path d="M249.717 462.417C248.851 461.881 255.809 453.257 266.524 444.11C277.239 434.963 287.413 428.891 288.171 429.58C288.929 430.268 280.023 437.387 269.493 446.419C258.963 455.451 250.614 463.004 249.717 462.417Z" fill="#00657A"/>
<path d="M288.587 461.894C287.643 462.455 279.696 454.482 269.197 445.233C258.699 435.984 249.607 428.89 250.334 428.15C251.06 427.411 261.451 433.509 272.135 442.962C282.819 452.415 289.468 461.434 288.587 461.894Z" fill="#00657A"/>
<path d="M89.3894 363.827L75.0871 362.985L71.7937 368.293L66.3047 367.974L81.2255 345.1L86.4516 345.406L97.275 369.785L91.7087 369.466L89.3894 363.827ZM87.936 360.281L83.4366 349.628L77.2518 359.643L87.936 360.281Z" fill="#CCCCCC"/>
<path d="M42.6683 369.263L7.50781 367.209L10.0126 338.147L45.1577 340.214L42.6683 369.263ZM9.16224 366.022L41.2304 367.91L43.5033 341.439L11.4352 339.564L9.16224 366.022Z" fill="#CCCCCC"/>
<path d="M0.0473629 373.026C-0.75666 372.452 8.75246 362.565 22.7455 352.206C36.7386 341.847 49.6339 335.047 50.2524 335.761C50.8709 336.476 39.228 344.411 25.5132 354.668C11.7985 364.925 0.897771 373.664 0.0473629 373.026Z" fill="#00657A"/>
<path d="M47.4297 375.221C46.4401 375.731 37.7505 365.334 25.8911 353.303C14.0318 341.273 3.56406 332.075 4.33716 331.373C5.11026 330.672 16.9851 338.951 29.0763 351.211C41.1676 363.471 48.3419 374.774 47.4297 375.221Z" fill="#00657A"/>
<path d="M682.584 237.632C683.93 241.536 681.038 244.687 673.895 246.346L660.165 249.548L652.434 226.763L665.375 223.74C671.993 222.196 676.338 223.74 677.575 227.286C677.971 228.303 678.01 229.391 677.687 230.425C677.364 231.459 676.692 232.397 675.75 233.129C677.337 233.135 678.876 233.583 680.116 234.401C681.356 235.218 682.226 236.357 682.584 237.632ZM658.618 228.881L660.783 235.17L668.035 233.473C671.591 232.644 673.245 231.126 672.534 229.047C671.823 226.967 669.442 226.355 665.886 227.184L658.618 228.881ZM677.281 238.411C676.492 236.14 674.049 235.617 670.184 236.523L661.912 238.462L664.154 245.032L672.441 243.093C676.307 242.187 678.054 240.694 677.281 238.411Z" fill="#CCCCCC"/>
<path d="M600.645 266.234L591.043 238.257L624.951 230.335L634.553 258.312L600.645 266.234ZM592.914 239.138L601.665 264.652L632.589 257.419L623.822 231.904L592.914 239.138Z" fill="#CCCCCC"/>
<path d="M596.017 273.811C595.012 273.48 599.882 261.526 608.773 247.85C617.664 234.174 627.003 224.172 627.868 224.683C628.734 225.193 621.065 235.896 612.406 249.419C603.748 262.942 597.068 274.169 596.017 273.811Z" fill="#00657A"/>
<path d="M641.503 262.573C640.777 263.326 628.33 255.99 612.218 248.004C596.107 240.018 582.47 234.29 582.933 233.409C583.397 232.529 597.962 236.994 614.29 245.159C630.618 253.324 642.184 261.897 641.503 262.573Z" fill="#00657A"/>
<path d="M678.88 514.199C678.88 514.377 527.121 514.53 339.985 514.53C152.849 514.53 1.04297 514.314 1.04297 514.199C1.04297 514.085 152.771 513.868 339.985 513.868C527.198 513.868 678.88 513.945 678.88 514.199Z" fill="black"/>
<path d="M427.263 545.506L318.704 516.751C318.415 516.677 318.111 516.647 317.808 516.662L234.313 521.765C219.64 492.423 201.255 455.745 192.89 438.995C191.497 436.249 189.251 433.854 186.379 432.051C183.508 430.248 180.111 429.101 176.532 428.725L86.11 418.979C85.0349 418.871 83.9444 418.998 82.9475 419.347C81.9506 419.696 81.0824 420.255 80.4296 420.968C79.7768 421.681 79.3623 422.523 79.2277 423.41C79.093 424.297 79.2429 425.197 79.6624 426.021L130.579 523.985C131.253 525.285 132.247 526.455 133.498 527.421C134.749 528.387 136.229 529.129 137.846 529.598L241.271 563.647C243.635 564.425 246.196 564.706 248.724 564.464L255.341 563.864C278.256 561.887 391.407 552.383 426.799 549.321C427.36 549.297 427.892 549.108 428.299 548.788C428.705 548.468 428.96 548.039 429.016 547.578C429.072 547.117 428.926 546.654 428.604 546.274C428.283 545.894 427.807 545.622 427.263 545.506Z" fill="#00657A"/>
<path d="M427.252 545.506C427.614 545.603 427.943 545.768 428.212 545.99C428.48 546.212 428.681 546.483 428.798 546.782C428.938 547.159 428.941 547.562 428.807 547.941C428.672 548.32 428.406 548.658 428.04 548.913C427.553 549.223 426.956 549.394 426.34 549.397L424.299 549.576L398.895 551.796L305.442 559.82L274.518 562.474L258.051 563.877L249.594 564.63C246.665 565.006 243.667 564.72 240.92 563.8L171.743 541.067L153.266 534.981L143.849 531.894L139.103 530.338C138.314 530.057 137.556 529.827 136.706 529.534C135.897 529.239 135.129 528.871 134.418 528.437C132.986 527.562 131.786 526.455 130.892 525.184C130.026 523.908 129.47 522.569 128.758 521.255L124.63 513.332C121.857 508.025 119.069 502.663 116.265 497.245C105.024 475.558 93.366 453.207 81.4448 430.269L79.8059 427.118C79.113 426.07 78.7564 424.893 78.7699 423.699C78.8589 422.482 79.4384 421.326 80.4163 420.413C81.3942 419.499 82.7141 418.882 84.1661 418.66C84.5218 418.596 84.8928 418.66 85.2639 418.57L86.3308 418.634L88.3718 418.864L92.4383 419.297L100.54 420.165L132.516 423.622L163.749 426.99L171.48 427.819C174.031 428.138 176.582 428.279 179.211 428.776C184.29 429.856 188.699 432.457 191.58 436.073C192.869 437.874 193.951 439.771 194.812 441.738C195.76 443.643 196.709 445.539 197.657 447.428L203.27 458.667L214.217 480.558C221.36 494.872 228.241 508.625 234.781 521.714L234.441 521.535L315.802 516.573L318.059 516.432C318.466 516.429 318.87 516.489 319.25 516.611L320.317 516.904L324.399 518.027L332.625 520.208L348.133 524.406L375.501 531.69L413.769 541.896L423.819 544.613C426.092 545.226 427.252 545.557 427.252 545.557C427.252 545.557 426.077 545.277 423.788 544.69L413.707 542.062L375.423 531.932L348.04 524.712L332.424 520.578L324.198 518.41L319.977 517.3C319.313 517.076 318.616 516.925 317.905 516.853L315.647 516.994L234.302 522.097H234.07L233.962 521.905C227.406 508.829 220.525 495.115 213.351 480.775L202.388 458.884C200.533 455.176 198.657 451.429 196.76 447.644C195.817 445.756 194.858 443.817 193.915 441.955C193.067 440.029 192.006 438.171 190.745 436.405C187.984 432.933 183.757 430.433 178.886 429.389C176.474 428.904 173.876 428.751 171.341 428.445L163.61 427.615L132.361 424.26L100.386 420.816L92.2682 419.948L88.2017 419.502C86.8998 419.284 85.568 419.216 84.2434 419.297C82.9708 419.497 81.8148 420.04 80.958 420.842C80.1012 421.643 79.5925 422.658 79.5121 423.724C79.5025 424.818 79.8382 425.895 80.4862 426.85L82.1715 430.001L116.976 496.99C119.791 502.399 122.574 507.761 125.326 513.077C126.717 515.731 128.078 518.371 129.454 520.999C130.15 522.275 130.753 523.678 131.557 524.827C132.391 526.022 133.518 527.061 134.866 527.876C135.535 528.283 136.255 528.63 137.015 528.909C137.757 529.177 138.561 529.419 139.365 529.687L144.112 531.256L153.513 534.356L172.067 540.442L241.213 563.239C243.855 564.132 246.743 564.41 249.563 564.043L258.036 563.29L274.503 561.912L305.427 559.361L398.91 551.541L424.329 549.436L426.37 549.283C426.961 549.282 427.535 549.125 428.009 548.836C428.361 548.595 428.62 548.275 428.754 547.915C428.889 547.555 428.893 547.17 428.767 546.808C428.619 546.357 428.264 545.973 427.777 545.736C427.437 545.57 427.252 545.519 427.252 545.506Z" fill="#00657A"/>
<path d="M287.547 527.775L328.258 541.833L378.989 537.47L336.329 522.939L287.547 527.775Z" fill="#DCF3EF"/>
<path d="M256.851 554.349L336.325 548.428L260.438 523.604L236.039 525.121L248.934 550.789L256.851 554.349Z" fill="#D9EDF1"/>
<path d="M419.397 545.469L418.856 545.545L417.232 545.711L411.047 546.234L388.071 548.084L312.307 553.914L252.748 558.354H252.5L252.408 558.163L239.218 531.614L235.6 524.19C235.198 523.339 234.889 522.688 234.673 522.238C234.56 522.013 234.461 521.783 234.379 521.549C234.379 521.549 234.518 521.766 234.765 522.199L235.786 524.126L239.574 531.487C242.821 537.866 247.46 546.987 253.026 557.958L252.686 557.78L312.23 553.225L388.071 547.587L411.001 545.979L417.186 545.571L418.809 545.482L419.397 545.469Z" fill="black"/>
<path d="M82.2891 422.525H82.9694L84.9794 422.717L92.7104 423.546L121.068 426.735C133.035 428.113 147.353 429.772 163.109 431.698L175.231 433.242L178.323 433.675C178.834 433.739 179.375 433.841 179.87 433.943C180.132 433.943 180.411 434.033 180.674 434.096C181.978 434.528 183.161 435.175 184.153 435.997C184.554 436.35 184.874 436.761 185.096 437.209L185.699 438.485C188.93 445.144 192.27 452.046 195.703 459.101C209.371 487.358 221.725 512.95 230.693 531.499C235.131 540.748 238.718 548.249 241.223 553.454C242.429 556.006 243.372 558.047 244.037 559.45C244.346 560.114 244.578 560.624 244.748 561.007C244.836 561.181 244.908 561.36 244.964 561.543C244.855 561.377 244.757 561.207 244.671 561.032L243.882 559.489L240.929 553.557C238.378 548.352 234.744 540.888 230.105 531.665L195.038 459.343C191.605 452.288 188.265 445.387 185.034 438.727L184.431 437.452C184.245 437.075 183.977 436.729 183.642 436.431C182.951 435.81 182.115 435.311 181.184 434.964C180.952 434.872 180.715 434.791 180.473 434.721L179.73 434.568C179.236 434.479 178.741 434.39 178.184 434.326L175.092 433.879L162.97 432.31L120.975 427.207L92.6486 423.801L84.9176 422.857L82.923 422.589L82.2891 422.525Z" fill="black"/>
<path d="M162.224 481.172C166.09 485.446 166.863 490.358 163.971 492.144C161.08 493.93 155.575 491.927 151.71 487.653C147.844 483.379 147.071 478.481 149.963 476.682C152.854 474.883 158.359 476.911 162.224 481.172Z" fill="white"/>
<path d="M651.4 408.314C646.22 384.075 613.735 369.468 603.004 361.405L619.131 379.202C627.385 407.289 630.512 436.236 628.408 465.085C628.191 468.236 628.609 472.484 631.33 472.93C632.313 472.998 633.29 472.746 634.052 472.229C643.576 467.19 649.761 455.644 651.137 443.754C652.513 431.864 653.75 419.528 651.4 408.314Z" fill="#13AE94"/>
<path d="M627.615 381.167C626.069 378.73 626.703 370.961 618.338 379.075L617.797 376.038L566.107 343.252L450.9 348.189C439.845 348.763 423.239 364.557 419.095 371.152C415.693 395.685 415.013 417.462 415.013 417.462C415.013 417.462 411.055 444.737 415.013 457.635C418.971 470.532 423.656 475.189 429.779 485.216C434.26 492.067 439.846 498.384 446.385 503.995L451.766 538.44L572.122 547.37L627.213 544.819C627.213 544.819 622.281 476.886 622.281 475.686C622.281 475.125 629.161 462.01 636.552 448.092C649.107 424.274 642.026 404.156 627.615 381.167Z" fill="#003D49"/>
<path d="M325.359 504.721C325.962 504.721 331.977 471.182 335.92 463.566C339.631 456.384 419.09 371.139 419.09 371.139L437.799 420.892L429.774 447.504L386.481 490.484L374.25 521.638L325.359 504.721Z" fill="#003D49"/>
<path d="M643.635 406.654C637.93 376.815 609.758 378.116 609.758 378.116L581.756 418.314V501.442L446.665 511.086L444.16 539.076C444.16 539.076 578.757 564.463 609.851 555.954C630.43 550.328 647.81 536.129 649.712 512.923C651.613 489.717 649.356 436.506 643.635 406.654Z" fill="#003D49"/>
<path d="M386.623 490.433C386.23 488.532 385.714 486.649 385.077 484.794C383.382 480.336 380.324 476.315 376.196 473.117C372.068 469.919 367.011 467.653 361.513 466.538C359.226 466.114 356.914 465.791 354.586 465.569C355.223 465.506 355.866 465.506 356.503 465.569C358.237 465.627 359.96 465.815 361.652 466.13C367.294 467.161 372.493 469.431 376.699 472.701C380.904 475.971 383.959 480.119 385.541 484.705C386.028 486.08 386.359 487.489 386.53 488.915C386.637 489.416 386.668 489.926 386.623 490.433Z" fill="black"/>
<path d="M451.281 509.939C451.474 509.896 451.67 509.866 451.869 509.849L453.585 509.645L460.203 508.918L484.586 506.367L564.989 498.304L582.863 496.544L582.507 496.862C583.543 474.256 584.053 454.329 583.868 440.054C583.868 432.922 583.682 427.194 583.574 423.252C583.574 421.313 583.466 419.795 583.435 418.736V417.563C583.435 417.295 583.435 417.167 583.435 417.154C583.451 417.29 583.451 417.427 583.435 417.563C583.435 417.856 583.435 418.239 583.527 418.723C583.527 419.795 583.682 421.275 583.79 423.252C583.991 427.182 584.208 432.91 584.331 440.054C584.61 454.329 584.239 474.282 583.234 496.875V497.156H582.894L565.02 498.929L484.54 506.8L460.141 509.11L453.492 509.696L451.761 509.837L451.281 509.939Z" fill="black"/>
<path d="M651.55 509.939C651.571 510.109 651.571 510.28 651.55 510.45C651.55 510.807 651.55 511.304 651.457 511.93C651.317 513.832 651.054 515.727 650.669 517.607C650.061 520.588 649.177 523.527 648.025 526.396C646.446 530.187 644.328 533.81 641.716 537.189C638.538 541.304 634.527 544.937 629.857 547.931C624.491 551.368 618.288 553.81 611.674 555.088C608.113 555.794 604.496 556.293 600.85 556.58C597.057 556.861 593.248 556.98 589.439 556.938C581.453 556.805 573.49 556.191 565.612 555.101L519.984 548.913L500.085 546.183L482.752 543.542C472.191 541.909 463.625 540.672 457.688 539.932L450.838 539.103L449.06 538.899C448.855 538.884 448.653 538.849 448.457 538.797H449.06L450.854 538.95C452.4 539.09 454.75 539.307 457.734 539.651C463.687 540.315 472.268 541.488 482.86 543.058L500.162 545.609L520.077 548.275L565.705 554.424C573.556 555.527 581.493 556.154 589.455 556.3C593.32 556.3 597.093 556.21 600.788 555.968C604.392 555.694 607.968 555.208 611.488 554.514C618.018 553.267 624.146 550.874 629.455 547.497C634.081 544.559 638.065 540.991 641.237 536.947C643.852 533.609 645.985 530.029 647.592 526.282C648.773 523.442 649.698 520.534 650.359 517.581C650.87 515.144 651.179 513.231 651.287 511.93L651.473 510.45C651.484 510.278 651.51 510.108 651.55 509.939Z" fill="black"/>
<path d="M447.646 511.994C447.583 511.823 447.541 511.648 447.522 511.47C447.445 511.075 447.337 510.552 447.228 509.914C446.981 508.485 446.625 506.495 446.192 503.969V504.058L435.957 494.707C433.961 492.36 432.159 489.905 430.56 487.359C428.774 484.461 427.194 481.479 425.829 478.429C422.812 471.535 420.738 464.385 419.644 457.111C418.565 449.238 418.342 441.301 418.979 433.395C419.459 426.124 420.371 419.592 421.237 414.132C422.103 408.671 422.922 404.27 423.51 401.221L424.205 397.726C424.283 397.356 424.345 397.062 424.406 396.82C424.418 396.714 424.449 396.611 424.499 396.514C424.513 396.615 424.513 396.718 424.499 396.82C424.499 397.075 424.499 397.368 424.375 397.738C424.236 398.606 424.066 399.78 423.834 401.259C423.34 404.308 422.613 408.722 421.809 414.195C421.005 419.668 420.278 426.175 419.799 433.446C419.208 441.311 419.446 449.204 420.51 457.035C421.587 464.264 423.62 471.373 426.571 478.238C427.907 481.257 429.455 484.209 431.21 487.078C432.775 489.61 434.536 492.056 436.482 494.401L446.579 503.867L447.414 509.825C447.491 510.475 447.553 510.998 447.615 511.394C447.668 511.591 447.679 511.794 447.646 511.994Z" fill="black"/>
<path d="M602.34 515.092C601.32 514.159 600.385 513.165 599.541 512.12C597.856 510.244 595.49 507.693 592.722 504.975C589.955 502.258 587.342 499.872 585.409 498.188C584.299 497.315 583.265 496.377 582.316 495.382C583.575 496.103 584.736 496.932 585.78 497.857C588.438 499.973 590.951 502.209 593.31 504.554C595.685 506.884 597.909 509.316 599.974 511.839C600.894 512.855 601.686 513.945 602.34 515.092Z" fill="black"/>
<path d="M358.44 508.816C357.296 503.368 351.281 499.12 351.281 499.12C351.281 499.12 348.405 492.486 344.107 490.738C339.809 488.991 336.376 492.486 332.634 491.542C328.892 490.598 320.868 490.356 318.286 491.542C315.703 492.729 312.549 499.35 312.549 499.35C309.946 499.436 307.399 500.003 305.096 501.008C303.144 501.84 301.455 503.037 300.164 504.504C299.043 504.143 297.816 504.073 296.646 504.3C295.475 504.528 294.416 505.044 293.608 505.779C292.04 507.292 290.866 509.055 290.16 510.959L288.119 515.475C287.726 516.164 287.546 516.922 287.593 517.682C287.751 518.307 288.161 518.87 288.756 519.278C289.352 519.686 290.098 519.915 290.871 519.927C291.657 519.93 292.435 519.797 293.155 519.535C293.874 519.274 294.519 518.89 295.046 518.409C296.098 517.552 297.027 516.597 297.814 515.564L298.324 518.524C298.324 518.524 299.175 523.206 303.767 523.487C306.936 523.691 310.369 520.655 310.369 520.655L318.394 519.94L319.538 526.561C320.066 527.837 321.077 528.94 322.421 529.707C323.766 530.474 325.373 530.865 327.006 530.822C329.882 530.822 333.593 526.804 333.593 526.804L341.061 529.164C341.061 529.164 349.658 534.139 353.678 532.481C354.802 532.011 355.699 531.24 356.222 530.294C356.745 529.348 356.862 528.284 356.554 527.276C358.27 525.671 359.627 523.826 360.559 521.828C361.641 518.996 359.646 514.263 358.44 508.816Z" fill="#FFBE9D"/>
<path d="M298.13 517.391C297.803 515.049 297.902 512.679 298.424 510.361C298.691 508.017 299.39 505.72 300.496 503.549C300.712 503.549 299.862 506.649 299.212 510.463C298.563 514.278 298.424 517.391 298.13 517.391Z" fill="#FFBE9D"/>
<path d="M310.659 511.164C311.146 512.774 311.375 514.429 311.339 516.088C311.503 517.287 311.356 518.5 310.906 519.648C310.458 520.541 309.824 520.923 309.777 520.821C309.731 520.719 310.102 520.324 310.365 519.546C310.63 518.432 310.687 517.292 310.535 516.165C310.299 514.501 310.341 512.819 310.659 511.164Z" fill="#FFBE9D"/>
<path d="M316.009 508.344C316.163 508.471 315.112 509.619 313.643 510.793C312.174 511.967 310.875 512.911 310.705 512.783C310.535 512.656 311.602 511.507 313.071 510.334C314.54 509.16 315.854 508.216 316.009 508.344Z" fill="#FFBE9D"/>
<path d="M317.086 495.613C317.259 496.807 317.322 498.01 317.272 499.211C317.272 501.443 317.38 504.505 317.596 507.886C317.813 511.267 318.137 514.328 318.369 516.548C318.589 517.738 318.682 518.942 318.648 520.146C318.221 518.991 317.941 517.802 317.813 516.599C317.426 514.392 317.024 511.33 316.792 507.924C316.56 504.518 316.591 501.443 316.699 499.211C316.677 498.004 316.806 496.798 317.086 495.613Z" fill="#FFBE9D"/>
<path d="M347.177 498.151C347.177 498.151 346.837 498.789 346.296 499.937C345.542 501.563 344.942 503.235 344.503 504.938C344.224 506.035 343.93 507.222 343.606 508.485C343.299 509.868 342.843 511.225 342.245 512.542C341.578 514.029 340.453 515.348 338.983 516.369C338.179 516.944 337.223 517.353 336.191 517.564C335.158 517.775 334.081 517.78 333.045 517.581C331.969 517.381 330.996 516.908 330.262 516.228C329.585 515.554 329.151 514.736 329.01 513.868C328.79 512.319 328.754 510.755 328.901 509.199C329.077 506.589 329.563 503.999 330.355 501.468C330.886 499.762 331.568 498.091 332.396 496.467C332.69 495.893 332.922 495.459 333.107 495.192C333.186 495.036 333.29 494.89 333.416 494.758C333.223 495.379 332.981 495.988 332.69 496.582C331.98 498.223 331.386 499.897 330.911 501.596C330.208 504.11 329.784 506.672 329.644 509.25C329.521 510.756 329.567 512.268 329.783 513.766C329.909 514.516 330.283 515.222 330.865 515.808C331.495 516.378 332.32 516.779 333.231 516.956C334.149 517.13 335.103 517.123 336.017 516.934C336.931 516.746 337.777 516.381 338.488 515.871C339.867 514.915 340.931 513.686 341.58 512.299C342.552 509.843 343.352 507.343 343.977 504.811C344.462 503.098 345.146 501.427 346.018 499.822C346.259 499.384 346.532 498.958 346.837 498.547C347.023 498.279 347.147 498.139 347.177 498.151Z" fill="#FFBE9D"/>
<path d="M350.208 501.022C349.991 502.437 349.234 503.758 348.047 504.795C346.86 505.831 345.305 506.53 343.605 506.789C344.96 506.051 346.247 505.233 347.455 504.339C348.472 503.292 349.391 502.183 350.208 501.022Z" fill="#FFBE9D"/>
<path d="M333.594 517.518C334.102 519.289 334.233 521.119 333.981 522.927C333.899 524.535 333.624 526.134 333.161 527.698V527.787C333.104 527.812 333.04 527.826 332.974 527.827C332.909 527.828 332.844 527.818 332.785 527.796C332.726 527.774 332.673 527.741 332.631 527.7C332.589 527.658 332.559 527.61 332.543 527.558C332.543 527.43 332.543 527.379 332.543 527.379C332.543 527.379 332.543 527.443 332.651 527.494C332.759 527.545 332.868 527.596 332.914 527.494L332.821 527.596C332.821 526.728 333.053 524.917 333.192 522.825C333.175 521.05 333.31 519.277 333.594 517.518Z" fill="#FFBE9D"/>
<path d="M351.801 512.236C351.205 513.048 350.499 513.801 349.698 514.482C347.926 516.182 346.372 518.029 345.059 519.993C343.754 521.954 343.013 524.136 342.895 526.372C342.895 528.094 343.25 529.14 343.111 529.165C342.569 528.303 342.298 527.343 342.322 526.372C342.276 524.031 342.975 521.722 344.348 519.674C345.71 517.66 347.395 515.806 349.358 514.163C350.069 513.437 350.89 512.79 351.801 512.236Z" fill="#FFBE9D"/>
<path d="M348.629 523.998C348.145 522.564 348.226 521.04 348.859 519.646C349.493 518.252 350.647 517.06 352.154 516.241C357.55 513.078 373.708 504.76 374.048 504.76C374.388 504.76 393.02 499.657 400.859 498.993C408.698 498.33 443.008 512.389 443.008 512.389C443.008 512.389 450.971 521.855 449.688 530.938C448.405 540.021 441.23 540.544 441.23 540.544L431.273 538.541L421.006 536.921C421.006 536.921 398.292 542.139 394.721 541.182C391.149 540.225 389.912 537.023 393.778 535.288C397.643 533.553 408.76 530.836 408.76 530.836L417.311 527.851L389.479 531.129C389.479 531.129 365.946 534.957 363.194 534.421C360.442 533.885 360.024 532.188 359.792 530.594C359.792 530.594 350.314 534.421 347.5 532.329C344.686 530.236 343.449 525.682 348.629 523.998Z" fill="#FFBE9D"/>
<path d="M408.7 518.41C408.01 518.502 407.31 518.532 406.612 518.5C405.282 518.5 403.35 518.5 400.969 518.627C398.191 518.731 395.432 519.052 392.727 519.584C391.133 519.919 389.58 520.376 388.089 520.949C386.543 521.536 384.996 522.225 383.45 522.99C381.873 523.735 380.229 524.378 378.533 524.917C376.947 525.4 375.287 525.696 373.601 525.797C370.823 525.798 368.053 526.054 365.344 526.562C363.576 527.027 362.015 527.915 360.86 529.114C360.469 529.58 360.123 530.07 359.824 530.581C359.824 530.581 359.824 530.415 359.917 530.134C360.077 529.723 360.306 529.332 360.597 528.973C361.711 527.648 363.31 526.651 365.159 526.129C367.896 525.538 370.71 525.225 373.539 525.197C376.905 524.873 380.14 523.926 383.002 522.429C384.548 521.702 386.094 520.962 387.733 520.362C389.259 519.787 390.849 519.335 392.48 519.01C395.233 518.479 398.049 518.201 400.876 518.181C403.288 518.181 405.221 518.181 406.566 518.257C407.281 518.253 407.996 518.304 408.7 518.41Z" fill="#FFBE9D"/>
<path d="M400.283 508.729C400.123 508.816 399.952 508.889 399.773 508.945C399.448 509.073 398.938 509.239 398.226 509.43C396.329 509.913 394.391 510.279 392.428 510.527C389.97 510.885 387.001 511.152 383.847 511.803C380.448 512.651 377.183 513.827 374.121 515.31C368.416 517.93 362.458 520.158 356.309 521.971C353.959 522.66 352.026 523.17 350.681 523.502C349.999 523.705 349.295 523.855 348.578 523.948C349.219 523.664 349.892 523.433 350.588 523.258L356.108 521.523C362.167 519.596 368.057 517.324 373.735 514.724C376.854 513.216 380.189 512.034 383.661 511.203C386.528 510.669 389.429 510.269 392.351 510.004C394.297 509.801 396.228 509.507 398.134 509.124C398.841 508.959 399.558 508.827 400.283 508.729Z" fill="#FFBE9D"/>
<path d="M422.877 514.201C422.672 513.702 422.522 513.19 422.429 512.67C422.059 511.476 421.346 510.375 420.35 509.457C419.354 508.54 418.105 507.835 416.708 507.401C416.093 507.264 415.493 507.085 414.914 506.865C414.914 506.788 415.687 506.712 416.893 506.954C418.46 507.302 419.872 508.015 420.96 509.008C422.04 510.007 422.743 511.244 422.985 512.568C423.147 513.109 423.11 513.677 422.877 514.201Z" fill="#FFBE9D"/>
<path d="M435.736 528.527C435.708 527.809 435.631 527.094 435.505 526.384C434.977 524.725 433.79 523.26 432.134 522.225C430.429 521.203 428.547 520.399 426.552 519.839C425.684 519.649 424.851 519.362 424.078 518.984C424.981 518.995 425.876 519.133 426.722 519.393C428.856 519.845 430.866 520.628 432.644 521.702C434.448 522.825 435.669 524.471 436.061 526.307C436.285 527.055 436.17 527.845 435.736 528.527Z" fill="#FFBE9D"/>
<path d="M359.879 530.569C359.486 530.858 359.029 531.083 358.534 531.233C357.242 531.735 355.909 532.161 354.545 532.508C353.605 532.779 352.644 532.996 351.669 533.159C350.492 533.287 349.296 533.186 348.174 532.865C347.541 532.674 346.964 532.376 346.479 531.989C345.994 531.602 345.613 531.136 345.36 530.62C344.721 529.572 344.463 528.393 344.618 527.227C344.779 526.346 345.33 525.546 346.164 524.981C346.875 524.466 347.672 524.036 348.53 523.706L348.329 524.088C347.7 522.507 347.844 520.786 348.731 519.292C349.467 518.171 350.46 517.179 351.653 516.37C352.419 515.843 353.236 515.37 354.096 514.954C354.392 514.778 354.721 514.645 355.07 514.559C355.148 514.648 353.818 515.286 351.978 516.664C350.892 517.482 349.991 518.454 349.319 519.534C348.556 520.912 348.468 522.479 349.071 523.91L349.164 524.152L348.87 524.28C347.417 524.905 345.67 525.823 345.5 527.329C345.37 528.367 345.595 529.414 346.149 530.352C346.354 530.793 346.669 531.194 347.074 531.528C347.479 531.862 347.964 532.122 348.499 532.291C349.487 532.59 350.544 532.703 351.592 532.623C352.541 532.482 353.48 532.299 354.406 532.075C356.122 531.679 357.498 531.284 358.426 531.003C358.89 530.816 359.377 530.671 359.879 530.569Z" fill="#FFBE9D"/>
<path d="M479.672 272.499C476.317 244.867 469.22 217.362 470.689 189.576L443.151 203.762C444.527 214.759 432.544 223.281 425.602 232.722C421.447 238.489 419.01 244.987 418.491 251.683C417.973 258.378 419.387 265.079 422.617 271.236C425.091 275.829 428.601 280.166 429.513 285.142C431.06 293.536 424.767 302.071 427.086 310.35C429.745 319.88 443.878 325.111 455.273 322.432C466.669 319.753 474.832 310.95 478.188 301.624C481.543 292.299 480.847 282.233 479.672 272.499Z" fill="black"/>
<path d="M444.642 199.092C446.165 192.35 449.834 186.063 455.272 180.876C460.711 175.689 467.723 171.788 475.59 169.573C483.457 167.358 491.896 166.909 500.043 168.272C508.19 169.635 515.751 172.76 521.952 177.328C526.977 181.041 531.09 185.672 536.903 188.491C543.475 191.667 544.325 190.596 551.561 192.522C558.798 194.449 572.976 210.038 573.208 216.315L578.836 243.616C579.022 250.058 569.281 254.204 561.735 252.546C554.19 250.887 548.871 245.389 544.542 240.005C540.212 234.622 536.099 228.792 529.435 225.411C518.38 219.81 504.186 222.668 491.662 225.411C479.137 228.154 464.588 230.514 454.166 224.135C445.26 218.586 442.601 208.125 444.642 199.092Z" fill="black"/>
<path d="M440.649 238.641C440.649 220.679 453.467 198.009 475.207 198.825L543.703 209.541C546.892 209.658 549.911 210.758 552.162 212.625C554.413 214.492 555.731 216.988 555.856 219.62L558.438 354.21H558.902C558.902 354.21 535.106 403.581 489.648 394.319C480.634 392.482 487.298 373.971 484.917 365.858L484.468 365.934C484.376 364.952 484.298 364.046 484.205 363.115C482.875 357.043 482.321 350.873 482.551 344.706C481.608 333.875 481.283 329.397 481.283 329.537C481.283 329.678 453.297 327.113 445.38 297.58C441.453 282.96 440.572 258.606 440.649 238.641Z" fill="#FFBE9D"/>
<path d="M452.746 262.139C452.806 263.136 453.336 264.075 454.223 264.754C455.11 265.433 456.283 265.8 457.493 265.775C458.086 265.785 458.676 265.697 459.227 265.516C459.778 265.335 460.28 265.065 460.702 264.721C461.124 264.377 461.459 263.967 461.686 263.515C461.913 263.063 462.028 262.578 462.023 262.088C461.963 261.091 461.433 260.153 460.546 259.474C459.66 258.794 458.486 258.428 457.277 258.452C456.683 258.442 456.094 258.53 455.543 258.711C454.991 258.892 454.49 259.162 454.067 259.506C453.645 259.85 453.311 260.26 453.084 260.712C452.857 261.165 452.742 261.65 452.746 262.139Z" fill="#00657A"/>
<path d="M447.963 250.978C448.566 251.45 451.921 249.128 456.916 248.898C461.91 248.669 465.713 250.531 466.193 250.008C466.456 249.766 465.791 248.898 464.136 248.018C461.886 246.888 459.265 246.362 456.637 246.513C454.068 246.664 451.622 247.481 449.648 248.847C448.102 249.842 447.654 250.774 447.963 250.978Z" fill="#00657A"/>
<path d="M497.734 260.061C497.795 261.058 498.325 261.997 499.211 262.676C500.098 263.355 501.272 263.722 502.481 263.697C503.074 263.707 503.664 263.619 504.215 263.438C504.766 263.257 505.268 262.987 505.69 262.643C506.113 262.3 506.447 261.889 506.674 261.437C506.901 260.985 507.016 260.5 507.012 260.01C506.951 259.006 506.415 258.062 505.518 257.382C504.621 256.702 503.436 256.34 502.218 256.374C501.629 256.369 501.045 256.461 500.499 256.644C499.953 256.828 499.457 257.099 499.04 257.442C498.622 257.785 498.292 258.194 498.068 258.643C497.844 259.093 497.73 259.575 497.734 260.061Z" fill="#00657A"/>
<path d="M497.064 249.319C497.667 249.778 501.022 247.469 506.016 247.227C511.011 246.984 514.814 248.872 515.294 248.337C515.541 248.094 514.907 247.227 513.237 246.346C510.984 245.222 508.366 244.696 505.738 244.841C503.145 244.97 500.668 245.769 498.656 247.125C497.218 248.171 496.755 249.102 497.064 249.319Z" fill="#00657A"/>
<path d="M481.176 280.74C481.176 280.498 478.084 280.217 472.982 279.937C471.698 279.937 470.477 279.732 470.214 279.031C470.027 277.949 470.243 276.846 470.832 275.867C471.853 273.315 472.904 270.547 474.017 267.689C478.424 256.029 481.517 246.474 480.944 246.334C480.372 246.193 476.306 255.519 471.946 267.166L468.93 275.408C468.217 276.711 468.09 278.181 468.575 279.554C468.785 279.918 469.093 280.237 469.477 280.487C469.86 280.737 470.308 280.911 470.786 280.995C471.502 281.119 472.235 281.166 472.966 281.136C478.038 281.11 481.176 280.97 481.176 280.74Z" fill="#00657A"/>
<path d="M481.281 329.614C498.314 328.977 514.8 324.455 528.904 316.551C528.904 316.551 518.204 337.919 481.838 336.963L481.281 329.614Z" fill="#FFBE9D"/>
<path d="M484.006 290.551C484.881 289.517 486.062 288.685 487.437 288.134C488.811 287.582 490.334 287.33 491.86 287.4C492.966 287.423 494.055 287.631 495.06 288.013C496.065 288.395 496.965 288.942 497.705 289.62C498.423 290.272 498.88 291.091 499.016 291.965C499.151 292.839 498.958 293.726 498.463 294.506C497.717 295.285 496.706 295.862 495.56 296.165C494.414 296.467 493.185 296.48 492.03 296.203C489.622 295.632 487.377 294.669 485.428 293.371C484.828 293.074 484.303 292.684 483.882 292.223C483.682 292.005 483.565 291.743 483.546 291.471C483.527 291.198 483.606 290.927 483.774 290.692" fill="#FFBE9D"/>
<path d="M496.032 282.857C495.213 282.857 495.522 287.322 491.131 290.716C486.739 294.109 480.926 293.918 480.926 294.543C480.926 294.824 482.271 295.347 484.714 295.283C487.889 295.164 490.911 294.125 493.249 292.349C495.491 290.641 496.839 288.28 497.006 285.766C497.114 283.891 496.419 282.806 496.032 282.857Z" fill="#00657A"/>
<path d="M494.652 233.716C495.224 234.813 500.172 234.035 506.063 234.329C511.954 234.622 516.794 235.694 517.49 234.648C517.799 234.15 516.902 233.142 514.923 232.096C512.277 230.894 509.334 230.205 506.318 230.081C503.301 229.957 500.29 230.402 497.513 231.382C495.425 232.262 494.482 233.193 494.652 233.716Z" fill="#00657A"/>
<path d="M448.93 238.972C449.873 239.865 453.244 238.73 457.372 238.475C461.501 238.22 465.103 238.73 465.784 237.709C466.108 237.212 465.49 236.306 463.882 235.502C461.753 234.538 459.324 234.12 456.905 234.302C454.487 234.484 452.189 235.257 450.306 236.523C448.915 237.556 448.513 238.539 448.93 238.972Z" fill="#00657A"/>
<path d="M475.821 191.145L478.635 187.752C499.661 188.651 520.442 191.904 540.406 197.422C548.384 199.629 556.486 202.346 562.207 207.437C570.093 214.428 572.025 224.532 573.572 233.997C579.478 270.012 584.921 307.148 573.726 342.308C570.077 338.072 563.429 336.427 557.182 335.75C550.935 335.074 544.426 335.1 538.628 333.02C535.479 331.831 532.666 330.111 530.371 327.971C528.075 325.831 526.348 323.318 525.299 320.595C523.234 315.098 523.579 309.177 526.274 303.87C529.196 297.963 534.747 292.12 532.814 286.009C530.788 279.541 521.403 276.263 518.774 269.948C514.244 259.027 532.381 248.082 527.727 237.2C525.995 233.181 521.449 230.425 516.687 228.767C511.925 227.108 506.791 226.305 501.983 224.761C493.987 222.028 487.196 217.343 482.52 211.335C477.843 205.326 475.506 198.281 475.821 191.145Z" fill="black"/>
<path d="M582.786 208.941C560.305 182.942 545.075 179.791 523.923 178.821L553.3 233.168C557.707 241.919 563.768 252.533 564.711 261.961C565.825 273.149 561.124 282.513 554.831 292.451C547.286 304.392 538.998 315.772 526.026 323.937C513.053 332.101 484.17 342.371 469.172 337.077L490.092 346.734L540.065 346.887L598.279 347.079C598.279 347.079 605.083 342.154 611.066 329.448C626.08 297.618 607.866 237.939 582.786 208.941Z" fill="#13AE94"/>
<path d="M624.255 378.284C624.255 378.284 611.731 357.081 595.388 345.421C579.044 333.76 569.01 333.875 545.693 335.508C522.376 337.141 489.752 340.177 482.021 338.557L481.294 329.627C477.459 329.308 461.734 322.993 458.673 319.179C452.828 324.116 450.277 329.385 451.607 334.985L447.788 336.172C442.154 337.872 437.476 341.225 434.647 345.59C431.818 349.955 431.036 355.026 432.449 359.837C433.903 364.429 437.413 367.249 444.463 368.256C472.45 372.249 547.27 355.563 569.798 355.499C592.326 355.435 624.255 378.284 624.255 378.284Z" fill="#13AE94"/>
<path d="M441.914 368.014C442.57 367.998 443.227 368.028 443.878 368.104C445.146 368.206 446.97 368.371 449.429 368.512C456.249 368.95 463.096 369.044 469.931 368.792C480.057 368.362 490.121 367.236 500.02 365.424C505.617 364.417 511.447 363.192 517.43 361.763L535.892 357.056C548.555 353.879 561.25 351.71 572.861 352.654C583.092 353.426 592.993 356.039 601.868 360.309C607.826 363.19 613.213 366.808 617.84 371.038C619.098 372.18 620.275 373.382 621.366 374.635C621.77 375.037 622.137 375.464 622.463 375.911C621.976 375.554 621.54 375.152 621.165 374.712C620.376 373.883 619.124 372.722 617.469 371.267C605.67 361.07 589.775 354.767 572.753 353.535C561.373 352.667 548.88 354.81 536.263 357.974C529.939 359.543 523.801 361.215 517.786 362.656C511.771 364.098 505.911 365.297 500.268 366.279C490.298 368.064 480.157 369.123 469.962 369.443C463.093 369.633 456.216 369.424 449.382 368.818C446.97 368.614 445.099 368.384 443.847 368.218C443.197 368.196 442.55 368.128 441.914 368.014Z" fill="#00657A"/>
<path d="M625.594 371.318C597.36 341.032 543.228 329.461 500.707 344.617L455.867 352.462C444.039 354.146 425.067 357.323 424.17 366.368C423.351 375.947 425.879 385.519 431.453 393.949C441.874 408.927 436.215 428.994 446.637 443.971C451.554 451.052 456.579 458.234 463.753 463.86C470.927 469.486 480.668 473.428 490.502 472.548C501.449 471.578 510.417 464.983 517.375 457.941C532.358 442.772 541.712 424.35 555.736 408.582C569.76 392.814 586.305 381.205 615.775 379.712C621.125 379.432 636.386 385.313 636.386 385.313C636.819 383.527 626.939 372.734 625.594 371.318Z" fill="#13AE94"/>
<g opacity="0.3">
<path d="M565.242 353.304C545.744 353.304 526.587 361.035 507.692 364.479C431.681 378.283 431.681 354.631 431.681 354.631C429.3 365.742 441.948 370.845 455.261 373.397C480.68 378.245 507.831 380.847 526.169 376.012C540.951 372.185 556.382 369.34 571.303 365.806C586.224 362.272 607.716 363.625 619.018 372.376C608.906 358.662 584.739 353.266 565.242 353.304Z" fill="black"/>
</g>
<g opacity="0.3">
<path d="M466.462 351.608C467.37 353.251 468.697 354.713 470.351 355.895C472.005 357.077 473.948 357.951 476.048 358.459C480.259 359.46 484.666 359.772 489.021 359.377C504.916 358.484 520.192 354.109 535.237 349.771C523.207 349.427 511.565 352.884 499.767 354.874C487.97 356.864 474.672 356.992 465.086 351.047" fill="black"/>
</g>
<path d="M629.412 381.026C629.412 381.026 629.273 380.937 629.056 380.746L628.113 379.853C627.293 379.049 626.041 377.926 624.387 376.498C619.729 372.456 614.099 369.262 607.858 367.121C603.502 365.765 598.927 364.948 594.282 364.697C588.956 364.341 583.598 364.482 578.31 365.118C567.085 366.394 555.225 369.647 542.639 372.607C530.053 375.566 518.039 378.654 506.613 379.151C496.539 379.509 486.449 378.914 476.539 377.378C468.097 376.102 461.371 374.622 456.717 373.665L451.367 372.543L449.991 372.237L449.512 372.109C449.676 372.089 449.842 372.089 450.007 372.109L451.414 372.351L456.794 373.359C461.433 374.239 468.205 375.63 476.647 376.855C486.514 378.325 496.551 378.873 506.566 378.488C517.869 377.965 529.898 375.018 542.423 371.918C554.947 368.818 566.884 365.692 578.202 364.455C583.549 363.832 588.964 363.712 594.344 364.097C600.113 364.371 605.759 365.588 610.954 367.677C616.148 369.766 620.788 372.687 624.603 376.268C626.242 377.735 627.464 378.883 628.237 379.712L629.118 380.644L629.412 381.026Z" fill="black"/>
<path d="M601.022 349.82C600.906 349.757 600.797 349.684 600.698 349.603L599.801 348.927C599.043 348.315 597.853 347.46 596.307 346.376C591.854 343.406 586.972 340.904 581.772 338.925C574.056 336.008 565.852 334.064 557.435 333.159C547.119 332.102 536.682 332.124 526.372 333.223C516.053 334.348 505.813 335.924 495.696 337.943C491.226 338.809 486.622 339.11 482.043 338.836C478.016 338.588 474.149 337.431 470.864 335.494C468.227 333.842 465.975 331.81 464.215 329.498C462.887 327.772 461.734 325.958 460.767 324.076C459.978 322.532 459.453 321.295 459.112 320.453L458.757 319.496C458.706 319.39 458.674 319.278 458.664 319.164C458.664 319.164 458.741 319.266 458.834 319.47C458.927 319.674 459.097 320.032 459.267 320.414C459.654 321.231 460.226 322.443 461.061 323.974C462.07 325.821 463.254 327.599 464.602 329.293C466.363 331.542 468.599 333.513 471.204 335.111C474.426 336.968 478.199 338.066 482.12 338.287C486.626 338.529 491.15 338.211 495.541 337.343C505.671 335.282 515.934 333.689 526.279 332.572C536.658 331.467 547.165 331.467 557.543 332.572C566.022 333.521 574.275 335.53 582.02 338.53C587.235 340.547 592.106 343.12 596.508 346.184C597.701 347.02 598.841 347.906 599.925 348.838L600.76 349.552C600.945 349.731 601.038 349.807 601.022 349.82Z" fill="black"/>
<path d="M591.911 349.196H591.524L590.38 349.043L585.974 348.443C580.574 347.757 575.135 347.302 569.677 347.078C561.578 346.75 553.459 346.963 545.401 347.716C535.544 348.808 525.774 350.388 516.147 352.449C505.88 354.49 495.892 356.276 486.63 356.162C482.258 356.184 477.9 355.756 473.658 354.886C469.958 354.023 466.536 352.493 463.638 350.408C459.481 347.41 456.103 343.747 453.712 339.641C452.802 338.154 452.082 336.594 451.562 334.984C451.637 335.075 451.693 335.174 451.733 335.278L452.15 336.171C452.537 336.962 453.124 338.097 453.99 339.513C456.462 343.533 459.866 347.113 464.009 350.051C466.863 352.057 470.214 353.525 473.828 354.35C478.018 355.191 482.318 355.598 486.63 355.562C495.784 355.562 505.695 353.865 516.008 351.811C525.672 349.734 535.484 348.158 545.386 347.091C553.483 346.372 561.639 346.205 569.769 346.594C575.244 346.856 580.696 347.38 586.097 348.163C588.014 348.456 589.483 348.699 590.488 348.89L591.617 349.107C591.803 349.145 591.911 349.183 591.911 349.196Z" fill="black"/>
<path d="M593.331 291.94C593.193 292.665 592.998 293.381 592.745 294.084C592.504 294.922 592.204 295.748 591.848 296.559C591.446 297.515 591.058 298.613 590.44 299.773C589.822 300.934 589.22 302.236 588.4 303.601C587.581 304.966 586.668 306.331 585.663 307.798C581.149 314.068 575.273 319.6 568.33 324.115C566.707 325.135 565.238 326.117 563.692 326.908C562.146 327.699 560.754 328.452 559.409 329.077C558.064 329.702 556.827 330.213 555.744 330.659C554.818 331.059 553.862 331.413 552.883 331.718C552.077 332.024 551.246 332.28 550.395 332.483C551.149 332.099 551.94 331.767 552.76 331.488C553.533 331.195 554.477 330.825 555.543 330.327C556.61 329.83 557.846 329.358 559.13 328.669C560.413 327.98 561.866 327.317 563.32 326.449C564.773 325.582 566.304 324.65 567.958 323.643C574.769 319.109 580.576 313.636 585.122 307.466C586.127 306.025 587.117 304.672 587.89 303.346C588.663 302.019 589.436 300.794 590.008 299.62C590.58 298.447 591.075 297.401 591.554 296.469C592.034 295.538 592.312 294.709 592.559 294.045C592.744 293.327 593.002 292.623 593.331 291.94Z" fill="black"/>
<path d="M590.992 367.987C590.572 367.987 590.153 367.957 589.74 367.898L588.194 367.732C587.606 367.668 586.91 367.732 586.153 367.643C581.78 367.556 577.424 368.113 573.288 369.288C570.437 370.096 567.661 371.077 564.985 372.222C561.92 373.555 558.942 375.02 556.064 376.611C549.972 379.966 543.601 384.074 536.767 388.22L501.885 409.589L491.232 415.968L488.309 417.626C487.984 417.844 487.632 418.032 487.258 418.187C487.553 417.948 487.868 417.726 488.201 417.524L491.031 415.712L501.529 409.142L536.319 387.684C543.153 383.551 549.523 379.443 555.692 376.101C558.6 374.51 561.609 373.049 564.707 371.725C567.431 370.593 570.252 369.629 573.149 368.842C577.352 367.693 581.777 367.2 586.199 367.387C586.972 367.387 587.668 367.451 588.255 367.528L589.802 367.757C590.206 367.805 590.604 367.882 590.992 367.987Z" fill="black"/>
<path d="M640.88 407.101C640.58 406.522 640.352 405.919 640.2 405.302C639.828 404.141 639.303 402.445 638.561 400.378C637.726 397.954 636.666 395.587 635.391 393.298C633.841 390.512 631.723 387.966 629.129 385.771C626.548 383.568 623.32 381.955 619.759 381.089C616.828 380.441 613.783 380.221 610.76 380.438C607.962 380.697 605.185 381.089 602.441 381.612C602.608 381.521 602.79 381.452 602.983 381.408C603.354 381.293 603.895 381.14 604.529 380.974C606.547 380.48 608.618 380.147 610.714 379.979C613.819 379.68 616.964 379.857 619.991 380.502C623.692 381.366 627.052 383.021 629.732 385.299C632.394 387.548 634.551 390.17 636.102 393.042C637.37 395.371 638.404 397.782 639.194 400.25C639.859 402.343 640.308 404.078 640.586 405.251C640.749 405.86 640.847 406.479 640.88 407.101Z" fill="black"/>
<path d="M613.455 169C643.857 167.835 667.357 146.555 665.945 121.472C664.532 96.3876 638.742 76.9979 608.34 78.1632C577.938 79.3286 554.438 100.608 555.85 125.692C557.263 150.776 583.053 170.165 613.455 169Z" fill="white"/>
<path d="M580.255 176.129C580.764 176.011 581.28 175.913 581.801 175.836C583.289 175.683 584.798 175.92 586.115 176.512C587.021 176.901 587.813 177.45 588.434 178.119C589.123 178.897 589.526 179.823 589.594 180.785C589.739 181.892 589.469 183.009 588.822 183.985C588.175 184.962 587.18 185.751 585.973 186.247C584.765 186.743 583.402 186.922 582.068 186.76C580.733 186.598 579.49 186.102 578.508 185.34C577.622 184.715 576.968 183.897 576.621 182.98C576.336 182.15 576.277 181.279 576.451 180.428C576.679 179.204 577.359 178.068 578.399 177.175C579.142 176.55 579.683 176.333 579.652 176.295C579.514 176.33 579.384 176.381 579.265 176.448C579.109 176.514 578.959 176.591 578.817 176.678C578.623 176.796 578.437 176.924 578.26 177.06C577.306 177.813 576.614 178.762 576.255 179.81C575.896 180.857 575.884 181.965 576.219 183.018C576.562 184.01 577.25 184.897 578.198 185.569C579.231 186.327 580.501 186.831 581.863 187.024C583.329 187.279 584.857 187.118 586.199 186.567C587.54 186.016 588.617 185.107 589.254 183.988C589.883 182.972 590.161 181.833 590.058 180.696C589.974 179.665 589.528 178.677 588.774 177.851C588.115 177.141 587.262 176.568 586.285 176.18C584.896 175.588 583.311 175.386 581.77 175.606C581.533 175.635 581.3 175.682 581.074 175.746C580.898 175.783 580.728 175.835 580.564 175.899C580.379 176.04 580.239 176.129 580.255 176.129Z" fill="#00657A"/>
<path d="M565.01 149.453L564.562 148.802L563.201 146.94C562.907 146.519 562.567 146.059 562.196 145.562C561.825 145.064 561.547 144.452 561.175 143.814C560.804 143.176 560.418 142.538 560 141.773C559.773 141.404 559.581 141.02 559.428 140.625C559.258 140.217 559.073 139.808 558.887 139.349C557.015 135.211 555.915 130.862 555.625 126.451C555.197 120.61 556.131 114.755 558.377 109.203L559.351 106.882C559.738 106.103 560.186 105.351 560.603 104.572C560.804 104.19 561.021 103.807 561.237 103.412C561.434 103.013 561.672 102.628 561.949 102.263L563.495 99.9798C563.758 99.5971 564.02 99.2143 564.299 98.8316L565.257 97.7345L567.19 95.5147C567.855 94.7875 568.644 94.1114 569.386 93.397L570.515 92.3381C570.7 92.1723 570.886 91.9809 571.087 91.8151L571.721 91.3303C573.379 89.9552 575.151 88.6764 577.024 87.5031C577.983 86.929 578.91 86.2273 579.931 85.7298L583.023 84.1606C583.549 83.9055 584.059 83.6121 584.569 83.3824L586.255 82.719C587.384 82.2853 588.497 81.8005 589.656 81.4433C592.041 80.6607 594.484 80.0045 596.97 79.4787L598.856 79.0832L599.815 78.8918L600.789 78.777L604.701 78.2922C606.031 78.1774 607.36 78.1519 608.706 78.0881C609.37 78.0881 610.051 77.9988 610.731 78.0881L612.757 78.1646C615.499 78.2475 618.232 78.4819 620.936 78.8663L625.003 79.67L626.023 79.8741C626.363 79.9507 626.688 80.0527 627.028 80.142L629.023 80.7161L631.033 81.2775L632.981 81.9919L634.929 82.7318L635.903 83.089C636.228 83.2293 636.522 83.3824 636.846 83.5355L640.588 85.3088L644.144 87.401C653.688 93.3017 660.636 101.611 663.936 111.066C664.307 112.227 664.662 113.401 665.018 114.549L665.667 118.083L665.822 118.963V119.843L665.93 121.604L666.039 123.364L665.946 125.112L665.853 126.86V127.727L665.714 128.582C665.513 129.73 665.327 130.865 665.142 132.001C664.594 134.224 663.865 136.415 662.962 138.558L662.312 140.14C662.096 140.676 661.771 141.161 661.508 141.671C660.936 142.679 660.441 143.699 659.823 144.669C659.204 145.638 658.509 146.57 657.859 147.514L657.364 148.215C657.179 148.445 656.978 148.662 656.792 148.879L655.664 150.155C654.171 151.873 652.544 153.51 650.793 155.053C649.912 155.806 648.969 156.482 648.072 157.197L646.696 158.243C646.247 158.587 645.722 158.881 645.242 159.187L642.335 161.024C641.346 161.598 640.279 162.083 639.243 162.606C637.26 163.625 635.194 164.529 633.058 165.31L632.285 165.617L631.481 165.872L629.935 166.344C628.853 166.65 627.817 167.02 626.75 167.275L623.534 167.951L621.987 168.283L620.441 168.487L617.349 168.882C616.838 168.956 616.321 168.999 615.803 169.01H614.256C613.236 169.01 612.215 169.125 611.164 169.138L608.18 169.036C601.095 168.748 594.145 167.336 587.708 164.877C586.997 164.609 586.286 164.366 585.605 164.098L583.688 163.18L581.833 162.312C581.523 162.159 581.214 162.032 580.936 161.879L580.116 161.394L577.024 159.557C576.05 158.944 575.215 158.281 574.365 157.694L573.159 156.827C572.771 156.561 572.404 156.276 572.061 155.972L569.973 154.441C569.401 153.931 568.845 153.472 568.427 153.025L567.237 151.749L565.69 150.027C565.335 149.644 565.134 149.453 565.134 149.453L565.659 150.053C566.015 150.461 566.541 151.035 567.206 151.8L568.365 153.076C568.829 153.535 569.386 153.995 569.911 154.505L571.767 156.176C572.106 156.487 572.473 156.777 572.865 157.044L574.071 157.924C574.906 158.511 575.741 159.2 576.715 159.799L579.807 161.662L580.627 162.147C580.92 162.312 581.23 162.44 581.523 162.593L583.379 163.473L585.312 164.405L587.414 165.196C593.878 167.692 600.867 169.13 607.994 169.431L610.994 169.546C611.999 169.546 613.035 169.469 614.086 169.431L615.633 169.354C616.151 169.353 616.668 169.314 617.179 169.24L620.348 168.844L621.895 168.64L623.441 168.308L626.688 167.632C627.755 167.377 628.806 167.02 629.888 166.714L631.512 166.229C631.775 166.14 632.053 166.076 632.316 165.974L633.105 165.668C635.275 164.881 637.377 163.973 639.398 162.95C640.418 162.427 641.485 161.942 642.49 161.368L645.428 159.519C645.923 159.2 646.433 158.919 646.974 158.574L648.35 157.516C649.247 156.801 650.221 156.112 651.102 155.36C652.869 153.803 654.511 152.154 656.019 150.423C656.39 149.976 656.777 149.542 657.163 149.147C657.349 148.93 657.55 148.713 657.735 148.483L658.23 147.769L660.225 144.911C660.843 143.929 661.354 142.896 661.926 141.888C662.189 141.365 662.529 140.867 662.745 140.344L663.395 138.737C664.311 136.578 665.044 134.37 665.59 132.128C665.791 130.993 665.992 129.832 666.178 128.684L666.332 127.816V126.936L666.425 125.188L666.518 123.415L666.41 121.642L666.286 119.869V118.963L666.116 118.083L665.466 114.523C665.111 113.35 664.755 112.176 664.384 111.002C661.121 101.436 654.148 93.0152 644.531 87.031L640.944 84.9133L637.156 83.1273C636.846 82.9742 636.537 82.8211 636.212 82.6808L635.223 82.3108L633.259 81.5709L631.296 80.8565L629.27 80.2824L627.244 79.7083L626.239 79.4276L625.204 79.2363C623.843 78.9556 622.467 78.6877 621.106 78.4326C618.377 78.0376 615.618 77.7989 612.849 77.7181L610.808 77.6416C610.128 77.6416 609.448 77.6416 608.767 77.6416C607.407 77.7181 606.062 77.7309 604.732 77.8457L600.774 78.3433L599.799 78.4708C599.475 78.4708 599.15 78.5984 598.841 78.6622L596.924 79.0704C594.419 79.5928 591.96 80.2534 589.564 81.0478C588.389 81.4561 587.26 81.9536 586.116 82.3873L584.43 83.0635C583.874 83.2931 583.363 83.5865 582.884 83.8544L579.792 85.4364C578.771 85.9977 577.828 86.6483 576.869 87.2352C574.982 88.4087 573.195 89.6874 571.52 91.0624L570.886 91.5599C570.685 91.7258 570.499 91.9171 570.314 92.0957C570.128 92.2743 569.556 92.8101 569.169 93.1546C568.427 93.8818 567.623 94.5579 566.974 95.2851L565.026 97.5304L564.067 98.6403C563.789 99.023 563.526 99.4185 563.263 99.8012L561.717 102.098C561.448 102.469 561.215 102.857 561.021 103.258L560.371 104.432C559.954 105.21 559.506 105.976 559.135 106.754C558.763 107.532 558.485 108.323 558.16 109.101C555.917 114.688 555.004 120.579 555.47 126.451C555.779 130.884 556.91 135.251 558.825 139.4L559.382 140.676C559.535 141.071 559.726 141.455 559.954 141.824L561.16 143.865C561.547 144.49 561.856 145.077 562.211 145.6L563.232 146.965L564.639 148.815C564.825 149.236 565.01 149.453 565.01 149.453Z" fill="#00657A"/>
<path d="M583.074 124.73L591.238 117.994L606.978 129.539L637.871 105.007L645.448 111.743L605.819 142.526L583.074 124.73Z" fill="#13AE94"/>
<path d="M413.129 0V260.215L378.084 291.524H175.207V0H413.129Z" fill="#00657A"/>
<path opacity="0.8" d="M413.129 0V260.215L378.084 291.524H175.207V0H413.129Z" fill="white"/>
<path opacity="0.2" d="M378.082 291.523V261.135H413.127L378.77 291.83" fill="#737373"/>
<path opacity="0.1" d="M265.239 25.2714H199.619C198.696 25.2714 197.812 24.9441 197.159 24.3613C196.507 23.7786 196.141 22.9882 196.141 22.1641C196.139 21.755 196.228 21.3497 196.402 20.9713C196.576 20.593 196.832 20.249 197.155 19.9592C197.478 19.6694 197.862 19.4395 198.285 19.2826C198.708 19.1257 199.161 19.0449 199.619 19.0449H265.239C266.162 19.048 267.047 19.3781 267.699 19.9627C268.351 20.5473 268.717 21.3389 268.717 22.1641C268.717 22.9882 268.35 23.7786 267.698 24.3613C267.046 24.9441 266.161 25.2714 265.239 25.2714Z" fill="#737373"/>
<path opacity="0.1" d="M384.259 50.4843H226.068C225.61 50.4843 225.157 50.4036 224.734 50.2467C224.311 50.0898 223.927 49.8598 223.604 49.57C223.281 49.2803 223.025 48.9363 222.851 48.5579C222.677 48.1796 222.588 47.7742 222.59 47.3652C222.59 46.541 222.956 45.7507 223.609 45.1679C224.261 44.5852 225.145 44.2578 226.068 44.2578H384.259C385.182 44.2578 386.066 44.5852 386.718 45.1679C387.371 45.7507 387.737 46.541 387.737 47.3652C387.737 48.1904 387.371 48.982 386.719 49.5666C386.067 50.1512 385.183 50.4812 384.259 50.4843Z" fill="#737373"/>
<path opacity="0.1" d="M384.259 62.7373H199.619C198.696 62.7373 197.812 62.4099 197.159 61.8272C196.507 61.2444 196.141 60.454 196.141 59.6299C196.139 59.2209 196.228 58.8155 196.402 58.4371C196.576 58.0588 196.832 57.7148 197.155 57.425C197.478 57.1352 197.862 56.9053 198.285 56.7484C198.708 56.5915 199.161 56.5107 199.619 56.5107H384.259C385.182 56.5139 386.067 56.8439 386.719 57.4285C387.371 58.0131 387.737 58.8047 387.737 59.6299C387.737 60.454 387.37 61.2444 386.718 61.8272C386.066 62.4099 385.181 62.7373 384.259 62.7373Z" fill="#737373"/>
<path opacity="0.1" d="M384.259 76.5839H199.619C199.161 76.5839 198.708 76.5032 198.285 76.3463C197.862 76.1894 197.478 75.9594 197.155 75.6696C196.832 75.3799 196.576 75.0359 196.402 74.6575C196.228 74.2792 196.139 73.8738 196.141 73.4648C196.141 72.6406 196.507 71.8503 197.159 71.2675C197.812 70.6848 198.696 70.3574 199.619 70.3574H384.259C385.181 70.3574 386.066 70.6848 386.718 71.2675C387.37 71.8503 387.737 72.6406 387.737 73.4648C387.737 74.29 387.371 75.0816 386.719 75.6662C386.067 76.2508 385.182 76.5808 384.259 76.5839Z" fill="#737373"/>
<path opacity="0.1" d="M384.259 90.4208H199.619C198.696 90.4208 197.812 90.0934 197.159 89.5106C196.507 88.9279 196.141 88.1375 196.141 87.3134C196.141 86.4893 196.507 85.6989 197.159 85.1162C197.812 84.5334 198.696 84.2061 199.619 84.2061H384.259C385.181 84.2061 386.066 84.5334 386.718 85.1162C387.37 85.6989 387.737 86.4893 387.737 87.3134C387.737 88.1375 387.37 88.9279 386.718 89.5106C386.066 90.0934 385.181 90.4208 384.259 90.4208Z" fill="#737373"/>
<path opacity="0.1" d="M384.259 104.268H199.619C198.696 104.268 197.812 103.941 197.159 103.358C196.507 102.776 196.141 101.985 196.141 101.161C196.139 100.753 196.228 100.348 196.402 99.9701C196.576 99.5924 196.832 99.2492 197.155 98.9604C197.479 98.6715 197.863 98.4427 198.286 98.2871C198.708 98.1315 199.161 98.0522 199.619 98.0537H384.259C385.181 98.0537 386.066 98.3811 386.718 98.9639C387.37 99.5466 387.737 100.337 387.737 101.161C387.737 101.985 387.37 102.776 386.718 103.358C386.066 103.941 385.181 104.268 384.259 104.268Z" fill="#737373"/>
<path opacity="0.1" d="M384.259 118.115H199.619C198.696 118.115 197.812 117.788 197.159 117.205C196.507 116.622 196.141 115.832 196.141 115.008C196.139 114.599 196.228 114.193 196.402 113.815C196.576 113.437 196.832 113.093 197.155 112.803C197.478 112.513 197.862 112.283 198.285 112.126C198.708 111.969 199.161 111.889 199.619 111.889H384.259C385.182 111.892 386.067 112.222 386.719 112.806C387.371 113.391 387.737 114.183 387.737 115.008C387.737 115.832 387.37 116.622 386.718 117.205C386.066 117.788 385.181 118.115 384.259 118.115Z" fill="#737373"/>
<path opacity="0.1" d="M384.272 125.735H199.619C197.698 125.735 196.141 127.127 196.141 128.843V128.855C196.141 130.571 197.698 131.962 199.619 131.962H384.272C386.193 131.962 387.75 130.571 387.75 128.855V128.843C387.75 127.127 386.193 125.735 384.272 125.735Z" fill="#737373"/>
<path opacity="0.1" d="M384.259 145.785H199.619C198.696 145.785 197.812 145.458 197.159 144.875C196.507 144.292 196.141 143.502 196.141 142.678C196.141 141.854 196.507 141.063 197.159 140.48C197.812 139.898 198.696 139.57 199.619 139.57H384.259C385.181 139.57 386.066 139.898 386.718 140.48C387.37 141.063 387.737 141.854 387.737 142.678C387.737 143.502 387.37 144.292 386.718 144.875C386.066 145.458 385.181 145.785 384.259 145.785Z" fill="#737373"/>
<path opacity="0.1" d="M384.259 159.644H199.619C198.696 159.644 197.812 159.317 197.159 158.734C196.507 158.152 196.141 157.361 196.141 156.537C196.139 156.129 196.228 155.724 196.402 155.346C196.576 154.968 196.832 154.625 197.155 154.336C197.479 154.047 197.863 153.819 198.286 153.663C198.708 153.507 199.161 153.428 199.619 153.43H384.259C385.181 153.43 386.066 153.757 386.718 154.34C387.37 154.923 387.737 155.713 387.737 156.537C387.737 157.361 387.37 158.152 386.718 158.734C386.066 159.317 385.181 159.644 384.259 159.644Z" fill="#737373"/>
<path opacity="0.1" d="M384.259 173.492H199.619C198.696 173.492 197.812 173.165 197.159 172.582C196.507 171.999 196.141 171.209 196.141 170.385C196.139 169.976 196.228 169.57 196.402 169.192C196.576 168.814 196.832 168.47 197.155 168.18C197.478 167.89 197.862 167.66 198.285 167.503C198.708 167.346 199.161 167.266 199.619 167.266H384.259C385.182 167.269 386.067 167.599 386.719 168.183C387.371 168.768 387.737 169.56 387.737 170.385C387.737 171.209 387.37 171.999 386.718 172.582C386.066 173.165 385.181 173.492 384.259 173.492Z" fill="#737373"/>
<path opacity="0.1" d="M384.259 187.338H199.619C199.161 187.338 198.708 187.257 198.285 187.1C197.862 186.943 197.478 186.713 197.155 186.424C196.832 186.134 196.576 185.79 196.402 185.411C196.228 185.033 196.139 184.628 196.141 184.219C196.141 183.395 196.507 182.604 197.159 182.021C197.812 181.439 198.696 181.111 199.619 181.111H384.259C385.181 181.111 386.066 181.439 386.718 182.021C387.37 182.604 387.737 183.395 387.737 184.219C387.737 185.044 387.371 185.835 386.719 186.42C386.067 187.005 385.182 187.335 384.259 187.338Z" fill="#737373"/>
<path opacity="0.1" d="M278.463 201.175H199.619C198.696 201.175 197.812 200.847 197.159 200.265C196.507 199.682 196.141 198.891 196.141 198.067C196.141 197.243 196.507 196.453 197.159 195.87C197.812 195.287 198.696 194.96 199.619 194.96H278.463C279.385 194.96 280.27 195.287 280.922 195.87C281.575 196.453 281.941 197.243 281.941 198.067C281.941 198.891 281.575 199.682 280.922 200.265C280.27 200.847 279.385 201.175 278.463 201.175Z" fill="#737373"/>
<path d="M370.06 63.7648L369.808 63.5758C369.094 63.0914 368.684 63.2568 368.354 62.3234C368.116 61.65 368.354 60.8938 368.076 60.1967C367.446 58.9968 366.726 57.8362 365.92 56.7231L362.667 51.489C361.941 50.33 360.73 49.4754 359.3 49.1122C357.87 48.7491 356.337 48.907 355.037 49.5514L325.083 64.4619C324.964 65.3599 324.131 65.9743 323.959 66.8249C323.9 67.0763 323.915 67.3371 324.003 67.5816C324.091 67.8261 324.249 68.0458 324.462 68.2191C324.125 68.2132 323.8 68.1095 323.536 67.9237C321.751 67.0376 321.275 66.3287 319.436 67.2266C318.643 67.6047 317.863 68.0064 317.082 68.4082L309.148 72.3662L284.286 84.7365L255.192 99.2454L230.951 111.309C227.645 112.951 223.638 114.392 220.689 116.484C221.509 116.862 221.655 117.441 220.927 118.008L219.605 119.083C219.605 119.378 220.081 119.378 220.385 119.26L222.025 118.634C220.886 119.926 219.514 121.04 217.965 121.93C215.365 123.279 212.571 124.305 209.66 124.979L211.062 123.407C211.168 123.277 211.3 123.112 211.207 122.958C211.115 122.805 210.943 122.793 210.784 122.781C210.083 122.71 209.382 122.781 208.867 122.32C204.344 124.683 199.609 126.928 195.007 129.22C193.71 129.869 192.753 130.951 192.347 132.229C191.94 133.506 192.117 134.876 192.838 136.037L223.043 184.479C223.4 185.054 223.881 185.56 224.457 185.968C225.034 186.377 225.694 186.68 226.402 186.86C227.11 187.04 227.85 187.093 228.581 187.017C229.311 186.941 230.018 186.737 230.66 186.417L238.608 182.411C238.608 181.573 239.349 180.639 238.794 179.871C238.715 179.778 238.665 179.668 238.648 179.552C238.648 179.399 238.807 179.281 238.952 179.198C239.767 178.736 240.7 178.467 241.663 178.418C241.994 178.418 242.43 178.548 242.377 178.832C242.377 178.572 244.083 178.028 244.361 177.945C244.493 178.583 244.004 179.269 244.837 179.399C245.67 179.529 246.94 178.217 247.482 177.981L255.417 174.023L280.543 161.534L308.103 147.817L326.419 138.696C327.08 138.353 327.86 137.951 328.495 137.668C328.725 136.584 329.315 135.588 330.188 134.809C331.51 133.993 333.6 134.891 334.697 133.734C334.909 133.509 335.041 133.237 335.226 133.001C335.596 132.617 336.045 132.3 336.549 132.068C336.868 131.843 337.255 131.708 337.66 131.678C338.056 131.678 338.48 131.973 338.427 132.328C341.151 131.76 343.611 130.118 346.018 128.901C346.89 128.464 354.547 125.25 354.521 124.742C354.415 123.171 355.486 121.824 355.433 120.205C355.433 119.898 354.759 117.842 355.063 117.689C348.186 121.351 341.045 124.683 334.036 128.157C333.798 128.287 332.899 128.559 332.714 128.795C332.714 128.795 332.648 128.901 332.621 128.96L332.423 129.35V129.445C332.138 130.249 331.803 131.038 331.418 131.808C331.418 131.914 329.923 133.568 329.804 133.178C329.223 131.276 328.482 130.981 326.855 131.76L324.528 132.942L317.135 136.616L292.234 149.022L262.889 163.626L238.436 175.795L228.188 180.887C226.142 177.579 224.084 174.275 222.012 170.975L218.044 164.606C217.643 163.723 217.049 162.92 216.299 162.243C215.73 161.865 214.765 161.96 214.262 161.617C213.032 160.778 212.146 159.254 210.982 158.273C210.189 157.612 208.986 155.627 209.316 154.528C209.713 154.67 210.11 154.823 210.506 154.93C210.299 154.202 210.345 153.436 210.639 152.732C206.671 146.766 203.021 140.527 199.226 134.431L198.975 134.041L208.232 129.433L214.989 126.066C216.379 125.532 217.708 124.879 218.957 124.116C219.816 123.454 220.689 122.627 221.602 121.918C222.214 121.502 222.88 121.153 223.585 120.879L226.085 119.792C226.213 119.723 226.358 119.682 226.508 119.674C226.657 119.688 226.804 119.72 226.944 119.768C228.267 120.016 231.547 117.83 232.737 117.24L240.433 113.412L263.656 101.845L292.591 87.454L321.552 73.0278L344.854 61.4373L356.756 55.5298L357.311 55.258L370.179 75.8989C370.975 77.2902 372.25 78.4166 373.815 79.1126C374.344 79.2662 374.94 79.597 374.873 80.0814C374.807 80.5658 374.014 80.9675 374.199 81.4638C374.384 81.96 375.402 81.771 375.64 82.2199C375.878 82.6689 375.23 83.4014 375.31 84.0158C375.583 84.7514 375.99 85.4418 376.513 86.0598L380.256 92.0737C382.345 95.4055 384.422 98.7492 386.524 102.116L363.646 113.506C363.759 113.588 363.853 113.688 363.924 113.802L364.043 114.073C364.497 114.217 364.939 114.391 365.365 114.593C365.547 114.684 365.698 114.818 365.801 114.981C365.903 115.144 365.954 115.328 365.947 115.515C365.944 115.699 365.886 115.88 365.779 116.037C365.672 116.195 365.52 116.325 365.339 116.413L363.937 117.122C363.887 117.396 363.745 117.65 363.53 117.85C363.315 118.05 363.038 118.188 362.733 118.244C362.571 118.256 362.407 118.256 362.244 118.244C362.105 118.335 361.946 118.398 361.777 118.429C361.608 118.459 361.433 118.457 361.265 118.421C360.966 118.339 360.714 118.157 360.561 117.912C360.408 117.668 360.367 117.381 360.446 117.11C360.5 116.988 360.571 116.873 360.657 116.767C360.557 116.595 360.511 116.402 360.525 116.208C360.539 116.014 360.612 115.828 360.736 115.668H360.313C360.075 115.668 359.864 115.55 359.639 115.491C358.449 116.147 357.523 117.124 356.994 118.279C356.936 118.343 356.908 118.423 356.915 118.504C356.915 118.669 357.206 118.681 357.377 118.752C357.774 118.917 357.682 119.437 357.483 119.78C357.285 120.123 357.047 120.56 357.311 120.867C357.412 120.97 357.522 121.065 357.642 121.15C358.211 121.729 357.338 123.407 358.726 122.722C358.629 122.357 358.69 121.973 358.898 121.647C359.133 121.318 359.496 121.078 359.917 120.973C360.945 120.75 361.994 120.616 363.051 120.572L390.624 106.795C391.921 106.146 392.878 105.064 393.284 103.787C393.691 102.509 393.514 101.139 392.793 99.9779L392.634 99.7298L380.176 79.7506L372.982 68.1955C372.281 67.0967 371.66 65.9506 370.893 64.8636C370.682 64.4603 370.401 64.0894 370.06 63.7648Z" fill="#00657A"/>
<path d="M242.651 129.044C241.738 128.051 242.016 128.028 241.844 126.964C241.844 126.964 241.844 126.964 241.844 126.893L241.738 126.787L241.58 126.622C240.958 126.87 240.336 127.141 239.715 127.449L227.535 133.51L232.441 141.367C231.754 140.28 234.187 140.599 234.28 140.587C234.538 140.519 234.804 140.479 235.073 140.469C235.337 140.519 235.57 140.659 235.721 140.859C236.23 141.653 236.381 142.591 236.144 143.482C235.999 144.663 236.7 145.845 235.946 147.026C236.594 147.971 242.452 157.494 242.479 157.482L254.659 151.421C255.359 151.067 257.026 150.441 257.436 149.814C257.846 149.188 257.198 148.208 257.925 147.912C258.199 147.822 258.492 147.789 258.783 147.813C259.073 147.838 259.354 147.92 259.605 148.054C261.924 146.002 263.415 143.32 263.844 140.428C264.272 137.537 263.614 134.601 261.972 132.08C258.547 126.586 250.771 123.313 243.96 125.865C243.484 126.043 244.119 127.945 242.981 128.157C243.199 127.777 243.511 127.445 243.894 127.189M251.485 146.967L245.811 149.791C245.348 149.046 244.899 148.302 244.423 147.581C245.018 148.479 243.378 148.196 243.034 147.995C242.201 147.499 241.976 146.069 241.95 145.266C241.93 143.888 241.471 142.544 240.627 141.39C239.296 139.24 237.974 137.09 236.66 134.939L242.333 132.115C247.623 129.469 252.913 130.568 255.769 135.152C258.626 139.736 256.814 144.356 251.485 146.967Z" fill="#00657A"/>
<path d="M282.919 108.922C283.208 109.483 283.292 110.112 283.157 110.718C283.091 111.049 282.496 111.899 282.575 112.112C282.787 112.585 282.999 113.057 283.197 113.53C283.233 113.607 283.282 113.679 283.342 113.742C283.444 113.804 283.564 113.836 283.686 113.837C285.789 114.002 285.696 114.191 285.829 115.775C285.948 117.133 287.257 117.913 287.997 119.095C288.992 120.647 289.424 122.436 289.234 124.217C289.045 125.998 288.243 127.682 286.938 129.039C285.634 130.396 283.891 131.359 281.95 131.796C280.008 132.232 277.963 132.121 276.095 131.477C276.046 131.52 275.993 131.559 275.937 131.595C275.659 131.72 275.34 131.754 275.037 131.69C274.35 131.516 273.728 131.179 273.236 130.715C272.745 130.251 272.403 129.678 272.247 129.055C272.227 128.961 272.227 128.865 272.247 128.771C271.873 128.357 271.541 127.915 271.255 127.448C270.576 126.472 270.129 125.381 269.943 124.243C269.757 123.105 269.836 121.946 270.175 120.837C270.514 119.728 271.106 118.693 271.913 117.798C272.72 116.902 273.725 116.165 274.865 115.633C276.519 114.79 278.415 114.404 280.314 114.522L280.208 114.381C279.071 113.034 283.17 112.49 281.319 111.58C280.539 111.202 280.671 109.489 280.473 108.792C277.468 108.853 274.528 109.579 271.916 110.907C263.453 115.125 260.53 123.478 264.974 130.603C266.843 133.668 269.935 135.992 273.636 137.113C274.506 137.451 275.438 137.643 276.386 137.68C277.471 137.597 276.942 137.68 277.405 137.101C277.867 136.522 277.59 136.274 278.291 135.659C278.991 135.045 279.811 134.679 279.957 133.734C279.957 134.159 280.486 134.466 280.486 134.915C280.486 135.045 280.486 135.175 280.486 135.293C280.514 135.448 280.592 135.591 280.711 135.707C281.16 136.25 281.914 136.888 281.927 137.514C283.862 137.228 285.719 136.618 287.402 135.718C295.826 131.524 298.815 123.183 294.345 116.035C292.031 112.384 287.68 109.158 282.919 108.922Z" fill="#00657A"/>
<path d="M309.961 92.4754L319.033 107.02L296.631 99.1037L291.5 101.668C294.965 107.221 298.641 112.715 301.894 118.374C302.119 117.76 302.648 117.641 303.283 117.559C304.473 117.417 304.434 117.949 305.082 119C305.161 119.13 305.253 119.26 305.399 119.284C305.544 119.307 305.835 119.095 306.073 119.118C306.311 119.142 306.404 119.402 306.338 119.603C306.254 119.8 306.143 119.986 306.007 120.158C305.624 120.808 306.259 121.221 306.179 121.812C306.179 122.119 305.029 123.372 305.161 123.584L306.483 125.617L312.619 122.568L310.98 119.945H310.675C308.89 120.158 309.684 118.067 309.287 117.204C308.645 115.983 307.916 114.799 307.105 113.66L303.495 107.977L321.705 114.381C321.658 113.913 321.721 113.442 321.89 112.998C322.035 112.75 323.212 112.289 323.212 112.053C323.28 112.815 323.679 113.523 324.323 114.026C325.024 114.581 325.024 114.499 324.892 115.479L325.976 115.869L331.081 113.329L316.137 89.3799L309.961 92.4754Z" fill="#00657A"/>
<path d="M340.791 102.696L337.326 97.1544L349.783 90.9515L347.138 86.639L334.694 92.8419L331.454 87.6315L339.865 83.449C340.22 83.0397 340.672 82.7049 341.187 82.4683C341.448 82.3485 341.75 82.319 342.034 82.3856L345.591 80.6252C345.591 80.6252 343.065 76.5962 342.827 76.1709C341.611 76.6671 342.827 78.0377 341.597 78.6993C341.849 78.9356 342.219 79.7745 341.597 79.8808C341.24 79.8808 340.976 79.4791 340.619 79.5146C340.262 79.55 340.248 79.7036 340.063 79.6563C340.007 79.6422 339.955 79.6167 339.912 79.5819C339.868 79.5471 339.834 79.5038 339.812 79.4555C339.641 79.0992 339.423 78.7621 339.164 78.4512C338.331 77.7305 330.727 82.2556 329.669 82.7873L322.594 86.3318L337.524 110.281L343.488 107.315L343.607 107.174C344.044 106.677 344.467 106.169 344.93 105.709C345.118 105.549 345.358 105.448 345.616 105.42C345.873 105.392 346.133 105.44 346.358 105.555C346.465 105.605 346.559 105.673 346.636 105.756L358.287 99.9546L355.509 95.5003L340.791 102.696Z" fill="#00657A"/>
</g>
<defs>
<clipPath id="clip0_4030_4154">
<rect width="683" height="565" fill="white"/>
</clipPath>
</defs>
</svg>
