<svg width="17" height="17" viewBox="0 0 17 17" fill="none" xmlns="http://www.w3.org/2000/svg">
<path d="M7.03158 2.48326L7.68408 1.81458C7.96037 1.53145 8.41267 1.52591 8.69282 1.80224L14.5482 7.51308C14.8314 7.78937 14.8369 8.24166 14.5606 8.52182L8.84676 14.3773C8.57048 14.6604 8.11818 14.6659 7.83802 14.3896L7.16935 13.7371C6.8832 13.4579 6.88351 12.9966 7.16875 12.7163L10.7126 9.2564L2.1606 9.36109C1.76484 9.36594 1.44255 9.05144 1.43771 8.65568L1.42605 7.70348C1.4212 7.30772 1.7357 6.98543 2.13146 6.98059L10.6834 6.87589L7.05598 3.50376C6.76098 3.23059 6.74938 2.76944 7.03158 2.48326Z" fill="white"/>
</svg>
