<svg width="17" height="17" viewBox="0 0 17 17" fill="none" xmlns="http://www.w3.org/2000/svg">
<path d="M9.16373 13.7121L8.51123 14.3807C8.23494 14.6639 7.78265 14.6694 7.50249 14.3931L1.64708 8.68223C1.36394 8.40595 1.3584 7.95365 1.63473 7.67349L7.34855 1.81804C7.62483 1.53491 8.07713 1.52937 8.35729 1.80569L9.02597 2.4582C9.31211 2.73742 9.31181 3.19872 9.02656 3.47899L5.48274 6.93891L14.0347 6.83422C14.4305 6.82937 14.7528 7.14387 14.7576 7.53963L14.7693 8.49183C14.7741 8.88759 14.4596 9.20988 14.0639 9.21473L5.51188 9.31942L9.13934 12.6916C9.43434 12.9647 9.44593 13.4259 9.16373 13.7121Z" fill="#005161"/>
</svg>
