<svg width="18" height="20" viewBox="0 0 18 20" fill="none" xmlns="http://www.w3.org/2000/svg">
<path d="M3 13H4.5C4.63261 13 4.75979 12.9473 4.85355 12.8536C4.94732 12.7598 5 12.6326 5 12.5C5 12.3674 4.94732 12.2402 4.85355 12.1464C4.75979 12.0527 4.63261 12 4.5 12H3C2.46981 11.9992 1.96156 11.7882 1.58666 11.4133C1.21176 11.0384 1.00079 10.5302 1 10V3C1.00079 2.46981 1.21176 1.96156 1.58666 1.58666C1.96156 1.21176 2.46981 1.00079 3 1H15C15.5302 1.00079 16.0384 1.21176 16.4133 1.58666C16.7882 1.96156 16.9992 2.46981 17 3V10C16.9992 10.5302 16.7882 11.0384 16.4133 11.4133C16.0384 11.7882 15.5302 11.9992 15 12H12.5C12.3674 12 12.2402 12.0527 12.1464 12.1464C12.0527 12.2402 12 12.3674 12 12.5C12 12.6326 12.0527 12.7598 12.1464 12.8536C12.2402 12.9473 12.3674 13 12.5 13H15C15.7954 12.9992 16.558 12.6829 17.1204 12.1204C17.6829 11.558 17.9992 10.7954 18 10V3C17.9992 2.20459 17.6829 1.44199 17.1204 0.879557C16.558 0.31712 15.7954 0.000793457 15 0H3C2.20459 0.000793457 1.44199 0.31712 0.879557 0.879557C0.31712 1.44199 0.000793457 2.20459 0 3V10C0.000793457 10.7954 0.31712 11.558 0.879557 12.1204C1.44199 12.6829 2.20459 12.9992 3 13ZM12.138 15.655L9.5 18.293V4.499C9.5 4.36639 9.44732 4.23921 9.35355 4.14545C9.25979 4.05168 9.13261 3.999 9 3.999C8.86739 3.999 8.74021 4.05168 8.64645 4.14545C8.55268 4.23921 8.5 4.36639 8.5 4.499V18.294L5.862 15.656C5.76824 15.5623 5.64108 15.5096 5.5085 15.5096C5.37592 15.5096 5.24876 15.5623 5.155 15.656C5.06126 15.7498 5.00861 15.8769 5.00861 16.0095C5.00861 16.1421 5.06126 16.2692 5.155 16.363L8.646 19.854C8.73765 19.9449 8.86091 19.9969 8.99 19.999L9 20L9.007 19.999C9.13727 19.9974 9.26177 19.945 9.354 19.853L12.844 16.363L12.852 16.355C12.8991 16.3084 12.9364 16.2528 12.9618 16.1916C12.9872 16.1304 13.0002 16.0648 13 15.9985C12.9998 15.9323 12.9865 15.8667 12.9607 15.8056C12.935 15.7446 12.8974 15.6893 12.85 15.6429C12.8027 15.5965 12.7467 15.56 12.6851 15.5354C12.6235 15.5109 12.5577 15.4988 12.4915 15.5C12.4252 15.5011 12.3599 15.5154 12.2992 15.542C12.2385 15.5686 12.1837 15.607 12.138 15.655Z" fill="#00657A"/>
</svg>
