<svg width="16" height="16" viewBox="0 0 16 16" fill="none" xmlns="http://www.w3.org/2000/svg">
<path d="M14 10.1617V14.005C13.9998 14.1805 13.93 14.3487 13.8059 14.4727C13.6818 14.5967 13.5135 14.6663 13.338 14.6663H2.66202C2.57442 14.6657 2.48779 14.6479 2.4071 14.6137C2.3264 14.5796 2.25322 14.53 2.19174 14.4675C2.13026 14.4051 2.08168 14.3312 2.04879 14.25C2.01589 14.1688 1.99932 14.0819 2.00002 13.9943V5.99967H6.00002C6.17683 5.99967 6.3464 5.92944 6.47143 5.80441C6.59645 5.67939 6.66669 5.50982 6.66669 5.33301V1.33301H13.3347C13.702 1.33301 14 1.63634 14 1.99434V4.50434L8.00069 10.5043L7.99669 13.3297L10.8274 13.3337L14 10.1617ZM14.5187 5.87167L15.4614 6.81434L10.276 11.9997L9.33202 11.9983L9.33335 11.057L14.5187 5.87167ZM2.00002 4.66634L5.33335 1.33501V4.66634H2.00002Z" fill="#737373"/>
</svg>
