<svg width="28" height="28" viewBox="0 0 28 28" fill="none" xmlns="http://www.w3.org/2000/svg">
<path d="M19.369 3.99702L24.0035 8.63141M7.49999 7.50044H2.625C2.19402 7.50044 1.7807 7.67164 1.47595 7.97638C1.1712 8.28112 1 8.69444 1 9.1254V25.375C1 25.806 1.1712 26.2193 1.47595 26.5241C1.7807 26.8288 2.19402 27 2.625 27H20.5C20.9309 27 21.3443 26.8288 21.649 26.5241C21.9538 26.2193 22.125 25.806 22.125 25.375V18.0627M26.0396 1.95931C26.3441 2.26368 26.5856 2.62505 26.7504 3.02278C26.9152 3.42051 27 3.84681 27 4.27732C27 4.70784 26.9152 5.13414 26.7504 5.53187C26.5856 5.9296 26.3441 6.29097 26.0396 6.59533L14.9181 17.7166L9.12498 18.8752L10.2836 13.0822L21.4051 1.96094C21.7092 1.65632 22.0704 1.41465 22.468 1.24976C22.8657 1.08487 23.2919 1 23.7223 1C24.1528 1 24.579 1.08487 24.9766 1.24976C25.3743 1.41465 25.7355 1.65632 26.0396 1.96094V1.95931Z" stroke="#00657A" stroke-width="2" stroke-linecap="round" stroke-linejoin="round"/>
</svg>
