<svg width="30" height="30" viewBox="0 0 30 30" fill="none" xmlns="http://www.w3.org/2000/svg">
<rect opacity="0.1" width="30" height="30" rx="15" fill="#0087A2"/>
<path fill-rule="evenodd" clip-rule="evenodd" d="M15.1456 6.16675C13.4327 6.16675 11.79 6.84718 10.5788 8.05835C9.36766 9.26952 8.68723 10.9122 8.68723 12.6251V13.2117C8.68718 13.7925 8.51523 14.3602 8.19306 14.8434L7.23723 16.2792C6.12556 17.9459 6.97389 20.2109 8.90639 20.7376C9.53584 20.9092 10.1703 21.0545 10.8097 21.1734L10.8114 21.1776C11.4514 22.8876 13.1639 24.0834 15.1456 24.0834C17.1272 24.0834 18.8397 22.8876 19.4806 21.1776L19.4822 21.1734C20.1223 21.0538 20.7572 20.9084 21.3856 20.7376C23.3181 20.2109 24.1664 17.9459 23.0547 16.2792L22.0981 14.8434C21.7759 14.3602 21.6039 13.7925 21.6039 13.2117V12.6251C21.6039 10.9122 20.9235 9.26952 19.7123 8.05835C18.5011 6.84718 16.8584 6.16675 15.1456 6.16675ZM17.9589 21.4059C16.0897 21.6289 14.2006 21.6289 12.3314 21.4059C12.9239 22.2567 13.9547 22.8334 15.1456 22.8334C16.3364 22.8334 17.3664 22.2567 17.9589 21.4059ZM9.93723 12.6251C9.93723 11.2437 10.486 9.91899 11.4627 8.94223C12.4395 7.96548 13.7642 7.41675 15.1456 7.41675C16.5269 7.41675 17.8517 7.96548 18.8284 8.94223C19.8052 9.91899 20.3539 11.2437 20.3539 12.6251V13.2117C20.3539 14.0392 20.5989 14.8484 21.0581 15.5367L22.0147 16.9726C22.163 17.1946 22.2563 17.4487 22.287 17.7138C22.3177 17.979 22.2848 18.2477 22.1912 18.4977C22.0976 18.7477 21.9459 18.9718 21.7486 19.1516C21.5512 19.3314 21.314 19.4617 21.0564 19.5317C17.1862 20.5872 13.1041 20.5872 9.23389 19.5317C8.97642 19.4617 8.7393 19.3314 8.54208 19.1517C8.34486 18.9719 8.19319 18.7479 8.09959 18.498C8.00599 18.2481 7.97313 17.9796 8.00372 17.7145C8.03432 17.4494 8.12749 17.1954 8.27556 16.9734L9.23389 15.5367C9.69268 14.8482 9.9374 14.0392 9.93723 13.2117V12.6251Z" fill="#0087A2"/>
</svg>
