<svg width="48" height="47" viewBox="0 0 48 47" fill="none" xmlns="http://www.w3.org/2000/svg">
<g filter="url(#filter0_d_1381_9585)">
<path d="M31.3608 34.6321L5.53011 16.9908C2.91249 15.2032 3.80231 11.481 7.06642 10.6057L34.5198 3.22849C35.1014 3.02073 35.7245 2.95329 36.3378 3.03176C36.9508 3.11024 37.5363 3.33237 38.0454 3.67972C38.5544 4.02707 38.9725 4.48962 39.2648 5.02898C39.5571 5.56834 39.7153 6.16896 39.7263 6.78098L38.0993 31.7981C37.9063 34.7675 33.9784 36.4197 31.3608 34.6321Z" fill="#0087A2"/>
<path d="M23.1683 38.987L7.95065 9.52229C7.60278 8.84823 7.44971 8.09213 7.5083 7.3374C7.56689 6.58267 7.83487 5.85861 8.28268 5.2451C8.73049 4.63158 9.34074 4.15242 10.0461 3.86047C10.7515 3.56851 11.5246 3.47511 12.2802 3.59057L40.4824 7.90001C41.1316 7.99924 41.7479 8.24964 42.2805 8.63062C42.8129 9.01161 43.2464 9.5123 43.5455 10.0915C43.8444 10.6707 44.0003 11.3119 44.0002 11.9624C44.0001 12.6129 43.844 13.2541 43.5449 13.8332L30.5533 38.9885C30.2044 39.6606 29.6751 40.2246 29.0236 40.6182C28.372 41.0119 27.6236 41.22 26.8604 41.2199C26.0971 41.2198 25.3487 41.0113 24.6973 40.6175C24.0459 40.2234 23.5169 39.6593 23.1683 38.987Z" fill="#13AE94"/>
<path d="M39.6553 7.77331L25.5967 5.625L8.33594 10.2652L15.2256 23.6098L31.359 34.6322C31.7149 34.8727 32.1064 35.0569 32.5195 35.1782L38.6474 23.3133L39.6553 7.77331Z" fill="#0087A2"/>
</g>
<defs>
<filter id="filter0_d_1381_9585" x="0" y="0" width="48" height="46.22" filterUnits="userSpaceOnUse" color-interpolation-filters="sRGB">
<feFlood flood-opacity="0" result="BackgroundImageFix"/>
<feColorMatrix in="SourceAlpha" type="matrix" values="0 0 0 0 0 0 0 0 0 0 0 0 0 0 0 0 0 0 127 0" result="hardAlpha"/>
<feOffset dy="1"/>
<feGaussianBlur stdDeviation="2"/>
<feComposite in2="hardAlpha" operator="out"/>
<feColorMatrix type="matrix" values="0 0 0 0 0 0 0 0 0 0 0 0 0 0 0 0 0 0 0.48 0"/>
<feBlend mode="normal" in2="BackgroundImageFix" result="effect1_dropShadow_1381_9585"/>
<feBlend mode="normal" in="SourceGraphic" in2="effect1_dropShadow_1381_9585" result="shape"/>
</filter>
</defs>
</svg>
