<svg width="6" height="26" viewBox="0 0 6 26" fill="none" xmlns="http://www.w3.org/2000/svg">
<path d="M2.77846 0C1.25031 0 0 1.29231 0 2.87179C0 4.45128 1.25031 5.74359 2.77846 5.74359C4.30662 5.74359 5.55692 4.45128 5.55692 2.87179C5.55692 1.29231 4.30662 0 2.77846 0ZM2.77846 20.1026C1.25031 20.1026 0 21.3949 0 22.9744C0 24.5538 1.25031 25.8462 2.77846 25.8462C4.30662 25.8462 5.55692 24.5538 5.55692 22.9744C5.55692 21.3949 4.30662 20.1026 2.77846 20.1026ZM2.77846 10.0513C1.25031 10.0513 0 11.3436 0 12.9231C0 14.5026 1.25031 15.7949 2.77846 15.7949C4.30662 15.7949 5.55692 14.5026 5.55692 12.9231C5.55692 11.3436 4.30662 10.0513 2.77846 10.0513Z" fill="#0087A2"/>
</svg>
