<svg width="30" height="30" viewBox="0 0 30 30" fill="none" xmlns="http://www.w3.org/2000/svg">
<circle cx="15" cy="15" r="14.2735" stroke="#00657A" stroke-width="1.45306"/>
<path d="M13.4748 9.04877C13.9379 8.58288 14.6589 8.54447 15.1736 8.94121L15.2885 9.04049L20.1565 13.9385C20.4042 14.1864 20.5437 14.5269 20.5437 14.882C20.5437 15.1854 20.4413 15.4785 20.2566 15.7125L20.1575 15.8243L15.2804 20.7315C14.7711 21.2231 13.9728 21.2167 13.4748 20.7144C13.0011 20.2379 12.9642 19.4835 13.3723 18.9544L13.4665 18.8447L17.405 14.8819L13.4665 10.9192L13.8719 10.4871L13.458 10.9105C12.9968 10.4257 12.9691 9.6772 13.3737 9.16304L13.4748 9.04877Z" fill="#00657A"/>
</svg>
