<svg width="20" height="20" viewBox="0 0 20 20" fill="none" xmlns="http://www.w3.org/2000/svg">
<path fill-rule="evenodd" clip-rule="evenodd" d="M10.001 1.04175C8.28817 1.04175 6.64547 1.72218 5.4343 2.93335C4.22313 4.14452 3.5427 5.78722 3.5427 7.50008V8.08675C3.54265 8.66749 3.3707 9.23523 3.04853 9.71841L2.0927 11.1542C0.98103 12.8209 1.82936 15.0859 3.76186 15.6126C4.39131 15.7842 5.02575 15.9295 5.6652 16.0484L5.66686 16.0526C6.30686 17.7626 8.01936 18.9584 10.001 18.9584C11.9827 18.9584 13.6952 17.7626 14.336 16.0526L14.3377 16.0484C14.9778 15.9288 15.6127 15.7834 16.241 15.6126C18.1735 15.0859 19.0219 12.8209 17.9102 11.1542L16.9535 9.71841C16.6314 9.23523 16.4594 8.66749 16.4594 8.08675V7.50008C16.4594 5.78722 15.7789 4.14452 14.5678 2.93335C13.3566 1.72218 11.7139 1.04175 10.001 1.04175ZM12.8144 16.2809C10.9452 16.5039 9.05607 16.5039 7.18686 16.2809C7.77936 17.1317 8.8102 17.7084 10.001 17.7084C11.1919 17.7084 12.2219 17.1317 12.8144 16.2809ZM4.7927 7.50008C4.7927 6.11875 5.34143 4.79399 6.31818 3.81723C7.29493 2.84048 8.61969 2.29175 10.001 2.29175C11.3824 2.29175 12.7071 2.84048 13.6839 3.81723C14.6606 4.79399 15.2094 6.11875 15.2094 7.50008V8.08675C15.2094 8.91425 15.4544 9.72341 15.9135 10.4117L16.8702 11.8476C17.0184 12.0696 17.1118 12.3237 17.1424 12.5888C17.1731 12.854 17.1403 13.1227 17.0467 13.3727C16.9531 13.6227 16.8014 13.8468 16.604 14.0266C16.4067 14.2064 16.1695 14.3367 15.9119 14.4067C12.0417 15.4622 7.95952 15.4622 4.08936 14.4067C3.83189 14.3367 3.59477 14.2064 3.39755 14.0267C3.20033 13.8469 3.04866 13.6229 2.95506 13.373C2.86146 13.1231 2.8286 12.8546 2.85919 12.5895C2.88979 12.3244 2.98296 12.0704 3.13103 11.8484L4.08936 10.4117C4.54815 9.72315 4.79287 8.91418 4.7927 8.08675V7.50008Z" fill="white"/>
</svg>
