<svg width="24" height="25" viewBox="0 0 24 25" fill="none" xmlns="http://www.w3.org/2000/svg">
<path d="M15.0556 12.9669C17.25 11.8181 18.75 9.52375 18.75 6.875C18.75 3.07813 15.6719 0 11.875 0C8.07813 0 5 3.07813 5 6.875C5 9.52375 6.5 11.8181 8.69437 12.9669C3.68125 14.4312 0 19.2556 0 25H23.75C23.75 19.2556 20.0688 14.4312 15.0556 12.9669ZM6.25 6.875C6.25 3.77313 8.77313 1.25 11.875 1.25C14.9769 1.25 17.5 3.77313 17.5 6.875C17.5 9.97687 14.9769 12.5 11.875 12.5C8.77313 12.5 6.25 9.97687 6.25 6.875ZM11.875 13.75C17.3344 13.75 21.8456 18.1331 22.435 23.75H1.315C1.90438 18.1331 6.41563 13.75 11.875 13.75Z" fill="#0F2C3D"/>
</svg>
