<svg width="28" height="28" viewBox="0 0 28 28" fill="none" xmlns="http://www.w3.org/2000/svg">
<path fill-rule="evenodd" clip-rule="evenodd" d="M28 14C28 21.7322 21.7322 28 14 28C6.2678 28 0 21.7322 0 14C0 6.2678 6.2678 0 14 0C21.7322 0 28 6.2678 28 14ZM20.741 24.647C18.7259 25.9268 16.3872 26.6044 14 26.6C11.5558 26.6044 9.16375 25.8939 7.1183 24.556C6.9503 24.346 6.77997 24.129 6.6073 23.905C6.40703 23.6427 6.29901 23.3215 6.3 22.9915C6.3 22.2376 6.8418 21.6055 7.5663 21.4998C12.3578 20.7998 15.6569 20.86 20.4547 21.5243C20.802 21.5751 21.1192 21.7496 21.348 22.0157C21.5768 22.2818 21.7018 22.6216 21.7 22.9726C21.7 23.3086 21.5845 23.6348 21.3759 23.8896C21.1608 24.1514 20.9491 24.4039 20.741 24.647ZM23.0895 22.7262C22.9775 21.4158 21.9828 20.3224 20.6465 20.1376C15.7353 19.4579 12.3025 19.3928 7.364 20.1145C6.02 20.3105 5.0295 21.4137 4.9119 22.7276C2.65463 20.3833 1.39555 17.2544 1.4 14C1.4 7.0413 7.0413 1.4 14 1.4C20.9587 1.4 26.6 7.0413 26.6 14C26.6045 17.2537 25.3459 20.3821 23.0895 22.7262Z" fill="white"/>
</svg>
