<svg width="24" height="24" viewBox="0 0 24 24" fill="none" xmlns="http://www.w3.org/2000/svg">
<rect x="0.5" y="0.5" width="23" height="23" rx="11.5" stroke="#002F39"/>
<path d="M17.2499 8.52629L16.2426 9.37449M16.2426 9.37449C15.1174 8.42692 13.5913 7.89459 12 7.89459C10.4087 7.89459 8.88258 8.42692 7.75736 9.37449C6.63214 10.3221 6 11.6072 6 12.9473C6 14.2874 6.63214 15.5725 7.75736 16.5201C8.88258 17.4677 10.4087 18 12 18C13.5913 18 15.1174 17.4677 16.2426 16.5201C17.3679 15.5725 18 14.2874 18 12.9473C18 11.6072 17.3679 10.3221 16.2426 9.37449ZM12 10.421V12.9473M9.75006 6H14.2499" stroke="#00657A" stroke-linecap="round" stroke-linejoin="round"/>
</svg>
